<?xml version="1.0" encoding="utf-8"?>
<!-- Generator: Adobe Illustrator 16.0.0, SVG Export Plug-In . SVG Version: 6.00 Build 0)  -->
<!DOCTYPE svg PUBLIC "-//W3C//DTD SVG 1.0//EN" "http://www.w3.org/TR/2001/REC-SVG-20010904/DTD/svg10.dtd">
<svg version="1.0" id="Layer_1" xmlns="http://www.w3.org/2000/svg" xmlns:xlink="http://www.w3.org/1999/xlink" x="0px" y="0px"
	 width="500px" height="400px" viewBox="-50 0 500 400" enable-background="new -50 0 500 400" xml:space="preserve">
<g>
	<g>
		<rect x="12.669" y="86.309" fill="#EBEBEB" width="68.34" height="122.768"/>
	</g>
	<g>
		<rect x="15.4" y="89.869" fill="#FAFAFA" width="62.174" height="115.55"/>
	</g>
	<g>
		<polygon fill="#F5F5F5" points="77.574,91.23 15.4,170.318 15.4,89.869 77.574,89.869 		"/>
	</g>
	<g>
		<rect x="15.4" y="123.109" fill="#EBEBEB" width="63.524" height="1.23"/>
	</g>
	<g>
		<rect x="15.4" y="150.626" fill="#EBEBEB" width="63.524" height="1.23"/>
	</g>
	<g>
		<rect x="15.4" y="178.144" fill="#EBEBEB" width="63.524" height="1.229"/>
	</g>
	<g>
		<rect x="44.917" y="123.724" fill="#EBEBEB" width="3.141" height="84.971"/>
	</g>
	<g>
		<rect x="27.372" y="89.869" fill="#EBEBEB" width="1.423" height="33.855"/>
	</g>
	<g>
		<rect x="39.646" y="89.869" fill="#EBEBEB" width="1.423" height="33.855"/>
	</g>
	<g>
		<rect x="51.919" y="89.869" fill="#EBEBEB" width="1.423" height="33.855"/>
	</g>
	<g>
		<rect x="64.193" y="89.869" fill="#EBEBEB" width="1.423" height="33.855"/>
	</g>
	<g>
		<rect x="9.779" y="84.227" fill="#F5F5F5" width="2.891" height="125.609"/>
	</g>
	<g>
		<polygon fill="#E0E0E0" points="83.899,210.184 81.009,209.076 81.009,84.227 83.899,84.227 		"/>
	</g>
	<g>
		<rect x="9.779" y="82.959" fill="#E0E0E0" width="74.121" height="3.35"/>
	</g>
	<g>
		<rect x="7.728" y="210.598" fill="#E0E0E0" width="78.128" height="3.119"/>
	</g>
	<g>
		<polygon fill="#EBEBEB" points="81.009,209.076 85.856,210.598 7.728,210.598 12.669,209.076 		"/>
	</g>
</g>
<g>
	<g>
		<g>
			<path fill="#EBEBEB" d="M374.979,162.839c0,0-4.83-0.348-4.386,10.488s1.55,16.607,1.55,16.607s-0.143,2.402-2.002,1.932
				c-1.861-0.472-5.361-2.811-7.091-1.063c-1.793,1.813-1.155,4.593,1.224,7.868c2.379,3.274,7.324,10.642,7.771,11.31
				c0.437,0.656,0.612,1.885-0.707,1.767s-10.224-3.136-11.401,1.175s6.945,12.346,7.817,13.241c0.871,0.896,0.918,1.46,0.563,2.002
				c-0.354,0.542-3.25-0.755-5.817-1.511c-2.567-0.754-5.677-1.178-6.147,1.365c-0.472,2.545,3.106,9.988,16.508,17.813l6.447,3.22
				l6.102-3.893c12.552-9.126,15.367-16.891,14.644-19.375c-0.724-2.482-3.774-1.75-6.254-0.742
				c-2.479,1.007-5.231,2.587-5.638,2.083c-0.407-0.504-0.415-1.069,0.361-2.049c0.777-0.979,8.058-9.785,6.453-13.956
				c-1.604-4.171-10.16-0.277-11.462-0.028c-1.301,0.25-1.249-0.991-0.881-1.687c0.377-0.709,4.562-8.534,6.601-12.029
				c2.039-3.497,2.396-6.327,0.431-7.952c-1.896-1.565-5.146,1.111-6.948,1.767c-1.803,0.656-2.186-1.721-2.186-1.721
				s0.521-5.854-0.119-16.68c-0.643-10.826-5.528-9.952-5.528-9.952"/>
		</g>
		<g>
			<g>
				<path fill="#E0E0E0" d="M375.359,172.544c0,0,0.013,0.076,0.025,0.227c0.012,0.16,0.029,0.381,0.051,0.665
					c0.041,0.596,0.1,1.456,0.174,2.559c0.147,2.223,0.339,5.439,0.559,9.415c0.441,7.953,0.959,18.943,1.489,31.084
					c0.53,12.145,1.019,23.136,1.416,31.09c0.202,3.969,0.364,7.184,0.479,9.419c0.055,1.104,0.098,1.964,0.127,2.562
					c0.012,0.283,0.021,0.506,0.026,0.666c0.004,0.15,0,0.229,0,0.229s-0.013-0.076-0.024-0.227
					c-0.014-0.16-0.029-0.381-0.053-0.666c-0.04-0.596-0.099-1.455-0.173-2.558c-0.147-2.223-0.339-5.438-0.558-9.415
					c-0.442-7.953-0.959-18.943-1.489-31.089c-0.53-12.14-1.021-23.131-1.416-31.085c-0.202-3.969-0.366-7.184-0.479-9.419
					c-0.055-1.104-0.098-1.965-0.127-2.562c-0.012-0.285-0.021-0.506-0.027-0.667C375.355,172.621,375.359,172.544,375.359,172.544z
					"/>
			</g>
		</g>
		<g>
			<g>
				<path fill="#E0E0E0" d="M367.814,194.271c0.013-0.012,0.153,0.108,0.4,0.334c0.248,0.226,0.598,0.563,1.021,0.982
					c0.853,0.843,1.996,2.038,3.234,3.38c1.211,1.326,2.305,2.524,3.152,3.45c0.376,0.409,0.695,0.756,0.959,1.041
					c0.229,0.245,0.348,0.388,0.336,0.399s-0.154-0.106-0.402-0.332s-0.598-0.563-1.02-0.987c-0.844-0.853-1.971-2.062-3.208-3.403
					c-1.22-1.315-2.323-2.506-3.177-3.426c-0.379-0.406-0.701-0.752-0.967-1.036C367.922,194.427,367.803,194.284,367.814,194.271z"
					/>
			</g>
		</g>
		<g>
			<g>
				
					<ellipse transform="matrix(0.711 0.7031 -0.7031 0.711 250.0353 -211.9624)" fill="#E0E0E0" cx="382.914" cy="198.239" rx="0.124" ry="7.624"/>
			</g>
		</g>
		<g>
			<g>
				<path fill="#E0E0E0" d="M377.533,222.328c-0.008-0.016,0.152-0.116,0.449-0.286c0.345-0.192,0.766-0.431,1.261-0.708
					c1.063-0.598,2.53-1.43,4.116-2.402c1.588-0.972,2.996-1.898,4.01-2.578c0.473-0.315,0.875-0.584,1.203-0.804
					c0.285-0.188,0.447-0.284,0.457-0.271c0.011,0.013-0.133,0.138-0.4,0.349c-0.27,0.212-0.664,0.511-1.16,0.868
					c-0.99,0.717-2.387,1.671-3.979,2.646c-1.592,0.978-3.076,1.787-4.163,2.347c-0.545,0.276-0.988,0.497-1.3,0.639
					C377.716,222.271,377.541,222.343,377.533,222.328z"/>
			</g>
		</g>
		<g>
			<g>
				<path fill="#E0E0E0" d="M366.854,215.79c0.008-0.015,0.166,0.062,0.445,0.209c0.278,0.147,0.678,0.371,1.168,0.649
					c0.982,0.558,2.329,1.343,3.811,2.223c1.479,0.881,2.813,1.689,3.771,2.285c0.479,0.299,0.864,0.544,1.129,0.718
					c0.264,0.174,0.405,0.276,0.396,0.292c-0.008,0.016-0.166-0.063-0.445-0.21c-0.277-0.147-0.678-0.37-1.169-0.649
					c-0.981-0.558-2.328-1.343-3.81-2.223c-1.479-0.881-2.813-1.689-3.771-2.285c-0.479-0.299-0.863-0.543-1.129-0.717
					C366.986,215.908,366.844,215.805,366.854,215.79z"/>
			</g>
		</g>
		<g>
			<g>
				<path fill="#E0E0E0" d="M364.734,232.279c0.008-0.014,0.209,0.084,0.565,0.275c0.397,0.219,0.9,0.495,1.501,0.826
					c1.262,0.708,2.995,1.702,4.903,2.813c1.907,1.109,3.629,2.127,4.868,2.873c0.584,0.358,1.074,0.658,1.461,0.896
					c0.342,0.217,0.525,0.344,0.52,0.357c-0.01,0.015-0.211-0.084-0.568-0.274c-0.396-0.219-0.899-0.496-1.5-0.827
					c-1.262-0.708-2.995-1.701-4.903-2.812s-3.628-2.128-4.867-2.874c-0.585-0.358-1.075-0.658-1.462-0.896
					C364.91,232.422,364.725,232.295,364.734,232.279z"/>
			</g>
		</g>
		<g>
			<g>
				<path fill="#E0E0E0" d="M378.275,240.035c-0.008-0.016,0.192-0.148,0.562-0.376c0.41-0.249,0.937-0.569,1.567-0.953
					c1.322-0.808,3.146-1.927,5.123-3.216c1.98-1.288,3.744-2.502,5.015-3.387c0.606-0.422,1.112-0.772,1.507-1.047
					c0.357-0.246,0.561-0.375,0.57-0.361c0.009,0.015-0.174,0.17-0.514,0.438s-0.838,0.65-1.461,1.111
					c-1.246,0.923-2.998,2.159-4.981,3.45c-1.981,1.293-3.824,2.391-5.171,3.158c-0.674,0.383-1.223,0.688-1.607,0.889
					C378.501,239.945,378.285,240.05,378.275,240.035z"/>
			</g>
		</g>
	</g>
	<g>
		<g>
			<g>
				<polygon fill="#E0E0E0" points="387.966,251.161 370.13,251.161 375.951,295.229 382.145,295.229 				"/>
			</g>
		</g>
		<g>
			<g>
				<g>
					<path fill="#F5F5F5" d="M371.057,256.578c-0.008,0.005,0.02,0.063,0.094,0.156c0.076,0.095,0.217,0.216,0.432,0.309
						c0.423,0.186,1.166,0.199,1.884-0.23c0.72-0.397,1.349-1.178,2.313-1.522c0.957-0.365,2.144-0.3,3.279,0.065
						c1.149,0.355,2.148,0.938,3.055,1.479c0.906,0.54,1.738,1.021,2.482,1.333c0.74,0.323,1.387,0.472,1.832,0.529
						c0.225,0.028,0.398,0.038,0.518,0.034c0.119,0,0.182-0.004,0.183-0.015c0.011-0.059-1.01-0.05-2.446-0.737
						c-0.721-0.33-1.529-0.821-2.43-1.375c-0.896-0.553-1.919-1.16-3.105-1.527c-1.174-0.377-2.436-0.445-3.461-0.038
						c-0.515,0.196-0.944,0.503-1.305,0.808c-0.363,0.301-0.689,0.584-1.021,0.791c-0.651,0.422-1.338,0.438-1.736,0.301
						C371.21,256.794,371.078,256.555,371.057,256.578z"/>
				</g>
			</g>
		</g>
		<g>
			<g>
				<g>
					<path fill="#F5F5F5" d="M371.706,264.693c0.022,0.016,0.142-0.182,0.421-0.473c0.283-0.281,0.749-0.652,1.424-0.902
						c0.67-0.258,1.529-0.409,2.48-0.375c0.955,0.033,1.996,0.244,3.104,0.425c1.105,0.185,2.2,0.269,3.18,0.131
						c0.977-0.125,1.826-0.407,2.5-0.714c0.674-0.309,1.174-0.646,1.502-0.895c0.33-0.25,0.486-0.418,0.478-0.429
						c-0.033-0.049-0.724,0.568-2.062,1.134c-0.67,0.276-1.502,0.529-2.451,0.637c-0.949,0.117-2,0.031-3.1-0.152
						c-1.099-0.18-2.156-0.385-3.143-0.403c-0.987-0.022-1.877,0.157-2.564,0.45c-0.695,0.286-1.166,0.702-1.433,1.02
						c-0.128,0.164-0.222,0.297-0.271,0.396C371.721,264.637,371.697,264.689,371.706,264.693z"/>
				</g>
			</g>
		</g>
		<g>
			<g>
				<g>
					<path fill="#F5F5F5" d="M385.945,269.039c0.007-0.014-0.158-0.124-0.491-0.255c-0.332-0.132-0.839-0.267-1.479-0.317
						c-0.639-0.051-1.404-0.009-2.233,0.129c-0.832,0.135-1.724,0.363-2.66,0.563c-0.937,0.197-1.839,0.33-2.656,0.3
						c-0.817-0.028-1.544-0.207-2.108-0.456c-1.146-0.504-1.557-1.236-1.6-1.189c-0.011,0.006,0.07,0.189,0.303,0.465
						c0.229,0.274,0.631,0.625,1.211,0.912c0.578,0.285,1.332,0.492,2.184,0.537c0.854,0.047,1.781-0.084,2.729-0.283
						c0.946-0.201,1.832-0.438,2.646-0.584c0.813-0.148,1.556-0.209,2.177-0.187C385.216,268.714,385.928,269.093,385.945,269.039z"
						/>
				</g>
			</g>
		</g>
		<g>
			<g>
				<g>
					<path fill="#F5F5F5" d="M373.282,275.15c0.009,0.048,0.637-0.396,1.731-0.174c0.536,0.097,1.137,0.367,1.813,0.674
						c0.672,0.313,1.482,0.582,2.351,0.648c1.753,0.168,3.313-0.396,4.269-0.988c0.488-0.291,0.83-0.604,1.062-0.816
						c0.218-0.23,0.329-0.363,0.313-0.377c-0.038-0.043-0.508,0.484-1.479,1.016c-0.955,0.528-2.459,1.039-4.138,0.877
						c-1.688-0.096-2.983-1.104-4.155-1.236c-0.57-0.086-1.048-0.004-1.345,0.117C373.4,275.008,373.273,275.141,373.282,275.15z"/>
				</g>
			</g>
		</g>
		<g>
			<g>
				<g>
					<path fill="#F5F5F5" d="M374.275,283.609c0,0.033,0.599,0.029,1.486-0.297c0.896-0.299,2.006-0.986,3.303-1.502
						c0.649-0.246,1.303-0.399,1.896-0.396c0.595,0.003,1.123,0.148,1.524,0.348c0.818,0.408,1.057,0.988,1.102,0.951
						c0.014-0.005-0.023-0.15-0.169-0.376c-0.144-0.224-0.417-0.517-0.836-0.756c-0.417-0.238-0.979-0.416-1.616-0.435
						c-0.641-0.02-1.33,0.137-2.003,0.393c-1.343,0.536-2.418,1.243-3.274,1.583C374.842,283.486,374.27,283.563,374.275,283.609z"
						/>
				</g>
			</g>
		</g>
		<g>
			<g>
				<g>
					<path fill="#F5F5F5" d="M375.15,287.544c-0.01,0.036,0.416,0.19,1.129,0.367c0.711,0.177,1.709,0.364,2.822,0.476
						c1.115,0.108,2.131,0.118,2.861,0.084c0.732-0.035,1.182-0.104,1.18-0.141c-0.004-0.088-1.808-0.012-4.013-0.232
						C376.926,287.886,375.172,287.459,375.15,287.544z"/>
				</g>
			</g>
		</g>
	</g>
</g>
<g>
	<g>
		<rect x="322.771" y="91.358" fill="#E0E0E0" width="55.07" height="36.208"/>
	</g>
	<g>
		<rect x="324.688" y="92.839" fill="#FAFAFA" width="51.211" height="33.108"/>
	</g>
	<g>
		<rect x="341.939" y="104.907" fill="#E0E0E0" width="16.707" height="9.11"/>
	</g>
</g>
<g>
	<g>
		<path fill="#263238" d="M393.318,295.813c0,0.082-88.09,0.147-196.729,0.147c-108.676,0-196.747-0.065-196.747-0.147
			s88.07-0.148,196.747-0.148C305.229,295.663,393.318,295.729,393.318,295.813z"/>
	</g>
</g>
<g>
	<g>
		<path fill="#EBEBEB" d="M256.723,186.628H148.059V65.038h117.933v112.32C265.991,182.478,261.841,186.628,256.723,186.628z"/>
	</g>
	<g>
		<g>
			<g>
				<path fill="#455A64" d="M256.253,101.226c0,0.247-21.315,0.447-47.604,0.447c-26.296,0-47.606-0.2-47.606-0.447
					s21.311-0.446,47.606-0.446C234.938,100.779,256.253,100.979,256.253,101.226z"/>
			</g>
		</g>
		<g>
			<g>
				<ellipse fill="#455A64" cx="185.693" cy="109.462" rx="23.52" ry="0.446"/>
			</g>
		</g>
		<g>
			<g>
				<ellipse fill="#455A64" cx="221.799" cy="108.699" rx="6.23" ry="0.447"/>
			</g>
		</g>
		<g>
			<g>
				<ellipse fill="#455A64" cx="246.463" cy="108.191" rx="12.333" ry="0.446"/>
			</g>
		</g>
		<g>
			<g>
				<ellipse fill="#455A64" cx="183.163" cy="117.345" rx="22.121" ry="0.446"/>
			</g>
		</g>
		<g>
			<g>
				<ellipse fill="#455A64" cx="234.641" cy="117.117" rx="24.155" ry="0.447"/>
			</g>
		</g>
		<g>
			<g>
				<ellipse fill="#455A64" cx="248.041" cy="125.049" rx="10.755" ry="0.446"/>
			</g>
		</g>
	</g>
	<g>
		<g>
			<path fill="#E8505B" d="M214.297,92.396c0,0.247-11.67,0.447-26.061,0.447c-14.396,0-26.063-0.2-26.063-0.447
				c0-0.246,11.667-0.446,26.063-0.446C202.627,91.95,214.297,92.15,214.297,92.396z"/>
		</g>
	</g>
</g>
<g>
	<g>
		<g>
			<g>
				<g>
					<g>
						<g>
							<path fill="#263238" d="M286.8,295.146H58.469c-4.598,0-8.325-3.729-8.325-8.326V141.468c0-4.598,3.727-8.325,8.325-8.325
								H286.8c4.599,0,8.325,3.727,8.325,8.325v145.354C295.125,291.419,291.396,295.146,286.8,295.146z"/>
						</g>
					</g>
				</g>
				<g>
					<g>
						<g>
							<path fill="#263238" d="M295.488,297.34H50.413c-5.617,0-10.171-4.555-10.171-10.172v-4.004H305.66v4.004
								C305.66,292.785,301.105,297.34,295.488,297.34z"/>
						</g>
					</g>
				</g>
				<g>
					<g>
						<g>
							<rect x="57.063" y="139.579" fill="#455A64" width="231.144" height="136.81"/>
						</g>
					</g>
				</g>
				<g>
					<g>
						<g>
							<g>
								<path fill="#455A64" d="M148.827,283.164c-0.005-0.003,0.081-0.005,0.255-0.008c0.188-0.002,0.446-0.006,0.776-0.008
									c0.705-0.004,1.719-0.01,3.019-0.018c2.653-0.012,6.472-0.027,11.2-0.046c9.532-0.021,22.729-0.049,37.446-0.08l0.276-0.001
									l-0.14,0.239c-0.473,0.808-0.979,1.674-1.486,2.547c-0.534,0.914-1.064,1.821-1.572,2.69l-0.046,0.08h-0.091
									c-20.367-0.039-37.761-0.071-46.346-0.088h-0.04l-0.021-0.033c-1.056-1.717-1.869-3.039-2.427-3.946
									c-0.264-0.433-0.466-0.765-0.61-1C148.888,283.271,148.827,283.164,148.827,283.164s0.083,0.12,0.229,0.347
									c0.153,0.237,0.369,0.569,0.648,1.003c0.569,0.885,1.398,2.176,2.476,3.853l-0.061-0.033
									c8.585-0.017,25.979-0.05,46.346-0.088l-0.137,0.079c0.508-0.87,1.038-1.778,1.571-2.693
									c0.51-0.871,1.016-1.738,1.488-2.546l0.137,0.238c-14.66-0.031-27.801-0.06-37.294-0.08
									c-4.751-0.021-8.588-0.034-11.253-0.046c-1.32-0.008-2.35-0.014-3.065-0.018c-0.342-0.002-0.608-0.006-0.803-0.008
									C148.927,283.169,148.827,283.164,148.827,283.164z"/>
							</g>
						</g>
					</g>
				</g>
			</g>
		</g>
	</g>
	<g>
		<g>
			<line fill="none" x1="50.144" y1="283.164" x2="295.125" y2="283.164"/>
		</g>
		<g>
			<g>
				<path fill="#455A64" d="M295.125,283.164c0,0.082-54.846,0.148-122.484,0.148c-67.663,0-122.497-0.066-122.497-0.148
					s54.833-0.148,122.497-0.148C240.279,283.016,295.125,283.082,295.125,283.164z"/>
			</g>
		</g>
	</g>
</g>
<g>
	<g>
		<path fill="#263238" d="M232.604,112.257L232.604,112.257c3.779,0,6.844,3.064,6.844,6.843v14.043h-20.463v-12.955
			c0-4.38,3.551-7.931,7.931-7.931H232.604z"/>
	</g>
	<g>
		<g>
			<path fill="#263238" d="M232.604,112.257c0,0.082-19.308,0.132-43.119,0.111c-23.819-0.021-43.123-0.104-43.123-0.187
				s19.304-0.132,43.123-0.111C213.296,112.091,232.604,112.175,232.604,112.257z"/>
		</g>
	</g>
	<g>
		<path fill="#FAFAFA" d="M232.424,112.24l-8.533-0.059l-12.396,0.076h-91.063c-7.732,0-14.001,6.269-14.001,14.001v147.873v2.586
			h117.933V119.933C224.708,112.257,232.424,112.24,232.424,112.24z"/>
	</g>
	<g>
		<path fill="#263238" d="M232.424,112.24l-71.109,0.155l-35.555,0.027l-4.444,0.003c-0.745-0.015-1.474,0.029-2.205,0.068
			c-0.723,0.102-1.454,0.182-2.156,0.393c-2.847,0.706-5.4,2.413-7.257,4.667c-0.926,1.135-1.645,2.428-2.171,3.79
			c-0.115,0.347-0.274,0.68-0.354,1.037l-0.272,1.063c-0.111,0.722-0.249,1.442-0.255,2.175c-0.063,2.944-0.014,5.921-0.026,8.879
			l0.096,142.22l-0.285-0.283l117.932,0.076l-0.207,0.207l0.058-84.584l0.067-42.291l0.042-21.145l0.01-5.286l0.006-2.643
			c0.001-0.441-0.014-0.881,0.056-1.32c0.055-0.438,0.071-0.883,0.207-1.306c0.391-1.713,1.371-3.328,2.855-4.306
			c0.721-0.506,1.527-0.892,2.371-1.146C230.669,112.434,231.542,112.267,232.424,112.24z M232.424,112.24
			c-0.881,0.031-1.754,0.201-2.594,0.461c-0.844,0.256-1.646,0.645-2.363,1.153c-1.477,0.981-2.445,2.591-2.826,4.298
			c-0.134,0.422-0.148,0.864-0.201,1.3c-0.067,0.435-0.051,0.877-0.051,1.317l0.006,2.643l0.01,5.287l0.041,21.146l0.068,42.292
			l0.057,84.58v0.208h-0.207l-117.933,0.076h-0.284v-0.284l0.095-142.22c0.017-2.966-0.029-5.918,0.039-8.896
			c0.007-0.752,0.148-1.492,0.265-2.232l0.281-1.09c0.083-0.367,0.245-0.708,0.364-1.064c0.542-1.396,1.282-2.722,2.233-3.885
			c1.906-2.309,4.527-4.055,7.446-4.774c0.72-0.215,1.469-0.297,2.21-0.4c0.75-0.04,1.5-0.082,2.237-0.066l4.444,0.003l35.554,0.027
			L232.424,112.24z"/>
	</g>
	<g>
		<path fill="#E8505B" d="M124.194,139.328h20.58l0.032,6.893h-0.984c-0.323-2.466-1.246-4.134-2.771-5.005
			c-0.857-0.48-2.136-0.742-3.839-0.787v18.007c0,1.258,0.22,2.093,0.659,2.505s1.354,0.618,2.746,0.618v0.868h-12.185v-0.868
			c1.335,0,2.223-0.208,2.662-0.626c0.439-0.418,0.659-1.25,0.659-2.498v-18.007c-1.668,0.045-2.948,0.307-3.838,0.787
			c-1.636,0.893-2.56,2.561-2.771,5.005h-0.985L124.194,139.328z"/>
	</g>
	<g>
		<g>
			<path fill="#E8505B" d="M208.18,140.882c0,0.247-11.352,0.447-25.353,0.447c-14.006,0-25.355-0.2-25.355-0.447
				c0-0.246,11.35-0.446,25.355-0.446C196.828,140.436,208.18,140.636,208.18,140.882z"/>
		</g>
	</g>
	<g>
		<g>
			<ellipse fill="#455A64" cx="168.292" cy="148.983" rx="9.803" ry="0.446"/>
		</g>
	</g>
	<g>
		<g>
			<ellipse fill="#455A64" cx="134.766" cy="173.697" rx="18.617" ry="0.446"/>
		</g>
	</g>
	<g>
		<g>
			<ellipse fill="#E8505B" cx="176.93" cy="173.697" rx="18.617" ry="0.446"/>
		</g>
	</g>
	<g>
		<g>
			<ellipse fill="#455A64" cx="134.766" cy="180.297" rx="18.617" ry="0.446"/>
		</g>
	</g>
	<g>
		<g>
			<ellipse fill="#E8505B" cx="134.766" cy="186.897" rx="18.617" ry="0.446"/>
		</g>
	</g>
	<g>
		<g>
			<ellipse fill="#455A64" cx="168.292" cy="162.427" rx="9.803" ry="0.446"/>
		</g>
	</g>
	<g>
		<g>
			<ellipse fill="#455A64" cx="205.563" cy="173.697" rx="6.535" ry="0.446"/>
		</g>
	</g>
	<g>
		<g>
			<ellipse fill="#455A64" cx="198.774" cy="148.983" rx="16.82" ry="0.446"/>
		</g>
	</g>
	<g>
		<g>
			<path fill="#455A64" d="M214.076,155.419c0,0.247-12.444,0.447-27.792,0.447c-15.354,0-27.795-0.2-27.795-0.447
				c0-0.246,12.441-0.446,27.795-0.446C201.632,154.973,214.076,155.173,214.076,155.419z"/>
		</g>
	</g>
	<g>
		<g>
			<path fill="#455A64" d="M212.098,180.297c0,0.247-12.041,0.446-26.891,0.446c-14.855,0-26.895-0.199-26.895-0.446
				c0-0.246,12.039-0.446,26.895-0.446C200.057,179.851,212.098,180.051,212.098,180.297z"/>
		</g>
	</g>
	<g>
		<g>
			<ellipse fill="#E8505B" cx="186.863" cy="199.404" rx="25.235" ry="0.446"/>
		</g>
	</g>
	<g>
		<g>
			<ellipse fill="#455A64" cx="186.863" cy="205.827" rx="25.235" ry="0.446"/>
		</g>
	</g>
	<g>
		<g>
			<ellipse fill="#455A64" cx="186.863" cy="212.251" rx="25.235" ry="0.446"/>
		</g>
	</g>
	<g>
		<g>
			<ellipse fill="#455A64" cx="186.863" cy="218.674" rx="25.235" ry="0.447"/>
		</g>
	</g>
	<g>
		<g>
			<path fill="#455A64" d="M190.683,225.098c0,0.123-1.626,0.234-4.255,0.315c-2.629,0.081-6.261,0.131-10.271,0.131
				c-4.013,0-7.645-0.05-10.273-0.131c-2.628-0.081-4.255-0.192-4.255-0.315s1.627-0.233,4.255-0.314
				c2.629-0.081,6.261-0.131,10.273-0.131c4.011,0,7.643,0.05,10.271,0.131C189.056,224.863,190.683,224.975,190.683,225.098z"/>
		</g>
	</g>
	<g>
		<g>
			<ellipse fill="#455A64" cx="181.218" cy="187.242" rx="21.735" ry="0.446"/>
		</g>
	</g>
	<g>
		<g>
			<g>
				<g>
					<polygon fill="#E0E0E0" points="152.502,200.129 155.181,249.712 106.7,255.783 106.663,199.709 					"/>
				</g>
			</g>
		</g>
		<g>
			<g>
				<g>
					
						<rect x="96.154" y="190.296" transform="matrix(-0.0064 1 -1 -0.0064 346.4277 102.1699)" fill="#F5F5F5" width="52.601" height="65.793"/>
				</g>
			</g>
		</g>
		<g>
			
				<rect x="91.815" y="200.21" transform="matrix(1 0.0064 -0.0064 1 1.4314 -0.779)" fill="#E8505B" width="61.171" height="45.978"/>
		</g>
		<g opacity="0.2">
			<polygon points="91.679,245.991 113.227,217.552 126.347,235.518 135.384,226.016 152.848,246.385 			"/>
		</g>
		<g opacity="0.2">
			<g>
				<g>
					<circle cx="127.285" cy="214.141" r="4.816"/>
				</g>
			</g>
		</g>
	</g>
	<g>
		<g>
			<circle fill="#263238" cx="160.5" cy="262.122" r="1.017"/>
		</g>
		<g>
			<circle fill="#263238" cx="166.537" cy="262.122" r="1.017"/>
		</g>
		<g>
			<circle fill="#263238" cx="172.574" cy="262.122" r="1.017"/>
		</g>
	</g>
	<g>
		<g>
			<ellipse fill="#E8505B" cx="177.213" cy="238.483" rx="18.617" ry="0.446"/>
		</g>
	</g>
	<g>
		<g>
			<path fill="#455A64" d="M212.381,245.083c0,0.246-12.041,0.446-26.891,0.446c-14.855,0-26.894-0.2-26.894-0.446
				s12.038-0.447,26.894-0.447C200.34,244.637,212.381,244.837,212.381,245.083z"/>
		</g>
	</g>
</g>
<g>
	<g>
		<g>
			<g>
				<g>
					
						<rect x="334.571" y="252.213" transform="matrix(-0.0064 1 -1 -0.0064 624.6725 -76.6422)" fill="#F5F5F5" width="31.685" height="39.632"/>
				</g>
			</g>
		</g>
		
			<rect x="331.956" y="258.21" transform="matrix(1 0.0064 -0.0064 1 1.7522 -2.2418)" fill="#E8505B" width="36.845" height="27.694"/>
		<polygon opacity="0.2" enable-background="new    " points="331.885,285.775 344.864,268.645 352.768,279.466 358.211,273.743 
			368.729,286.014 		"/>
		<g opacity="0.2">
			<g>
				<circle cx="353.333" cy="266.59" r="2.901"/>
			</g>
		</g>
	</g>
	<g>
		<g>
			<g>
				<g>
					
						<rect x="328.77" y="248.913" transform="matrix(-0.0064 1 -1 -0.0064 615.5446 -74.1539)" fill="#F5F5F5" width="31.684" height="39.632"/>
				</g>
			</g>
		</g>
		
			<rect x="326.145" y="254.9" transform="matrix(1 0.0064 -0.0064 1 1.7237 -2.1954)" fill="#E8505B" width="36.845" height="27.695"/>
		<polygon opacity="0.2" enable-background="new    " points="326.073,282.467 339.053,265.336 346.955,276.157 352.398,270.436 
			362.918,282.704 		"/>
		<g opacity="0.2">
			<g>
				<circle cx="347.521" cy="263.281" r="2.901"/>
			</g>
		</g>
	</g>
	<g>
		<g>
			<g>
				<g>
					
						<rect x="323.585" y="246.172" transform="matrix(-0.0064 1 -1 -0.0064 607.5842 -71.7267)" fill="#F5F5F5" width="31.683" height="39.631"/>
				</g>
			</g>
		</g>
		
			<rect x="320.977" y="252.156" transform="matrix(1 0.0064 -0.0064 1 1.7061 -2.1625)" fill="#E8505B" width="36.845" height="27.695"/>
		<polygon opacity="0.2" enable-background="new    " points="320.896,279.732 333.877,262.602 341.779,273.423 347.225,267.7 
			357.742,279.971 		"/>
		<g opacity="0.2">
			<g>
				<circle cx="342.346" cy="260.547" r="2.901"/>
			</g>
		</g>
	</g>
	<g>
		<g>
			<g>
				<g>
					
						<rect x="317.774" y="249.575" transform="matrix(-0.0064 1 -1 -0.0064 605.1285 -62.4995)" fill="#F5F5F5" width="31.683" height="39.631"/>
				</g>
			</g>
		</g>
		
			<rect x="315.157" y="255.568" transform="matrix(1 0.0064 -0.0064 1 1.7349 -2.134)" fill="#455A64" width="36.846" height="27.695"/>
		<polygon opacity="0.2" enable-background="new    " points="315.086,283.136 328.064,266.005 335.968,276.826 341.412,271.104 
			351.932,283.373 		"/>
		<g opacity="0.2">
			<g>
				<circle cx="336.534" cy="263.951" r="2.901"/>
			</g>
		</g>
	</g>
	<g>
		<rect x="353.54" y="265.221" fill="#263238" width="22.88" height="30.592"/>
		<path fill="#E8505B" d="M309.721,265.221v30.592h45.76v-30.592H309.721z M337.466,272.46h-9.729c-1.162,0-2.104-0.942-2.104-2.104
			s0.942-2.105,2.104-2.105h9.729c1.162,0,2.104,0.943,2.104,2.105S338.628,272.46,337.466,272.46z"/>
	</g>
</g>
<g>
	<g>
		<g>
			<g>
				<path fill="#455A64" d="M280.051,292.614l-42.552-2.605c-0.269-0.608-0.447-0.964-0.447-0.964l-11.532,0.229l-3.752-0.229
					c0,0-0.059,0.114-0.148,0.309l-38.714,0.771c-7.718,0-15.833,4.709-15.833,10.726c-0.098,5.728,2.676,11.943,9.592,11.803
					l52.746-0.178l52.746,0.178c6.916,0.142,8.744-4.029,8.755-8.978C291.719,294.461,285.947,292.691,280.051,292.614z"/>
			</g>
			<g>
				<g>
					<path fill="#263238" d="M181.504,312.655c0,0,0.086-0.011,0.254-0.016c0.181-0.004,0.428-0.008,0.745-0.015
						c0.67-0.006,1.636-0.015,2.874-0.026c2.512-0.011,6.13-0.025,10.613-0.046c8.998-0.012,21.47-0.027,35.417-0.047l-0.148,0.157
						c-0.071-1.156-0.149-2.395-0.228-3.641c-0.159-2.553-0.314-5.063-0.465-7.449l0.133,0.138
						c-12.955-1.442-24.402-2.716-32.627-3.631c-4.095-0.469-7.386-0.846-9.668-1.105c-1.123-0.135-1.998-0.24-2.604-0.313
						c-0.287-0.037-0.511-0.066-0.675-0.088c-0.151-0.021-0.229-0.034-0.228-0.039c0-0.004,0.078,0,0.231,0.012
						c0.164,0.016,0.389,0.035,0.676,0.061c0.609,0.062,1.486,0.148,2.611,0.262c2.284,0.238,5.579,0.586,9.678,1.018
						c8.228,0.891,19.679,2.129,32.638,3.532l0.123,0.013l0.008,0.124c0.149,2.389,0.308,4.897,0.467,7.449
						c0.078,1.247,0.154,2.484,0.229,3.641l0.01,0.158h-0.158c-13.947-0.019-26.42-0.035-35.417-0.047
						c-4.483-0.02-8.102-0.035-10.613-0.046c-1.238-0.012-2.204-0.021-2.874-0.027c-0.317-0.006-0.564-0.011-0.745-0.014
						C181.59,312.665,181.504,312.655,181.504,312.655z"/>
				</g>
			</g>
			<g>
				<g>
					<path fill="#263238" d="M192.38,297.523c-0.033,0.039-0.563-0.387-1.491-0.953c-0.928-0.568-2.281-1.241-3.875-1.702
						c-1.595-0.456-3.1-0.604-4.187-0.616c-1.088-0.014-1.763,0.066-1.77,0.016c-0.003-0.021,0.163-0.058,0.468-0.107
						c0.304-0.055,0.748-0.098,1.3-0.117c1.103-0.043,2.644,0.075,4.271,0.54c1.625,0.472,2.994,1.188,3.904,1.812
						c0.457,0.311,0.812,0.582,1.04,0.791C192.271,297.389,192.393,297.508,192.38,297.523z"/>
				</g>
			</g>
			<g>
				<g>
					
						<ellipse transform="matrix(-0.2256 -0.9742 0.9742 -0.2256 24.2159 618.5796)" fill="#263238" cx="257.966" cy="299.665" rx="0.149" ry="19.285"/>
				</g>
			</g>
			<g>
				<g>
					<path fill="#263238" d="M269.65,294.439c0.027,0.093-1.621,0.426-3.289,1.574c-1.682,1.129-2.596,2.541-2.672,2.48
						c-0.029-0.02,0.156-0.396,0.572-0.93c0.412-0.535,1.075-1.213,1.932-1.797c0.859-0.582,1.732-0.951,2.382-1.14
						C269.227,294.441,269.645,294.404,269.65,294.439z"/>
				</g>
			</g>
		</g>
		<g>
			<path fill="#FFBE9D" d="M253.813,246.13l13.479,23.462c1.665,2.897,1.768,6.436,0.271,9.426l0,0
				c-1.733,3.467-5.321,5.615-9.197,5.506l-20.696-0.584l-0.545-7.525l18.228-3.49l-12.289-21.271L253.813,246.13z"/>
		</g>
		<g>
			<path fill="#FFBE9D" d="M203.578,286.279l19.031,5.041l0.414-5.707l-17.539-10.187l12.81-23.774l-10.75-5.522l-13.479,23.462l0,0
				c-3.263,6.061-0.215,13.594,6.344,15.682L203.578,286.279z"/>
		</g>
		<g>
			<path fill="#E8505B" d="M248.089,261.193l13.009-6.851c0,0-2.166-4.581-5.574-9.293c-4.028-5.571-10.275-9.468-17.369-10.948
				c0-0.002-0.002-0.002-0.002-0.002l-14.961,0.178c-2.135,0.229-3.879,0.637-5.336,1.229l0.011-0.059
				c-8.12,1.791-17.13,19.501-17.13,19.501l11.836,6.231l0.262,1.86c0.346,2.451,1.416,4.754,3.085,6.635l-3.446,22.671
				l38.416,0.795l-4.892-16.236L248.089,261.193z"/>
		</g>
		<g>
			<g>
				<path fill="#263238" d="M216.268,269.799c-0.011,0.014-0.224-0.129-0.572-0.433c-0.352-0.302-0.822-0.783-1.307-1.462
					c-0.965-1.342-1.826-3.613-1.604-6.18c0.181-1.265,0.541-2.412,0.879-3.447c0.344-1.032,0.693-1.948,0.998-2.713
					s0.568-1.375,0.758-1.793c0.191-0.42,0.309-0.646,0.327-0.638c0.021,0.009-0.063,0.248-0.22,0.681
					c-0.18,0.487-0.403,1.099-0.67,1.824c-0.277,0.771-0.604,1.691-0.934,2.725c-0.322,1.029-0.671,2.178-0.844,3.396
					c-0.116,1.213,0.046,2.415,0.322,3.44c0.275,1.036,0.722,1.905,1.158,2.586C215.471,269.143,216.314,269.75,216.268,269.799z"/>
			</g>
		</g>
		<g>
			<g>
				<polygon fill="#263238" points="210.509,297.821 208.34,272.534 255.135,272.534 252.034,298.137 				"/>
			</g>
			<g>
				<circle fill="#FAFAFA" cx="231.736" cy="286.02" r="2.979"/>
			</g>
		</g>
		<g>
			<g>
				<polygon fill="#FFBE9D" points="230.918,302.761 238.863,303.87 238.863,312.507 231.557,312.317 				"/>
			</g>
			<g>
				<g>
					<path fill="#E8505B" d="M238.863,303.87h3.572c0.694,0,1.377,0.184,1.979,0.531l1.884,1.088
						c0.617,0.354,2.613,1.352,3.292,1.568c2.172,0.698,5.826,1.638,6.596,2.23c2.197,1.694,1.529,3.698,0.322,3.907
						c-1.061,0.184-17.646-0.689-17.646-0.689v-8.636H238.863z"/>
				</g>
				<g>
					<g>
						<path fill="#263238" d="M244.73,311.793c-0.076,0.017-0.35-0.979-0.385-2.244c-0.041-1.267,0.174-2.276,0.25-2.265
							c0.086,0.011,0.008,1.018,0.049,2.255C244.68,310.776,244.816,311.776,244.73,311.793z"/>
					</g>
				</g>
				<g>
					<g>
						<ellipse fill="#263238" cx="246.421" cy="309.679" rx="0.149" ry="2.062"/>
					</g>
				</g>
				<g>
					<g>
						
							<ellipse transform="matrix(0.9971 -0.0759 0.0759 0.9971 -22.8226 19.7481)" fill="#263238" cx="248.266" cy="309.979" rx="0.148" ry="2.131"/>
					</g>
				</g>
				<g>
					<g>
						<path fill="#263238" d="M243.186,309.493c-0.004,0.016-0.274-0.038-0.732-0.229c-0.454-0.191-1.104-0.523-1.784-1.104
							c-0.169-0.146-0.34-0.304-0.51-0.479c-0.168-0.176-0.349-0.376-0.455-0.645c-0.108-0.268-0.111-0.615,0.101-0.887
							c0.104-0.137,0.274-0.226,0.442-0.244c0.169-0.021,0.332,0.009,0.481,0.054c1.158,0.395,2.152,1.533,2.336,2.935
							c0.175,1.416-0.586,2.734-1.588,3.395c-0.25,0.163-0.516,0.313-0.819,0.367c-0.148,0.025-0.31,0.028-0.466-0.022
							c-0.157-0.052-0.291-0.171-0.36-0.315c-0.14-0.313-0.017-0.608,0.104-0.823c0.127-0.228,0.303-0.397,0.459-0.552
							c0.646-0.624,1.299-0.967,1.756-1.15c0.463-0.184,0.736-0.225,0.74-0.209c0.006,0.023-0.254,0.104-0.692,0.315
							c-0.435,0.213-1.052,0.571-1.654,1.192c-0.149,0.157-0.304,0.317-0.407,0.516c-0.104,0.189-0.173,0.43-0.084,0.602
							c0.086,0.183,0.314,0.243,0.559,0.191c0.24-0.046,0.48-0.183,0.713-0.339c0.914-0.616,1.605-1.845,1.445-3.13
							c-0.16-1.276-1.088-2.345-2.123-2.709c-0.252-0.087-0.508-0.073-0.641,0.095c-0.136,0.167-0.152,0.427-0.07,0.634
							c0.176,0.427,0.57,0.758,0.873,1.053C242.115,309.157,243.219,309.436,243.186,309.493z"/>
					</g>
				</g>
			</g>
			<g>
				<g>
					<path fill="#263238" d="M256.509,313.196c-0.024-0.025,0.236-0.142,0.435-0.543c0.203-0.396,0.164-1.103-0.232-1.802
						c-0.389-0.7-1.197-1.31-2.207-1.663c-1.01-0.363-2.215-0.539-3.43-0.919c-2.44-0.728-4.504-1.795-5.901-2.688
						c-0.702-0.447-1.241-0.848-1.608-1.133c-0.362-0.29-0.553-0.462-0.541-0.479c0.013-0.018,0.229,0.123,0.608,0.385
						c0.386,0.256,0.94,0.627,1.65,1.047c1.415,0.841,3.467,1.863,5.877,2.583c1.196,0.375,2.39,0.554,3.44,0.944
						c1.045,0.385,1.898,1.05,2.295,1.82c0.399,0.757,0.41,1.532,0.152,1.956c-0.119,0.212-0.268,0.335-0.367,0.406
						C256.573,313.18,256.514,313.204,256.509,313.196z"/>
				</g>
			</g>
		</g>
		<g>
			<g>
				<path fill="#F5F5F5" d="M251.1,240.309c0.004,0,0.004,0.041,0,0.121c-0.008,0.096-0.017,0.213-0.026,0.356
					c-0.03,0.334-0.072,0.794-0.126,1.382c-0.123,1.227-0.299,2.982-0.521,5.188l-0.014,0.135l-0.12-0.063
					c-1.914-1.008-4.254-2.239-6.897-3.631l0.162-0.046c-1.137,1.918-2.402,4.055-3.746,6.322l-0.08,0.135l-0.125-0.096
					c-1.974-1.514-4.102-3.146-6.312-4.84h0.183c-0.879,0.688-1.809,1.416-2.75,2.153c-1.271,0.996-2.522,1.978-3.746,2.935
					l-0.138,0.107l-0.084-0.152c-1.243-2.303-2.438-4.516-3.569-6.604l0.18,0.06c-2.751,1.228-5.293,2.359-7.569,3.375l-0.139,0.062
					l-0.026-0.149c-0.439-2.595-0.822-4.853-1.143-6.731l0.117,0.065c-1.846,0.702-3.312,1.262-4.334,1.651
					c-0.49,0.183-0.875,0.324-1.153,0.429c-0.121,0.041-0.22,0.075-0.299,0.104c-0.067,0.021-0.103,0.031-0.104,0.027
					c-0.001-0.004,0.031-0.021,0.096-0.051c0.078-0.033,0.174-0.074,0.291-0.126c0.274-0.112,0.653-0.271,1.137-0.47
					c1.018-0.407,2.472-0.992,4.305-1.729l0.098-0.039l0.021,0.105c0.336,1.877,0.739,4.131,1.204,6.723l-0.164-0.088
					c2.271-1.025,4.809-2.172,7.553-3.412l0.116-0.053l0.063,0.113c1.133,2.087,2.336,4.298,3.584,6.596l-0.221-0.046
					c1.223-0.959,2.475-1.938,3.745-2.937c0.942-0.737,1.873-1.467,2.75-2.153l0.091-0.07l0.092,0.07
					c2.205,1.698,4.33,3.335,6.301,4.853l-0.205,0.038c1.354-2.263,2.629-4.392,3.775-6.306l0.061-0.102l0.104,0.057
					c2.633,1.414,4.963,2.665,6.868,3.688l-0.133,0.07c0.257-2.201,0.461-3.954,0.604-5.18c0.072-0.586,0.131-1.043,0.172-1.377
					c0.021-0.143,0.039-0.258,0.052-0.353C251.086,240.35,251.096,240.309,251.1,240.309z"/>
			</g>
		</g>
		<g>
			<g>
				<path fill="#F5F5F5" d="M256.652,246.67c0.005,0.002-0.006,0.059-0.032,0.168c-0.029,0.123-0.069,0.283-0.119,0.485
					c-0.116,0.442-0.28,1.067-0.489,1.87c-0.441,1.644-1.078,4.005-1.871,6.953l-0.031,0.111l-0.105-0.051
					c-2.292-1.102-5.023-2.411-8.063-3.869l0.158-0.041c-2.06,2.938-4.349,6.201-6.789,9.684l-0.102,0.144L239.088,262
					c-2.072-2.102-4.27-4.325-6.525-6.613c-0.461-0.467-0.918-0.931-1.371-1.39l0.186,0.021c-3.061,1.92-6.011,3.77-8.794,5.516
					l-0.126,0.078l-0.072-0.129c-1.699-3-3.289-5.811-4.74-8.373l0.147,0.056c-3.478,1.196-6.533,2.249-9.043,3.112l-0.086,0.029
					l-0.029-0.084c-0.856-2.484-1.534-4.453-2.007-5.82c-0.223-0.664-0.396-1.18-0.52-1.547c-0.055-0.166-0.096-0.297-0.129-0.399
					c-0.026-0.091-0.039-0.138-0.035-0.14c0.004,0,0.023,0.043,0.06,0.131c0.039,0.101,0.089,0.229,0.151,0.393
					c0.134,0.363,0.322,0.874,0.563,1.531c0.49,1.359,1.195,3.318,2.086,5.791l-0.114-0.055c2.502-0.883,5.551-1.955,9.021-3.178
					l0.099-0.033l0.051,0.09c1.461,2.559,3.063,5.363,4.771,8.355l-0.197-0.05c2.78-1.749,5.729-3.604,8.786-5.526l0.101-0.063
					l0.084,0.085c0.455,0.46,0.912,0.923,1.371,1.391c2.256,2.289,4.449,4.516,6.521,6.618l-0.222,0.019
					c2.453-3.476,4.753-6.731,6.82-9.662l0.063-0.088l0.097,0.047c3.027,1.478,5.751,2.807,8.036,3.922l-0.137,0.063
					c0.83-2.938,1.496-5.293,1.958-6.932c0.231-0.795,0.411-1.416,0.538-1.855c0.062-0.199,0.109-0.355,0.146-0.479
					C256.628,246.725,256.646,246.669,256.652,246.67z"/>
			</g>
		</g>
	</g>
	<g>
		<g>
			<path fill="#263238" d="M250.889,206.803c-2.285,0.254-4.664-0.496-6.389-2.017c2.082,1.051,4.855-0.392,5.588-2.604
				c0.732-2.215,0.133-6.334-1.686-7.795c-1.73-1.39-4.129-1.922-6.271-1.349c-2.143,0.574-4.414,3.832-5.115,5.938l0.041,0.063
				c-0.33-0.131-0.662-0.254-0.996-0.366c-2.375-0.797-4.91-1.183-7.397-0.895c-2.487,0.288-4.923,1.276-6.761,2.977l14.531,23.357
				c2.639-0.232,4.979-2.014,6.36-4.272c1.383-2.261,1.914-4.948,2.045-7.596c0.032-0.664,0.03-1.336,0.003-2.007
				c1.559,0.25,3.116,0.502,4.674,0.752c-0.834-1.122-1.897-2.073-3.106-2.777C247.986,208.813,249.938,208.198,250.889,206.803z"/>
		</g>
		<g>
			<g>
				<g>
					<g>
						<g>
							<g>
								<g>
									<g>
										<g>
											<g>
												<g>
													<g>
														<g>
															<path fill="#FFBE9D" d="M232.52,243.055c3.941-0.086,7.105-3.281,7.15-7.224l0.338-29.06l0,0
																c0.023-1.201-0.875-2.221-2.068-2.347l-12.274-3.103c-3.931-0.416-6.545,4.424-6.793,8.369
																c-0.276,4.383-0.44,9.744,0.078,13.016c1.045,6.575,6.085,7.412,6.085,7.412c0.001-0.018,0.004,2.545,0.02,5.66
																C225.072,239.865,228.438,243.143,232.52,243.055L232.52,243.055z"/>
														</g>
													</g>
												</g>
											</g>
										</g>
										<g>
											<g>
												<g>
													<g>
														<g>
															<g>
																<path fill="#263238" d="M221.421,213.949c-0.017,0.445,0.349,0.824,0.813,0.851c0.464,0.025,0.854-0.313,0.869-0.76
																	c0.015-0.446-0.349-0.827-0.813-0.853C221.827,213.163,221.438,213.504,221.421,213.949z"/>
															</g>
														</g>
													</g>
												</g>
											</g>
											<g>
												<g>
													<g>
														<g>
															<g>
																<g>
																	<path fill="#263238" d="M220.034,212.48c0.104,0.11,0.743-0.361,1.649-0.358c0.907-0.011,1.573,0.455,1.672,0.345
																		c0.049-0.05-0.059-0.248-0.349-0.459c-0.284-0.211-0.771-0.415-1.337-0.412c-0.566,0.004-1.041,0.211-1.314,0.424
																		C220.077,212.232,219.982,212.434,220.034,212.48z"/>
																</g>
															</g>
														</g>
													</g>
												</g>
											</g>
										</g>
										<g>
											<g>
												<g>
													<g>
														<g>
															<g>
																<path fill="#263238" d="M230.055,213.949c-0.016,0.445,0.348,0.824,0.813,0.851c0.464,0.025,0.854-0.313,0.87-0.76
																	c0.016-0.444-0.35-0.827-0.813-0.853C230.459,213.163,230.07,213.504,230.055,213.949z"/>
															</g>
														</g>
													</g>
												</g>
											</g>
											<g>
												<g>
													<g>
														<g>
															<g>
																<g>
																	<path fill="#263238" d="M228.954,212.65c0.104,0.109,0.745-0.362,1.651-0.359c0.906-0.012,1.572,0.456,1.67,0.346
																		c0.05-0.05-0.057-0.248-0.348-0.459c-0.285-0.211-0.771-0.416-1.338-0.412c-0.566,0.002-1.04,0.211-1.313,0.424
																		C228.998,212.402,228.902,212.604,228.954,212.65z"/>
																</g>
															</g>
														</g>
													</g>
												</g>
											</g>
										</g>
										<g>
											<g>
												<g>
													<g>
														<g>
															<g>
																<path fill="#263238" d="M225.661,219.382c0.004-0.053-0.56-0.149-1.476-0.267c-0.23-0.024-0.449-0.069-0.488-0.229
																	c-0.055-0.168,0.041-0.418,0.154-0.688c0.217-0.561,0.445-1.148,0.686-1.766c0.951-2.512,1.641-4.578,1.539-4.615
																	c-0.102-0.036-0.955,1.97-1.907,4.48c-0.229,0.62-0.448,1.21-0.655,1.775c-0.089,0.264-0.24,0.563-0.121,0.908
																	c0.063,0.175,0.232,0.3,0.381,0.34c0.148,0.046,0.279,0.048,0.395,0.055
																	C225.087,219.43,225.657,219.434,225.661,219.382z"/>
															</g>
														</g>
													</g>
												</g>
											</g>
										</g>
										<g>
											<g>
												<g>
													<g>
														<g>
															<path fill="#EB996E" d="M225.034,230.12c0,0,4.424,0.284,8.807-2.351c0,0-2.137,4.519-8.718,3.902L225.034,230.12z"
																/>
														</g>
													</g>
												</g>
											</g>
										</g>
										<g>
											<g>
												<g>
													<g>
														<g>
															<path fill="#EB996E" d="M226.045,221.568c0.326-0.433,0.898-0.668,1.467-0.607c0.393,0.042,0.791,0.232,1.03,0.553
																c0.237,0.321,0.289,0.776,0.072,1.082c-0.245,0.346-0.757,0.424-1.19,0.301c-0.433-0.123-0.806-0.408-1.158-0.691
																c-0.1-0.078-0.199-0.16-0.261-0.27c-0.062-0.106-0.073-0.248,0.001-0.336"/>
														</g>
													</g>
												</g>
											</g>
										</g>
										<g>
											<g>
												<g>
													<g>
														<g>
															<g>
																<path fill="#263238" d="M228.332,220.009c-0.148-0.009-0.148,0.978-0.993,1.677
																	c-0.842,0.701-1.892,0.59-1.899,0.729c-0.014,0.063,0.234,0.191,0.679,0.203c0.435,0.015,1.069-0.125,1.585-0.553
																	c0.515-0.428,0.736-1,0.77-1.404C228.509,220.247,228.398,220.003,228.332,220.009z"/>
															</g>
														</g>
													</g>
												</g>
											</g>
										</g>
									</g>
								</g>
							</g>
							<g>
								<g>
									<g>
										<g>
											<g>
												<path fill="#263238" d="M228.546,211.063c0.091,0.246,0.996,0.131,2.062,0.258c1.066,0.107,1.926,0.42,2.066,0.197
													c0.063-0.104-0.087-0.338-0.434-0.576c-0.344-0.238-0.895-0.465-1.532-0.537c-0.64-0.068-1.226,0.033-1.612,0.189
													C228.705,210.751,228.508,210.945,228.546,211.063z"/>
											</g>
										</g>
									</g>
								</g>
							</g>
							<g>
								<g>
									<g>
										<g>
											<g>
												<path fill="#263238" d="M220.161,210.809c0.159,0.205,0.784-0.009,1.536-0.02c0.751-0.036,1.389,0.139,1.535-0.077
													c0.063-0.104-0.037-0.312-0.314-0.506c-0.273-0.194-0.732-0.354-1.249-0.338s-0.965,0.202-1.226,0.414
													C220.178,210.495,220.091,210.707,220.161,210.809z"/>
											</g>
										</g>
									</g>
								</g>
							</g>
						</g>
					</g>
					<g>
						<g>
							<path fill="#FFBE9D" d="M239.279,214.943c0.498-0.346,1.195-0.217,1.72,0.086c1.208,0.699,1.81,2.297,1.36,3.619
								c-0.448,1.32-1.897,2.224-3.281,2.043"/>
						</g>
					</g>
					<g>
						<g>
							<g>
								<path fill="#EB996E" d="M239.738,218.729c0.02-0.045,0.256,0.058,0.572-0.088c0.313-0.125,0.599-0.588,0.564-1.125
									c-0.018-0.545-0.371-0.936-0.701-1.055c-0.328-0.135-0.57-0.068-0.585-0.119c-0.022-0.031,0.224-0.207,0.657-0.109
									c0.209,0.049,0.453,0.174,0.643,0.399c0.188,0.226,0.313,0.536,0.327,0.866c0.048,0.663-0.368,1.266-0.823,1.368
									C239.945,218.984,239.704,218.756,239.738,218.729z"/>
							</g>
						</g>
					</g>
				</g>
			</g>
		</g>
		<g>
			<g>
				<path fill="#455A64" d="M241.536,220.063c0.009-0.012,0.112,0.063,0.302,0.211c0.221,0.181,0.486,0.397,0.807,0.658
					c0.728,0.618,1.691,1.438,2.836,2.41l0.097,0.081l-0.081,0.097c-1.057,1.27-2.232,2.857-3.557,4.519
					c-0.301,0.374-0.6,0.741-0.891,1.083l-0.242,0.287l-0.018-0.375c-0.12-2.678-0.212-5.049-0.266-6.749
					c-0.02-0.81-0.035-1.481-0.047-2.007c-0.006-0.471,0-0.729,0.02-0.729c0.02,0,0.05,0.257,0.088,0.726
					c0.036,0.523,0.082,1.193,0.139,2.002c0.104,1.699,0.232,4.066,0.361,6.744l-0.26-0.088c0.281-0.346,0.58-0.709,0.882-1.078
					c1.319-1.654,2.511-3.235,3.599-4.496l0.014,0.18c-1.116-1.006-2.06-1.854-2.77-2.492c-0.302-0.281-0.553-0.518-0.761-0.711
					C241.615,220.165,241.527,220.07,241.536,220.063z"/>
			</g>
		</g>
		<g>
			<path fill="#263238" d="M228.238,198.448c-1.609,0.067-3.231,0.136-4.795,0.524c-1.563,0.389-3.082,1.124-4.146,2.334
				c-1.064,1.209-1.604,2.94-1.146,4.483c0.461,1.544,2.045,2.753,3.642,2.539c1.213-0.162,2.375-1.06,3.545-0.703
				c1.104,0.337,1.714,1.687,2.851,1.896c1.121,0.209,2.121-0.799,3.256-0.897c1.255-0.108,2.344,0.921,2.9,2.049
				c0.559,1.128,0.771,2.402,1.33,3.529c0.358,0.72,0.915,1.411,1.694,1.612c0.715,0.185,1.491-0.092,2.05-0.578
				c0.557-0.483,0.922-1.152,1.201-1.838c1.184-2.905,0.927-6.359-0.674-9.06c-1.6-2.7-4.506-4.583-7.625-4.939"/>
		</g>
		<g>
			<g>
				<path fill="#E8505B" d="M244.262,205.434c-0.053,0.016-0.205-0.531-0.607-1.336c-0.4-0.805-1.102-1.85-2.116-2.771
					c-1.021-0.918-2.13-1.508-2.972-1.825c-0.842-0.32-1.398-0.417-1.391-0.47c0.004-0.021,0.145-0.011,0.4,0.022
					c0.255,0.027,0.619,0.111,1.061,0.249c0.879,0.272,2.047,0.854,3.102,1.802c1.049,0.953,1.746,2.057,2.105,2.902
					c0.182,0.424,0.301,0.778,0.355,1.029C244.258,205.288,244.281,205.428,244.262,205.434z"/>
			</g>
		</g>
		<g>
			<g>
				<path fill="#455A64" d="M249.291,195.801c-0.025,0.052-0.576-0.31-1.584-0.491c-0.992-0.19-2.464-0.113-3.855,0.58
					c-1.396,0.699-2.377,1.773-2.98,2.594c-0.609,0.828-0.896,1.407-0.939,1.384c-0.019-0.008,0.034-0.162,0.155-0.428
					c0.122-0.266,0.321-0.64,0.611-1.077c0.571-0.867,1.563-2.008,3.021-2.739c1.463-0.729,3.012-0.771,4.031-0.52
					c0.516,0.121,0.912,0.29,1.168,0.436C249.174,195.683,249.3,195.786,249.291,195.801z"/>
			</g>
		</g>
		<g>
			<g>
				<path fill="#455A64" d="M242.969,203.525c0.033,0,0.088,0.518,0.01,1.354c-0.074,0.833-0.313,1.982-0.82,3.162
					c-0.512,1.18-1.182,2.143-1.735,2.77c-0.555,0.631-0.969,0.946-0.991,0.922c-0.076-0.063,1.469-1.483,2.453-3.809
					C242.896,205.613,242.869,203.514,242.969,203.525z"/>
			</g>
		</g>
		<g>
			<g>
				<path fill="#455A64" d="M243.158,203.666c0.02-0.006,0.076,0.128,0.16,0.377c0.091,0.247,0.182,0.619,0.258,1.084
					c0.156,0.928,0.175,2.26-0.178,3.665c-0.357,1.403-1.006,2.567-1.584,3.31c-0.289,0.373-0.545,0.657-0.741,0.832
					c-0.193,0.18-0.308,0.271-0.32,0.256c-0.038-0.037,0.37-0.448,0.892-1.211c0.521-0.758,1.119-1.896,1.467-3.26
					c0.341-1.363,0.356-2.648,0.258-3.564C243.271,204.236,243.107,203.682,243.158,203.666z"/>
			</g>
		</g>
	</g>
</g>
<g>
	<g>
		<path fill="#EBEBEB" d="M260.452,205.165c-1.662,0.522-2.382,2.892-1.293,4.251s3.557,1.176,4.431-0.33
			c0.875-1.506-0.188-3.74-1.906-4.014"/>
	</g>
	<g>
		<path fill="#EBEBEB" d="M268.178,193.937c-1.904,0.602-2.73,3.317-1.482,4.878c1.25,1.56,4.08,1.349,5.084-0.379
			s-0.215-4.292-2.188-4.604"/>
	</g>
	<g>
		<g>
			<path fill="#F5F5F5" d="M284.68,144.443c-5.172-0.437-10.4,0.718-13.945,4.506c-3.545,3.789-5.234,9.237-4.457,14.367
				c-5.498,2.285-8.496,9.277-6.359,14.836s9.046,8.743,14.659,6.758c2.522,6.394,8.582,11.257,15.368,12.337
				c6.789,1.081,14.059-1.66,18.441-6.955c5.393,1.22,11.445,1.14,15.977-2.029c4.533-3.169,6.582-10.142,3.13-14.46
				c6.213-1.514,9.37-9.272,7.526-15.396c-1.843-6.123-7.356-10.517-13.248-13.005c-3.893-1.645-8.746-2.503-12.067,0.11
				c-2.658-4.091-7.363-6.775-12.236-6.983C292.593,138.321,287.676,140.594,284.68,144.443"/>
		</g>
		<g>
			<g>
				<path fill="#263238" d="M284.68,144.443c0,0,0.102-0.138,0.313-0.399c0.205-0.266,0.541-0.639,1.003-1.106
					c0.935-0.916,2.454-2.198,4.774-3.204c1.156-0.498,2.508-0.926,4.035-1.142c1.524-0.204,3.229-0.219,5.002,0.153
					c1.771,0.347,3.606,1.066,5.348,2.164c1.729,1.112,3.371,2.622,4.634,4.548l-0.146-0.024c1.336-1.039,3.077-1.633,4.891-1.679
					c1.814-0.066,3.684,0.274,5.511,0.879c1.829,0.609,3.638,1.447,5.397,2.475c1.756,1.031,3.472,2.264,5.004,3.775
					c1.545,1.493,2.887,3.284,3.865,5.316c0.467,1.026,0.857,2.101,1.101,3.231c0.202,1.133,0.325,2.302,0.231,3.476
					c-0.152,2.34-0.873,4.711-2.233,6.738c-0.69,1-1.5,1.953-2.513,2.684c-1.002,0.736-2.146,1.291-3.369,1.612l0.076-0.229
					c0.744,0.946,1.271,2.071,1.535,3.263c0.268,1.193,0.282,2.445,0.09,3.668c-0.389,2.451-1.608,4.789-3.414,6.588
					c-1.83,1.803-4.271,2.918-6.804,3.476c-2.548,0.558-5.213,0.568-7.832,0.231c-0.956-0.117-1.899-0.304-2.825-0.501l0.147-0.05
					c-4.746,5.69-12.511,8.245-19.312,6.86c-3.404-0.684-6.526-2.29-9.063-4.446c-2.538-2.158-4.504-4.88-5.68-7.842l0.173,0.079
					c-3.253,1.122-6.806,0.548-9.593-1.004c-2.817-1.535-4.928-4.177-5.613-7.114c-0.7-2.935-0.131-5.956,1.16-8.385
					c1.296-2.443,3.343-4.337,5.662-5.314l-0.063,0.11c-0.352-2.38-0.161-4.697,0.355-6.787c0.541-2.088,1.404-3.957,2.467-5.528
					c0.521-0.793,1.113-1.493,1.707-2.144c0.619-0.626,1.244-1.203,1.912-1.664c1.312-0.958,2.685-1.563,3.94-1.98
					c2.535-0.82,4.625-0.89,6.007-0.898C283.956,144.343,284.68,144.443,284.68,144.443s-0.184-0.002-0.537-0.02
					c-0.354-0.023-0.884-0.037-1.576-0.035c-1.379,0.027-3.461,0.117-5.973,0.947c-1.244,0.423-2.603,1.03-3.896,1.985
					c-0.659,0.46-1.274,1.034-1.884,1.655c-0.584,0.647-1.17,1.343-1.683,2.13c-1.046,1.561-1.894,3.415-2.422,5.483
					c-0.504,2.071-0.685,4.362-0.331,6.711l0.012,0.079l-0.074,0.031c-2.271,0.965-4.273,2.827-5.541,5.229
					c-1.264,2.39-1.813,5.358-1.123,8.224c0.675,2.864,2.738,5.442,5.502,6.944c2.734,1.517,6.214,2.069,9.376,0.973l0.124-0.043
					l0.049,0.121c1.161,2.918,3.102,5.601,5.607,7.727c2.502,2.125,5.584,3.707,8.937,4.377c6.692,1.362,14.356-1.164,19.024-6.766
					l0.058-0.069l0.09,0.02c0.918,0.195,1.853,0.38,2.798,0.495c2.594,0.335,5.225,0.322,7.729-0.226
					c2.489-0.546,4.885-1.646,6.661-3.396c1.76-1.751,2.955-4.038,3.334-6.424c0.394-2.374-0.105-4.88-1.562-6.706l-0.138-0.172
					l0.215-0.057c1.188-0.311,2.296-0.847,3.27-1.561c0.983-0.708,1.772-1.638,2.449-2.612c1.332-1.979,2.043-4.307,2.193-6.6
					c0.094-1.151-0.025-2.296-0.223-3.405c-0.234-1.104-0.617-2.165-1.076-3.173c-0.96-2-2.278-3.77-3.805-5.248
					c-1.513-1.496-3.209-2.721-4.949-3.747c-1.742-1.023-3.539-1.86-5.346-2.466c-1.808-0.602-3.651-0.941-5.432-0.881
					c-1.777,0.041-3.473,0.617-4.775,1.621l-0.086,0.067l-0.061-0.091c-1.24-1.904-2.855-3.4-4.563-4.505
					c-1.719-1.092-3.531-1.811-5.283-2.162c-1.752-0.375-3.438-0.368-4.95-0.174c-1.517,0.206-2.858,0.623-4.011,1.109
					c-2.313,0.983-3.836,2.244-4.778,3.144c-0.468,0.46-0.81,0.825-1.021,1.084C284.796,144.317,284.68,144.443,284.68,144.443z"/>
			</g>
		</g>
	</g>
	<g>
		<g>
			<path fill="#455A64" d="M320.018,162.258c0,0.247-10.135,0.446-22.633,0.446c-12.504,0-22.636-0.2-22.636-0.446
				c0-0.246,10.132-0.447,22.636-0.447C309.883,161.811,320.018,162.011,320.018,162.258z"/>
		</g>
	</g>
	<g>
		<g>
			<path fill="#455A64" d="M320.018,167.169c0,0.246-10.135,0.446-22.633,0.446c-12.504,0-22.636-0.2-22.636-0.446
				c0-0.247,10.132-0.446,22.636-0.446C309.883,166.723,320.018,166.922,320.018,167.169z"/>
		</g>
	</g>
	<g>
		<g>
			<path fill="#455A64" d="M320.018,172.08c0,0.246-10.135,0.446-22.633,0.446c-12.504,0-22.636-0.2-22.636-0.446
				s10.132-0.446,22.636-0.446C309.883,171.634,320.018,171.834,320.018,172.08z"/>
		</g>
	</g>
	<g>
		<g>
			<path fill="#455A64" d="M320.018,176.991c0,0.247-10.135,0.446-22.633,0.446c-12.504,0-22.636-0.199-22.636-0.446
				c0-0.247,10.132-0.446,22.636-0.446C309.883,176.545,320.018,176.744,320.018,176.991z"/>
		</g>
	</g>
</g>
</svg>
