<?xml version="1.0" encoding="utf-8"?>
<!-- Generator: Adobe Illustrator 16.0.0, SVG Export Plug-In . SVG Version: 6.00 Build 0)  -->
<!DOCTYPE svg PUBLIC "-//W3C//DTD SVG 1.0//EN" "http://www.w3.org/TR/2001/REC-SVG-20010904/DTD/svg10.dtd">
<svg version="1.0" id="Layer_1" xmlns="http://www.w3.org/2000/svg" xmlns:xlink="http://www.w3.org/1999/xlink" x="0px" y="0px"
	 width="400px" height="400px" viewBox="0 0 400 400" enable-background="new 0 0 400 400" xml:space="preserve">
<g>
	<path fill="#EBEBEB" d="M205.178,17.332c-4.755-2.246-10.042-2.499-13.402-1.988c-3.148,0.479-7.706,1.681-11.54,4.684
		c-2.381,1.866-4.153,4.188-5.268,6.905c-1.321,3.217-1.724,7.011-1.197,11.276c0.078,0.64,0.406,1.207,0.921,1.597
		c0.516,0.392,1.154,0.555,1.796,0.457l8.255-1.256c1.166-0.178,2.034-1.199,2.021-2.376c-0.027-2.644,0.846-7.236,7.006-8.283
		c4.696-0.795,7.153,2.315,7.994,3.689c1.367,2.237,1.544,5.11,0.473,7.685c-1.645,3.956-5.602,5.125-7.813,5.47
		c-2.544,0.396-4.3,2.777-3.915,5.308l1.351,8.882c0.198,1.297,1.414,2.192,2.71,1.995l8.043-1.224
		c1.297-0.198,2.191-1.414,1.994-2.71l-0.284-1.866c-0.006-0.045,0.016-0.088,0.057-0.109c1.725-0.917,5.021-2.999,7.721-6.646
		c3.446-4.655,4.712-10.179,3.763-16.418C214.506,23.477,209.303,19.279,205.178,17.332z"/>
	<path fill="#EBEBEB" d="M199.333,62.941l-0.704,0.107c-3.363,0.512-5.684,3.665-5.172,7.028c0.512,3.364,3.665,5.684,7.029,5.172
		l0.704-0.107c3.362-0.512,5.683-3.664,5.171-7.028C205.851,64.75,202.696,62.43,199.333,62.941z"/>
</g>
<g>
	<path fill="#EBEBEB" d="M39.51,160.721c-2.39-2.988-5.762-4.844-8.123-5.585c-2.209-0.693-5.572-1.366-9.038-0.63
		c-2.152,0.458-4.053,1.409-5.65,2.828c-1.892,1.68-3.369,4.03-4.388,6.985c-0.153,0.443-0.121,0.918,0.091,1.338
		c0.213,0.421,0.579,0.731,1.029,0.873l5.795,1.819c0.818,0.256,1.712-0.133,2.08-0.906c0.828-1.736,2.867-4.458,7.228-3.171
		c3.322,0.982,3.934,3.8,4.043,4.966c0.177,1.899-0.625,3.833-2.149,5.172c-2.339,2.059-5.299,1.558-6.854,1.075
		c-1.789-0.554-3.698,0.441-4.255,2.216l-1.957,6.236c-0.287,0.911,0.222,1.884,1.132,2.171l5.646,1.773
		c0.911,0.286,1.884-0.223,2.17-1.134l0.412-1.31c0.009-0.031,0.038-0.052,0.072-0.053c1.42-0.047,4.24-0.354,7.17-1.874
		c3.74-1.939,6.334-5.144,7.709-9.523C43.64,167.718,41.583,163.313,39.51,160.721z"/>
	<path fill="#EBEBEB" d="M21.105,188.653l-0.494-0.155c-2.362-0.741-4.886,0.577-5.627,2.938c-0.742,2.362,0.577,4.886,2.938,5.627
		l0.494,0.155c2.361,0.742,4.886-0.577,5.627-2.938C24.784,191.919,23.467,189.396,21.105,188.653z"/>
</g>
<g>
	<g>
		<g>
			<g>
				<path fill="#EBEBEB" d="M289.873,363.119c20.561-0.892,46.641-7.458,62.591-20.873
					C330.449,342.815,308.187,350.239,289.873,363.119"/>
			</g>
		</g>
	</g>
	<g>
		<g>
			<g>
				<path fill="#EBEBEB" d="M304.176,338.805c20.56-0.895,46.641-7.458,62.592-20.875C344.752,318.5,322.49,325.924,304.176,338.805
					"/>
			</g>
		</g>
	</g>
	<g>
		<g>
			<g>
				<path fill="#EBEBEB" d="M319.553,315.644c20.561-0.894,46.641-7.459,62.591-20.874
					C360.128,295.338,337.865,302.764,319.553,315.644"/>
			</g>
		</g>
	</g>
	<g>
		<g>
			<g>
				<path fill="#EBEBEB" d="M336.711,291.752c20.452-3.407,45.663-13.069,59.81-28.217
					C374.568,266.804,353.294,276.84,336.711,291.752"/>
			</g>
		</g>
	</g>
	<g>
		<g>
			<g>
				<path fill="#EBEBEB" d="M351.794,274.125c18.159-10.394,38.396-28.125,45.932-46.841
					C378.081,238.089,361.743,254.748,351.794,274.125"/>
			</g>
		</g>
	</g>
	<g>
		<g>
			<g>
				<path fill="#EBEBEB" d="M344.481,282.457c5.593-20.396,7.33-47.816-0.876-67.263
					C337.235,236.925,337.547,260.849,344.481,282.457"/>
			</g>
		</g>
	</g>
	<g>
		<g>
			<g>
				<path fill="#EBEBEB" d="M329.934,301.946c3.963-21.634,3.257-50.268-7.096-69.837
					C318.187,255.19,320.709,280.03,329.934,301.946"/>
			</g>
		</g>
	</g>
	<g>
		<g>
			<g>
				<path fill="#EBEBEB" d="M312.597,325.85c3.962-21.634,3.258-50.268-7.095-69.838
					C300.849,279.093,303.372,303.934,312.597,325.85"/>
			</g>
		</g>
	</g>
	<g>
		<g>
			<g>
				<path fill="#EBEBEB" d="M294.114,356.134c3.963-21.635,3.258-50.269-7.094-69.837
					C282.367,309.377,284.891,334.217,294.114,356.134"/>
			</g>
		</g>
	</g>
	<g>
		<g>
			<g>
				<g>
					<path fill="#E0E0E0" d="M287.071,367.317c-2.979,5.499-5.312,9.989-6.855,13.128c-0.748,1.522-1.34,2.729-1.775,3.613
						c-0.178,0.382-0.323,0.693-0.443,0.949c-0.096,0.216-0.139,0.328-0.127,0.334c0.013,0.007,0.079-0.094,0.198-0.299
						c0.139-0.246,0.307-0.546,0.513-0.913c0.466-0.868,1.101-2.052,1.904-3.545c1.626-3.095,4.031-7.542,7.068-13.003
						c3.021-5.469,6.754-11.904,11.004-18.987c4.286-7.061,9.122-14.751,14.395-22.693c10.568-15.865,20.91-29.698,28.632-39.521
						c3.86-4.912,7.026-8.856,9.245-11.558c1.065-1.319,1.91-2.364,2.529-3.131c0.257-0.332,0.469-0.604,0.643-0.826
						c0.142-0.19,0.207-0.292,0.198-0.301c-0.01-0.009-0.098,0.075-0.258,0.248c-0.191,0.209-0.421,0.465-0.703,0.777
						c-0.646,0.744-1.529,1.759-2.642,3.039c-2.292,2.642-5.525,6.535-9.444,11.409c-7.839,9.743-18.267,23.544-28.849,39.431"/>
				</g>
			</g>
		</g>
	</g>
</g>
<g>
	<g>
		<g>
			<g>
				<path fill="#EBEBEB" d="M251.588,225.096c7.504-18.525,12.224-44.215,6.804-63.721
					C250.015,181.056,247.595,203.722,251.588,225.096"/>
			</g>
		</g>
	</g>
	<g>
		<g>
			<g>
				<path fill="#EBEBEB" d="M235.874,202.65c7.504-18.525,12.225-44.217,6.806-63.721
					C234.301,158.611,231.882,181.275,235.874,202.65"/>
			</g>
		</g>
	</g>
	<g>
		<g>
			<g>
				<path fill="#EBEBEB" d="M221.612,179.723c7.505-18.525,12.224-44.216,6.805-63.721
					C220.04,135.683,217.62,158.347,221.612,179.723"/>
			</g>
		</g>
	</g>
	<g>
		<g>
			<g>
				<path fill="#EBEBEB" d="M207.426,154.926c5.237-19.444,6.871-45.616-0.805-64.225
					C200.653,111.414,200.939,134.259,207.426,154.926"/>
			</g>
		</g>
	</g>
	<g>
		<g>
			<g>
				<path fill="#EBEBEB" d="M197.935,134.49c-1.857-20.237-9.36-45.271-22.858-59.477C176.699,96.728,184.83,117.883,197.935,134.49
					"/>
			</g>
		</g>
	</g>
	<g>
		<g>
			<g>
				<path fill="#EBEBEB" d="M202.349,144.31c-15.765-13.168-39.291-25.763-59.783-26.355
					C159.195,132.348,180.459,141.722,202.349,144.31"/>
			</g>
		</g>
	</g>
	<g>
		<g>
			<g>
				<path fill="#EBEBEB" d="M213.698,165.027c-17.515-12.229-43.098-23.155-64.564-21.902
					C167.649,156.545,190.614,164.335,213.698,165.027"/>
			</g>
		</g>
	</g>
	<g>
		<g>
			<g>
				<path fill="#EBEBEB" d="M227.824,189.985c-17.516-12.228-43.098-23.154-64.565-21.901
					C181.774,181.505,204.739,189.295,227.824,189.985"/>
			</g>
		</g>
	</g>
	<g>
		<g>
			<g>
				<path fill="#EBEBEB" d="M247.126,218.531c-17.517-12.229-43.099-23.155-64.565-21.902
					C201.077,210.05,224.042,217.841,247.126,218.531"/>
			</g>
		</g>
	</g>
	<g>
		<g>
			<g>
				<g>
					<path fill="#E0E0E0" d="M254.166,229.265c3.658,4.851,6.684,8.723,8.833,11.353c1.044,1.275,1.872,2.284,2.478,3.025
						c0.266,0.312,0.482,0.566,0.66,0.774c0.151,0.173,0.234,0.256,0.244,0.249c0.01-0.009-0.052-0.109-0.185-0.296
						c-0.162-0.222-0.358-0.492-0.6-0.822c-0.579-0.762-1.369-1.801-2.366-3.112c-2.077-2.685-5.036-6.604-8.636-11.49
						c-3.613-4.875-7.792-10.77-12.337-17.381c-4.509-6.636-9.354-14.009-14.244-21.873c-9.755-15.738-17.805-30.454-23.369-41.238
						c-2.784-5.392-4.991-9.78-6.481-12.83c-0.736-1.474-1.32-2.642-1.747-3.498c-0.19-0.362-0.345-0.659-0.472-0.901
						c-0.111-0.201-0.172-0.302-0.185-0.296c-0.011,0.006,0.027,0.116,0.115,0.329c0.109,0.251,0.242,0.558,0.404,0.934
						c0.396,0.872,0.937,2.06,1.62,3.56c1.408,3.09,3.545,7.518,6.269,12.946c5.447,10.856,13.437,25.635,23.203,41.395"/>
				</g>
			</g>
		</g>
	</g>
</g>
<g>
	<path fill="#EBEBEB" d="M394.713,152.572c-3.462-4.113-8.264-6.602-11.605-7.561c-3.128-0.896-7.875-1.724-12.716-0.568
		c-3.007,0.718-5.644,2.121-7.839,4.168c-2.598,2.426-4.589,5.779-5.919,9.966c-0.199,0.628-0.138,1.295,0.175,1.877
		c0.313,0.585,0.838,1.007,1.476,1.19l8.203,2.353c1.157,0.332,2.4-0.246,2.892-1.345c1.103-2.468,3.871-6.362,10.041-4.708
		c4.7,1.263,5.658,5.2,5.854,6.836c0.315,2.661-0.746,5.405-2.839,7.34c-3.215,2.974-7.389,2.372-9.591,1.75
		c-2.532-0.716-5.18,0.748-5.899,3.263l-2.533,8.827c-0.368,1.291,0.38,2.639,1.668,3.009l7.994,2.292
		c1.289,0.37,2.639-0.379,3.009-1.669l0.531-1.854c0.014-0.045,0.051-0.075,0.101-0.079c1.992-0.114,5.941-0.644,10.005-2.88
		c5.187-2.856,8.718-7.447,10.495-13.649C400.76,162.257,397.714,156.141,394.713,152.572z"/>
	<path fill="#EBEBEB" d="M369.837,192.453l-0.698-0.201c-3.344-0.959-6.844,0.981-7.803,4.325c-0.958,3.342,0.982,6.841,4.325,7.8
		l0.698,0.2c3.344,0.958,6.844-0.98,7.803-4.324C375.12,196.91,373.18,193.411,369.837,192.453z"/>
</g>
<g>
	<path fill="#EBEBEB" d="M123.991,224.807c-3.984-2.98-8.837-4.215-12.051-4.377c-3.009-0.151-7.462,0.099-11.584,2.16
		c-2.561,1.278-4.643,3.097-6.19,5.404c-1.833,2.734-2.925,6.176-3.243,10.229c-0.048,0.607,0.148,1.195,0.552,1.654
		c0.406,0.462,0.966,0.733,1.581,0.765l7.891,0.396c1.113,0.057,2.112-0.727,2.324-1.819c0.474-2.458,2.152-6.551,8.063-6.355
		c4.504,0.15,6.195,3.499,6.713,4.933c0.844,2.333,0.464,5.031-1.015,7.215c-2.274,3.357-6.164,3.693-8.28,3.593
		c-2.434-0.112-4.512,1.763-4.634,4.183l-0.427,8.491c-0.063,1.239,0.896,2.299,2.136,2.361l7.688,0.387
		c1.24,0.063,2.3-0.896,2.362-2.136l0.09-1.783c0.002-0.043,0.031-0.079,0.073-0.092c1.772-0.523,5.223-1.831,8.415-4.699
		c4.077-3.665,6.295-8.547,6.595-14.512C131.478,232.269,127.448,227.394,123.991,224.807z"/>
	<path fill="#EBEBEB" d="M109.944,265.989l-0.672-0.033c-3.216-0.161-5.963,2.323-6.125,5.538c-0.162,3.216,2.323,5.963,5.538,6.124
		l0.673,0.035c3.215,0.162,5.962-2.322,6.125-5.538C115.644,268.899,113.159,266.151,109.944,265.989z"/>
</g>
<g>
	<path fill="#EBEBEB" d="M82.962,375.198h7.299c4.295-15.308,6.363-32.34,3.55-46.58C87.222,342.893,83.53,358.975,82.962,375.198z"
		/>
	<path fill="#EBEBEB" d="M81.579,304.166c-8.975,19.442-12.594,42.231-10.226,64.177c0.082,0.172,0.164,0.345,0.246,0.518
		C79.716,350.313,85.579,324.416,81.579,304.166z"/>
	<path fill="#EBEBEB" d="M62.322,276.805c-6.579,20.046-7.795,42.455-3.51,63.338c0.264,0.634,0.536,1.281,0.81,1.935
		C65.562,322.495,68.463,296.15,62.322,276.805z"/>
	<path fill="#EBEBEB" d="M49.772,317.816c-0.07-0.224-0.101-0.341-0.09-0.346c0.012-0.005,0.065,0.102,0.158,0.316
		c0.107,0.258,0.237,0.571,0.397,0.955c0.127,0.326,0.278,0.708,0.439,1.118c0.291,0.467,0.57,0.943,0.867,1.405
		c-0.599-20.913-6.287-47.107-18.295-62.548c0.278,21.523,6.303,42.882,16.959,60.38c-0.034-0.097-0.073-0.205-0.105-0.296
		C49.969,318.405,49.861,318.083,49.772,317.816z"/>
	<path fill="#EBEBEB" d="M54.808,331.556c-0.062-0.158-0.122-0.314-0.182-0.471c-14.228-14.327-35.554-28.399-54.75-30.262
		C14.762,316.558,34.288,327.473,54.808,331.556z"/>
	<path fill="#EBEBEB" d="M64.766,353.632c-0.079-0.067-0.161-0.136-0.241-0.202c0.027,0.061,0.055,0.122,0.083,0.184
		C64.66,353.618,64.712,353.626,64.766,353.632z"/>
	<path fill="#EBEBEB" d="M4.667,327.1c16.587,14.736,37.602,24.104,59.179,26.423c-0.155-0.354-0.303-0.698-0.455-1.049
		C47.483,339.258,24.561,327.147,4.667,327.1z"/>
	<path fill="#EBEBEB" d="M16.652,353.632c10.864,9.651,23.632,16.988,37.208,21.566h16.696
		C55.048,363.552,34.616,353.675,16.652,353.632z"/>
	<path fill="#E0E0E0" d="M56.649,336.256c1.884,4.759,4.147,10.242,6.742,16.218c0.152,0.351,0.3,0.694,0.455,1.049
		c2.933,6.721,6.283,14.048,9.989,21.676h0.812c-1.043-2.14-2.06-4.254-3.048-6.338c-0.082-0.173-0.164-0.346-0.246-0.518
		c-2.427-5.133-4.684-10.076-6.746-14.729c-0.027-0.062-0.056-0.123-0.083-0.184c-1.783-4.026-3.419-7.826-4.903-11.353
		c-0.274-0.653-0.546-1.301-0.81-1.935c-0.592-1.42-1.159-2.794-1.696-4.106c-2.335-5.715-4.18-10.362-5.421-13.59
		c-0.394-1.002-0.729-1.854-1.019-2.586c-0.161-0.41-0.312-0.792-0.439-1.118c-0.16-0.384-0.29-0.697-0.397-0.955
		c-0.093-0.215-0.146-0.321-0.158-0.316c-0.011,0.005,0.02,0.122,0.09,0.346c0.089,0.267,0.197,0.589,0.33,0.985
		c0.032,0.091,0.071,0.199,0.105,0.296c0.315,0.89,0.722,2.034,1.229,3.464c0.789,2.218,1.869,5.105,3.189,8.523
		c0.061,0.156,0.121,0.313,0.182,0.471C55.379,333.031,55.99,334.594,56.649,336.256z"/>
</g>
<g>
	<path fill="#263238" d="M383.079,374.867c0,0.127-83.356,0.229-186.16,0.229c-102.838,0-186.178-0.103-186.178-0.229
		c0-0.128,83.34-0.231,186.178-0.231C299.723,374.636,383.079,374.739,383.079,374.867z"/>
</g>
<g>
	<g>
		<g>
			<circle fill="#FFFFFF" cx="44.809" cy="79.086" r="27.206"/>
			<g>
				<path fill="#263238" d="M72.015,79.086c0,0-0.02-0.149-0.04-0.44c-0.02-0.302-0.046-0.732-0.083-1.291
					c-0.017-0.285-0.035-0.603-0.056-0.952c-0.037-0.348-0.111-0.725-0.172-1.136c-0.065-0.411-0.136-0.852-0.21-1.325
					c-0.057-0.476-0.233-0.958-0.355-1.483c-0.479-2.101-1.462-4.584-3.012-7.217c-1.563-2.621-3.819-5.36-6.891-7.685
					c-0.386-0.288-0.776-0.578-1.171-0.873c-0.411-0.27-0.845-0.516-1.273-0.78c-0.438-0.249-0.852-0.551-1.32-0.764
					c-0.464-0.223-0.933-0.447-1.406-0.675c-0.238-0.112-0.476-0.225-0.715-0.338c-0.249-0.09-0.499-0.182-0.75-0.273
					c-0.503-0.183-1.011-0.368-1.523-0.555c-0.517-0.171-1.059-0.282-1.595-0.427c-0.542-0.123-1.074-0.313-1.638-0.371
					c-1.12-0.158-2.25-0.389-3.422-0.396c-0.583-0.02-1.172-0.077-1.764-0.068c-0.593,0.03-1.19,0.061-1.79,0.092
					c-0.3,0.021-0.604,0.019-0.904,0.059l-0.902,0.139c-0.602,0.1-1.215,0.17-1.82,0.295c-1.193,0.325-2.431,0.567-3.606,1.059
					c-1.213,0.389-2.354,0.988-3.527,1.55c-0.571,0.31-1.119,0.671-1.685,1.006c-0.276,0.177-0.571,0.328-0.835,0.528l-0.796,0.596
					c-1.099,0.754-2.061,1.699-3.068,2.607c-0.456,0.502-0.914,1.006-1.374,1.514l-0.346,0.38l-0.311,0.411l-0.619,0.828
					l-0.622,0.832l-0.544,0.89l-0.544,0.896l-0.272,0.449l-0.231,0.473c-0.305,0.633-0.611,1.269-0.918,1.907
					c-0.243,0.665-0.488,1.332-0.733,2.002c-0.881,2.714-1.356,5.597-1.396,8.53c0.039,2.934,0.513,5.817,1.394,8.533
					c0.245,0.67,0.489,1.338,0.733,2.003c0.308,0.639,0.613,1.274,0.918,1.907l0.231,0.474l0.272,0.449l0.544,0.896l0.544,0.89
					l0.622,0.832l0.619,0.829l0.311,0.412l0.346,0.38c0.46,0.507,0.918,1.012,1.375,1.515c1.007,0.909,1.968,1.853,3.068,2.607
					l0.796,0.596c0.264,0.2,0.56,0.351,0.836,0.529c0.566,0.336,1.113,0.696,1.685,1.005c1.173,0.563,2.314,1.163,3.528,1.551
					c1.176,0.492,2.413,0.734,3.607,1.059c0.605,0.125,1.217,0.196,1.819,0.296l0.903,0.139c0.3,0.039,0.604,0.038,0.904,0.058
					c0.602,0.031,1.198,0.062,1.791,0.093c0.592,0.009,1.18-0.048,1.764-0.068c1.172-0.007,2.302-0.238,3.422-0.396
					c0.564-0.058,1.097-0.249,1.638-0.371c0.536-0.146,1.078-0.256,1.595-0.427c0.512-0.187,1.021-0.373,1.523-0.555
					c0.251-0.092,0.501-0.183,0.75-0.273c0.24-0.114,0.478-0.227,0.715-0.339c0.474-0.227,0.942-0.452,1.406-0.674
					c0.469-0.212,0.883-0.515,1.321-0.763c0.428-0.265,0.862-0.511,1.272-0.781c0.396-0.294,0.786-0.585,1.171-0.873
					c3.072-2.324,5.328-5.064,6.891-7.685c1.55-2.633,2.533-5.116,3.012-7.217c0.122-0.524,0.298-1.007,0.354-1.483
					c0.075-0.471,0.145-0.913,0.21-1.323c0.061-0.411,0.135-0.788,0.172-1.137c0.021-0.349,0.039-0.666,0.056-0.951
					c0.036-0.559,0.063-0.988,0.083-1.291C71.995,79.235,72.015,79.086,72.015,79.086s0.004,0.149-0.005,0.441
					c-0.011,0.304-0.028,0.734-0.048,1.295c-0.012,0.285-0.025,0.604-0.04,0.954c-0.031,0.351-0.1,0.729-0.156,1.142
					c-0.061,0.414-0.126,0.857-0.196,1.332c-0.051,0.479-0.224,0.965-0.341,1.493c-0.461,2.117-1.432,4.623-2.977,7.283
					c-1.558,2.649-3.817,5.422-6.908,7.78c-0.388,0.291-0.781,0.586-1.178,0.884c-0.414,0.274-0.85,0.525-1.282,0.792
					c-0.44,0.253-0.858,0.56-1.331,0.776c-0.467,0.226-0.939,0.455-1.417,0.686c-0.24,0.114-0.479,0.229-0.721,0.344
					c-0.251,0.092-0.503,0.186-0.757,0.278c-0.508,0.188-1.02,0.375-1.538,0.566c-0.522,0.174-1.069,0.288-1.61,0.436
					c-0.546,0.125-1.084,0.319-1.654,0.38c-1.13,0.164-2.273,0.399-3.457,0.409c-0.59,0.022-1.185,0.08-1.783,0.072
					c-0.599-0.029-1.203-0.059-1.811-0.089c-0.304-0.021-0.611-0.019-0.915-0.058l-0.912-0.138
					c-0.609-0.099-1.229-0.169-1.841-0.295c-1.209-0.325-2.46-0.569-3.651-1.064c-1.229-0.391-2.385-0.996-3.572-1.563
					c-0.579-0.313-1.133-0.677-1.707-1.016c-0.28-0.179-0.579-0.333-0.846-0.534l-0.807-0.602c-1.113-0.763-2.088-1.717-3.108-2.637
					c-0.462-0.508-0.926-1.018-1.393-1.532l-0.35-0.385l-0.315-0.416l-0.627-0.838l-0.63-0.842l-0.552-0.9l-0.551-0.907
					l-0.276-0.454l-0.234-0.479c-0.309-0.641-0.62-1.285-0.931-1.931c-0.247-0.673-0.495-1.35-0.744-2.028
					c-0.894-2.749-1.374-5.669-1.413-8.64c0.039-2.97,0.52-5.889,1.415-8.638c0.249-0.679,0.497-1.354,0.743-2.027
					c0.312-0.646,0.622-1.29,0.931-1.931l0.234-0.478l0.276-0.455l0.551-0.907l0.552-0.9l0.63-0.842l0.627-0.837l0.315-0.417
					l0.35-0.385c0.467-0.513,0.931-1.022,1.393-1.531c1.02-0.919,1.994-1.873,3.108-2.635l0.806-0.603
					c0.268-0.202,0.566-0.354,0.846-0.534c0.573-0.339,1.128-0.703,1.706-1.015c1.188-0.568,2.343-1.171,3.572-1.563
					c1.19-0.494,2.442-0.738,3.651-1.064c0.613-0.125,1.231-0.195,1.841-0.296l0.912-0.137c0.304-0.04,0.611-0.038,0.915-0.058
					c0.608-0.03,1.212-0.06,1.81-0.089c0.599-0.008,1.193,0.05,1.783,0.073c1.184,0.01,2.327,0.245,3.457,0.409
					c0.57,0.061,1.107,0.253,1.654,0.379c0.541,0.149,1.087,0.262,1.61,0.437c0.518,0.19,1.03,0.378,1.537,0.565
					c0.254,0.093,0.506,0.186,0.758,0.279c0.241,0.115,0.481,0.23,0.721,0.345c0.477,0.23,0.95,0.459,1.417,0.686
					c0.473,0.216,0.891,0.522,1.331,0.775c0.431,0.268,0.868,0.519,1.281,0.793c0.398,0.298,0.791,0.593,1.178,0.884
					c3.09,2.358,5.351,5.13,6.909,7.78c1.546,2.661,2.516,5.166,2.978,7.284c0.118,0.528,0.29,1.015,0.341,1.493
					c0.069,0.475,0.135,0.919,0.196,1.332c0.056,0.413,0.125,0.793,0.156,1.143c0.015,0.351,0.028,0.669,0.04,0.955
					c0.021,0.561,0.037,0.991,0.048,1.294C72.019,78.937,72.015,79.086,72.015,79.086z"/>
			</g>
		</g>
		<g>
			<path fill="#FF725E" d="M35.13,74.423h5.168c0,0,0-4.34,4.51-4.417c2.342-0.041,3.557,1.494,4.05,2.669
				c0.573,1.365,0.399,2.921-0.369,4.186c-0.876,1.445-2.797,2.76-6.28,2.146v7.585h5.111v-2.757c0,0,7.167-1.853,7.167-9.753
				c0-7.558-6.778-9.313-9.679-9.313C42.59,64.768,35.033,65.305,35.13,74.423z"/>
			<rect x="42.195" y="88.561" fill="#FF725E" width="5.187" height="4.844"/>
		</g>
	</g>
	<g>
		<circle fill="#FFFFFF" cx="69.094" cy="104.542" r="4.154"/>
		<g>
			<path fill="#263238" d="M73.248,104.542c-0.036,0.001-0.023-0.37-0.195-0.998c-0.168-0.616-0.59-1.516-1.519-2.207
				c-0.897-0.693-2.374-1.08-3.801-0.547c-0.702,0.256-1.373,0.735-1.848,1.397c-0.489,0.653-0.764,1.491-0.772,2.355
				c0.008,0.864,0.283,1.702,0.772,2.356c0.475,0.662,1.146,1.142,1.848,1.396c1.428,0.533,2.904,0.146,3.801-0.547
				c0.929-0.691,1.35-1.591,1.519-2.207C73.225,104.913,73.212,104.54,73.248,104.542c0.012,0,0.019,0.091,0.021,0.267
				c0.005,0.176-0.015,0.436-0.086,0.764c-0.135,0.646-0.537,1.608-1.502,2.368c-0.931,0.76-2.507,1.21-4.055,0.651
				c-0.762-0.266-1.492-0.78-2.012-1.495c-0.533-0.705-0.837-1.617-0.844-2.555c0.008-0.938,0.312-1.849,0.845-2.554
				c0.52-0.714,1.25-1.228,2.012-1.495c1.548-0.558,3.124-0.108,4.055,0.652c0.964,0.759,1.367,1.722,1.502,2.368
				c0.072,0.327,0.092,0.588,0.086,0.763C73.267,104.451,73.26,104.542,73.248,104.542z"/>
		</g>
	</g>
</g>
<g>
	<g>
		<g>
			<circle fill="#FFFFFF" cx="347.215" cy="62.191" r="28.59"/>
			<g>
				<path fill="#263238" d="M375.805,62.191c0,0-0.02-0.157-0.042-0.462c-0.02-0.318-0.048-0.77-0.087-1.358
					c-0.017-0.299-0.036-0.632-0.059-0.999c-0.038-0.367-0.116-0.763-0.181-1.195c-0.068-0.431-0.142-0.895-0.222-1.391
					c-0.058-0.5-0.243-1.008-0.372-1.559c-0.503-2.209-1.536-4.818-3.166-7.585c-1.642-2.755-4.014-5.633-7.241-8.076
					c-0.405-0.302-0.815-0.607-1.229-0.917c-0.433-0.283-0.888-0.543-1.339-0.82c-0.459-0.262-0.896-0.58-1.389-0.803
					c-0.486-0.233-0.979-0.469-1.477-0.708c-0.249-0.119-0.5-0.237-0.752-0.357c-0.261-0.095-0.524-0.19-0.79-0.286
					c-0.526-0.193-1.061-0.388-1.6-0.584c-0.544-0.18-1.112-0.295-1.675-0.448c-0.57-0.129-1.129-0.329-1.722-0.39
					c-1.176-0.167-2.363-0.409-3.596-0.416c-0.613-0.021-1.231-0.081-1.854-0.071c-0.621,0.032-1.248,0.065-1.881,0.097
					c-0.315,0.021-0.634,0.02-0.95,0.062l-0.947,0.146c-0.633,0.104-1.277,0.179-1.913,0.31c-1.254,0.341-2.555,0.597-3.791,1.113
					c-1.273,0.408-2.473,1.038-3.706,1.629c-0.6,0.326-1.175,0.705-1.77,1.057c-0.29,0.187-0.601,0.346-0.878,0.555l-0.837,0.627
					c-1.154,0.793-2.165,1.785-3.223,2.74c-0.479,0.528-0.962,1.058-1.445,1.591l-0.363,0.4l-0.325,0.431l-0.651,0.872l-0.653,0.874
					l-0.572,0.935l-0.571,0.94l-0.287,0.473l-0.242,0.497c-0.319,0.666-0.643,1.333-0.965,2.004c-0.256,0.699-0.513,1.4-0.772,2.104
					c-0.926,2.852-1.424,5.881-1.465,8.963c0.041,3.083,0.538,6.114,1.464,8.967c0.258,0.704,0.516,1.406,0.771,2.105
					c0.323,0.67,0.646,1.339,0.966,2.004l0.241,0.497l0.288,0.472l0.57,0.941l0.572,0.935l0.653,0.875l0.651,0.871l0.325,0.433
					l0.363,0.4c0.485,0.533,0.966,1.063,1.445,1.591c1.058,0.956,2.068,1.948,3.224,2.741l0.837,0.627
					c0.277,0.21,0.588,0.369,0.879,0.555c0.594,0.353,1.169,0.732,1.769,1.057c1.234,0.592,2.433,1.221,3.707,1.629
					c1.236,0.517,2.537,0.771,3.791,1.113c0.637,0.131,1.281,0.205,1.914,0.31l0.947,0.146c0.316,0.042,0.635,0.04,0.95,0.062
					c0.633,0.033,1.26,0.064,1.882,0.097c0.623,0.009,1.241-0.05,1.854-0.071c1.232-0.007,2.42-0.25,3.597-0.416
					c0.593-0.061,1.151-0.261,1.721-0.39c0.563-0.153,1.132-0.269,1.676-0.449c0.538-0.196,1.073-0.39,1.601-0.583
					c0.265-0.096,0.528-0.192,0.789-0.287c0.252-0.12,0.503-0.238,0.752-0.357c0.498-0.238,0.989-0.474,1.478-0.708
					c0.492-0.224,0.928-0.541,1.388-0.803c0.45-0.277,0.905-0.537,1.339-0.82c0.414-0.309,0.824-0.614,1.23-0.917
					c3.227-2.443,5.598-5.322,7.239-8.076c1.63-2.767,2.663-5.376,3.165-7.585c0.129-0.551,0.314-1.059,0.373-1.559
					c0.079-0.496,0.152-0.959,0.221-1.391c0.064-0.431,0.143-0.828,0.181-1.194c0.022-0.367,0.042-0.7,0.059-0.999
					c0.039-0.588,0.067-1.039,0.087-1.357C375.785,62.348,375.805,62.191,375.805,62.191s0.004,0.157-0.005,0.463
					c-0.012,0.319-0.027,0.771-0.051,1.361c-0.012,0.3-0.025,0.635-0.041,1.003c-0.033,0.368-0.106,0.766-0.164,1.2
					c-0.064,0.435-0.132,0.901-0.206,1.4c-0.054,0.503-0.234,1.014-0.359,1.569c-0.484,2.224-1.503,4.857-3.126,7.653
					c-1.638,2.785-4.013,5.698-7.261,8.176c-0.407,0.306-0.821,0.616-1.237,0.929c-0.436,0.289-0.894,0.552-1.348,0.833
					c-0.463,0.266-0.902,0.587-1.398,0.815c-0.49,0.238-0.988,0.478-1.489,0.721c-0.251,0.12-0.504,0.241-0.758,0.362
					c-0.264,0.097-0.528,0.195-0.795,0.293c-0.534,0.196-1.072,0.395-1.615,0.594c-0.55,0.184-1.124,0.303-1.691,0.459
					c-0.575,0.132-1.141,0.335-1.739,0.398c-1.188,0.172-2.389,0.419-3.634,0.43c-0.619,0.023-1.244,0.084-1.873,0.077
					c-0.63-0.032-1.265-0.063-1.903-0.094c-0.318-0.021-0.641-0.019-0.96-0.06l-0.959-0.145c-0.641-0.105-1.291-0.179-1.936-0.311
					c-1.271-0.343-2.585-0.599-3.837-1.119c-1.291-0.412-2.507-1.046-3.754-1.643c-0.608-0.329-1.19-0.711-1.793-1.067
					c-0.294-0.188-0.608-0.349-0.889-0.561l-0.849-0.633c-1.169-0.802-2.194-1.804-3.266-2.771c-0.486-0.534-0.974-1.07-1.465-1.609
					l-0.368-0.405l-0.33-0.438l-0.659-0.881l-0.662-0.885l-0.58-0.946l-0.579-0.953l-0.291-0.478l-0.246-0.503
					c-0.325-0.674-0.652-1.351-0.979-2.03c-0.258-0.708-0.519-1.418-0.78-2.131c-0.94-2.889-1.444-5.958-1.484-9.081
					c0.041-3.121,0.546-6.189,1.485-9.077c0.263-0.713,0.523-1.423,0.782-2.13c0.328-0.679,0.653-1.356,0.979-2.029l0.244-0.503
					l0.291-0.478l0.58-0.952l0.579-0.947l0.663-0.884l0.659-0.881l0.33-0.437l0.368-0.405c0.491-0.539,0.979-1.074,1.465-1.608
					c1.07-0.967,2.095-1.969,3.265-2.77l0.849-0.633c0.28-0.212,0.595-0.373,0.889-0.561c0.603-0.356,1.184-0.738,1.793-1.067
					c1.248-0.597,2.462-1.231,3.753-1.643c1.252-0.52,2.566-0.776,3.836-1.118c0.644-0.132,1.296-0.206,1.936-0.31l0.959-0.146
					c0.318-0.042,0.641-0.04,0.96-0.061c0.639-0.031,1.273-0.063,1.903-0.093c0.629-0.008,1.254,0.054,1.874,0.077
					c1.243,0.01,2.445,0.257,3.632,0.429c0.599,0.063,1.165,0.267,1.739,0.399c0.567,0.156,1.142,0.274,1.691,0.458
					c0.543,0.199,1.082,0.398,1.615,0.594c0.267,0.098,0.53,0.196,0.795,0.293c0.255,0.122,0.506,0.242,0.758,0.362
					c0.502,0.243,0.998,0.482,1.489,0.72c0.497,0.228,0.937,0.549,1.398,0.815c0.454,0.281,0.912,0.545,1.348,0.833
					c0.417,0.313,0.829,0.623,1.238,0.929c3.247,2.479,5.622,5.392,7.261,8.176c1.624,2.796,2.643,5.43,3.127,7.654
					c0.125,0.555,0.306,1.066,0.359,1.569c0.074,0.499,0.142,0.966,0.206,1.4c0.058,0.434,0.13,0.833,0.164,1.201
					c0.016,0.368,0.029,0.703,0.041,1.003c0.023,0.59,0.039,1.042,0.051,1.361C375.809,62.034,375.805,62.191,375.805,62.191z"/>
			</g>
		</g>
		<g>
			<path fill="#FF725E" d="M337.043,57.291h5.432c0,0,0-4.561,4.74-4.643c2.461-0.042,3.737,1.57,4.257,2.806
				c0.601,1.434,0.419,3.069-0.388,4.399c-0.921,1.52-2.94,2.899-6.602,2.254v7.971h5.372v-2.897c0,0,7.533-1.947,7.533-10.249
				c0-7.943-7.123-9.788-10.172-9.788C344.883,47.144,336.939,47.708,337.043,57.291z"/>
			<rect x="344.468" y="72.147" fill="#FF725E" width="5.451" height="5.091"/>
		</g>
	</g>
	<g>
		<circle fill="#FFFFFF" cx="316.248" cy="86.827" r="4.365"/>
		<g>
			<path fill="#263238" d="M320.612,86.827c-0.039,0.002-0.024-0.389-0.204-1.048c-0.179-0.647-0.622-1.594-1.598-2.319
				c-0.943-0.729-2.493-1.135-3.993-0.575c-0.739,0.268-1.441,0.772-1.942,1.468c-0.515,0.687-0.804,1.567-0.812,2.474
				c0.008,0.908,0.297,1.789,0.811,2.477c0.501,0.696,1.204,1.2,1.943,1.468c1.5,0.56,3.051,0.153,3.994-0.576
				c0.975-0.726,1.418-1.672,1.597-2.319C320.588,87.216,320.573,86.825,320.612,86.827c0.013,0,0.021,0.096,0.023,0.281
				c0.005,0.184-0.017,0.458-0.092,0.802c-0.143,0.678-0.564,1.691-1.578,2.488c-0.978,0.799-2.635,1.272-4.263,0.686
				c-0.8-0.281-1.567-0.82-2.112-1.572c-0.563-0.741-0.88-1.699-0.889-2.686c0.009-0.984,0.326-1.942,0.889-2.683
				c0.546-0.751,1.313-1.291,2.112-1.572c1.628-0.586,3.284-0.113,4.263,0.685c1.014,0.797,1.436,1.81,1.578,2.488
				c0.075,0.345,0.097,0.619,0.092,0.803C320.633,86.731,320.625,86.827,320.612,86.827z"/>
		</g>
	</g>
</g>
<g>
	<g>
		<path fill="#263238" d="M161.699,296.797c-9.117-22.842-15.958-38.706-15.958-38.706l-83.372,12.673
			c0,0-14.985,38.415-13.688,55.846c1.296,17.431,7.398,48.125,7.398,48.125h100.886
			C156.965,374.734,170.816,319.638,161.699,296.797z"/>
		<g>
			<g>
				<path fill="#263238" d="M131.609,106.29c0.655-6.59,1.642-13.217,4.054-19.384c2.412-6.167,6.363-11.897,11.944-15.462
					l1.433,1.332c0.991-2.832,3.624-5.021,6.589-5.475c2.966-0.454,6.134,0.846,7.926,3.252c3.198-0.862,6.866,0.444,8.8,3.133
					c1.933,2.689,2.002,6.582,0.167,9.339c2.996,0.38,5.641,2.738,6.361,5.671c0.72,2.933-0.532,6.248-3.011,7.971
					c3.302,2.854,4.618,7.794,3.17,11.913c-1.445,4.118-5.562,7.151-9.922,7.314c0.974,3.791-1.002,8.13-4.5,9.887
					c-3.499,1.756-8.158,0.747-10.618-2.299c0.306,3.945-2.847,7.679-6.69,8.618c-3.842,0.938-8.03-0.614-10.834-3.405
					c-2.804-2.79-4.344-6.659-4.939-10.57C130.942,114.213,131.219,110.226,131.609,106.29z"/>
				<g>
					<g>
						<g>
							<path fill="#FF725E" d="M149.352,77.09c3.834,1.242,4.618,4.348,5.416,6.935c1.715,5.57-0.214,13.812-3.331,18.736
								c-3.117,4.924-6.535,7.427-12.302,8.26c-0.188-8.841-0.376-17.683-0.564-26.524L149.352,77.09z"/>
						</g>
						<g>
							<g>
								<g>
									<g>
										<path fill="#263238" d="M151.516,92.318c2.619-3.401,2.248-8.743-0.815-11.75c1.678-2.108,1.076-5.362-0.63-7.449
											c-1.706-2.087-4.241-3.285-6.687-4.415c-1.345-6.17-8.271-10.512-14.411-9.028c-3.198-4.701-10.011-5.439-15.47-3.849
											c-1.333,0.389-2.665,0.891-4.054,0.886c-1.019-0.005-2.014-0.283-3.024-0.419c-5.553-0.747-11.066,3.163-13.231,8.331
											c-0.346,0.826-0.631,1.697-1.18,2.405c-0.72,0.929-1.813,1.476-2.745,2.193c-2.013,1.551-3.29,4.019-3.397,6.558
											c-0.09,2.157,0.596,4.446-0.313,6.404c-0.456,0.981-1.277,1.774-1.632,2.797c-1.027,2.962,2.257,5.992,1.649,9.068
											c-0.125,0.628-0.408,1.212-0.582,1.828c-0.356,1.259-0.235,2.647,0.333,3.825c0.438,0.909,1.145,1.743,1.205,2.75
											c0.045,0.765-0.295,1.493-0.449,2.244c-0.375,1.836,3.588,8.918,5.174,9.916l47.419,0.424
											c3.588-0.731,6.511-3.983,6.855-7.629c0.059-0.606,0.067-1.264,0.443-1.744c0.319-0.409,0.838-0.595,1.295-0.841
											c3.052-1.64,3.42-5.832,3.1-9.282c-0.046-0.483-0.096-0.978,0.026-1.447C150.575,93.412,151.086,92.877,151.516,92.318z"
											/>
									</g>
								</g>
								<g>
									<g>
										<path fill="#FFBE9D" d="M137.932,92.385c0.141-8.392-5.123-18.035-13.459-22.138c-5.255-2.587-9.354-2.604-12.117-2.926
											c-6.189-0.722-11.183,2.345-11.183,2.345c-2.614,0.614-12.192,9.384-12.689,18.9c-0.552,10.572-0.81,23.502,0.527,31.372
											c2.687,15.824,14.857,17.711,14.857,17.711c0.001-0.024-1.133,26.304-1.133,26.304l23.39,19.169l7.146-31.474
											L137.932,92.385z"/>
									</g>
								</g>
								<g>
									<g>
										<g>
											<g>
												<g>
													<g>
														<path fill="#EB996E" d="M103.867,137.649c0,0,10.742,0.577,21.239-5.887c0,0-5.532,11.233-21.413,9.919
															L103.867,137.649z"/>
													</g>
												</g>
											</g>
										</g>
									</g>
								</g>
								<g>
									<g>
										<g>
											<g>
												<g>
													<g>
														<path fill="#FFBE9D" d="M135.541,107.435c-0.01-1.181,1.324-3.979,2.488-4.173c3.107-0.518,8.721-0.329,8.858,7.578
															c0.188,10.806-10.421,8.392-10.726,8.455C134.438,119.648,135.573,111.511,135.541,107.435z"/>
													</g>
												</g>
											</g>
										</g>
									</g>
								</g>
								<g>
									<g>
										<g>
											<g>
												<g>
													<g>
														<g>
															<path fill="#EB996E" d="M139.075,115.295c0.046-0.035,0.19,0.129,0.51,0.269c0.313,0.137,0.849,0.226,1.409,0.005
																c1.134-0.439,2.063-2.268,2.083-4.217c0.011-0.985-0.212-1.917-0.573-2.688c-0.344-0.784-0.865-1.328-1.442-1.419
																c-0.573-0.123-0.975,0.229-1.102,0.535c-0.141,0.305-0.067,0.52-0.124,0.539c-0.029,0.028-0.235-0.176-0.156-0.624
																c0.041-0.216,0.163-0.473,0.414-0.686c0.255-0.214,0.635-0.329,1.036-0.292c0.835,0.043,1.599,0.797,1.996,1.641
																c0.444,0.848,0.716,1.896,0.705,3.001c-0.031,2.179-1.11,4.235-2.665,4.714c-0.757,0.211-1.396-0.007-1.728-0.256
																C139.098,115.557,139.038,115.316,139.075,115.295z"/>
														</g>
													</g>
												</g>
											</g>
										</g>
									</g>
								</g>
								<path fill="#263238" d="M86.165,86.964c0.344-3.925,1.908-7.647,3.801-11.103c1.311-2.391,2.819-4.725,4.882-6.509
									c1.724-1.49,3.777-2.543,5.835-3.52c5.415-2.567,11.454-4.747,17.299-3.43c3.139,0.708,5.964,2.375,8.711,4.046
									c2.107,1.281,4.222,2.594,5.986,4.315c1.548,1.511,2.792,3.307,3.89,5.17c2.616,4.443,4.464,9.409,4.818,14.553
									c0.354,5.145,4.247,9.692,1.229,13.875c-0.233,0.324-5.605,1.436-5.976,1.583c-0.873,0.348-1.833-0.6-1.826-1.54
									s0.654-1.749,1.35-2.381c-1.337-0.044-2.254-1.533-2.17-2.869c0.084-1.336,0.875-2.511,1.669-3.588
									c0.104-0.141,0.211-0.29,0.232-0.463c0.056-0.456-0.459-0.737-0.855-0.97c-1.924-1.14-2.14-4.309-0.386-5.697
									c-2.578-0.597-4.248-3.697-3.33-6.179c0.145-0.392,0.344-0.833,0.155-1.206c-0.181-0.359-0.626-0.472-1.012-0.586
									c-2.853-0.845-4.77-4.068-4.15-6.978c-1.5,0.079-3.025,0.155-4.484-0.199s-2.871-1.208-3.539-2.554
									c-0.957,1.723-2.835,2.897-4.804,3.003s-3.961-0.861-5.097-2.472c-2.517,0.24-5.093-0.158-7.419-1.148
									c-0.57,2.345-2.42,4.337-4.717,5.079c-0.446,0.145-0.959,0.284-1.174,0.701c-0.137,0.265-0.115,0.58-0.099,0.878
									c0.08,1.508-0.949,2.151-1.781,3.413c-0.832,1.261-2.283,3.14-3.735,2.724c0.161,2.57-1.213,4.441-3.383,5.828
									L86.165,86.964z"/>
								<g>
									<g>
										<path fill="#455A64" d="M83.929,84.982c0,0,0.104-0.447,0.572-1.166c0.226-0.361,0.545-0.783,0.846-1.322
											c0.294-0.54,0.527-1.225,0.588-2.025c0.079-0.798,0.006-1.693-0.071-2.673c-0.077-0.976-0.16-2.064,0.057-3.209
											c0.206-1.141,0.655-2.324,1.391-3.417c0.368-0.546,0.806-1.068,1.316-1.542c0.506-0.479,1.101-0.882,1.695-1.285
											c0.591-0.406,1.188-0.842,1.63-1.431c0.443-0.588,0.713-1.311,1.006-2.043c0.587-1.477,1.444-2.924,2.589-4.201
											c1.137-1.277,2.522-2.436,4.16-3.259c0.804-0.44,1.69-0.737,2.593-1c0.917-0.207,1.866-0.37,2.837-0.346
											c0.484-0.007,0.971,0.056,1.458,0.102c0.483,0.071,0.961,0.169,1.44,0.25c0.956,0.182,1.923,0.201,2.888-0.022
											c0.965-0.198,1.912-0.556,2.909-0.813c0.989-0.282,2.018-0.449,3.058-0.568c1.043-0.116,2.104-0.117,3.168-0.057
											c1.064,0.079,2.129,0.267,3.175,0.557c2.072,0.614,4.091,1.756,5.472,3.544c0.136,0.177,0.271,0.354,0.405,0.528
											l-0.173-0.067c3.263-0.782,6.682,0.071,9.322,1.801c2.659,1.725,4.636,4.399,5.279,7.353l-0.088-0.107
											c1.312,0.607,2.609,1.219,3.806,1.968c1.194,0.746,2.291,1.641,3.116,2.74c0.818,1.104,1.319,2.404,1.438,3.719
											c0.123,1.309-0.198,2.665-1.002,3.662l-0.011-0.181c1.556,1.535,2.353,3.584,2.535,5.528
											c0.185,1.953-0.209,3.861-1.079,5.379c-0.198,0.392-0.467,0.731-0.709,1.076c-0.261,0.331-0.526,0.639-0.736,0.971
											c-0.209,0.332-0.348,0.689-0.375,1.063c-0.034,0.375,0.01,0.75,0.04,1.122c0.126,1.49,0.104,2.874-0.081,4.103
											c-0.188,1.226-0.535,2.303-1.038,3.131c-0.491,0.835-1.111,1.408-1.666,1.768c-0.555,0.373-1.047,0.52-1.32,0.722
											c-0.283,0.187-0.382,0.338-0.391,0.33c0,0,0.086-0.162,0.368-0.363c0.27-0.218,0.763-0.38,1.298-0.756
											c0.539-0.365,1.135-0.935,1.608-1.76c0.483-0.818,0.813-1.88,0.986-3.093c0.173-1.216,0.183-2.586,0.046-4.064
											c-0.031-0.369-0.08-0.754-0.048-1.155c0.027-0.403,0.18-0.806,0.4-1.154c0.217-0.352,0.488-0.667,0.742-0.993
											c0.234-0.339,0.494-0.67,0.684-1.053c0.839-1.482,1.213-3.345,1.024-5.249c-0.186-1.895-0.971-3.883-2.478-5.359
											l-0.087-0.085l0.076-0.096c0.75-0.939,1.053-2.215,0.931-3.469c-0.116-1.257-0.603-2.511-1.391-3.568
											c-0.798-1.058-1.867-1.929-3.042-2.659c-1.177-0.734-2.463-1.338-3.775-1.943l-0.069-0.032l-0.016-0.076
											c-0.626-2.864-2.554-5.469-5.151-7.15c-2.579-1.686-5.911-2.511-9.07-1.753l-0.103,0.024l-0.07-0.091
											c-0.129-0.168-0.26-0.339-0.392-0.51c-1.33-1.724-3.283-2.834-5.306-3.434c-1.021-0.284-2.063-0.468-3.107-0.547
											c-1.045-0.06-2.087-0.06-3.112,0.053c-1.023,0.115-2.035,0.279-3.009,0.555c-0.979,0.25-1.932,0.609-2.928,0.813
											c-0.496,0.103-1.002,0.169-1.511,0.169c-0.508,0-1.007-0.068-1.492-0.15c-0.485-0.083-0.961-0.181-1.433-0.25
											c-0.474-0.046-0.945-0.109-1.416-0.103c-0.943-0.026-1.867,0.131-2.763,0.33c-0.88,0.255-1.747,0.542-2.535,0.972
											c-1.604,0.799-2.966,1.932-4.087,3.182c-1.128,1.251-1.973,2.665-2.558,4.116c-0.294,0.726-0.573,1.47-1.047,2.094
											c-0.474,0.625-1.097,1.07-1.691,1.477c-0.603,0.404-1.183,0.792-1.678,1.256c-0.5,0.459-0.93,0.966-1.292,1.497
											c-0.726,1.063-1.174,2.22-1.383,3.334c-0.22,1.118-0.149,2.188-0.081,3.165c0.068,0.979,0.133,1.885,0.042,2.697
											c-0.071,0.813-0.32,1.515-0.629,2.06c-0.314,0.542-0.643,0.956-0.875,1.311c-0.24,0.35-0.395,0.634-0.488,0.83
											C83.973,84.878,83.937,84.985,83.929,84.982z"/>
									</g>
								</g>
								<g>
									<g>
										<path fill="#455A64" d="M123.882,57.342c-0.017,0.025-0.287-0.161-0.814-0.414c-0.526-0.249-1.326-0.559-2.362-0.669
											c-1.027-0.115-2.3-0.019-3.548,0.546c-1.239,0.56-2.442,1.576-3.209,2.954c-0.22,0.396-0.409,0.816-0.527,1.228
											c-0.114,0.409-0.127,0.843,0.088,1.137l0.267,0.366l-0.438-0.119c-1.201-0.33-2.433-0.092-3.338,0.424
											c-0.922,0.514-1.501,1.307-1.818,2.015c-0.32,0.716-0.393,1.354-0.408,1.784c-0.011,0.433,0.025,0.67,0,0.674
											c-0.009,0.001-0.026-0.057-0.051-0.169c-0.025-0.113-0.048-0.282-0.059-0.504c-0.02-0.44,0.022-1.105,0.331-1.865
											c0.302-0.75,0.895-1.607,1.867-2.173c0.955-0.564,2.261-0.838,3.56-0.492l-0.17,0.246
											c-0.303-0.421-0.264-0.963-0.143-1.408c0.131-0.456,0.322-0.881,0.555-1.301c0.805-1.445,2.069-2.499,3.372-3.069
											c1.314-0.576,2.643-0.649,3.699-0.5c1.066,0.143,1.874,0.496,2.392,0.785c0.259,0.146,0.453,0.272,0.577,0.369
											C123.826,57.28,123.888,57.333,123.882,57.342z"/>
									</g>
								</g>
								<g>
									<g>
										<path fill="#455A64" d="M141.516,69.611c0.013,0.015-0.113,0.157-0.374,0.389c-0.263,0.229-0.66,0.55-1.216,0.86
											c-0.555,0.304-1.281,0.605-2.151,0.664c-0.855,0.058-1.874-0.129-2.69-0.791l0.239-0.039
											c-0.102,0.146-0.207,0.294-0.313,0.446c-0.114,0.146-0.242,0.285-0.366,0.429c-0.789,0.828-1.75,1.398-2.687,1.701
											c-0.935,0.313-1.833,0.396-2.573,0.344c-0.742-0.052-1.321-0.229-1.706-0.375c-0.378-0.165-0.574-0.279-0.565-0.296
											c0.022-0.068,0.84,0.391,2.283,0.441c0.715,0.021,1.574-0.082,2.463-0.397c0.891-0.306,1.801-0.857,2.548-1.641
											c0.116-0.137,0.237-0.268,0.346-0.404c0.101-0.143,0.201-0.283,0.297-0.42l0.105-0.149l0.135,0.11
											c0.728,0.599,1.664,0.791,2.468,0.753c0.813-0.035,1.517-0.298,2.066-0.568C140.923,70.103,141.48,69.564,141.516,69.611z
											"/>
									</g>
								</g>
								<g>
									<g>
										<path fill="#455A64" d="M147.307,79.589c0.011,0.002,0.003,0.07-0.024,0.199c-0.037,0.125-0.097,0.314-0.237,0.524
											c-0.262,0.426-0.849,0.945-1.733,1.171c-0.887,0.239-1.989,0.069-3.089-0.311c-0.552-0.192-1.125-0.385-1.711-0.659
											c-0.57-0.274-1.193-0.671-1.504-1.349c-0.023-0.059-0.047-0.118-0.068-0.173l0.255,0.075
											c-1.034,0.822-2.102,1.538-3.191,1.95c-1.082,0.428-2.171,0.503-3.033,0.338c-0.867-0.156-1.508-0.52-1.877-0.835
											c-0.188-0.155-0.316-0.295-0.394-0.396c-0.079-0.102-0.114-0.157-0.106-0.166c0.023-0.02,0.194,0.188,0.578,0.462
											c0.378,0.275,1.003,0.588,1.836,0.709c0.831,0.128,1.853,0.036,2.888-0.39c1.041-0.412,2.073-1.113,3.097-1.927
											l0.17-0.136l0.084,0.211c0.018,0.045,0.038,0.095,0.057,0.144c0.253,0.562,0.8,0.929,1.345,1.195
											c0.551,0.264,1.131,0.467,1.669,0.663c1.074,0.387,2.111,0.564,2.939,0.371c0.833-0.184,1.403-0.641,1.682-1.02
											C147.23,79.858,147.272,79.579,147.307,79.589z"/>
									</g>
								</g>
							</g>
						</g>
					</g>
					<g>
						<g>
							<g>
								<g>
									<g>
										<g>
											<g>
												<g>
													<g>
														<path fill="#263238" d="M112.409,101.536c-0.071,1.055,0.763,1.984,1.863,2.079c1.098,0.094,2.046-0.681,2.118-1.736
															c0.071-1.053-0.763-1.983-1.859-2.079C113.43,99.704,112.48,100.482,112.409,101.536z"/>
													</g>
												</g>
											</g>
										</g>
									</g>
								</g>
							</g>
						</g>
					</g>
					<g>
						<g>
							<g>
								<g>
									<g>
										<g>
											<g>
												<g>
													<g>
														<path fill="#263238" d="M93.04,101.006c-0.071,1.054,0.763,1.984,1.862,2.078c1.098,0.094,2.047-0.681,2.118-1.736
															c0.071-1.054-0.763-1.984-1.859-2.079C94.06,99.174,93.11,99.952,93.04,101.006z"/>
													</g>
												</g>
											</g>
										</g>
									</g>
								</g>
							</g>
						</g>
					</g>
					<g>
						<g>
							<g>
								<g>
									<g>
										<g>
											<g>
												<g>
													<g>
														<g>
															<path fill="#263238" d="M92.25,94.374c0.24,0.269,1.789-0.803,3.94-0.729c2.149,0.043,3.692,1.201,3.933,0.945
																c0.12-0.113-0.119-0.592-0.789-1.113c-0.661-0.52-1.799-1.042-3.139-1.08c-1.34-0.036-2.483,0.421-3.147,0.905
																C92.372,93.789,92.132,94.253,92.25,94.374z"/>
														</g>
													</g>
												</g>
											</g>
										</g>
									</g>
								</g>
							</g>
						</g>
					</g>
					<g>
						<g>
							<g>
								<g>
									<g>
										<g>
											<g>
												<g>
													<g>
														<g>
															<path fill="#263238" d="M113.638,95.447c0.266,0.243,1.699-0.983,3.845-1.128c2.143-0.178,3.795,0.814,4.01,0.536
																c0.105-0.125-0.177-0.576-0.901-1.027c-0.71-0.45-1.896-0.851-3.232-0.751c-1.336,0.102-2.425,0.674-3.037,1.224
																C113.7,94.852,113.509,95.339,113.638,95.447z"/>
														</g>
													</g>
												</g>
											</g>
										</g>
									</g>
								</g>
							</g>
						</g>
					</g>
					<g>
						<g>
							<g>
								<g>
									<g>
										<g>
											<g>
												<g>
													<g>
														<path fill="#263238" d="M105.618,111.591c0.014-0.121-1.315-0.396-3.473-0.742c-0.547-0.075-1.064-0.2-1.145-0.578
															c-0.116-0.401,0.132-0.985,0.419-1.616c0.56-1.313,1.145-2.688,1.759-4.129c2.445-5.881,4.236-10.725,3.999-10.82
															c-0.238-0.098-2.415,4.592-4.861,10.472c-0.59,1.451-1.154,2.834-1.69,4.157c-0.228,0.617-0.608,1.314-0.354,2.146
															c0.135,0.415,0.528,0.726,0.877,0.833c0.349,0.119,0.657,0.134,0.928,0.159
															C104.253,111.66,105.606,111.713,105.618,111.591z"/>
													</g>
												</g>
											</g>
										</g>
									</g>
								</g>
							</g>
						</g>
					</g>
					<path fill="#EB996E" d="M108.949,114.788c0.806,0.113,1.611,0.53,2.081,1.204c0.471,0.674,0.81,2.253,0.343,2.867
						c-0.398,0.522-2.174,0.521-3.396,0.367c-0.566-0.071-1.038-0.463-1.225-1.002l-0.483-1.389
						c-0.275-0.79,0.136-1.677,0.935-1.927C107.746,114.737,108.351,114.704,108.949,114.788z"/>
					<g>
						<g>
							<g>
								<g>
									<g>
										<path fill="#263238" d="M112.659,87.594c0.32,0.534,2.376-0.149,4.912-0.333c2.533-0.235,4.672,0.1,4.9-0.479
											c0.099-0.276-0.354-0.748-1.271-1.146c-0.909-0.399-2.289-0.678-3.809-0.554c-1.52,0.127-2.835,0.628-3.667,1.171
											C112.886,86.798,112.517,87.339,112.659,87.594z"/>
									</g>
								</g>
							</g>
						</g>
					</g>
					<g>
						<g>
							<g>
								<g>
									<g>
										<path fill="#263238" d="M92.781,90.842c0.452,0.477,2.154-0.076,4.216-0.156c2.06-0.141,3.82,0.226,4.208-0.295
											c0.17-0.253-0.119-0.735-0.895-1.177c-0.765-0.44-2.033-0.783-3.45-0.708c-1.417,0.077-2.633,0.553-3.338,1.072
											C92.807,90.099,92.581,90.609,92.781,90.842z"/>
									</g>
								</g>
							</g>
						</g>
					</g>
				</g>
			</g>
			<g>
				<g>
					<path fill="#455A64" d="M166.894,180.156l-20.292,73.601l7.118,21.096c-26.794,11.81-65.528,15.564-96.061,0.767
						c0,0,10.372-30.431,10.725-36.354c0.352-5.924-2.197-40.529,0.625-52.135c2.822-11.605,10.902-36.479,10.902-36.479
						l23.768-3.773c10.896,5.853,17.875,6.725,29.593-0.059l22.139,4.829L166.894,180.156z"/>
				</g>
				<g>
					<path fill="#455A64" d="M80.271,150.613c0,0-12.764,1.352-17.903,11.849c-5.077,10.371-19.17,56.269-19.937,63.938
						c-0.767,7.667,5.454,17.988,10.877,19.415l16.444-16.394l13.644,1.215l17.963-83.815L80.271,150.613z"/>
				</g>
				<g opacity="0.3">
					<g>
						<path d="M70.634,178.807c-3.968,10.294-5.09,21.67-3.209,32.542c-2.995-1.119-5.99-2.238-8.985-3.356
							c2.448,3.382,5.664,6.203,9.336,8.189c-2.423-0.7-4.906-1.408-7.423-1.244s-5.117,1.377-6.249,3.632
							c2.937-0.537,5.926-1.075,8.892-0.729c2.966,0.345,5.958,1.715,7.554,4.238c-2.215-9.561-3.068-19.436-2.524-29.234"/>
					</g>
				</g>
			</g>
			<g>
				<g opacity="0.3">
					<g>
						<path d="M66.907,241.93l66.979,6.637c-4.828-0.103-8.543,3.983-12.723,6.401c-7.74,4.477-17.379,3.226-26.211,1.836
							c-7.318-1.151-14.636-2.302-21.955-3.454c-1.847-0.29-3.814-0.638-5.175-1.918C65.383,249.135,66.051,245.168,66.907,241.93z"
							/>
					</g>
				</g>
				<g>
					<path fill="#FFBE9D" d="M118.06,236.423l11.216-10.829c1.089-1.05,2.578-1.574,4.084-1.431
						c3.202,0.302,8.626,0.866,9.742,1.298c1.604,0.626,3.119,1.517,3.565,2.318c0.445,0.802,1.96,5.614,2.049,6.327
						c0.044,0.347-0.061,1.346-0.179,2.281c-0.138,1.104-1.356,1.76-2.327,1.211c-0.436-0.248-0.833-0.573-1.059-0.996
						c-0.712-1.337-0.623-1.872-0.623-1.872s0.355,4.813-3.565,4.901c0,0,1.807,4.1-3.241,5.793c0,0,0.188,2.673-4.034,3.029
						c-4.221,0.357-8.053,0-8.053,0s-7.716,5.543-13.152,5.9c-5.436,0.355-17.608-2.02-17.608-2.02l-1.469-22.42L118.06,236.423z"/>
				</g>
				<g>
					<g>
						<path fill="#EB996E" d="M133.256,229.554c-0.013,0.039,0.672,0.328,1.797,0.753c1.126,0.421,2.694,0.981,4.473,1.455
							c0.88,0.25,1.77,0.392,2.507,0.594c0.75,0.201,1.203,0.764,1.528,1.254c0.326,0.496,0.584,0.918,0.81,1.177
							c0.221,0.26,0.375,0.37,0.388,0.356c0.018-0.017-0.109-0.153-0.295-0.429c-0.191-0.271-0.414-0.696-0.724-1.219
							c-0.158-0.259-0.348-0.542-0.611-0.804c-0.26-0.263-0.62-0.475-1.011-0.6c-0.791-0.231-1.631-0.368-2.516-0.621
							c-1.764-0.469-3.337-0.996-4.479-1.365C133.982,229.732,133.271,229.515,133.256,229.554z"/>
					</g>
				</g>
				<g>
					<g>
						<path fill="#EB996E" d="M131.813,236.427c-0.015,0.039,0.462,0.26,1.249,0.576s1.885,0.725,3.11,1.136
							c1.228,0.409,2.35,0.744,3.168,0.965c0.819,0.221,1.332,0.33,1.343,0.292c0.012-0.041-0.48-0.223-1.281-0.494
							c-0.911-0.305-1.967-0.658-3.136-1.049c-1.167-0.392-2.224-0.745-3.133-1.05C132.33,236.538,131.828,236.387,131.813,236.427z
							"/>
					</g>
				</g>
				<g>
					<g>
						<path fill="#EB996E" d="M129.041,242.817c-0.01,0.092,1.953,0.294,4.287,0.929c2.339,0.625,4.135,1.437,4.173,1.354
							c0.017-0.036-0.413-0.283-1.144-0.609c-0.73-0.324-1.769-0.714-2.951-1.034c-1.18-0.317-2.274-0.502-3.07-0.59
							C129.54,242.781,129.043,242.779,129.041,242.817z"/>
					</g>
				</g>
				<g>
					<path fill="#455A64" d="M103.064,253.757l-49.755-7.942c0,0,5.979-24.957,14.702-24.957c1.278,0,45.474,14.358,45.474,14.358
						L103.064,253.757z"/>
				</g>
				<g>
					<g>
						<path fill="#EB996E" d="M111.769,242.89c0.031,0.03,0.467-0.388,1.167-1.068c0.768-0.753,1.694-1.664,2.718-2.67
							c1.056-1.05,1.999-2.016,2.659-2.736c0.663-0.718,1.044-1.188,1.015-1.215c-0.031-0.03-0.467,0.388-1.167,1.066
							c-0.769,0.756-1.695,1.665-2.72,2.672c-1.055,1.051-1.997,2.016-2.658,2.736C112.121,242.393,111.74,242.862,111.769,242.89z"
							/>
					</g>
				</g>
			</g>
			<g>
				<path fill="#263238" d="M113.484,235.216c-0.008,0.023-0.225-0.018-0.633-0.119c-0.486-0.129-1.071-0.285-1.773-0.472
					c-1.642-0.472-3.83-1.102-6.483-1.864c-5.465-1.605-13.001-3.869-21.31-6.411c-4.601-1.421-8.96-2.767-12.83-3.962l-0.101-0.031
					l-0.076-0.101c-1.525-2.052-3.771-3.301-5.799-3.919c-2.062-0.629-3.991-0.704-5.546-0.564
					c-1.565,0.127-2.771,0.472-3.583,0.716c-0.811,0.261-1.23,0.446-1.247,0.414c-0.017-0.03,0.377-0.282,1.178-0.607
					c0.802-0.31,2.013-0.721,3.613-0.907c1.589-0.2,3.583-0.176,5.739,0.434c2.136,0.622,4.475,1.83,6.187,4.081l-0.176-0.132
					c3.875,1.175,8.242,2.499,12.85,3.896c8.31,2.541,15.822,4.881,21.25,6.61c2.625,0.852,4.792,1.554,6.417,2.081
					c0.687,0.238,1.258,0.438,1.734,0.601C113.288,235.104,113.491,235.193,113.484,235.216z"/>
			</g>
		</g>
		<g>
			<g>
				<g>
					<g>
						<path fill="#FFBE9D" d="M100.302,155.445c0.416-1.384,2.753-14.169,3.703-17.142c1.342-4.194,12.239-11.695,12.239-11.695
							s-1.709-3.937-6.349-1.891c-5.494,2.423-8.209,6.502-9.593,5.671c-1.384-0.831-10.012-9.614-12.366-9.337
							c-2.352,0.277-2.869,2.69-2.039,3.659c0.83,0.969,1.762,2.569,1.762,2.569s-4.982-1.5-4.014,3.956c0,0-5.673-3.541-5.12,3.933
							c0,0-3.737-1.523-4.567,1.106c-0.831,2.629,1.632,5.675,2.877,7.751c1.246,2.075,5.288,14.116,5.288,14.116l0.047,10.616
							l19.84-4.078L100.302,155.445z"/>
						<g>
							<path fill="#EB996E" d="M100.302,155.445c0.015,0.001,0.068,0.207,0.157,0.61c0.093,0.443,0.216,1.032,0.373,1.779
								c0.317,1.609,0.768,3.896,1.343,6.814l0.031,0.159l-0.161,0.035c-4.899,1.035-11.675,2.465-19.818,4.185l-0.328,0.069
								l-0.002-0.338c-0.025-3.269-0.052-6.845-0.081-10.615l0.016,0.097c-1.416-4.083-2.887-8.476-4.735-12.913
								c-0.904-2.138-2.788-4-3.466-6.594c-0.166-0.641-0.243-1.334-0.131-2.027c0.104-0.665,0.418-1.431,1.074-1.85
								c0.638-0.422,1.393-0.515,2.077-0.466c0.696,0.05,1.348,0.202,2.01,0.45l-0.486,0.353c-0.028-0.73-0.056-1.472,0.048-2.237
								c0.136-0.745,0.305-1.578,0.948-2.208c0.625-0.658,1.607-0.799,2.398-0.658c0.816,0.134,1.555,0.425,2.267,0.841l-0.54,0.365
								c-0.133-1.002-0.305-2.225,0.371-3.324c0.42-0.69,1.207-1.086,1.936-1.188c0.746-0.108,1.45-0.031,2.16,0.152l-0.411,0.521
								c-0.498-0.832-1.031-1.663-1.625-2.396c-0.383-0.383-0.585-1.047-0.553-1.586c0.029-0.56,0.219-1.1,0.54-1.551
								c0.319-0.453,0.779-0.803,1.286-1.001c0.254-0.092,0.513-0.167,0.776-0.202c0.254-0.035,0.611,0.004,0.859,0.074
								c1.019,0.33,1.798,0.899,2.588,1.449c3.095,2.261,5.747,4.856,8.423,7.197c0.319,0.261,0.713,0.63,0.946,0.696
								c0.24,0.078,0.638-0.107,0.981-0.313c0.708-0.439,1.381-1.004,2.062-1.532c1.355-1.075,2.753-2.082,4.221-2.906
								c1.458-0.769,2.997-1.624,4.731-1.552c1.739,0.037,3.233,1.194,3.926,2.656l0.101,0.212l-0.204,0.145
								c-4.246,3.019-8.063,5.991-10.764,9.188c-0.672,0.805-1.197,1.652-1.495,2.556c-0.278,0.932-0.494,1.859-0.701,2.745
								c-0.391,1.777-0.749,3.409-1.074,4.887c-0.622,2.914-1.112,5.214-1.458,6.835c-0.174,0.785-0.316,1.385-0.423,1.786
								C100.391,155.247,100.302,155.445,100.302,155.445c-0.018,0.001,0.031-0.211,0.106-0.619c0.085-0.45,0.197-1.047,0.338-1.802
								c0.309-1.63,0.748-3.939,1.303-6.867c0.303-1.485,0.639-3.124,1.004-4.909c0.197-0.894,0.4-1.821,0.676-2.783
								c0.308-0.977,0.872-1.9,1.548-2.724c2.74-3.306,6.535-6.298,10.802-9.374l-0.103,0.357c-0.61-1.247-1.921-2.267-3.414-2.277
								c-1.498-0.067-2.963,0.725-4.395,1.494c-1.425,0.81-2.782,1.794-4.125,2.868c-0.682,0.531-1.342,1.096-2.126,1.587
								c-0.398,0.213-0.845,0.527-1.492,0.391c-0.61-0.225-0.838-0.553-1.218-0.833c-2.707-2.355-5.357-4.932-8.39-7.138
								c-0.754-0.531-1.557-1.084-2.375-1.342c-0.206-0.045-0.346-0.072-0.561-0.053c-0.215,0.028-0.418,0.09-0.618,0.16
								c-0.393,0.155-0.732,0.417-0.973,0.758c-0.477,0.669-0.598,1.679-0.013,2.271c0.64,0.792,1.173,1.624,1.691,2.49l0.451,0.751
								l-0.862-0.23c-1.156-0.309-2.677-0.275-3.288,0.737c-0.505,0.779-0.406,1.888-0.271,2.815l0.109,0.747l-0.65-0.381
								c-0.607-0.357-1.313-0.634-1.993-0.741c-0.685-0.114-1.366,0.003-1.794,0.458c-0.878,0.949-0.853,2.547-0.792,3.886
								l0.024,0.54l-0.51-0.186c-1.119-0.408-2.516-0.649-3.425-0.06c-0.452,0.286-0.683,0.81-0.781,1.385
								c-0.093,0.57-0.033,1.165,0.115,1.742c0.301,1.16,0.911,2.242,1.555,3.279c0.63,1.03,1.395,2.055,1.857,3.215
								c1.859,4.504,3.302,8.88,4.704,12.987l0.016,0.047l0,0.05c0.005,3.77,0.009,7.346,0.014,10.615l-0.33-0.268
								c8.161-1.632,14.951-2.989,19.862-3.971l-0.13,0.193c-0.51-2.943-0.909-5.25-1.19-6.874c-0.121-0.75-0.216-1.34-0.288-1.785
								C100.311,155.649,100.287,155.444,100.302,155.445z"/>
						</g>
					</g>
				</g>
				<g>
					<g>
						<path fill="#EB996E" d="M87.677,127.417c-0.053,0.067,1.068,1.025,2.408,2.247c1.344,1.219,2.403,2.244,2.465,2.185
							c0.059-0.055-0.909-1.179-2.262-2.407C88.937,128.212,87.726,127.354,87.677,127.417z"/>
					</g>
				</g>
				<g>
					<g>
						<path fill="#EB996E" d="M83.24,130.937c-0.071,0.03,0.355,1.103,1.223,2.217c0.863,1.119,1.796,1.797,1.843,1.735
							c0.059-0.067-0.766-0.83-1.605-1.92C83.854,131.885,83.32,130.897,83.24,130.937z"/>
					</g>
				</g>
				<g>
					<g>
						
							<ellipse transform="matrix(-0.585 -0.811 0.811 -0.585 15.7137 281.0565)" fill="#EB996E" cx="79.766" cy="136.508" rx="1.99" ry="0.151"/>
					</g>
				</g>
			</g>
		</g>
		<path fill="#455A64" d="M155.41,151.649l-21.338,21.292l-21.892,27.502l-8.706-36.651l-22.245,4.572
			c0,0,1.569,41.402,8.416,60.166c1.302,3.571,5.157,6.228,6.876,7.044c10.754,5.107,21.254-2.795,21.254-2.795
			s44.867-30.113,49.729-50.271c2.297-9.52,1.376-20.838-2.537-25.497C161.527,152.914,155.41,151.649,155.41,151.649z"/>
		<g>
			<path fill="#263238" d="M167.503,182.507c0,0-0.05,0.222-0.169,0.652c-0.141,0.421-0.254,1.084-0.601,1.885
				c-0.564,1.65-1.727,3.96-3.522,6.736c-1.809,2.769-4.299,5.974-7.465,9.439c-3.178,3.456-6.986,7.218-11.413,11.132
				c-4.41,3.932-9.422,8.031-14.941,12.248c-2.762,2.107-5.653,4.239-8.674,6.376c-0.76,0.529-1.525,1.063-2.295,1.599
				c-0.761,0.525-1.559,1.081-2.389,1.549c-1.667,0.942-3.45,1.735-5.327,2.323c-3.733,1.207-7.955,1.451-11.92,0.224
				c-0.505-0.117-0.967-0.364-1.455-0.541c-0.479-0.198-0.974-0.371-1.431-0.64c-0.92-0.507-1.775-1.119-2.59-1.787
				c-1.603-1.354-3.068-3.007-3.852-5.054c-1.422-4.027-2.438-8.243-3.337-12.543c-0.817-4.315-1.575-8.707-2.142-13.18
				c-1.568-11.929-2.461-23.547-2.963-34.553l-0.008-0.179l0.177-0.036c7.764-1.591,15.202-3.115,22.248-4.558l0.188-0.039
				l0.044,0.186c3.289,13.925,6.216,26.315,8.66,36.663l-0.255-0.067c7.514-8.082,13.544-14.57,17.707-19.048
				c2.078-2.22,3.688-3.943,4.788-5.119c0.542-0.573,0.958-1.013,1.248-1.318c0.283-0.295,0.435-0.439,0.435-0.439
				s-0.131,0.164-0.403,0.468c-0.283,0.313-0.688,0.76-1.218,1.347c-1.087,1.188-2.677,2.927-4.729,5.173
				c-4.139,4.499-10.136,11.019-17.607,19.14l-0.191,0.207l-0.066-0.274c-2.47-10.341-5.428-22.724-8.752-36.641l0.232,0.148
				c-7.044,1.452-14.48,2.986-22.242,4.587l0.169-0.216c0.51,10.987,1.409,22.604,2.975,34.511
				c0.566,4.466,1.322,8.848,2.136,13.151c0.895,4.285,1.906,8.488,3.312,12.479c0.741,1.943,2.157,3.556,3.721,4.877
				c0.795,0.653,1.633,1.255,2.522,1.745c0.435,0.258,0.917,0.426,1.386,0.619c0.476,0.173,0.927,0.417,1.42,0.53
				c3.868,1.202,7.998,0.974,11.674-0.209c1.848-0.576,3.606-1.355,5.251-2.282c0.828-0.465,1.583-0.988,2.365-1.528
				c0.77-0.532,1.534-1.063,2.292-1.591c3.021-2.127,5.914-4.251,8.676-6.349c5.521-4.2,10.54-8.28,14.956-12.191
				c4.433-3.893,8.249-7.631,11.438-11.063c3.177-3.443,5.679-6.623,7.503-9.369c1.811-2.75,2.994-5.04,3.583-6.673
				c0.36-0.793,0.485-1.449,0.641-1.866C167.424,182.721,167.503,182.507,167.503,182.507z"/>
		</g>
		<g>
			<path fill="#263238" d="M116.227,217.275c-0.078-0.018,0.183-1.078,0.318-2.814c0.084-0.866,0.07-1.905,0.01-3.052
				c-0.093-1.145-0.286-2.396-0.613-3.679c-0.657-2.574-1.763-4.738-2.657-6.232c-0.907-1.49-1.58-2.345-1.519-2.394
				c0.023-0.018,0.211,0.18,0.531,0.555c0.328,0.368,0.755,0.943,1.251,1.673c0.972,1.468,2.148,3.656,2.819,6.287
				c0.335,1.313,0.519,2.595,0.591,3.765c0.04,1.172,0.02,2.23-0.105,3.107c-0.106,0.878-0.246,1.583-0.383,2.057
				C116.342,217.024,116.256,217.282,116.227,217.275z"/>
		</g>
		<g>
			<path fill="#263238" d="M113.19,117.576c-0.04,0.117-0.498,0.065-1.199-0.076c-0.702-0.139-1.644-0.354-2.69-0.435
				c-1.049-0.087-1.985-0.012-2.63,0.157c-0.659,0.154-0.936,0.421-1.043,0.377c-0.051-0.024-0.052-0.17,0.081-0.368
				c0.13-0.195,0.388-0.411,0.738-0.589c0.698-0.363,1.779-0.553,2.924-0.454c1.15,0.09,2.14,0.423,2.808,0.718
				C112.85,117.206,113.229,117.463,113.19,117.576z"/>
		</g>
	</g>
	<g opacity="0.3">
		<path d="M147.086,253.288c0,0-9.769-1.198-15.022-2.01c-2.872-0.444-7.245-0.907-8.072-1.709c-1.028-0.997-1.021-2.657-1.13-4.085
			c-1.864-24.368,6.514-50.728,32.409-66.449l6.605,1.736l-0.427,15.874L147.086,253.288z"/>
	</g>
</g>
<g>
	<g>
		<g>
			<g>
				<g>
					<g>
						<g>
							<g>
								<g>
									<g>
										<g>
											<g>
												<g>
													<path fill="#263238" d="M299.746,63.372c3.316,0.296,6.646-2.213,7.273-5.48c0.629-3.268-1.533-6.833-4.721-7.787
														c2.004-2.156,2.436-5.623,1.02-8.205c-1.415-2.581-4.569-4.082-7.466-3.551c-0.191-2.9-1.994-5.642-4.582-6.967
														c-2.585-1.325-5.865-1.186-8.329,0.354c-3.277-2.674-8.454-2.651-11.705,0.05c-2.835-0.453-5.875,1.125-7.138,3.703
														s-0.645,5.946,1.451,7.908"/>
												</g>
											</g>
										</g>
									</g>
								</g>
							</g>
						</g>
					</g>
					<g>
						<g>
							<g>
								<g>
									<g>
										<g>
											<g>
												<path fill="#FFBE9D" d="M269.939,38.52l1.491-0.034c15.009-0.35,27.771,10.883,29.326,25.815
													c1.446,13.889,2.865,29.251,2.947,36.717c0.17,15.461-15.233,18.226-15.233,18.226l1.74,18.539l-37.54-0.287
													l-4.888-67.271C246.024,54.208,253.879,39.835,269.939,38.52z"/>
											</g>
										</g>
									</g>
								</g>
							</g>
							<g>
								<g>
									<g>
										<g>
											<g>
												<g>
													<g>
														<g>
															<g>
																<g>
																	<g>
																		<path fill="#EB996E" d="M288.49,119.239c0,0-10.777,0.802-21.313-5.478c0,0,6.281,11.269,21.672,9.517
																			L288.49,119.239z"/>
																	</g>
																</g>
															</g>
														</g>
													</g>
												</g>
											</g>
										</g>
									</g>
								</g>
							</g>
							<g>
								<g>
									<g>
										<g>
											<g>
												<g>
													<g>
														<g>
															<g>
																<g>
																	<g>
																		<g>
																			<g>
																				<g>
																					<path fill="#263238" d="M296.034,81.075c0.07,1.165-0.86,2.183-2.076,2.276
																						c-1.213,0.094-2.253-0.772-2.321-1.937c-0.069-1.165,0.861-2.184,2.074-2.278
																						C294.926,79.043,295.968,79.911,296.034,81.075z"/>
																				</g>
																			</g>
																		</g>
																	</g>
																</g>
															</g>
														</g>
													</g>
												</g>
											</g>
										</g>
									</g>
								</g>
							</g>
							<g>
								<g>
									<g>
										<g>
											<g>
												<g>
													<g>
														<g>
															<g>
																<g>
																	<g>
																		<g>
																			<g>
																				<g>
																					<g>
																						<path fill="#263238" d="M297.61,71.94c-0.268,0.294-1.968-0.905-4.344-0.843
																							c-2.373,0.027-4.087,1.29-4.352,1.005c-0.13-0.126,0.137-0.652,0.882-1.222
																							c0.734-0.568,1.997-1.133,3.477-1.161c1.48-0.026,2.736,0.49,3.466,1.03
																							C297.482,71.293,297.741,71.808,297.61,71.94z"/>
																					</g>
																				</g>
																			</g>
																		</g>
																	</g>
																</g>
															</g>
														</g>
													</g>
												</g>
											</g>
										</g>
									</g>
								</g>
							</g>
							<g>
								<g>
									<g>
										<g>
											<g>
												<g>
													<g>
														<g>
															<g>
																<g>
																	<g>
																		<g>
																			<g>
																				<g>
																					<path fill="#263238" d="M275.582,81.075c0.068,1.164-0.861,2.182-2.076,2.275
																						c-1.213,0.095-2.253-0.771-2.322-1.937c-0.067-1.164,0.861-2.184,2.074-2.277
																						C274.474,79.042,275.513,79.911,275.582,81.075z"/>
																				</g>
																			</g>
																		</g>
																	</g>
																</g>
															</g>
														</g>
													</g>
												</g>
											</g>
										</g>
									</g>
								</g>
							</g>
							<g>
								<g>
									<g>
										<g>
											<g>
												<g>
													<g>
														<g>
															<g>
																<g>
																	<g>
																		<g>
																			<g>
																				<g>
																					<g>
																						<path fill="#263238" d="M274.272,72.927c-0.267,0.294-1.97-0.903-4.343-0.842
																							c-2.373,0.028-4.088,1.291-4.354,1.005c-0.129-0.125,0.135-0.651,0.885-1.222
																							c0.733-0.568,1.995-1.132,3.475-1.161c1.479-0.027,2.737,0.489,3.466,1.03
																							C274.144,72.28,274.404,72.795,274.272,72.927z"/>
																					</g>
																				</g>
																			</g>
																		</g>
																	</g>
																</g>
															</g>
														</g>
													</g>
												</g>
											</g>
										</g>
									</g>
								</g>
							</g>
							<g>
								<g>
									<g>
										<g>
											<g>
												<g>
													<g>
														<g>
															<g>
																<g>
																	<g>
																		<g>
																			<g>
																				<g>
																					<path fill="#263238" d="M283.303,90.342c-0.014-0.136,1.457-0.425,3.843-0.787
																						c0.604-0.076,1.176-0.21,1.269-0.626c0.133-0.442-0.136-1.09-0.447-1.79c-0.604-1.453-1.237-2.978-1.9-4.576
																						c-2.645-6.518-4.573-11.883-4.311-11.987c0.265-0.103,2.621,5.095,5.265,11.612
																						c0.637,1.607,1.246,3.141,1.826,4.606c0.245,0.684,0.659,1.457,0.369,2.374
																						c-0.152,0.457-0.59,0.796-0.975,0.91c-0.387,0.128-0.728,0.143-1.027,0.167
																						C284.81,90.43,283.316,90.476,283.303,90.342z"/>
																				</g>
																			</g>
																		</g>
																	</g>
																</g>
															</g>
														</g>
													</g>
												</g>
											</g>
										</g>
									</g>
								</g>
							</g>
							<g>
								<g>
									<g>
										<g>
											<g>
												<g>
													<g>
														<g>
															<g>
																<g>
																	<path fill="#263238" d="M274.775,68.022c-0.3,0.61-2.351,0.004-4.858-0.019c-2.507-0.079-4.608,0.442-4.852-0.179
																		c-0.106-0.296,0.327-0.847,1.219-1.35c0.883-0.503,2.237-0.908,3.742-0.878c1.503,0.032,2.817,0.49,3.654,1.028
																		C274.525,67.164,274.907,67.731,274.775,68.022z"/>
																</g>
															</g>
														</g>
													</g>
												</g>
											</g>
										</g>
									</g>
								</g>
							</g>
							<g>
								<g>
									<g>
										<g>
											<g>
												<g>
													<g>
														<g>
															<g>
																<g>
																	<path fill="#263238" d="M297.497,62.143c-0.487,0.551-2.461,0.036-4.819,0.065
																		c-2.358-0.041-4.346,0.463-4.819-0.09c-0.206-0.269,0.095-0.817,0.956-1.348c0.847-0.529,2.275-0.979,3.896-0.975
																		c1.62,0.005,3.035,0.461,3.868,0.995C297.425,61.326,297.711,61.875,297.497,62.143z"/>
																</g>
															</g>
														</g>
													</g>
												</g>
											</g>
										</g>
									</g>
								</g>
							</g>
							<g>
								<g>
									<g>
										<g>
											<g>
												<g>
													<g>
														<g>
															<g>
																<path fill="#263238" d="M299.104,57.246c0,0-4.303-9.584-9.021-11.734c-5.715-2.603-8.003,3.656-13.422,2.277
																	c-5.42-1.379-10.877-3.878-16.283,0.413c-5.917,4.697-3.021,7.827-3.232,14.694
																	c-0.859,27.839-5.755,35.821-7.504,22.758c-0.192-1.431-4.2-2.479-4.931-8.527c-0.949-7.843-1.475-17.38,0.15-23
																	c1.369-4.737,3.975-8.048,8.698-11.742c7.456-5.831,17.878-6.195,24.974-5.647
																	C285.629,37.283,299.468,45.111,299.104,57.246z"/>
															</g>
														</g>
													</g>
												</g>
											</g>
										</g>
									</g>
								</g>
							</g>
							<g>
								<g>
									<g>
										<g>
											<g>
												<g>
													<g>
														<g>
															<g>
																<path fill="#FFBE9D" d="M250.616,85.209c-0.152-2.383-2.253-4.219-4.624-3.938
																	c-2.877,0.342-6.046,2.053-5.717,8.005c0.584,10.559,11.065,7.794,11.066,7.491
																	C251.343,96.563,250.901,89.626,250.616,85.209z"/>
															</g>
														</g>
													</g>
												</g>
											</g>
										</g>
									</g>
								</g>
							</g>
							<g>
								<g>
									<g>
										<g>
											<g>
												<g>
													<g>
														<g>
															<g>
																<path fill="#EB996E" d="M248.824,92.922c-0.047-0.031-0.177,0.139-0.479,0.299
																	c-0.296,0.156-0.812,0.281-1.373,0.104c-1.139-0.348-2.177-2.067-2.332-3.968c-0.08-0.958,0.071-1.885,0.37-2.661
																	c0.279-0.791,0.749-1.358,1.305-1.488c0.552-0.161,0.967,0.153,1.113,0.443c0.157,0.288,0.103,0.503,0.159,0.518
																	c0.032,0.025,0.218-0.19,0.108-0.621c-0.056-0.207-0.193-0.45-0.452-0.639c-0.265-0.192-0.644-0.276-1.031-0.212
																	c-0.812,0.101-1.503,0.891-1.832,1.743c-0.373,0.859-0.564,1.901-0.474,2.979c0.185,2.125,1.384,4.056,2.936,4.412
																	c0.751,0.153,1.359-0.105,1.665-0.372C248.82,93.179,248.862,92.94,248.824,92.922z"/>
															</g>
														</g>
													</g>
												</g>
											</g>
										</g>
									</g>
								</g>
							</g>
						</g>
						<g>
							<g>
								<g>
									<g>
										<g>
											<g>
												<g>
													<g>
														<path fill="#263238" d="M250.346,64.731c1.394,0.904,2.867,1.837,4.524,1.962c1.656,0.125,3.525-0.869,3.767-2.513
															c0.109-0.74-0.091-1.588,0.379-2.168c0.561-0.691,1.631-0.504,2.519-0.431c3.08,0.254,6.591-3.223,7.303-6.229
															c0.811,1.154,2.537,1.469,3.704,0.677c1.168-0.792,1.59-1.238,2.493-2.322s2.184-2.065,3.585-1.899
															c0.784,0.093,1.526,0.541,2.31,0.453c1.386-0.155,2.025-1.796,2.203-3.179c0.179-1.382,0.304-2.993,1.462-3.769
															c1.072-0.719,2.493-0.351,3.776-0.192c1.28,0.159,2.923-0.18,3.222-1.437c0.156-0.659-0.141-1.342-0.519-1.905
															c-1.705-2.552-5.32-3.619-8.14-2.403c-1.114-3.467-4.442-6.109-8.073-6.406c-3.631-0.298-7.346,1.765-9.011,5.005
															c-2.28-1.974-5.545-2.748-8.47-2.01c-2.925,0.74-5.429,2.972-6.498,5.793c-2.587-0.616-5.493,0.446-7.073,2.584
															c-1.579,2.139-1.739,5.23-0.391,7.52c-1.873,1.13-3.455,3.055-3.444,5.243c0.013,2.188,2.193,4.317,4.292,3.693
															c-0.813,1.723-0.067,4.018,1.605,4.931c1.672,0.913,4.008,0.301,5.018-1.314"/>
													</g>
												</g>
											</g>
										</g>
									</g>
								</g>
							</g>
						</g>
						<g>
							<g>
								<g>
									<g>
										<g>
											<g>
												<g>
													<g>
														<g>
															<path fill="#455A64" d="M283.792,42.467c0.009,0,0.01,0.065,0.002,0.193c-0.011,0.127-0.014,0.319-0.054,0.566
																c-0.086,0.49-0.266,1.218-0.72,2.054c-0.458,0.824-1.176,1.781-2.285,2.553c-1.086,0.78-2.588,1.389-4.3,1.335
																l0.173-0.238c0.351,0.897,0.286,1.983-0.143,2.923c-0.405,0.956-1.056,1.809-1.748,2.641
																c-0.354,0.401-0.66,0.869-1.154,1.241c-0.481,0.356-1.062,0.571-1.661,0.661c-1.188,0.179-2.542-0.157-3.429-1.14
																l0.392-0.122c-0.22,2.106-1.365,4.237-3.232,5.562c-0.987,0.75-2.222,1.222-3.445,1.218
																c-1.224,0.016-2.367-0.316-3.437-0.671l0.28-0.131c-0.537,1.327-1.384,2.468-2.426,3.32
																c-1.021,0.85-2.396,1.367-3.657,1.088c-2.507-0.469-4.21-2.505-4.59-4.451l0.243,0.106
																c-1.221,0.703-2.55,0.799-3.618,0.618c-1.084-0.172-1.943-0.622-2.559-1.07c-0.618-0.457-0.988-0.934-1.211-1.263
																c-0.207-0.344-0.293-0.535-0.281-0.541c0.053-0.045,0.369,0.795,1.595,1.659c0.612,0.412,1.45,0.821,2.494,0.962
																c1.029,0.151,2.286,0.031,3.413-0.643l0.195-0.116l0.047,0.222c0.379,1.814,2.017,3.713,4.34,4.122
																c1.144,0.24,2.352-0.222,3.319-1.026c0.972-0.803,1.779-1.903,2.277-3.149l0.079-0.197l0.201,0.065
																c1.051,0.348,2.157,0.658,3.288,0.64c1.131-0.002,2.238-0.423,3.18-1.134c1.765-1.254,2.84-3.247,3.057-5.242
																l0.056-0.501l0.338,0.379c0.75,0.841,1.961,1.166,3.029,1.005c0.536-0.077,1.052-0.265,1.471-0.573
																c0.411-0.295,0.729-0.758,1.09-1.163c0.691-0.819,1.325-1.64,1.71-2.528c0.407-0.878,0.468-1.833,0.168-2.646
																l-0.092-0.25l0.265,0.012c1.616,0.071,3.061-0.482,4.122-1.216c1.085-0.722,1.803-1.631,2.274-2.418
																C283.773,43.563,283.717,42.444,283.792,42.467z"/>
														</g>
													</g>
												</g>
											</g>
										</g>
									</g>
								</g>
							</g>
						</g>
					</g>
				</g>
			</g>
		</g>
		<path fill="#FFBE9D" d="M207.783,136.125c0,0-39.722,13.99-51.212,19.769c-8.977,4.515-14.665,20.893-0.851,27.719
			c10.301,5.09,66.058-4.638,66.058-4.638L207.783,136.125z"/>
		<g>
			<g>
				<g>
					<g>
						<path fill="#263238" d="M329.046,275.199l-100.927-3.82l-3.652,34.355l-4.045,68.914l51.519,0.219
							c0.021-0.292,6.426-38.739,6.426-38.739l2.912-0.761l-0.271,39.5h48.286c2.535-32.688,3.984-60.143,4.071-62.727
							C334.069,291.722,329.046,275.199,329.046,275.199z"/>
						<g>
							<g>
								<g>
									<g>
										<g>
											<g>
												<g>
													<g>
														<g>
															<g>
																<path fill="#455A64" d="M274.733,314.716c-0.02,0.047,0.521,0.334,1.533,0.78c1.016,0.428,2.506,1.081,4.51,1.368
																	c0.999,0.139,2.13,0.144,3.308-0.117c1.169-0.26,2.406-0.813,3.387-1.807c0.979-0.993,1.58-2.353,1.939-3.753
																	c0.364-1.412,0.545-2.872,0.778-4.357c0.895-5.958,1.44-11.388,1.726-15.324c0.144-1.967,0.226-3.562,0.262-4.665
																	c0.034-1.104,0.023-1.714-0.028-1.719c-0.053-0.003-0.143,0.603-0.268,1.696c-0.136,1.256-0.303,2.806-0.501,4.64
																	c-0.423,3.915-1.052,9.318-1.942,15.26c-0.455,2.938-0.724,5.921-2.47,7.735c-1.746,1.784-4.269,2.069-6.128,1.876
																	c-1.921-0.204-3.425-0.768-4.465-1.108C275.335,314.86,274.754,314.665,274.733,314.716z"/>
															</g>
														</g>
													</g>
												</g>
											</g>
										</g>
									</g>
								</g>
							</g>
						</g>
						<g>
							<g>
								<g>
									<g>
										<g>
											<g>
												<g>
													<g>
														<g>
															<g>
																<path fill="#455A64" d="M284.356,286.486c0.011-0.034-0.241-0.178-0.747-0.188c-0.5-0.016-1.253,0.168-1.981,0.73
																	c-0.695,0.559-1.417,1.54-1.393,2.836c-0.004,1.313,1.074,2.56,2.429,2.982c1.343,0.462,2.95,0.094,3.725-0.967
																	c0.785-1.031,0.783-2.251,0.553-3.111c-0.253-0.883-0.751-1.478-1.164-1.761c-0.415-0.291-0.702-0.323-0.714-0.29
																	c-0.093,0.102,1.036,0.559,1.354,2.174c0.143,0.761,0.06,1.783-0.574,2.548c-0.609,0.779-1.831,1.053-2.942,0.685
																	c-1.115-0.361-1.938-1.304-1.967-2.292c-0.06-0.991,0.479-1.865,1.044-2.395
																	C283.19,286.325,284.372,286.625,284.356,286.486z"/>
															</g>
														</g>
													</g>
												</g>
											</g>
										</g>
									</g>
								</g>
							</g>
						</g>
						<g>
							<g>
								<g>
									<g>
										<g>
											<g>
												<g>
													<g>
														<g>
															<g>
																<path fill="#455A64" d="M228.119,303.668c-0.001,0.053,0.436,0.1,1.23,0.139c0.794,0.053,1.949,0.023,3.367-0.104
																	c2.835-0.247,6.743-1.104,10.698-2.962c3.951-1.873,7.096-4.347,9.089-6.378c1.001-1.016,1.757-1.888,2.221-2.535
																	c0.475-0.638,0.714-1.005,0.673-1.036c-0.104-0.085-1.201,1.283-3.266,3.182c-2.057,1.901-5.178,4.247-9.041,6.08
																	c-3.869,1.817-7.662,2.736-10.437,3.116C229.875,303.556,228.12,303.532,228.119,303.668z"/>
															</g>
														</g>
													</g>
												</g>
											</g>
										</g>
									</g>
								</g>
							</g>
						</g>
					</g>
				</g>
			</g>
		</g>
		<g>
			<g>
				<path fill="#455A64" d="M331.079,269.596c-1.979-4.507-1.612-4.921-1.612-4.921l-5.611-49.104l-5.389-47.767l-4.371-35.357
					l-25.246-5.405c0,0-2.907,8.053-15.111,8.297c-14.06,0.281-22.117-12.292-22.117-12.292l-40.37,8.668l15.181,104.125
					l1.82,28.045c0,0-3.013,4.54-3.013,9.408s-0.199,8.113-0.199,8.113c37.472,10.294,74.656,19.208,108.871,9.244
					C333.911,290.65,333.059,274.105,331.079,269.596z"/>
				<g>
					<path fill="#455A64" d="M304.885,130.604c0,0,14.552,1.625,19.714,7.106c5.165,5.481,21.669,32.597,21.669,32.597
						l-23.973,32.797l-11.104-15.156L304.885,130.604z"/>
				</g>
				<g>
					<g>
						<g>
							<path fill="#263238" d="M315.979,147.575c0.2-0.02,2.494,18.004,5.12,40.253c2.627,22.258,4.591,40.31,4.391,40.329
								c-0.2,0.019-2.493-18.001-5.121-40.259C317.743,165.65,315.777,147.594,315.979,147.575z"/>
						</g>
					</g>
				</g>
			</g>
		</g>
		<polygon fill="#455A64" points="211.251,131.715 178.927,146.061 190.622,178.782 221.778,183.719 		"/>
		<g>
			<path fill="#263238" d="M215.7,153.404c0.214-0.023,1.757,12.743,3.443,28.51c1.688,15.772,2.88,28.572,2.664,28.596
				c-0.215,0.023-1.756-12.74-3.443-28.512C216.677,166.23,215.484,153.427,215.7,153.404z"/>
		</g>
		<g opacity="0.3">
			<path d="M223.669,319.31c17.55-6.311,27.273-18.745,35.123-31.932s8.971-31.756,3.948-46.256c0,0-36.271,35.085-36.528,35.858
				S223.669,319.31,223.669,319.31z"/>
		</g>
		<g opacity="0.3">
			<path d="M273.035,134.884c-0.433,3.563,1.557,6.998,3.999,9.627c2.441,2.63,5.396,4.774,7.622,7.59
				c2.54,3.214,3.994,7.131,5.408,10.976c2.953,8.028,5.907,16.056,8.859,24.084c2.544,6.915,5.12,13.896,9.154,20.061
				s9.711,11.531,16.726,13.787l-5.326-45.23l-28.091-45.176L273.035,134.884z"/>
		</g>
		<g>
			<g>
				<path fill="#FFBE9D" d="M302.143,135.277c0-0.568,0.451-21.518-0.953-23.793c-1.405-2.275-2.529-4.409-2.81-6.542
					c0,0,0.767-1.244-0.632-2.024c-1.396-0.779-3.61,1.121-3.657,4.483c-0.049,3.363,0.337,9.113,0.337,9.113
					s-15.455-8.772-19.692-9.016c-4.237-0.244-10.592-1.023-10.929,1.023c-0.338,2.046-0.049,2.534,2.167,3.314
					c2.214,0.78,5.729,1.316,9.194,2.485c3.467,1.17,5.056,1.964,5.056,1.964s-7.895-2.324-9.628,0
					c-1.734,2.324-1.493,4.42-0.386,5.541c0,0-2.358,0.975-2.119,3.558c0.241,2.583,1.397,3.216,1.397,3.216
					s-2.312,1.754-1.204,3.996c1.108,2.242,3.707,0.828,6.162,3.362s8.57,8.479,10.929,9.795c2.36,1.315,7.753,1.852,7.753,1.852
					L302.143,135.277z"/>
				<g>
					<path fill="#EB996E" d="M302.143,135.277c0.006,0.002-0.041,0.074-0.138,0.214c-0.106,0.151-0.25,0.357-0.437,0.622
						c-0.401,0.561-0.981,1.371-1.732,2.418c-1.54,2.127-3.78,5.222-6.616,9.142l-0.038,0.053l-0.065-0.007
						c-1.068-0.112-2.18-0.27-3.333-0.486c-1.154-0.22-2.354-0.488-3.557-0.942c-0.604-0.217-1.191-0.552-1.725-0.94
						c-0.546-0.38-1.068-0.803-1.599-1.233c-1.052-0.872-2.102-1.811-3.169-2.793c-1.066-0.984-2.147-2.014-3.244-3.087
						c-0.544-0.54-1.094-1.088-1.652-1.643c-0.552-0.574-1.092-1.122-1.781-1.5c-0.677-0.394-1.456-0.586-2.257-0.763
						c-0.778-0.178-1.72-0.364-2.307-1.102c-0.575-0.686-0.822-1.654-0.604-2.548c0.226-0.891,0.783-1.64,1.489-2.227l0.022,0.304
						c-0.612-0.425-0.909-1.042-1.146-1.676c-0.216-0.646-0.337-1.309-0.36-2.011c-0.024-0.705,0.187-1.43,0.592-2.032
						c0.417-0.597,0.973-1.072,1.651-1.39l-0.063,0.309c-0.988-0.988-1.137-2.565-0.682-3.829c0.212-0.646,0.542-1.248,0.935-1.8
						c0.18-0.281,0.468-0.572,0.781-0.733c0.314-0.174,0.65-0.286,0.989-0.368c1.365-0.288,2.749-0.169,4.111,0.006
						c1.365,0.191,2.72,0.48,4.072,0.859l-0.147,0.37c-2.028-0.932-4.225-1.719-6.459-2.399c-2.245-0.671-4.591-1.109-6.931-1.771
						c-0.838-0.265-1.673-0.505-2.453-1.005c-0.39-0.251-0.711-0.702-0.77-1.18c-0.072-0.469-0.014-0.912,0.044-1.342
						c0.032-0.197,0.051-0.46,0.194-0.689c0.137-0.22,0.33-0.379,0.53-0.503c0.406-0.235,0.839-0.351,1.268-0.435
						c0.858-0.157,1.715-0.187,2.563-0.191c1.695,0.002,3.363,0.131,5.011,0.245c0.825,0.068,1.634,0.076,2.478,0.239
						c0.408,0.092,0.802,0.216,1.201,0.322l1.156,0.402c3.043,1.156,5.889,2.556,8.639,3.949c2.745,1.403,5.384,2.825,7.913,4.25
						l-0.271,0.17c-0.19-3.319-0.387-6.495-0.302-9.569c0.117-1.532,0.697-3.109,1.978-3.997c0.322-0.208,0.696-0.353,1.093-0.368
						c0.393-0.023,0.797,0.14,1.086,0.368c0.303,0.224,0.556,0.565,0.62,0.957c0.064,0.392-0.025,0.768-0.212,1.106l0.023-0.101
						c0.332,2.34,1.501,4.356,2.591,6.189c0.135,0.217,0.295,0.475,0.368,0.745c0.09,0.262,0.138,0.525,0.191,0.785
						c0.096,0.521,0.163,1.036,0.215,1.543c0.106,1.015,0.168,1.999,0.219,2.95c0.184,3.808,0.181,7.094,0.18,9.782
						c-0.008,2.688-0.045,4.779-0.078,6.197c-0.02,0.697-0.034,1.235-0.045,1.614C302.161,135.09,302.143,135.277,302.143,135.277
						s-0.013-0.185-0.014-0.551c0-0.379,0.001-0.917,0.002-1.614c-0.002-1.434-0.004-3.52-0.005-6.196
						c-0.026-2.686-0.049-5.972-0.255-9.769c-0.055-0.948-0.123-1.929-0.233-2.936c-0.055-0.502-0.124-1.011-0.219-1.52
						c-0.108-0.521-0.21-0.989-0.531-1.436c-1.104-1.838-2.302-3.867-2.66-6.293l-0.009-0.048l0.029-0.053
						c0.142-0.259,0.223-0.595,0.167-0.891c-0.052-0.301-0.243-0.564-0.504-0.758c-0.518-0.435-1.244-0.366-1.811,0.019
						c-1.146,0.793-1.717,2.288-1.818,3.75c-0.074,3.017,0.129,6.219,0.326,9.521l0.02,0.332l-0.29-0.163
						c-2.525-1.415-5.166-2.831-7.907-4.227c-2.744-1.385-5.589-2.779-8.6-3.918l-1.141-0.396c-0.385-0.102-0.772-0.224-1.163-0.31
						c-0.762-0.15-1.604-0.165-2.424-0.229c-1.648-0.113-3.311-0.241-4.982-0.241c-0.834,0.004-1.676,0.035-2.488,0.185
						c-0.781,0.159-1.691,0.437-1.667,1.288c-0.059,0.415-0.106,0.836-0.046,1.219c0.056,0.385,0.271,0.688,0.602,0.914
						c0.676,0.438,1.526,0.697,2.337,0.95c2.304,0.652,4.667,1.096,6.931,1.771c2.267,0.692,4.44,1.471,6.523,2.429l-0.145,0.371
						c-1.324-0.372-2.673-0.662-4.014-0.851c-1.335-0.176-2.699-0.285-3.969-0.017c-0.625,0.151-1.218,0.406-1.542,0.946
						c-0.376,0.526-0.687,1.095-0.884,1.695c-0.426,1.181-0.276,2.579,0.586,3.442l0.189,0.191l-0.254,0.118
						c-0.582,0.272-1.118,0.721-1.483,1.25c-0.361,0.538-0.552,1.176-0.531,1.817c0.02,0.64,0.136,1.299,0.336,1.894
						c0.201,0.582,0.532,1.173,0.974,1.478l0.211,0.147l-0.189,0.157c-0.636,0.524-1.166,1.24-1.36,2.021
						c-0.196,0.776,0.024,1.638,0.526,2.238c0.486,0.629,1.321,0.81,2.111,0.991c0.799,0.18,1.627,0.384,2.347,0.805
						c0.729,0.4,1.319,1.005,1.852,1.563c0.554,0.555,1.104,1.103,1.643,1.645c1.091,1.074,2.166,2.106,3.226,3.092
						c1.062,0.985,2.105,1.925,3.146,2.795c1.055,0.847,2.059,1.72,3.236,2.146c1.171,0.449,2.363,0.723,3.506,0.948
						c1.145,0.222,2.254,0.386,3.31,0.505l-0.103,0.045c2.868-3.883,5.132-6.947,6.688-9.055c0.773-1.036,1.371-1.837,1.784-2.391
						c0.2-0.262,0.354-0.464,0.467-0.613C302.082,135.345,302.143,135.277,302.143,135.277z"/>
				</g>
			</g>
			<path fill="#FFBE9D" d="M352.23,184.188c-1.544-2.952-5.032-9.094-6.713-12.855l-11.048,4.016c0,0-31.295-42.275-32.294-42.275
				c-1,0-14.592,12.602-14.592,12.602c0.6,0.6,28.777,65.178,39.57,72.174c10.793,6.994,18.837,11.438,24.634,1.443
				C357.583,209.301,359.025,197.179,352.23,184.188z"/>
			<g>
				<path fill="#EB996E" d="M348.619,194.321c-0.024,0.013-0.207-0.281-0.518-0.819c-0.307-0.542-0.763-1.318-1.339-2.267
					c-1.15-1.9-2.852-4.456-4.918-7.144c-2.066-2.689-4.071-5.018-5.53-6.698c-0.688-0.792-1.265-1.458-1.728-1.99
					c-0.404-0.473-0.619-0.744-0.6-0.764c0.02-0.019,0.273,0.215,0.716,0.656c0.441,0.44,1.065,1.09,1.824,1.907
					c1.515,1.633,3.563,3.94,5.639,6.642c2.076,2.7,3.751,5.299,4.844,7.245c0.547,0.972,0.967,1.773,1.23,2.338
					C348.508,193.991,348.645,194.308,348.619,194.321z"/>
			</g>
		</g>
		<g>
			<path fill="#263238" d="M284.961,100.183c-0.281,0.207-1.446-0.994-3.297-1.64c-1.832-0.694-3.495-0.523-3.577-0.862
				c-0.036-0.153,0.362-0.42,1.101-0.562c0.734-0.144,1.806-0.111,2.893,0.282c1.085,0.397,1.928,1.061,2.396,1.642
				C284.954,99.627,285.087,100.088,284.961,100.183z"/>
		</g>
		<g>
			<path fill="#263238" d="M313.21,269.307c0.006,0.014-0.127,0.09-0.387,0.227c-0.264,0.128-0.638,0.353-1.156,0.562
				c-1.027,0.438-2.579,0.95-4.564,1.229c-1.982,0.275-4.387,0.307-7.009-0.035c-2.624-0.332-5.461-0.993-8.374-1.87
				c-5.816-1.777-10.967-3.729-14.651-5.236c-1.843-0.754-3.319-1.398-4.333-1.859c-0.472-0.22-0.855-0.398-1.162-0.541
				c-0.264-0.129-0.398-0.204-0.393-0.216c0.005-0.014,0.152,0.036,0.426,0.14c0.313,0.125,0.708,0.28,1.191,0.473
				c1.085,0.431,2.566,1.021,4.376,1.739c3.706,1.437,8.864,3.34,14.662,5.113c2.899,0.874,5.711,1.539,8.306,1.889
				c2.593,0.356,4.964,0.356,6.924,0.121c1.965-0.239,3.508-0.702,4.543-1.091C312.637,269.541,313.192,269.273,313.21,269.307z"/>
		</g>
	</g>
	<g>
		<g>
			<path fill="#FF725E" d="M236.771,188.709c-14.107-9.502-30.888-12.896-41.886-12.904c-10.301-0.007-25.461,1.607-39.186,9.337
				c-8.524,4.802-15.327,11.365-20.221,19.506c-5.795,9.644-8.938,21.577-9.337,35.473c-0.061,2.085,0.708,4.058,2.165,5.558
				c1.462,1.507,3.425,2.337,5.526,2.339l27.009,0.019c3.811,0.002,7.088-2.84,7.625-6.608c1.202-8.47,6.238-22.727,26.451-23.063
				c15.404-0.247,21.743,10.897,23.757,15.705c3.278,7.822,2.439,17.095-2.243,24.804c-7.194,11.845-20.418,13.65-27.66,13.672
				c-8.327,0.025-15.106,6.78-15.111,15.059l-0.02,29.063c-0.003,4.245,3.448,7.701,7.691,7.703l26.316,0.017
				c4.244,0.003,7.7-3.447,7.703-7.69l0.004-6.107c0-0.146,0.091-0.273,0.232-0.322c5.963-2.088,17.521-7.133,27.935-17.475
				c13.295-13.201,20.044-30.245,20.058-50.662C263.598,212.914,249.013,196.955,236.771,188.709z"/>
			<path fill="#FF725E" d="M195.795,331.696l-2.301-0.001c-11.006-0.007-19.966,8.94-19.972,19.945
				c-0.008,11.006,8.94,19.964,19.945,19.972l2.301,0.001c11.006,0.008,19.966-8.939,19.974-19.944
				C215.749,340.663,206.801,331.703,195.795,331.696z"/>
		</g>
		<g opacity="0.3">
			<path d="M262.563,223.466c-0.354-2.977-1.129-5.824-2.227-8.559c-5.268-13.146-17.632-22.105-31.703-23.705l-67.907-7.723
				c7.384,7.547,17.026,9.048,27.246,11.698c10.222,2.649,21.226,6.621,31.552,8.819c3.313,0.705,6.736,1.585,9.314,3.783
				c2.514,2.145,3.918,5.281,5.243,8.31c1.964,4.488,3.926,8.977,5.891,13.464c2.241,5.123,5.224,10.91,11.26,11.241
				c2.435,0.133,4.824-0.779,6.676-2.367C262.279,234.681,263.202,228.844,262.563,223.466z"/>
		</g>
		<g>
			<path fill="#FFBE9D" d="M261.596,205.276c-0.524-0.925-10.845-13.544-15.976-18.437c-3.313-3.159-8.306-5.337-11.435-6.49
				c0,0-51.672-18.66-55.258-20.48l-23.207,23.745c8.079,2.246,62.931,15.453,76.463,18.422c2.367,2.762,4.748,5.024,4.748,5.024
				l3.934,9.241c0,0,0.454,3.364,0.17,6.971c-0.282,3.608,2.643,2.202,2.643,2.202s-0.138,2.24,0.052,5.472
				c0.002,0.032,0.004,0.064,0.007,0.097c0.192,2.415,3.663,2.715,4.401,0.406l2.666-8.333c0,0-0.347,7.583-0.489,11.804
				c-0.026,0.765,0.107,1.394,0.343,1.911c1.021,2.237,4.351,1.82,4.917-0.573l3.123-13.179l-1.01-8.072l2.62,7.376
				c0,0,0.724,3.941,0.577,9.479c-0.059,2.216,0.688,3.158,1.606,3.492c1.536,0.559,3.158-0.666,3.291-2.294l0.999-12.213
				C266.781,220.848,262.123,206.2,261.596,205.276z"/>
			<g>
				<path fill="#EB996E" d="M175.593,158.946c0.023-0.096,1.491,0.139,3.802,0.78c2.312,0.633,5.445,1.712,8.835,3.059
					c3.391,1.347,6.418,2.647,8.613,3.579c2.193,0.937,3.547,1.524,3.51,1.629c-0.035,0.098-1.462-0.306-3.712-1.113
					c-2.253-0.803-5.32-2.022-8.7-3.367c-3.381-1.341-6.458-2.493-8.711-3.257C176.979,159.485,175.566,159.061,175.593,158.946z"/>
			</g>
		</g>
	</g>
</g>
</svg>
