<?xml version="1.0" encoding="utf-8"?>
<!-- Generator: Adobe Illustrator 16.0.0, SVG Export Plug-In . SVG Version: 6.00 Build 0)  -->
<!DOCTYPE svg PUBLIC "-//W3C//DTD SVG 1.0//EN" "http://www.w3.org/TR/2001/REC-SVG-20010904/DTD/svg10.dtd">
<svg version="1.0" id="Layer_1" xmlns="http://www.w3.org/2000/svg" xmlns:xlink="http://www.w3.org/1999/xlink" x="0px" y="0px"
	 width="400px" height="400px" viewBox="0 0 400 400" enable-background="new 0 0 400 400" xml:space="preserve">
<g>
	<path fill="#E0E0E0" d="M340.946,80.493c0.628,4.551-2.765,7.74-9.836,8.716l-14.219,1.961L313.26,64.84l13.465-1.857
		c6.923-0.955,10.698,1.399,11.258,5.462c0.346,2.52-0.65,4.728-2.747,6.205C338.353,75.292,340.507,77.295,340.946,80.493z
		 M321.375,69.2l0.7,5.078l5.116-0.706c2.483-0.342,3.643-1.384,3.41-3.076c-0.229-1.655-1.628-2.344-4.11-2.001L321.375,69.2z
		 M333.31,80.702c-0.248-1.805-1.722-2.483-4.278-2.131l-6.248,0.861l0.739,5.341l6.244-0.861
		C332.324,83.56,333.56,82.508,333.31,80.702z"/>
</g>
<g>
	<g>
		<rect x="66.214" y="232.244" fill="#EBEBEB" width="28.608" height="4.533"/>
	</g>
	<g>
		<rect x="66.214" y="248.742" fill="#EBEBEB" width="28.608" height="4.533"/>
	</g>
	<g>
		<rect x="66.214" y="240.782" fill="#EBEBEB" width="14.304" height="4.533"/>
	</g>
</g>
<g>
	<g>
		<polygon fill="#EBEBEB" points="170.565,270.659 148.608,270.659 148.608,252.625 159.982,252.625 159.982,256.427 
			152.412,256.427 152.412,266.854 166.762,266.854 166.762,263.064 170.565,263.064 		"/>
	</g>
	<g>
		<polygon fill="#EBEBEB" points="183.229,270.659 173.868,270.659 173.868,266.854 179.424,266.854 179.424,256.427 
			165.076,256.427 165.076,261.285 161.271,261.285 161.271,252.625 183.229,252.625 		"/>
	</g>
</g>
<g>
	<path fill="#EBEBEB" d="M343.893,117.832h3.797l-5.316,26.58h-3.797L343.893,117.832z"/>
</g>
<g>
	<g>
		<g>
			<g>
				<g>
					<g>
						<polygon fill="#E0E0E0" points="57.811,86.522 117.04,86.522 117.04,172.398 58.214,172.398 						"/>
					</g>
				</g>
			</g>
		</g>
		<g>
			<g>
				<g>
					<g>
						<rect x="53.367" y="86.926" fill="#FFFFFF" width="58.689" height="85.069"/>
					</g>
				</g>
			</g>
			<g>
				<g>
					<g>
						<path fill="#E0E0E0" d="M112.461,86.522v85.876H52.964V86.522H112.461z M111.654,171.592V87.33H53.771v84.263H111.654z"/>
					</g>
				</g>
			</g>
		</g>
		<g>
			<g>
				<g>
					<g>
						<g>
							<rect x="60.659" y="96.14" fill="#FFFFFF" width="44.105" height="66.642"/>
						</g>
					</g>
				</g>
			</g>
			<g>
				<g>
					<g>
						<g>
							<g>
								<path fill="#E0E0E0" d="M60.659,96.14c0,0,0.007,0.114,0.011,0.33c0.002,0.225,0.006,0.539,0.012,0.946
									c0.005,0.845,0.014,2.07,0.023,3.66c0.013,3.201,0.029,7.855,0.052,13.732c0.023,11.753,0.055,28.387,0.095,47.973
									l-0.193-0.193c13.476-0.005,28.407-0.011,44.101-0.017h0.006l-0.21,0.21c0.016-25.139,0.031-48.316,0.043-66.642
									l0.167,0.168c-13.423-0.037-24.428-0.067-32.092-0.088c-3.831-0.019-6.822-0.032-8.873-0.042
									c-1.014-0.008-1.792-0.014-2.333-0.019C60.94,96.151,60.659,96.14,60.659,96.14s0.256-0.012,0.774-0.018
									c0.532-0.004,1.3-0.011,2.3-0.019c2.042-0.01,5.023-0.024,8.837-0.043c7.688-0.021,18.73-0.051,32.195-0.087h0.167v0.168
									c0.011,18.326,0.026,41.502,0.042,66.641v0.211h-0.21h-0.005c-15.694-0.006-30.625-0.012-44.101-0.017h-0.194l0-0.193
									c0.038-19.637,0.071-36.315,0.095-48.099c0.022-5.859,0.04-10.498,0.052-13.689c0.01-1.573,0.018-2.786,0.023-3.622
									c0.004-0.399,0.009-0.705,0.011-0.926C60.651,96.239,60.659,96.14,60.659,96.14z"/>
							</g>
						</g>
					</g>
				</g>
			</g>
		</g>
		<g>
			<g>
				<g>
					<g>
						<g>
							<path fill="#E0E0E0" d="M53.202,171.995c-0.045-0.035,0.319-0.592,0.948-1.462c0.628-0.87,1.52-2.055,2.543-3.335
								c1.025-1.28,1.994-2.406,2.719-3.198c0.726-0.792,1.204-1.256,1.247-1.219c0.088,0.079-1.598,2.125-3.639,4.679
								C54.984,170.017,53.297,172.07,53.202,171.995z"/>
						</g>
					</g>
				</g>
			</g>
		</g>
		<g>
			<g>
				<g>
					<g>
						<g>
							
								<ellipse transform="matrix(-0.7843 0.6204 -0.6204 -0.7843 158.5124 127.9463)" fill="#E0E0E0" cx="57.011" cy="91.533" rx="0.21" ry="5.875"/>
						</g>
					</g>
				</g>
			</g>
		</g>
		<g>
			<g>
				<g>
					<g>
						<g>
							<path fill="#FFFFFF" d="M112.066,86.994c-2.563,3.162-5.125,6.323-7.688,9.484"/>
						</g>
					</g>
				</g>
			</g>
			<g>
				<g>
					<g>
						<g>
							<g>
								
									<ellipse transform="matrix(0.777 0.6295 -0.6295 0.777 81.8803 -47.6668)" fill="#E0E0E0" cx="108.219" cy="91.736" rx="0.21" ry="6.105"/>
							</g>
						</g>
					</g>
				</g>
			</g>
		</g>
		<g>
			<g>
				<g>
					<g>
						<g>
							
								<ellipse transform="matrix(0.7851 -0.6193 0.6193 0.7851 -80.3891 103.1395)" fill="#E0E0E0" cx="108.455" cy="167.431" rx="0.211" ry="5.813"/>
						</g>
					</g>
				</g>
			</g>
		</g>
	</g>
	<g>
		<g>
			<g>
				<path fill="#E0E0E0" d="M85.557,130.434h-7.762l-0.924,2.139c-0.303,0.712-0.454,1.301-0.454,1.766
					c0,0.616,0.248,1.069,0.746,1.361c0.292,0.174,1.009,0.303,2.154,0.39v0.6H72.01v-0.6c0.788-0.12,1.437-0.446,1.945-0.98
					c0.507-0.535,1.134-1.64,1.879-3.314l7.858-17.532H84l7.924,18.019c0.755,1.706,1.376,2.781,1.863,3.225
					c0.367,0.335,0.885,0.529,1.555,0.584v0.599H84.714v-0.599h0.438c0.852,0,1.452-0.12,1.798-0.357
					c0.236-0.172,0.356-0.42,0.356-0.745c0-0.194-0.032-0.394-0.097-0.6c-0.022-0.097-0.184-0.503-0.487-1.216L85.557,130.434z
					 M85.005,129.234l-3.272-7.567l-3.371,7.567H85.005z"/>
			</g>
		</g>
	</g>
</g>
<g>
	<g>
		<g>
			<g>
				<g>
					<path fill="#F5F5F5" d="M180.53,337.835c-1.046-0.896-3.38-3.738-1.581-7.045c0.661-1.212,2.061-1.812,3.329-2.345
						c1.268-0.534,2.602-0.998,3.65-1.894c1.979-1.682,2.525-4.479,3.84-6.726c1.507-2.579,4.322-4.511,7.297-4.375
						c3.406,0.154,6.247,2.936,7.534,6.107c1.287,3.171,1.334,6.693,1.359,10.12c0.016,1.895-0.069,4.029-1.459,5.307
						c-1.283,1.182-3.211,1.194-4.95,1.141c-6.205-0.19-12.408-0.383-18.614-0.57"/>
				</g>
			</g>
		</g>
	</g>
	<g>
		<g>
			<g>
				<g>
					<g>
						<path fill="#E0E0E0" d="M216.129,286.653H167.18l8.817,52.577c0.385,2.296,2.046,4.066,4.178,4.681
							c0.056,0.018,0.114,0.03,0.172,0.048c0.146,0.036,0.286,0.085,0.436,0.11c0.323,0.066,0.656,0.103,0.996,0.115
							c0.002,0.015,0.004,0.034,0.007,0.051l0.239-0.04c0.001,0,0.001,0,0.001,0h21.816c0.409,0,0.812-0.041,1.198-0.118
							c2.577-0.397,4.639-2.468,4.952-5.14l4.251-36.226l0.19-1.439h-0.021l1.682-14.347L216.129,286.653z M206.896,320.19h-5.023
							l0.507-15.258h5.819L206.896,320.19z M208.686,304.933h4.81l-1.791,15.258h-4.322L208.686,304.933z M194.335,337.105
							l-0.306-13.255h7.235l-0.44,13.255H194.335z M186.514,323.851h7.03l0.305,13.255h-6.305L186.514,323.851z M187.058,337.105
							h-5.893c-0.56-3.579-1.289-8.231-2.077-13.255h6.94L187.058,337.105z M186.23,320.19l-1.186-15.258h8.064l0.352,15.258H186.23
							z M193.946,320.19l-0.352-15.258h8.298l-0.507,15.258H193.946z M193.51,301.272l-0.326-14.132h9.3l-0.471,14.132H193.51z
							 M193.024,301.272h-8.264l-1.098-14.132h9.037L193.024,301.272z M184.272,301.272h-8.742
							c-0.309-1.951-0.603-3.798-0.869-5.461c-0.912-5.714-1.255-7.86-1.445-8.671h9.96L184.272,301.272z M184.557,304.933
							l1.185,15.258h-7.23c-0.243-1.549-0.49-3.115-0.736-4.683c-0.567-3.603-1.134-7.203-1.667-10.576L184.557,304.933
							L184.557,304.933z M178.021,320.19h-4.724l-2.56-15.258h4.879C176.361,309.647,177.189,314.896,178.021,320.19z
							 M178.595,323.851c0.72,4.588,1.428,9.109,2.077,13.255h-4.539l-2.223-13.255H178.595z M201.311,337.105l0.439-13.255h4.832
							l-1.132,13.255H201.311z M202.5,301.272l0.469-14.132h6.751l-1.208,14.132H202.5z M172.753,287.141
							c0.194,1.022,1.088,6.583,2.284,14.132h-4.913l-2.37-14.132H172.753z M209.721,337.105h-3.782l1.131-13.255h4.206
							L209.721,337.105z M213.924,301.272h-4.926l1.209-14.132h5.375L213.924,301.272z"/>
					</g>
				</g>
			</g>
		</g>
	</g>
</g>
<g>
	<g>
		<path fill="#263238" d="M348.688,349.435c0,0.092-65.987,0.166-147.365,0.166c-81.41,0-147.382-0.074-147.382-0.166
			c0-0.093,65.973-0.17,147.382-0.17C282.7,349.265,348.688,349.342,348.688,349.435z"/>
	</g>
</g>
<g>
	<g>
		<g>
			<rect x="88.025" y="59.91" fill="#FFFFFF" width="211.802" height="163.355"/>
		</g>
		<g>
			<rect x="100.469" y="163.244" fill="#EBEBEB" width="181.937" height="5.476"/>
		</g>
		<g>
			<rect x="100.38" y="155.983" fill="#EBEBEB" width="181.939" height="5.476"/>
		</g>
		<g>
			<rect x="100.38" y="148.621" fill="#EBEBEB" width="181.939" height="5.476"/>
		</g>
		<g>
			<rect x="100.38" y="141.26" fill="#EBEBEB" width="181.939" height="5.476"/>
		</g>
		<g>
			<rect x="100.469" y="170.77" fill="#EBEBEB" width="181.937" height="5.477"/>
		</g>
		<g>
			<rect x="100.469" y="177.863" fill="#EBEBEB" width="181.937" height="5.476"/>
		</g>
		<g>
			<rect x="100.469" y="185.248" fill="#EBEBEB" width="181.937" height="5.477"/>
		</g>
		<g>
			<rect x="100.469" y="192.271" fill="#EBEBEB" width="181.937" height="5.475"/>
		</g>
		<g>
			<rect x="100.469" y="199.019" fill="#EBEBEB" width="181.937" height="5.475"/>
		</g>
		<g>
			<rect x="100.469" y="206.689" fill="#EBEBEB" width="181.937" height="5.477"/>
		</g>
		<g>
			<rect x="88.025" y="59.746" fill="#FF725E" width="212.01" height="12.159"/>
		</g>
		<g>
			<g>
				<path fill="#263238" d="M102.847,84.483h-1.311v-0.475h3.163v0.476h-1.312v3.35h-0.541V84.483z"/>
			</g>
			<g>
				<path fill="#263238" d="M104.646,86.385c0-0.864,0.639-1.475,1.508-1.475c0.868,0,1.502,0.612,1.502,1.475
					s-0.634,1.481-1.502,1.481C105.285,87.866,104.646,87.249,104.646,86.385z M107.126,86.385c0-0.617-0.415-1.016-0.972-1.016
					c-0.558,0-0.979,0.399-0.979,1.016s0.421,1.022,0.979,1.022C106.711,87.407,107.126,87.002,107.126,86.385z"/>
			</g>
			<g>
				<path fill="#263238" d="M109.602,85.281c0-0.219,0.169-0.371,0.372-0.371c0.197,0,0.361,0.152,0.361,0.371
					s-0.164,0.378-0.361,0.378C109.771,85.659,109.602,85.5,109.602,85.281z M109.602,87.488c0-0.218,0.169-0.372,0.372-0.372
					c0.197,0,0.361,0.154,0.361,0.372c0,0.219-0.164,0.378-0.361,0.378C109.771,87.866,109.602,87.707,109.602,87.488z"/>
			</g>
		</g>
		<g>
			<g>
				<g>
					<path fill="#263238" d="M100.473,106.922l0.2-0.422c0.281,0.254,0.763,0.438,1.249,0.438c0.654,0,0.937-0.254,0.937-0.584
						c0-0.925-2.293-0.341-2.293-1.747c0-0.584,0.454-1.082,1.449-1.082c0.444,0,0.903,0.12,1.217,0.335l-0.178,0.432
						c-0.33-0.211-0.704-0.308-1.039-0.308c-0.644,0-0.919,0.271-0.919,0.6c0,0.925,2.293,0.345,2.293,1.736
						c0,0.578-0.466,1.076-1.466,1.076C101.344,107.398,100.776,107.203,100.473,106.922z"/>
				</g>
				<g>
					<path fill="#263238" d="M106.769,104.489v2.865h-0.492v-0.432c-0.21,0.297-0.567,0.464-0.972,0.464
						c-0.741,0-1.233-0.405-1.233-1.249v-1.648h0.519v1.589c0,0.563,0.28,0.844,0.772,0.844c0.542,0,0.887-0.335,0.887-0.952v-1.481
						H106.769z"/>
				</g>
				<g>
					<path fill="#263238" d="M110.722,105.922c0,0.875-0.611,1.465-1.449,1.465c-0.422,0-0.79-0.162-1.022-0.486v0.454h-0.499
						v-4.012h0.52v1.579c0.238-0.308,0.595-0.459,1.001-0.459C110.111,104.462,110.722,105.046,110.722,105.922z M110.197,105.922
						c0-0.611-0.416-1.006-0.968-1.006c-0.546,0-0.962,0.395-0.962,1.006c0,0.611,0.417,1.012,0.962,1.012
						C109.782,106.934,110.197,106.533,110.197,105.922z"/>
				</g>
				<g>
					<path fill="#263238" d="M110.448,108.263l0.168-0.399c0.103,0.086,0.255,0.135,0.422,0.135c0.276,0,0.427-0.172,0.427-0.503
						v-3.006h0.519v2.996c0,0.584-0.325,0.951-0.914,0.951C110.832,108.436,110.594,108.382,110.448,108.263z M111.373,103.602
						c0-0.188,0.151-0.34,0.352-0.34c0.2,0,0.352,0.146,0.352,0.33c0,0.195-0.146,0.347-0.352,0.347
						C111.523,103.938,111.373,103.792,111.373,103.602z"/>
				</g>
				<g>
					<path fill="#263238" d="M115.55,106.095h-2.325c0.064,0.503,0.471,0.839,1.038,0.839c0.336,0,0.617-0.114,0.829-0.347
						l0.286,0.335c-0.26,0.303-0.654,0.464-1.13,0.464c-0.924,0-1.542-0.611-1.542-1.465c0-0.849,0.612-1.46,1.439-1.46
						s1.416,0.594,1.416,1.476C115.561,105.982,115.557,106.045,115.55,106.095z M113.226,105.722h1.839
						c-0.055-0.481-0.417-0.822-0.919-0.822C113.647,104.9,113.28,105.235,113.226,105.722z"/>
				</g>
				<g>
					<path fill="#263238" d="M116.012,105.922c0-0.854,0.633-1.46,1.514-1.46c0.514,0,0.94,0.211,1.167,0.612l-0.395,0.253
						c-0.184-0.28-0.465-0.411-0.779-0.411c-0.563,0-0.983,0.395-0.983,1.007c0,0.622,0.421,1.012,0.983,1.012
						c0.313,0,0.595-0.131,0.779-0.412l0.395,0.247c-0.228,0.4-0.654,0.617-1.167,0.617
						C116.645,107.387,116.012,106.776,116.012,105.922z"/>
				</g>
				<g>
					<path fill="#263238" d="M121.011,107.187c-0.157,0.135-0.396,0.2-0.627,0.2c-0.579,0-0.909-0.319-0.909-0.898v-1.574h-0.487
						v-0.427h0.487v-0.627h0.519v0.627h0.821v0.427h-0.821v1.552c0,0.308,0.162,0.481,0.448,0.481c0.152,0,0.298-0.049,0.405-0.135
						L121.011,107.187z"/>
				</g>
			</g>
			<g>
				<path fill="#263238" d="M122.783,104.843c0-0.215,0.168-0.368,0.368-0.368c0.195,0,0.357,0.152,0.357,0.368
					c0,0.216-0.163,0.373-0.357,0.373C122.952,105.216,122.783,105.059,122.783,104.843z M122.783,107.028
					c0-0.217,0.168-0.369,0.368-0.369c0.195,0,0.357,0.152,0.357,0.369c0,0.216-0.163,0.372-0.357,0.372
					C122.952,107.4,122.783,107.244,122.783,107.028z"/>
			</g>
		</g>
		<g>
			<circle fill="#FFFFFF" cx="94.164" cy="65.826" r="1.317"/>
		</g>
		<g>
			<circle fill="#FFFFFF" cx="98.85" cy="65.825" r="1.316"/>
		</g>
		<g>
			<circle fill="#FFFFFF" cx="103.535" cy="65.825" r="1.316"/>
		</g>
		<g>
			<g>
				<path fill="#263238" d="M137.507,130.212c-0.003-0.002-0.006-0.053-0.009-0.152c-0.003-0.112-0.005-0.255-0.011-0.433
					c-0.006-0.396-0.013-0.951-0.022-1.661c-0.013-1.458-0.031-3.554-0.054-6.198l0.096,0.096
					c-8.383,0.016-22.277,0.042-38.002,0.071h-0.001c0.334-0.334,0.092-0.092,0.168-0.166v0.004v0.009v0.017v0.033v0.067v0.136
					v0.271v0.541c0,0.359,0,0.719,0,1.076c0,0.715,0,1.425,0,2.13c-0.001,1.411-0.001,2.799-0.002,4.159l-0.165-0.164
					c10.785,0.029,20.258,0.056,27.057,0.074c3.392,0.02,6.115,0.037,8.012,0.047c0.929,0.009,1.654,0.017,2.168,0.022
					c0.236,0.004,0.423,0.007,0.567,0.012C137.436,130.206,137.503,130.21,137.507,130.212c0.004,0.004-0.057,0.008-0.178,0.012
					c-0.139,0.002-0.319,0.006-0.547,0.011c-0.505,0.005-1.218,0.014-2.132,0.022c-1.888,0.011-4.598,0.027-7.973,0.047
					c-6.829,0.019-16.344,0.045-27.174,0.074h-0.166v-0.166c0-1.36-0.001-2.749-0.001-4.159c0-0.705,0-1.415,0-2.13
					c0-0.357,0-0.716,0-1.076v-0.541v-0.271v-0.136v-0.067V121.8v-0.017v-0.009v-0.004c0.075-0.076-0.167,0.166,0.168-0.169h0.001
					c15.725,0.029,29.619,0.056,38.002,0.071h0.097l-0.001,0.096c-0.022,2.668-0.04,4.785-0.053,6.255
					c-0.01,0.702-0.018,1.249-0.023,1.639c-0.004,0.172-0.008,0.309-0.01,0.416C137.514,130.17,137.51,130.216,137.507,130.212z"/>
			</g>
		</g>
		<g>
			<g>
				<path fill="#263238" d="M160.965,130.212c-0.003-0.003-0.008-0.057-0.013-0.16c-0.003-0.121-0.007-0.267-0.013-0.447
					c-0.006-0.415-0.016-0.979-0.029-1.69c-0.016-1.48-0.037-3.571-0.064-6.147l0.118,0.118c-5.316,0.013-12.67,0.031-20.8,0.049
					c-0.15,0.151,0.203-0.204,0.167-0.167v0.002v0.004v0.008v0.018v0.034v0.069v0.139v0.276v0.551c0,0.367,0,0.731,0,1.093
					c-0.001,0.725-0.001,1.441-0.001,2.147c-0.002,1.413-0.004,2.786-0.006,4.102l-0.16-0.16c5.991,0.03,11.163,0.058,14.871,0.076
					c1.83,0.019,3.299,0.034,4.34,0.045c0.49,0.008,0.878,0.015,1.172,0.02C160.815,130.199,160.958,130.207,160.965,130.212
					c0.006,0.008-0.123,0.014-0.38,0.021c-0.285,0.005-0.662,0.011-1.138,0.02c-1.034,0.012-2.489,0.026-4.305,0.045
					c-3.735,0.019-8.943,0.046-14.979,0.076h-0.161v-0.162c-0.001-1.316-0.003-2.688-0.005-4.102c0-0.706,0-1.422-0.001-2.147
					c0-0.363,0-0.727,0-1.093v-0.551v-0.276v-0.138v-0.069v-0.034v-0.018v-0.009v-0.004v-0.002
					c-0.037,0.037,0.318-0.318,0.168-0.168c8.13,0.021,15.483,0.038,20.8,0.05h0.12l-0.001,0.118
					c-0.027,2.606-0.049,4.721-0.065,6.218c-0.011,0.701-0.021,1.256-0.03,1.665C160.982,130.028,160.972,130.221,160.965,130.212z"
					/>
			</g>
		</g>
		<g>
			<path fill="#263238" d="M103.405,124.9h-1.367v-0.495h3.298v0.495h-1.368v3.492h-0.563V124.9z"/>
		</g>
		<g>
			<path fill="#263238" d="M105.706,124.438c0-0.199,0.159-0.358,0.37-0.358s0.371,0.153,0.371,0.348
				c0,0.205-0.154,0.364-0.371,0.364C105.865,124.792,105.706,124.638,105.706,124.438z M105.803,125.373h0.547v3.019h-0.547
				V125.373z"/>
		</g>
		<g>
			<path fill="#263238" d="M109.089,128.215c-0.166,0.142-0.416,0.211-0.661,0.211c-0.61,0-0.957-0.336-0.957-0.946v-1.656h-0.512
				v-0.451h0.512v-0.66h0.547v0.66h0.866v0.451h-0.866v1.634c0,0.325,0.171,0.507,0.473,0.507c0.16,0,0.313-0.051,0.428-0.143
				L109.089,128.215z"/>
		</g>
		<g>
			<path fill="#263238" d="M109.749,124.165h0.547v4.227h-0.547V124.165z"/>
		</g>
		<g>
			<path fill="#263238" d="M114.054,127.064h-2.449c0.068,0.53,0.496,0.883,1.093,0.883c0.354,0,0.65-0.12,0.871-0.364l0.302,0.354
				c-0.272,0.318-0.689,0.49-1.19,0.49c-0.974,0-1.624-0.644-1.624-1.543c0-0.895,0.644-1.539,1.516-1.539s1.492,0.627,1.492,1.556
				C114.066,126.944,114.061,127.013,114.054,127.064z M111.605,126.671h1.937c-0.058-0.507-0.438-0.866-0.968-0.866
				C112.05,125.805,111.662,126.159,111.605,126.671z"/>
		</g>
		<g>
			<polygon fill="#263238" points="131.454,125.629 135.072,125.629 133.263,127.438 			"/>
		</g>
		<g>
			<polygon fill="#263238" points="154.422,125.629 158.041,125.629 156.232,127.438 			"/>
		</g>
		<g>
			<g>
				<path fill="#E0E0E0" d="M292.939,215.893c-0.002-0.989-0.048-37.642-0.126-98.125l0.126,0.124
					c-51.664,0.012-121.045,0.027-197.146,0.043h-0.015l0.168-0.168c-0.003,34.588-0.006,67.785-0.009,98.123l-0.158-0.159
					C210.838,215.824,291.48,215.891,292.939,215.893c-1.459,0-82.102,0.064-197.16,0.156h-0.158v-0.156
					c-0.002-30.34-0.006-63.537-0.009-98.125V117.6h0.168h0.014c76.101,0.016,145.48,0.032,197.146,0.043h0.126l-0.003,0.124
					C292.986,178.25,292.94,214.903,292.939,215.893z"/>
			</g>
		</g>
		<g>
			<g>
				<path fill="#E0E0E0" d="M292.939,114.02c0,0-0.009-0.38-0.014-1.112c-0.002-0.735-0.008-1.82-0.016-3.242
					c-0.008-2.845-0.02-7.031-0.036-12.426l0.065,0.065c-32.486,0.017-108.663,0.057-197.448,0.103h-0.01l0.168-0.168
					c0,5.748,0,11.443,0,16.78l-0.167-0.167c55.299,0.028,104.641,0.052,140.161,0.071c17.772,0.021,32.085,0.039,41.962,0.05
					c4.938,0.01,8.767,0.017,11.367,0.023c1.296,0.005,2.284,0.009,2.955,0.011C292.592,114.014,292.939,114.02,292.939,114.02
					s-0.331,0.008-0.992,0.013c-0.663,0.002-1.646,0.006-2.933,0.011c-2.589,0.005-6.406,0.014-11.326,0.023
					c-9.867,0.013-24.169,0.029-41.923,0.05c-35.555,0.018-84.938,0.042-140.285,0.071h-0.167v-0.168c0-5.336,0-11.032,0-16.78
					v-0.168h0.168h0.01c88.786,0.047,164.963,0.086,197.449,0.104h0.064v0.065c-0.017,5.411-0.028,9.611-0.037,12.463
					c-0.008,1.415-0.011,2.496-0.016,3.227C292.947,113.656,292.939,114.02,292.939,114.02z"/>
			</g>
		</g>
		<g>
			<g>
				<path fill="#E0E0E0" d="M292.939,93.695c0,0-0.009-0.382-0.014-1.113c-0.002-0.735-0.008-1.82-0.016-3.242
					c-0.008-2.843-0.02-7.032-0.036-12.426l0.065,0.065c-32.486,0.017-108.663,0.057-197.448,0.103h-0.01l0.168-0.168
					c0,5.748,0,11.444,0,16.78l-0.167-0.167c55.299,0.028,104.641,0.053,140.161,0.071c17.772,0.021,32.085,0.038,41.962,0.049
					c4.938,0.01,8.767,0.018,11.367,0.023c1.296,0.006,2.284,0.009,2.955,0.012C292.592,93.688,292.939,93.695,292.939,93.695
					s-0.331,0.008-0.992,0.011c-0.663,0.003-1.646,0.007-2.933,0.012c-2.589,0.005-6.406,0.012-11.326,0.023
					c-9.867,0.011-24.169,0.029-41.923,0.049c-35.555,0.018-84.938,0.043-140.285,0.071h-0.167v-0.168c0-5.336,0-11.031,0-16.78
					v-0.167h0.168h0.01c88.786,0.046,164.963,0.085,197.449,0.103h0.064v0.065c-0.017,5.411-0.028,9.611-0.037,12.464
					c-0.008,1.415-0.011,2.495-0.016,3.227C292.947,93.33,292.939,93.695,292.939,93.695z"/>
			</g>
		</g>
		<g>
			<g>
				<path fill="#263238" d="M241.611,122.52c-0.673,0-1.224,0.496-1.245,1.113h-0.003V128h0.008c0.081,0.817,0.83,1.46,1.737,1.46
					s1.654-0.643,1.736-1.46h0.007v-3.52h-0.339v3.374c0,0.713-0.631,1.293-1.404,1.293c-0.774,0-1.404-0.58-1.404-1.293v-4.183
					c0-0.461,0.406-0.837,0.907-0.837c0.503,0,0.908,0.375,0.908,0.837v3.548h0.007c-0.062,0.213-0.263,0.372-0.503,0.372
					c-0.245,0-0.45-0.162-0.508-0.378v-2.732h-0.34v2.609l0,0v0.002v0.125h0.016c0.065,0.379,0.412,0.669,0.832,0.669
					c0.418,0,0.765-0.291,0.83-0.669h0.008v-0.07c0.002-0.019,0.006-0.039,0.006-0.058h-0.006v-3.457h-0.003
					C242.838,123.016,242.287,122.52,241.611,122.52z"/>
			</g>
			<g>
				<g>
					<rect x="190.64" y="124.448" fill="#263238" width="4.969" height="0.788"/>
				</g>
				<g>
					<rect x="190.64" y="127.313" fill="#263238" width="4.969" height="0.787"/>
				</g>
				<g>
					<rect x="190.64" y="125.931" fill="#263238" width="2.484" height="0.787"/>
				</g>
			</g>
			<g>
				<g>
					<rect x="209.299" y="124.448" fill="#263238" width="4.97" height="0.788"/>
				</g>
				<g>
					<rect x="209.299" y="127.313" fill="#263238" width="4.97" height="0.787"/>
				</g>
				<g>
					<rect x="211.783" y="125.931" fill="#263238" width="2.485" height="0.787"/>
				</g>
			</g>
			<g>
				<g>
					<rect x="200.098" y="124.448" fill="#263238" width="4.97" height="0.788"/>
				</g>
				<g>
					<rect x="200.098" y="127.313" fill="#263238" width="4.97" height="0.787"/>
				</g>
				<g>
					<rect x="200.098" y="125.931" fill="#263238" width="4.97" height="0.787"/>
				</g>
			</g>
			<g>
				<g>
					<polygon fill="#263238" points="226.716,127.84 222.651,127.84 222.651,124.502 224.756,124.502 224.756,125.206 
						223.354,125.206 223.354,127.136 226.011,127.136 226.011,126.434 226.716,126.434 					"/>
				</g>
				<g>
					<polygon fill="#263238" points="229.058,127.84 227.326,127.84 227.326,127.136 228.355,127.136 228.355,125.206 
						225.699,125.206 225.699,126.106 224.995,126.106 224.995,124.502 229.058,124.502 					"/>
				</g>
				<g>
					<polygon fill="#263238" points="230.703,125.906 232.873,125.906 231.788,126.914 					"/>
				</g>
			</g>
			<g>
				<path fill="#263238" d="M181.763,126.25v-1.872h0.616v1.849c0,0.683,0.308,0.976,0.844,0.976c0.535,0,0.838-0.293,0.838-0.976
					v-1.849h0.607v1.872c0,0.967-0.544,1.493-1.45,1.493C182.307,127.743,181.763,127.217,181.763,126.25z"/>
			</g>
			<g>
				<path fill="#263238" d="M176.184,124.004h0.553l-0.775,3.875h-0.554L176.184,124.004z"/>
			</g>
			<g>
				<path fill="#263238" d="M170.969,126.816c0,0.67-0.554,1.063-1.595,1.063h-2.092v-3.875h1.982c1.019,0,1.518,0.415,1.518,1.013
					c0,0.371-0.189,0.67-0.522,0.842C170.698,126.015,170.969,126.346,170.969,126.816z M168.366,124.795v0.748h0.753
					c0.365,0,0.554-0.127,0.554-0.376c0-0.244-0.189-0.371-0.554-0.371L168.366,124.795L168.366,124.795z M169.862,126.694
					c0-0.265-0.2-0.393-0.576-0.393h-0.919v0.786h0.919C169.662,127.088,169.862,126.96,169.862,126.694z"/>
			</g>
			<g>
				<g>
					<ellipse fill="#E0E0E0" cx="187.632" cy="125.99" rx="0.167" ry="4.455"/>
				</g>
			</g>
			<g>
				<g>
					<ellipse fill="#E0E0E0" cx="217.169" cy="125.99" rx="0.167" ry="4.455"/>
				</g>
			</g>
			<g>
				<g>
					<ellipse fill="#E0E0E0" cx="235.037" cy="126.171" rx="0.167" ry="4.455"/>
				</g>
			</g>
			<g>
				<g>
					<ellipse fill="#E0E0E0" cx="248.593" cy="125.906" rx="0.17" ry="4.455"/>
				</g>
			</g>
			<g>
				<g>
					<ellipse fill="#263238" cx="183.345" cy="128.189" rx="1.998" ry="0.168"/>
				</g>
			</g>
		</g>
		<g>
			<path fill="#263238" d="M146.272,124.004v3.875h-0.547v-3.395h-0.875v-0.48H146.272z"/>
			<path fill="#263238" d="M149.845,127.398v0.482h-2.785v-0.376l1.578-1.522c0.409-0.398,0.488-0.643,0.488-0.886
				c0-0.398-0.282-0.643-0.825-0.643c-0.415,0-0.753,0.133-0.991,0.421l-0.377-0.327c0.299-0.371,0.813-0.587,1.417-0.587
				c0.808,0,1.328,0.415,1.328,1.079c0,0.376-0.11,0.714-0.636,1.219l-1.185,1.14L149.845,127.398L149.845,127.398z"/>
		</g>
		<g>
			<g>
				<path fill="#E0E0E0" d="M292.939,134.636c0,0.093-44.212,0.167-98.74,0.167c-54.545,0-98.749-0.074-98.749-0.167
					c0-0.092,44.204-0.168,98.749-0.168C248.728,134.468,292.939,134.543,292.939,134.636z"/>
			</g>
		</g>
		<g>
			<g>
				<path fill="#263238" d="M280.76,144.412c0,0.093-40.15,0.168-89.666,0.168c-49.533,0-89.674-0.075-89.674-0.168
					c0-0.092,40.141-0.167,89.674-0.167C240.609,144.245,280.76,144.319,280.76,144.412z"/>
			</g>
		</g>
		<g>
			<g>
				<path fill="#263238" d="M280.76,151.679c0,0.092-40.15,0.167-89.666,0.167c-49.533,0-89.674-0.075-89.674-0.167
					c0-0.093,40.141-0.168,89.674-0.168C240.609,151.511,280.76,151.586,280.76,151.679z"/>
			</g>
		</g>
		<g>
			<g>
				<path fill="#263238" d="M280.76,158.946c0,0.092-40.15,0.168-89.666,0.168c-49.533,0-89.674-0.076-89.674-0.168
					c0-0.093,40.141-0.168,89.674-0.168C240.609,158.778,280.76,158.854,280.76,158.946z"/>
			</g>
		</g>
		<g>
			<g>
				<path fill="#263238" d="M280.76,166.213c0,0.092-40.15,0.168-89.666,0.168c-49.533,0-89.674-0.076-89.674-0.168
					c0-0.092,40.141-0.167,89.674-0.167C240.609,166.045,280.76,166.121,280.76,166.213z"/>
			</g>
		</g>
		<g>
			<g>
				<path fill="#263238" d="M280.76,173.48c0,0.092-40.15,0.168-89.666,0.168c-49.533,0-89.674-0.076-89.674-0.168
					c0-0.093,40.141-0.168,89.674-0.168C240.609,173.313,280.76,173.387,280.76,173.48z"/>
			</g>
		</g>
		<g>
			<g>
				<path fill="#263238" d="M280.76,180.747c0,0.093-40.15,0.168-89.666,0.168c-49.533,0-89.674-0.076-89.674-0.168
					c0-0.092,40.141-0.167,89.674-0.167C240.609,180.579,280.76,180.655,280.76,180.747z"/>
			</g>
		</g>
		<g>
			<g>
				<path fill="#263238" d="M280.76,188.014c0,0.093-40.15,0.168-89.666,0.168c-49.533,0-89.674-0.075-89.674-0.168
					c0-0.092,40.141-0.167,89.674-0.167C240.609,187.846,280.76,187.921,280.76,188.014z"/>
			</g>
		</g>
		<g>
			<g>
				<path fill="#263238" d="M280.89,195.021c0,0.093-40.149,0.168-89.666,0.168c-49.533,0-89.674-0.075-89.674-0.168
					c0-0.092,40.142-0.168,89.674-0.168C240.74,194.853,280.89,194.929,280.89,195.021z"/>
			</g>
		</g>
		<g>
			<g>
				<path fill="#263238" d="M281.02,202.029c0,0.092-40.149,0.167-89.666,0.167c-49.532,0-89.673-0.075-89.673-0.167
					c0-0.093,40.141-0.167,89.673-0.167C240.87,201.862,281.02,201.937,281.02,202.029z"/>
			</g>
		</g>
		<g>
			<g>
				<path fill="#263238" d="M101.81,209.036c0-0.093,40.15-0.168,89.666-0.168c49.532,0,89.673,0.075,89.673,0.168
					s-40.141,0.168-89.673,0.168C141.959,209.204,101.81,209.129,101.81,209.036z"/>
			</g>
		</g>
		<g>
			<g>
				<path fill="#263238" d="M299.827,223.266c-0.002-1.148-0.055-64.681-0.139-163.355l0.139,0.139
					c-60.148,0.009-133.144,0.019-211.784,0.03h-0.018l0.167-0.168c-0.006,58.844-0.012,114.521-0.017,163.355l-0.151-0.151
					C213.695,223.205,298.5,223.266,299.827,223.266c-1.326,0.003-86.132,0.063-211.802,0.151h-0.151v-0.151
					c-0.005-48.835-0.011-104.511-0.017-163.355v-0.168h0.168h0.018c78.641,0.011,151.636,0.021,211.785,0.03h0.139v0.139
					C299.881,158.583,299.827,222.118,299.827,223.266z"/>
			</g>
		</g>
	</g>
	<g>
		<g>
			<path fill="#FF725E" d="M217.029,110.633v14.05c0,2.591,2.102,4.692,4.691,4.692h17.17c0.503,0,0.976,0.23,1.286,0.624
				l4.214,9.187l5.08-9.039c0.31-0.346,0.753-0.543,1.217-0.543h18.022c2.591,0,4.69-2.101,4.69-4.691v-14.366
				c0-2.595-2.104-4.696-4.698-4.692l-46.992,0.087C219.126,105.946,217.029,108.045,217.029,110.633z"/>
		</g>
		<g>
			<path fill="#FFFFFF" d="M228.823,122.769h-2.938v-2.771l6.766-7.391l0.139-0.037c0.946-0.258,1.683-0.152,2.191,0.313
				c0.854,0.783,0.625,2.223,0.594,2.385l-0.023,0.138L228.823,122.769z M226.856,121.796h1.539l6.238-6.83
				c0.04-0.363,0.035-1.052-0.313-1.367c-0.229-0.207-0.61-0.249-1.148-0.123l-6.316,6.9V121.796L226.856,121.796z"/>
		</g>
		<g>
			<path fill="#FFFFFF" d="M247.967,120.902v0.957h-5.586v-7.696h5.431v0.957h-4.331v2.365h3.86v0.935h-3.86v2.484L247.967,120.902
				L247.967,120.902z"/>
			<path fill="#FFFFFF" d="M255.021,113.7v8.158h-1.013v-0.924c-0.475,0.661-1.223,0.991-2.079,0.991
				c-1.705,0-2.946-1.199-2.946-2.98s1.241-2.97,2.946-2.97c0.823,0,1.551,0.308,2.035,0.935v-3.21H255.021z M253.974,118.945
				c0-1.243-0.846-2.046-1.956-2.046c-1.121,0-1.968,0.803-1.968,2.046s0.847,2.056,1.968,2.056
				C253.128,121.001,253.974,120.188,253.974,118.945z"/>
			<path fill="#FFFFFF" d="M256.838,114.228c0-0.384,0.308-0.692,0.716-0.692s0.715,0.297,0.715,0.671
				c0,0.396-0.298,0.705-0.715,0.705C257.146,114.91,256.838,114.613,256.838,114.228z M257.026,116.031h1.055v5.828h-1.055V116.031
				z"/>
			<path fill="#FFFFFF" d="M263.371,121.517c-0.318,0.276-0.801,0.408-1.274,0.408c-1.178,0-1.848-0.649-1.848-1.826v-3.2h-0.99
				v-0.869h0.99v-1.274h1.055v1.274h1.673v0.869h-1.673v3.155c0,0.628,0.331,0.979,0.914,0.979c0.307,0,0.603-0.1,0.823-0.275
				L263.371,121.517z"/>
		</g>
	</g>
</g>
<g>
	<g>
		<g>
			<g>
				<path fill="#FF725E" d="M115.37,327.734c-1.686-0.085-2.181-2.467-1.553-4.031c0.627-1.566,1.868-2.96,1.886-4.647
					c0.015-1.464-0.915-2.795-1.003-4.255c-0.16-2.637,2.387-4.788,2.496-7.427c0.084-2.058-1.344-4.018-0.998-6.046
					c0.371-2.179,2.644-3.609,3.165-5.757c0.554-2.288-1.032-4.704-0.424-6.979c0.604-2.263,3.273-3.925,2.894-6.239
					c-0.125-0.765-0.586-1.433-0.793-2.18c-0.478-1.727,0.464-3.526,1.605-4.905c1.142-1.379,2.54-2.603,3.245-4.251
					c1.083-2.527,0.331-5.605,1.61-8.041c1.066-2.027,3.437-3.392,3.735-5.663c1.203,2.045,0.026,4.646,0.301,7.002
					c0.179,1.537,0.974,2.923,1.463,4.387c0.998,2.993,0.663,6.402-0.897,9.144c-1.031,1.813-2.62,3.521-2.54,5.604
					c0.098,2.522,2.621,4.352,3.066,6.834c0.638,3.555-3.148,6.752-2.624,10.324c0.135,0.921,0.557,1.788,0.635,2.717
					c0.269,3.157-3.313,5.39-3.858,8.512c-0.4,2.296,0.927,4.671,0.378,6.938c-0.423,1.747-1.933,3.313-1.562,5.071
					c0.161,0.764,0.662,1.406,0.964,2.124c0.58,1.371,0.36,3.077-0.632,4.188c-0.993,1.11-2.741,1.505-4.071,0.837"/>
			</g>
		</g>
		<g opacity="0.5">
			<g>
				<g>
					<path fill="#FFFFFF" d="M126.562,325.968c-0.303-0.718-0.804-1.36-0.964-2.124c-0.372-1.759,1.138-3.324,1.562-5.071
						c0.549-2.267-0.78-4.642-0.378-6.938c0.545-3.122,4.127-5.354,3.858-8.512c-0.079-0.929-0.501-1.796-0.636-2.717
						c-0.523-3.572,3.262-6.77,2.625-10.324c-0.445-2.481-2.969-4.312-3.067-6.834c-0.08-2.082,1.509-3.791,2.54-5.604
						c1.56-2.742,1.895-6.152,0.897-9.144c-0.489-1.464-1.284-2.85-1.463-4.387c-0.274-2.355,0.902-4.957-0.301-7.002
						c-0.298,2.271-2.669,3.636-3.735,5.663c-1.28,2.437-0.527,5.514-1.61,8.041c-0.706,1.647-2.104,2.872-3.246,4.251
						c-1.142,1.379-2.083,3.18-1.605,4.905c0.207,0.746,0.668,1.415,0.793,2.18c0.38,2.314-2.289,3.977-2.895,6.239
						c-0.607,2.275,0.979,4.691,0.425,6.979c-0.521,2.146-2.794,3.578-3.165,5.757c-0.346,2.028,1.082,3.988,0.998,6.046
						c-0.109,2.639-2.656,4.79-2.496,7.427c0.089,1.46,1.018,2.792,1.003,4.255c-0.017,1.688-1.258,3.081-1.886,4.647
						c-0.627,1.564-0.132,3.944,1.553,4.031l6.487,3.258c1.331,0.667,3.079,0.273,4.072-0.838
						C126.923,329.045,127.142,327.339,126.562,325.968z"/>
				</g>
			</g>
		</g>
		<g>
			<g>
				<path fill="#FF725E" d="M124.362,324.425c-0.353-0.582-0.774-1.805-0.65-2.494c0.173-0.966,1.805-1.814,2.211-3.452
					c0.526-2.121-0.423-5.878-0.019-8.02c0.55-2.909,3.562-4.826,3.438-7.715c-0.037-0.85,0.083-3.121,0-3.961
					c-0.322-3.256,2.537-5.441,2.12-8.673c-0.292-2.259-2.633-4.904-2.634-7.22c-0.002-1.912,1.369-3.589,2.281-5.324
					c1.379-2.626,1.763-5.787,1.031-8.478c-0.359-1.319-0.975-2.543-1.075-3.946c-0.153-2.151,0.904-4.624-0.029-6.428
					c-0.319,2.11-2.327,3.521-3.273,5.457c-1.138,2.325-0.611,5.11-1.588,7.509c-0.636,1.561-1.833,2.78-2.822,4.123
					c-0.989,1.346-1.827,3.063-1.485,4.621c0.148,0.676,0.509,1.262,0.589,1.958c0.242,2.104-2.021,3.808-2.595,5.933
					c-0.575,2.133,0.664,4.256,0.132,6.398c-0.499,2.011-2.468,4.743-2.844,6.772c-0.351,1.892,1.364,3.123,1.229,5.023
					c-0.172,2.437-2.616,5.388-2.565,7.805c0.028,1.341,1.148,1.77,1.091,3.118c-0.067,1.555-1.369,4.646-1.938,6.128
					c-0.569,1.483-0.534,2.627,0.404,4.174l7.245,3.593C125.849,329.786,125.707,326.642,124.362,324.425z"/>
			</g>
		</g>
		<g>
			<g>
				<g>
					<path fill="#263238" d="M129.232,269.731c0.005,0,0.009,0.056,0.012,0.161c0.001,0.122,0.003,0.278,0.005,0.47
						c-0.004,0.415-0.004,1.027-0.075,1.813c-0.076,0.78-0.206,1.756-0.653,2.797c-0.426,1.063-1.327,2.016-2.181,3.109
						c-0.418,0.555-0.829,1.164-1.032,1.892c-0.222,0.714-0.317,1.504-0.263,2.318c0.078,1.637,0.583,3.338,0.821,5.198
						c0.112,0.926,0.149,1.91-0.093,2.881c-0.111,0.486-0.324,0.951-0.568,1.397c-0.261,0.434-0.566,0.83-0.764,1.272
						c-0.413,0.89-0.251,1.935-0.043,2.941c0.104,0.508,0.219,1.027,0.281,1.563c0.067,0.537,0.034,1.091-0.042,1.63
						c-0.174,1.085-0.583,2.086-0.998,3.045c-0.416,0.959-0.842,1.893-1.12,2.85c-0.283,0.958-0.355,1.931-0.251,2.893
						c0.082,0.962,0.232,1.925,0.102,2.874c-0.129,0.952-0.535,1.797-0.914,2.588c-0.383,0.791-0.754,1.556-0.914,2.351
						c-0.305,1.6,0.148,3.135,0.115,4.556c-0.017,1.437-0.495,2.656-0.833,3.709c-0.354,1.057-0.637,1.977-0.707,2.754
						c-0.076,0.772,0.035,1.382,0.183,1.765c0.146,0.38,0.26,0.57,0.244,0.578c0,0-0.131-0.177-0.299-0.559
						c-0.169-0.382-0.299-1.002-0.241-1.796c0.055-0.793,0.326-1.73,0.666-2.792c0.324-1.062,0.779-2.271,0.783-3.662
						c0-0.693-0.097-1.42-0.176-2.185c-0.076-0.763-0.135-1.582,0.03-2.416c0.313-1.679,1.542-3.118,1.797-4.926
						c0.121-0.9-0.025-1.841-0.113-2.813c-0.109-0.974-0.037-2.014,0.254-2.996c0.556-1.975,1.758-3.771,2.104-5.86
						c0.072-0.519,0.105-1.039,0.041-1.555c-0.059-0.515-0.17-1.023-0.276-1.537c-0.207-1.008-0.39-2.126,0.066-3.114
						c0.22-0.483,0.532-0.886,0.783-1.301c0.23-0.424,0.433-0.858,0.539-1.32c0.233-0.92,0.203-1.872,0.096-2.782
						c-0.225-1.827-0.724-3.544-0.795-5.218c-0.05-0.835,0.053-1.655,0.291-2.397c0.22-0.76,0.653-1.392,1.083-1.949
						c0.879-1.104,1.767-2.021,2.196-3.052c0.451-1.007,0.598-1.968,0.69-2.74c0.087-0.781,0.105-1.389,0.128-1.803
						c0.01-0.192,0.018-0.347,0.024-0.469C129.221,269.786,129.227,269.731,129.232,269.731z"/>
				</g>
			</g>
		</g>
		<g>
			<g>
				<path fill="#FF725E" d="M105.021,328.561c-2.358,0.345-3.697-2.816-3.256-5.157c0.441-2.344,1.779-4.613,1.34-6.955
					c-0.38-2.033-2.033-3.621-2.556-5.622c-0.945-3.609,1.997-7.285,1.423-10.973c-0.445-2.874-2.96-5.198-3.038-8.104
					c-0.083-3.121,2.674-5.725,2.808-8.842c0.142-3.319-2.718-6.236-2.498-9.552c0.218-3.303,3.459-6.338,2.3-9.437
					c-0.384-1.027-1.206-1.827-1.697-2.806c-1.134-2.26-0.323-5.013,0.881-7.235c1.203-2.223,2.806-4.304,3.331-6.775
					c0.81-3.802-1.077-7.858,0.03-11.583c0.921-3.102,3.832-5.641,3.624-8.868c2.226,2.502,1.309,6.43,2.333,9.618
					c0.668,2.077,2.15,3.78,3.229,5.677c2.202,3.872,2.673,8.688,1.262,12.913c-0.933,2.795-2.667,5.598-1.984,8.461
					c0.827,3.468,4.823,5.31,6.121,8.628c1.857,4.748-2.513,10.214-0.808,15.02c0.44,1.239,1.261,2.325,1.625,3.59
					c1.238,4.303-3.114,8.373-3.014,12.85c0.074,3.292,2.565,6.219,2.425,9.509c-0.107,2.536-1.77,5.119-0.775,7.454
					c0.432,1.013,1.302,1.766,1.919,2.678c1.179,1.741,1.341,4.164,0.27,5.975c-1.072,1.81-3.385,2.838-5.413,2.274"/>
			</g>
		</g>
		<g opacity="0.5">
			<g>
				<g>
					<path fill="#FFFFFF" d="M120.044,323.049c-0.617-0.913-1.487-1.666-1.919-2.678c-0.995-2.336,0.667-4.918,0.775-7.454
						c0.14-3.291-2.351-6.218-2.425-9.509c-0.1-4.476,4.252-8.547,3.014-12.85c-0.364-1.265-1.184-2.351-1.625-3.59
						c-1.705-4.807,2.665-10.271,0.808-15.02c-1.297-3.319-5.294-5.161-6.121-8.628c-0.683-2.864,1.051-5.669,1.983-8.46
						c1.411-4.226,0.94-9.041-1.262-12.913c-1.079-1.898-2.56-3.6-3.228-5.678c-1.025-3.189-0.107-7.117-2.334-9.619
						c0.208,3.228-2.704,5.768-3.624,8.868c-1.106,3.727,0.779,7.783-0.029,11.583c-0.526,2.475-2.129,4.555-3.331,6.776
						c-1.205,2.222-2.016,4.975-0.882,7.234c0.492,0.979,1.313,1.779,1.698,2.806c1.16,3.101-2.082,6.134-2.301,9.438
						c-0.22,3.314,2.641,6.231,2.498,9.552c-0.134,3.117-2.891,5.721-2.808,8.841c0.076,2.907,2.592,5.231,3.037,8.104
						c0.573,3.688-2.368,7.363-1.423,10.974c0.523,1.999,2.177,3.589,2.556,5.622c0.438,2.343-0.899,4.611-1.34,6.955
						c-0.441,2.341,0.898,5.501,3.256,5.157l9.88,2.736c2.027,0.563,4.34-0.466,5.413-2.274
						C121.385,327.213,121.222,324.79,120.044,323.049z"/>
				</g>
			</g>
		</g>
		<g>
			<g>
				<path fill="#FF725E" d="M116.573,321.514c-0.648-0.71-1.567-2.289-1.584-3.279c-0.025-1.384,2.004-3.006,2.117-5.386
					c0.148-3.085-2.196-8.027-2.222-11.105c-0.036-4.183,3.611-7.662,2.649-11.631c-0.283-1.167-0.739-4.346-1.084-5.487
					c-1.337-4.422,2.025-8.231,0.563-12.596c-1.021-3.049-4.991-6.073-5.627-9.282c-0.526-2.648,0.914-5.347,1.701-8.002
					c1.192-4.014,0.858-8.498-0.893-12.026c-0.859-1.73-2.047-3.257-2.569-5.173c-0.801-2.939-0.016-6.652-1.801-8.897
					c0.137,3.011-2.258,5.516-3.04,8.457c-0.938,3.534,0.554,7.247-0.143,10.841c-0.452,2.336-1.778,4.351-2.781,6.483
					c-1.002,2.134-1.69,4.745-0.791,6.809c0.389,0.896,1.05,1.606,1.352,2.549c0.912,2.851-1.757,5.831-1.968,8.931
					c-0.213,3.113,2.084,5.716,1.934,8.829c-0.142,2.922-2.12,7.247-2.085,10.161c0.033,2.718,2.744,3.953,3.079,6.622
					c0.428,3.426-2.149,8.181-1.417,11.517c0.405,1.849,2.075,2.137,2.365,4.021c0.332,2.175-0.625,6.811-1.007,9.021
					c-0.383,2.212-0.02,3.786,1.703,5.671l11.021,2.996C120.102,328.533,119.042,324.216,116.573,321.514z"/>
			</g>
		</g>
		<g>
			<g>
				<g>
					<path fill="#263238" d="M108.339,244.404c0,0,0.31,1.193,0.567,3.402c0.106,1.102,0.188,2.485-0.149,4.045
						c-0.165,0.778-0.465,1.581-0.865,2.386c-0.395,0.807-0.874,1.623-1.31,2.508c-0.431,0.883-0.835,1.849-0.92,2.915
						c-0.114,1.059-0.03,2.186,0.268,3.304c0.556,2.251,1.721,4.476,2.557,6.978c0.407,1.25,0.726,2.6,0.655,4
						c-0.02,0.701-0.187,1.397-0.401,2.076c-0.241,0.666-0.556,1.301-0.713,1.977c-0.333,1.367,0.185,2.786,0.749,4.122
						c0.283,0.679,0.584,1.363,0.814,2.086c0.239,0.721,0.343,1.488,0.386,2.253c0.054,1.541-0.235,3.035-0.547,4.476
						c-0.311,1.441-0.648,2.854-0.771,4.262c-0.051,0.705-0.065,1.406,0.019,2.09c0.067,0.688,0.245,1.354,0.43,2.01
						c0.378,1.309,0.848,2.6,0.927,3.941c0.082,1.345-0.245,2.619-0.554,3.818c-0.313,1.198-0.616,2.371-0.62,3.52
						c-0.005,1.149,0.282,2.244,0.588,3.276c0.311,1.031,0.641,2.025,0.827,3.011c0.198,0.985,0.192,1.95,0.137,2.843
						c-0.058,0.895-0.167,1.734-0.266,2.515c-0.199,1.561-0.335,2.913-0.216,4.013c0.113,1.096,0.435,1.911,0.749,2.398
						c0.313,0.488,0.523,0.716,0.508,0.728c0,0-0.225-0.215-0.558-0.696c-0.333-0.483-0.68-1.307-0.812-2.417
						c-0.139-1.113-0.016-2.482,0.168-4.044c0.092-0.783,0.192-1.619,0.242-2.507c0.047-0.888,0.046-1.831-0.153-2.794
						c-0.188-0.967-0.522-1.947-0.84-2.985c-0.312-1.035-0.614-2.149-0.614-3.34c-0.002-1.193,0.305-2.384,0.613-3.583
						c0.305-1.2,0.618-2.449,0.535-3.737c-0.079-1.29-0.541-2.561-0.927-3.881c-0.188-0.662-0.373-1.343-0.442-2.053
						c-0.089-0.708-0.076-1.429-0.023-2.146c0.124-1.438,0.463-2.863,0.772-4.301c0.31-1.435,0.593-2.908,0.54-4.403
						c-0.043-0.742-0.141-1.479-0.373-2.176c-0.225-0.704-0.52-1.382-0.806-2.063c-0.282-0.682-0.562-1.37-0.723-2.095
						c-0.172-0.721-0.203-1.482-0.035-2.204c0.169-0.719,0.492-1.36,0.725-2.008c0.205-0.654,0.368-1.32,0.388-1.994
						c0.071-1.348-0.234-2.667-0.633-3.899c-0.816-2.476-1.979-4.714-2.536-7.007c-0.297-1.14-0.381-2.298-0.257-3.387
						c0.096-1.103,0.519-2.092,0.959-2.981c0.447-0.892,0.931-1.704,1.328-2.499c0.402-0.794,0.704-1.576,0.873-2.34
						c0.347-1.527,0.283-2.901,0.195-3.999c-0.095-1.103-0.241-1.952-0.327-2.529c-0.043-0.277-0.077-0.496-0.101-0.657
						C108.343,244.482,108.335,244.406,108.339,244.404z"/>
				</g>
			</g>
		</g>
		<g>
			<g>
				<path fill="#FF725E" d="M103.545,330.111c-1.346,0.663-2.756-0.97-2.946-2.457c-0.189-1.485,0.173-3.103-0.542-4.421
					c-0.621-1.142-1.917-1.772-2.617-2.87c-1.263-1.979-0.213-4.747-1.269-6.841c-0.822-1.634-2.777-2.539-3.384-4.265
					c-0.653-1.851,0.493-3.942-0.029-5.834c-0.557-2.013-2.832-3.207-3.342-5.233c-0.508-2.02,0.845-4.462-0.447-6.093
					c-0.428-0.539-1.075-0.86-1.558-1.352c-1.115-1.133-1.163-2.936-0.871-4.5c0.291-1.564,0.847-3.118,0.685-4.699
					c-0.251-2.433-2.164-4.495-2.222-6.94c-0.048-2.032,1.203-4.114,0.455-6.006c1.815,1.067,2.026,3.594,3.256,5.304
					c0.801,1.116,2.016,1.849,3.03,2.775c2.065,1.893,3.278,4.685,3.25,7.484c-0.018,1.852-0.514,3.865,0.448,5.447
					c1.165,1.915,3.914,2.245,5.331,3.98c2.03,2.482,0.471,6.597,2.42,9.146c0.502,0.657,1.204,1.147,1.666,1.833
					c1.572,2.336-0.245,5.614,0.679,8.273c0.68,1.956,2.737,3.226,3.29,5.224c0.425,1.539-0.071,3.405,0.977,4.611
					c0.455,0.522,1.12,0.803,1.666,1.23c1.042,0.815,1.608,2.234,1.315,3.523c-0.291,1.29-1.477,2.352-2.799,2.408"/>
			</g>
		</g>
		<g opacity="0.5">
			<g>
				<g>
					<path fill="#FFFFFF" d="M111.471,323.91c-0.546-0.428-1.211-0.708-1.666-1.23c-1.047-1.207-0.551-3.074-0.977-4.612
						c-0.552-1.997-2.609-3.267-3.29-5.223c-0.924-2.659,0.892-5.938-0.679-8.273c-0.462-0.687-1.165-1.177-1.666-1.834
						c-1.949-2.548-0.39-6.662-2.42-9.145c-1.417-1.736-4.166-2.066-5.331-3.981c-0.962-1.582-0.466-3.595-0.448-5.446
						c0.028-2.801-1.185-5.592-3.25-7.484c-1.014-0.928-2.229-1.659-3.03-2.775c-1.229-1.71-1.44-4.237-3.256-5.304
						c0.748,1.891-0.503,3.976-0.455,6.006c0.059,2.444,1.971,4.508,2.222,6.939c0.163,1.582-0.394,3.136-0.685,4.7
						c-0.292,1.563-0.245,3.366,0.871,4.499c0.483,0.491,1.13,0.813,1.558,1.352c1.293,1.632-0.061,4.073,0.447,6.094
						c0.509,2.026,2.785,3.22,3.342,5.232c0.522,1.893-0.624,3.984,0.029,5.835c0.607,1.726,2.563,2.631,3.384,4.265
						c1.056,2.095,0.006,4.862,1.269,6.841c0.7,1.097,1.996,1.728,2.617,2.87c0.714,1.318,0.353,2.936,0.542,4.421
						c0.188,1.487,1.6,3.12,2.946,2.457l6.443-0.271c1.321-0.055,2.508-1.118,2.799-2.407
						C113.079,326.145,112.513,324.726,111.471,323.91z"/>
				</g>
			</g>
		</g>
		<g>
			<g>
				<path fill="#FF725E" d="M109.096,323.662c-0.525-0.301-1.38-1.066-1.582-1.657c-0.283-0.822,0.618-2.185,0.227-3.631
					c-0.508-1.874-2.867-4.381-3.478-6.219c-0.83-2.495,0.681-5.281-0.662-7.472c-0.396-0.646-1.283-2.46-1.71-3.074
					c-1.655-2.388-0.379-5.319-2.097-7.648c-1.201-1.627-4.163-2.67-5.162-4.468c-0.828-1.483-0.487-3.377-0.529-5.118
					c-0.062-2.633-1.128-5.253-2.859-7.023c-0.848-0.869-1.854-1.554-2.538-2.598c-1.047-1.606-1.295-3.979-2.797-4.979
					c0.663,1.777-0.286,3.737-0.185,5.649c0.122,2.297,1.732,4.229,2.01,6.514c0.18,1.487-0.224,2.95-0.411,4.42
					c-0.188,1.471-0.095,3.165,0.842,4.228c0.406,0.459,0.94,0.758,1.302,1.267c1.097,1.527,0.076,3.827,0.548,5.723
					c0.474,1.904,2.352,3.019,2.864,4.911c0.481,1.777,0.132,4.748,0.717,6.485c0.544,1.621,2.405,1.835,3.121,3.368
					c0.918,1.966,0.295,5.311,1.377,7.167c0.6,1.027,1.656,0.875,2.193,1.95c0.62,1.234,0.942,4.194,1.142,5.593
					c0.198,1.397,0.72,2.27,2.115,3.063l7.175-0.336C112.565,327.182,111.097,324.804,109.096,323.662z"/>
			</g>
		</g>
		<g>
			<g>
				<g>
					<path fill="#263238" d="M89.265,279.104c0.005-0.002,0.031,0.037,0.08,0.119c0.055,0.097,0.124,0.217,0.208,0.361
						c0.177,0.323,0.442,0.797,0.727,1.437c0.28,0.639,0.601,1.451,0.704,2.456c0.129,1.011-0.159,2.142-0.349,3.358
						c-0.085,0.609-0.139,1.259,0.016,1.909c0.136,0.648,0.402,1.301,0.796,1.91c0.766,1.233,1.893,2.337,2.881,3.676
						c0.487,0.672,0.943,1.423,1.175,2.283c0.125,0.427,0.161,0.883,0.164,1.334c-0.016,0.451-0.081,0.89-0.044,1.316
						c0.063,0.861,0.637,1.601,1.233,2.291c0.3,0.35,0.613,0.702,0.893,1.094c0.286,0.39,0.499,0.833,0.675,1.286
						c0.333,0.922,0.448,1.876,0.54,2.799c0.092,0.923,0.164,1.832,0.36,2.692c0.194,0.866,0.556,1.647,1.052,2.351
						c0.477,0.709,1.01,1.394,1.321,2.189c0.311,0.8,0.36,1.631,0.406,2.409c0.045,0.779,0.088,1.533,0.306,2.215
						c0.45,1.369,1.464,2.366,2.054,3.485c0.607,1.127,0.76,2.279,0.954,3.244c0.18,0.972,0.355,1.808,0.635,2.441
						c0.276,0.632,0.622,1.059,0.9,1.289c0.278,0.234,0.446,0.332,0.438,0.348c0,0-0.18-0.079-0.477-0.303
						c-0.295-0.223-0.667-0.646-0.965-1.289c-0.302-0.64-0.497-1.484-0.692-2.456c-0.207-0.961-0.377-2.098-0.974-3.176
						c-0.579-1.083-1.61-2.064-2.103-3.512c-0.482-1.441-0.15-3.089-0.732-4.597c-0.293-0.748-0.813-1.415-1.301-2.133
						c-0.506-0.708-0.9-1.551-1.1-2.441c-0.42-1.773-0.264-3.688-0.896-5.455c-0.167-0.433-0.366-0.847-0.638-1.218
						c-0.267-0.375-0.573-0.721-0.876-1.073c-0.595-0.693-1.224-1.486-1.296-2.457c-0.038-0.472,0.03-0.92,0.046-1.35
						c-0.003-0.425-0.034-0.849-0.151-1.252c-0.215-0.812-0.648-1.537-1.123-2.196c-0.962-1.321-2.09-2.438-2.87-3.71
						c-0.4-0.627-0.674-1.31-0.812-1.99c-0.157-0.687-0.092-1.367,0-1.983c0.207-1.239,0.501-2.333,0.39-3.313
						c-0.084-0.978-0.384-1.788-0.645-2.427c-0.267-0.641-0.515-1.124-0.675-1.455c-0.075-0.152-0.135-0.275-0.184-0.375
						C89.279,279.151,89.26,279.106,89.265,279.104z"/>
				</g>
			</g>
		</g>
	</g>
	<g>
		<g>
			<rect x="89.859" y="316.859" fill="#455A64" width="43.006" height="7.622"/>
		</g>
		<g>
			<polygon fill="#455A64" points="93.07,322.969 98.3,345.747 123.931,345.747 129.653,322.969 			"/>
		</g>
		<g>
			<g>
				<path fill="#263238" d="M132.841,324.491c0,0.083-9.701,0.151-21.664,0.151c-11.967,0-21.666-0.068-21.666-0.151
					c0-0.085,9.698-0.15,21.666-0.15C123.14,324.341,132.841,324.406,132.841,324.491z"/>
			</g>
		</g>
	</g>
</g>
<g>
	<g>
		<g>
			<path fill="#E0E0E0" d="M327.777,279.24c0,0-14.55,6.643-28.704,6.643c-13.107,0-27.768-6.598-27.768-6.598L327.777,279.24z"/>
		</g>
		<g>
			<rect x="297.594" y="279.874" fill="#E0E0E0" width="5.614" height="58.793"/>
		</g>
		<g>
			<rect x="275.233" y="336.233" fill="#E0E0E0" width="49.82" height="3.448"/>
		</g>
		<g>
			<path fill="#263238" d="M319.212,341.165c0,2.101,1.704,3.804,3.804,3.804c2.099,0,3.801-1.703,3.801-3.804
				s-1.702-3.801-3.801-3.801C320.914,337.364,319.212,339.065,319.212,341.165z"/>
		</g>
		<g>
			<path fill="#263238" d="M297.074,341.165c0,2.101,1.703,3.804,3.803,3.804s3.801-1.703,3.801-3.804s-1.701-3.801-3.801-3.801
				S297.074,339.065,297.074,341.165z"/>
		</g>
		<g>
			<circle fill="#263238" cx="275.233" cy="341.165" r="3.803"/>
		</g>
		<g>
			<rect x="299.073" y="301.035" fill="#E0E0E0" width="7.636" height="3.159"/>
		</g>
		<g>
			<rect x="305.318" y="298.823" fill="#E0E0E0" width="2.781" height="7.583"/>
		</g>
		<g>
			<g>
				<path fill="#455A64" d="M268.801,279.24h63.58c2.332,0,4.222-1.889,4.222-4.22l0,0c0-2.329-1.89-4.221-4.222-4.221h-63.58
					c-2.331,0-4.22,1.891-4.22,4.221l0,0C264.581,277.352,266.47,279.24,268.801,279.24z"/>
			</g>
		</g>
	</g>
	<g>
		<g>
			<g>
				<g>
					<path fill="#263238" d="M327.371,168.123c0,0,5.116-1.996,4.909-6.359c-0.212-4.364-6.093-8.681-5.742-15.232
						c0.325-6.145-8.48-24.403-21.052-18.038c0,0-3.371-0.497-6.322,0.347c-4.052,1.16-5.314,5.039-7.715,8.886
						c-3.699,5.927-6.216,10.596-4.433,14.729s2.536,5.345,1.151,8.872c-1.81,4.603-3.654,3.268-3.05,7.286l10.968,0.177
						l1.036-2.679l0.12,2.899l6.447-0.087L327.371,168.123z"/>
				</g>
				<g>
					<g>
						<g>
							<g>
								<g>
									<g>
										<path fill="#263238" d="M296.096,134.941c0.135,1.693-0.977,3.21-2.097,4.486c-1.121,1.275-2.366,2.606-2.602,4.288
											c-0.417,2.979,2.513,5.73,1.926,8.681c-0.313,1.582-1.601,2.857-1.823,4.456c-0.216,1.545,0.62,3.051,1.65,4.222
											c1.031,1.169,2.287,2.143,3.199,3.407c0,0,1.904,3.089,7.708,1.076"/>
									</g>
								</g>
							</g>
						</g>
					</g>
				</g>
			</g>
			<g>
				<g>
					<g>
						<g>
							<g>
								<path fill="#FFBE9D" d="M301.078,132.782l14.46,3.064c1.4,0.092,2.495,1.241,2.52,2.643l-0.171,31.293
									c-0.014,2.138-0.729,4.211-2.039,5.901l-1.379,1.779c-3.145,4.055-9.512,3.646-11.915-0.888
									c-0.167-0.316-0.285-0.594-0.333-0.819c-0.048-0.281-0.123-0.467-0.137-0.706l-0.276-3.052
									c-0.141-2.786-0.158-5.617-0.16-5.591c0,0-5.917-0.748-7.433-8.372c-0.755-3.792-0.808-10.054-0.685-15.18
									C293.643,138.241,296.476,132.476,301.078,132.782z"/>
							</g>
						</g>
					</g>
					<g>
						<g>
							<g>
								<g>
									<g>
										<g>
											<g>
												<g>
													<g>
														<g>
															<g>
																<g>
																	<g>
																		<g>
																			<g>
																				<g>
																					<g>
																						<g>
																							<g>
																								<path fill="#263238" d="M295.734,148.727c0,0.521,0.442,0.948,0.986,0.956
																									c0.54,0.007,0.981-0.407,0.979-0.927c-0.002-0.521-0.445-0.948-0.984-0.956
																									C296.171,147.792,295.73,148.207,295.734,148.727z"/>
																							</g>
																						</g>
																					</g>
																				</g>
																			</g>
																		</g>
																	</g>
																</g>
															</g>
														</g>
													</g>
												</g>
											</g>
										</g>
									</g>
								</g>
								<g>
									<g>
										<g>
											<g>
												<g>
													<g>
														<g>
															<g>
																<g>
																	<g>
																		<g>
																			<g>
																				<g>
																					<g>
																						<g>
																							<g>
																								<g>
																									<path fill="#263238" d="M295.016,146.056c0.129,0.124,0.851-0.457,1.91-0.496
																										c1.058-0.053,1.856,0.461,1.965,0.327c0.056-0.06-0.078-0.287-0.427-0.52
																										c-0.342-0.232-0.919-0.449-1.58-0.42c-0.658,0.029-1.204,0.292-1.515,0.554
																										C295.056,145.765,294.954,146,295.016,146.056z"/>
																								</g>
																							</g>
																						</g>
																					</g>
																				</g>
																			</g>
																		</g>
																	</g>
																</g>
															</g>
														</g>
													</g>
												</g>
											</g>
										</g>
									</g>
								</g>
							</g>
							<g>
								<g>
									<g>
										<g>
											<g>
												<g>
													<g>
														<g>
															<g>
																<g>
																	<g>
																		<g>
																			<g>
																				<g>
																					<g>
																						<g>
																							<g>
																								<path fill="#263238" d="M305.223,148.489c0,0.521,0.446,0.948,0.985,0.955
																									c0.544,0.009,0.982-0.406,0.98-0.926c-0.002-0.521-0.442-0.949-0.985-0.956
																									C305.659,147.554,305.22,147.969,305.223,148.489z"/>
																							</g>
																						</g>
																					</g>
																				</g>
																			</g>
																		</g>
																	</g>
																</g>
															</g>
														</g>
													</g>
												</g>
											</g>
										</g>
									</g>
								</g>
								<g>
									<g>
										<g>
											<g>
												<g>
													<g>
														<g>
															<g>
																<g>
																	<g>
																		<g>
																			<g>
																				<g>
																					<g>
																						<g>
																							<g>
																								<g>
																									<path fill="#263238" d="M305.069,145.798c0.128,0.124,0.853-0.457,1.909-0.495
																										c1.058-0.053,1.856,0.461,1.966,0.327c0.054-0.061-0.077-0.286-0.425-0.52
																										c-0.345-0.232-0.923-0.449-1.581-0.421c-0.66,0.03-1.205,0.293-1.515,0.554
																										C305.11,145.506,305.007,145.742,305.069,145.798z"/>
																								</g>
																							</g>
																						</g>
																					</g>
																				</g>
																			</g>
																		</g>
																	</g>
																</g>
															</g>
														</g>
													</g>
												</g>
											</g>
										</g>
									</g>
								</g>
							</g>
							<g>
								<g>
									<g>
										<g>
											<g>
												<g>
													<g>
														<g>
															<g>
																<g>
																	<g>
																		<g>
																			<g>
																				<g>
																					<g>
																						<g>
																							<g>
																								<path fill="#263238" d="M301.894,153.85c0.004-0.06-0.66-0.148-1.73-0.243
																									c-0.272-0.018-0.529-0.061-0.583-0.244c-0.071-0.193,0.03-0.489,0.148-0.808
																									c0.23-0.665,0.47-1.361,0.72-2.09c0.997-2.975,1.708-5.416,1.585-5.454c-0.117-0.039-1.023,2.34-2.02,5.313
																									c-0.239,0.734-0.468,1.433-0.686,2.101c-0.091,0.31-0.255,0.667-0.099,1.067
																									c0.081,0.199,0.283,0.337,0.459,0.377c0.173,0.046,0.328,0.043,0.462,0.046
																									C301.225,153.931,301.893,153.911,301.894,153.85z"/>
																							</g>
																						</g>
																					</g>
																				</g>
																			</g>
																		</g>
																	</g>
																</g>
															</g>
														</g>
													</g>
												</g>
											</g>
										</g>
									</g>
								</g>
							</g>
							<g>
								<g>
									<g>
										<g>
											<g>
												<g>
													<g>
														<g>
															<g>
																<g>
																	<g>
																		<g>
																			<g>
																				<g>
																					<g>
																						<g>
																							<path fill="#EB996E" d="M301.647,166.406c0,0,5.176,0.133,10.171-3.139c0,0-2.379,5.411-10.085,4.992
																								L301.647,166.406z"/>
																						</g>
																					</g>
																				</g>
																			</g>
																		</g>
																	</g>
																</g>
															</g>
														</g>
													</g>
												</g>
											</g>
										</g>
									</g>
								</g>
							</g>
							<g>
								<g>
									<g>
										<g>
											<g>
												<g>
													<g>
														<g>
															<g>
																<g>
																	<g>
																		<g>
																			<g>
																				<g>
																					<g>
																						<g>
																							<path fill="#EB996E" d="M302.44,156.385c0.36-0.519,1.018-0.821,1.682-0.776
																								c0.462,0.032,0.935,0.235,1.229,0.6c0.294,0.362,0.374,0.892,0.136,1.258
																								c-0.271,0.413-0.866,0.529-1.377,0.405c-0.512-0.124-0.959-0.44-1.384-0.755
																								c-0.117-0.088-0.239-0.179-0.316-0.302c-0.075-0.123-0.096-0.286-0.013-0.395"/>
																						</g>
																					</g>
																				</g>
																			</g>
																		</g>
																	</g>
																</g>
															</g>
														</g>
													</g>
												</g>
											</g>
										</g>
									</g>
								</g>
							</g>
							<g>
								<g>
									<g>
										<g>
											<g>
												<g>
													<g>
														<g>
															<g>
																<g>
																	<g>
																		<g>
																			<g>
																				<g>
																					<g>
																						<g>
																							<g>
																								<path fill="#263238" d="M305.036,154.462c-0.171-0.003-0.128,1.146-1.08,2
																									c-0.95,0.857-2.182,0.775-2.185,0.936c-0.014,0.073,0.281,0.213,0.801,0.207
																									c0.507-0.001,1.242-0.193,1.824-0.716c0.581-0.523,0.813-1.2,0.834-1.674
																									C305.255,154.731,305.117,154.452,305.036,154.462z"/>
																							</g>
																						</g>
																					</g>
																				</g>
																			</g>
																		</g>
																	</g>
																</g>
															</g>
														</g>
													</g>
												</g>
											</g>
										</g>
									</g>
								</g>
							</g>
						</g>
					</g>
					<g>
						<g>
							<g>
								<g>
									<g>
										<g>
											<g>
												<g>
													<g>
														<g>
															<g>
																<g>
																	<g>
																		<g>
																			<g>
																				<path fill="#263238" d="M305.129,142.655c0.113,0.285,1.168,0.107,2.413,0.208
																					c1.251,0.076,2.268,0.401,2.423,0.136c0.069-0.127-0.117-0.39-0.532-0.653
																					c-0.413-0.263-1.063-0.502-1.813-0.556c-0.748-0.053-1.429,0.092-1.873,0.293
																					C305.299,142.285,305.078,142.52,305.129,142.655z"/>
																			</g>
																		</g>
																	</g>
																</g>
															</g>
														</g>
													</g>
												</g>
											</g>
										</g>
									</g>
								</g>
							</g>
						</g>
					</g>
					<g>
						<g>
							<g>
								<g>
									<g>
										<g>
											<g>
												<g>
													<g>
														<g>
															<g>
																<g>
																	<g>
																		<g>
																			<g>
																				<path fill="#263238" d="M295.145,141.414c0.193,0.233,0.915-0.045,1.791-0.091
																					c0.876-0.077,1.626,0.099,1.788-0.16c0.069-0.125-0.057-0.361-0.39-0.576c-0.33-0.214-0.871-0.379-1.473-0.337
																					c-0.603,0.042-1.114,0.281-1.412,0.539C295.149,141.048,295.058,141.3,295.145,141.414z"/>
																			</g>
																		</g>
																	</g>
																</g>
															</g>
														</g>
													</g>
												</g>
											</g>
										</g>
									</g>
								</g>
							</g>
						</g>
					</g>
					<g>
						<g>
							<g>
								<path fill="#263238" d="M321.931,135.834c-1.07-3.151-5.386-6.605-9.45-8.162c-2.319-0.889-4.927-0.547-6.993,0.822
									l-5.163,3.414c0.497,2.516,2.49,4.674,4.957,5.373c1.319,0.373,2.898,0.452,3.701,1.562c0.816,1.135,0.384,2.818,1.149,3.99
									c1.059,1.624,3.861,1.49,4.666,3.252c0.352,0.771,0.196,1.703,0.56,2.466c0.49,1.018,3.115,2.269,4.184,1.905
									c1.069-0.361,1.036-2.193,1.367-3.16c0.568-1.65,0.305-2.496,0.088-3.408C320.483,141.73,322.648,137.935,321.931,135.834z"
									/>
							</g>
						</g>
					</g>
					<g>
						<g>
							<g>
								<g>
									<g>
										<g>
											<path fill="#FFBE9D" d="M316.384,151.427c-0.019-0.571,0.588-1.944,1.149-2.055c1.495-0.292,4.218-0.276,4.393,3.548
												c0.237,5.229-5.063,4.389-5.081,4.24C316.834,157.043,316.457,153.399,316.384,151.427z"/>
										</g>
									</g>
								</g>
							</g>
						</g>
					</g>
					<g>
						<g>
							<g>
								<g>
									<g>
										<g>
											<g>
												<path fill="#EB996E" d="M318.355,155.105c0.021-0.017,0.093,0.061,0.25,0.124c0.154,0.061,0.415,0.097,0.682-0.017
													c0.543-0.228,0.968-1.126,0.95-2.07c-0.008-0.476-0.128-0.925-0.314-1.292c-0.175-0.375-0.436-0.631-0.715-0.668
													c-0.28-0.051-0.471,0.125-0.527,0.274c-0.063,0.15-0.024,0.253-0.054,0.263c-0.014,0.014-0.113-0.083-0.081-0.3
													c0.017-0.105,0.071-0.231,0.189-0.338c0.122-0.107,0.304-0.168,0.499-0.156c0.404,0.01,0.782,0.364,0.987,0.768
													c0.228,0.404,0.373,0.908,0.381,1.443c0.016,1.055-0.479,2.065-1.226,2.318c-0.362,0.112-0.675,0.015-0.839-0.101
													C318.369,155.232,318.337,155.116,318.355,155.105z"/>
											</g>
										</g>
									</g>
								</g>
							</g>
						</g>
					</g>
				</g>
			</g>
		</g>
		<g>
			<g>
				<path fill="#FFBE9D" d="M282.531,190.893l-9.245,24.124l-17.402,1.105l-2.693,7.563l22.974,4.453c0,0,6.909,2.01,10.85-6.759
					l6.733-23.998L282.531,190.893z"/>
			</g>
			<g>
				<g>
					<g>
						<g>
							<path fill="#FFBE9D" d="M239.361,219.892c0.21,0.416,0.643,0.688,1.106,0.647c0.093-0.01,0.188-0.027,0.29-0.061
								c0.657-0.21,0.594-1.551,0.594-1.551l3.156-0.514c0,0,4.101,2.644,5.56,4.396c1.459,1.752,5.179,0.335,5.179,0.335
								l1.292-6.722l-5.806-5.25c0,0,0.355,0.313-0.043-0.67c-0.4-0.98-2.226-0.61-2.226-0.61c-0.283-0.485-1.477-0.66-1.477-0.66
								l-5.09,0.588c-1.048,0.122-1.987,0.71-2.55,1.604l-2.153,3.409c0,0-1.139,2.453-0.955,3.022
								c0.275,0.861,1.188,0.67,1.188,0.67s0.25,1.612,0.674,1.67C238.524,220.251,239.361,219.892,239.361,219.892L239.361,219.892
								z"/>
						</g>
					</g>
				</g>
				<g>
					<g>
						<g>
							<g>
								<path fill="#EB996E" d="M248.953,221.725c-0.008,0.009-0.111-0.07-0.303-0.23c-0.218-0.175-0.5-0.403-0.853-0.685
									c-0.752-0.581-1.869-1.409-3.346-2.304l0.072,0.013c-0.939,0.161-2.002,0.341-3.15,0.537l0.108-0.134
									c0.009,0.257-0.008,0.509-0.058,0.77c-0.056,0.257-0.135,0.532-0.357,0.759c-0.116,0.107-0.282,0.175-0.418,0.192
									c-0.14,0.035-0.293,0.05-0.444,0.025c-0.3-0.043-0.584-0.202-0.785-0.436c-0.051-0.056-0.095-0.119-0.136-0.186l-0.029-0.05
									l-0.015-0.024l-0.007-0.016l-0.001-0.001c-0.04-0.016,0.352,0.128,0.185,0.067l-0.003,0.003l-0.006,0.003l-0.101,0.039
									c-0.135,0.054-0.27,0.103-0.408,0.145c-0.138,0.044-0.282,0.083-0.432,0.107c-0.076,0.014-0.151,0.024-0.234,0.025
									c-0.077,0.004-0.169,0.007-0.291-0.057c-0.178-0.126-0.242-0.275-0.312-0.416c-0.061-0.141-0.113-0.287-0.154-0.433
									c-0.087-0.292-0.149-0.587-0.202-0.893l0.183,0.127c-0.407,0.071-0.891-0.026-1.174-0.4
									c-0.129-0.174-0.23-0.388-0.217-0.635c0.01-0.22,0.061-0.416,0.113-0.608c0.22-0.775,0.531-1.517,0.866-2.269l0.004-0.007
									l0.008-0.013c0.365-0.579,0.754-1.194,1.149-1.817c0.243-0.387,0.485-0.772,0.728-1.151c0.24-0.371,0.459-0.784,0.796-1.117
									c0.327-0.33,0.722-0.588,1.146-0.758c0.419-0.182,0.887-0.228,1.297-0.271c1.688-0.188,3.297-0.371,4.8-0.539l0.021-0.004
									l0.016,0.004c0.295,0.05,0.57,0.119,0.844,0.223c0.263,0.104,0.542,0.228,0.73,0.511l-0.176-0.056
									c0.537-0.222,1.162-0.224,1.635,0.093c0.475,0.311,0.691,0.814,0.808,1.287l-0.037-0.066
									c1.665,1.499,3.026,2.723,3.999,3.598c0.451,0.414,0.807,0.744,1.078,0.993c0.243,0.23,0.369,0.356,0.36,0.364
									c-0.008,0.009-0.147-0.1-0.406-0.312c-0.282-0.237-0.654-0.552-1.121-0.944c-0.99-0.855-2.374-2.051-4.07-3.518
									l-0.026-0.024l-0.012-0.044c-0.108-0.415-0.323-0.876-0.713-1.12c-0.383-0.255-0.929-0.247-1.379-0.058l-0.111,0.045
									l-0.065-0.1c-0.109-0.171-0.353-0.298-0.594-0.387c-0.246-0.091-0.517-0.157-0.785-0.2h0.039
									c-1.503,0.179-3.111,0.367-4.797,0.566c-0.429,0.048-0.829,0.087-1.215,0.254c-0.382,0.153-0.738,0.389-1.032,0.689
									c-0.299,0.291-0.505,0.68-0.753,1.063c-0.242,0.379-0.483,0.765-0.728,1.151c-0.394,0.624-0.784,1.239-1.149,1.818
									l0.01-0.02c-0.331,0.736-0.644,1.479-0.856,2.215c-0.05,0.184-0.096,0.372-0.103,0.539
									c-0.018,0.144,0.057,0.301,0.149,0.432c0.183,0.259,0.551,0.341,0.861,0.289l0.161-0.024l0.023,0.153
									c0.049,0.287,0.109,0.578,0.191,0.853c0.075,0.261,0.189,0.576,0.329,0.682c0.006,0.003,0.061,0.02,0.127,0.014
									c0.062,0,0.127-0.009,0.191-0.02c0.135-0.021,0.267-0.056,0.396-0.096c0.132-0.04,0.262-0.084,0.387-0.134l0.094-0.037
									l0.008-0.003l0.001-0.002c-0.166-0.06,0.229,0.083,0.188,0.069l0.001,0.002l0.004,0.01l0.012,0.02l0.021,0.04
									c0.033,0.051,0.068,0.103,0.108,0.147c0.156,0.185,0.378,0.31,0.605,0.345c0.117,0.02,0.231,0.01,0.351-0.021
									c0.123-0.017,0.207-0.053,0.285-0.119c0.3-0.313,0.345-0.872,0.346-1.316v-0.117l0.108-0.017
									c1.152-0.181,2.216-0.346,3.157-0.493l0.041-0.007l0.032,0.021c1.476,0.928,2.573,1.782,3.31,2.397
									c0.363,0.309,0.639,0.558,0.818,0.73C248.868,221.623,248.959,221.719,248.953,221.725z"/>
							</g>
						</g>
					</g>
				</g>
			</g>
			<g>
				<g>
					<path fill="#EB996E" d="M247.601,211.687c0.009,0.036-0.594,0.269-1.634,0.488c-1.038,0.219-2.523,0.398-4.2,0.305l0.17-0.114
						c-0.085,0.25-0.179,0.516-0.285,0.778c-0.698,1.746-1.733,3.129-2.585,4.003c-0.425,0.439-0.804,0.761-1.072,0.971
						c-0.273,0.206-0.434,0.307-0.447,0.289c-0.034-0.043,0.549-0.517,1.345-1.42c0.792-0.901,1.769-2.267,2.449-3.968
						c0.104-0.257,0.192-0.514,0.279-0.758l0.043-0.121l0.125,0.007c1.642,0.103,3.103-0.031,4.141-0.191
						C246.965,211.797,247.588,211.64,247.601,211.687z"/>
				</g>
			</g>
			<g>
				<g>
					<path fill="#EB996E" d="M242.768,214.653c0.081,0.016-0.25,1.422-1.259,2.854c-0.997,1.444-2.198,2.241-2.242,2.169
						c-0.065-0.076,1.007-0.967,1.968-2.362C242.209,215.933,242.673,214.619,242.768,214.653z"/>
				</g>
			</g>
			<g>
				<g>
					<path fill="#EB996E" d="M256.251,221.097c0.003,0.01-0.052,0.041-0.163,0.094c-0.109,0.055-0.277,0.124-0.502,0.193
						c-0.447,0.141-1.135,0.29-2.004,0.231c-0.862-0.058-1.92-0.335-2.887-1.044c-0.959-0.696-1.82-1.811-2.18-3.204l0.186,0.12
						c-1.136,0.218-2.396,0.297-3.685,0.173c-0.46-0.044-0.915-0.112-1.357-0.202c-0.437-0.093-0.891-0.184-1.3-0.427
						c-0.188-0.112-0.415-0.295-0.489-0.557c-0.081-0.251-0.037-0.521,0.083-0.736c0.124-0.216,0.335-0.381,0.571-0.444
						c0.197-0.049,0.393-0.098,0.587-0.146c1.547-0.374,2.956-0.644,4.145-0.829c1.188-0.187,2.155-0.297,2.824-0.354
						c0.671-0.059,1.042-0.072,1.044-0.05c0.003,0.024-0.364,0.08-1.028,0.179c-0.663,0.099-1.623,0.245-2.802,0.459
						c-1.177,0.217-2.573,0.508-4.108,0.896c-0.191,0.049-0.385,0.1-0.579,0.15c-0.158,0.043-0.292,0.149-0.374,0.297
						c-0.081,0.146-0.105,0.324-0.053,0.479c0.045,0.155,0.174,0.267,0.35,0.372c0.338,0.201,0.764,0.291,1.195,0.382
						c0.432,0.087,0.874,0.155,1.323,0.198c1.256,0.12,2.483,0.048,3.594-0.158l0.148-0.027l0.036,0.146
						c0.33,1.313,1.132,2.382,2.034,3.061c0.906,0.688,1.908,0.979,2.737,1.063c0.838,0.084,1.511-0.031,1.958-0.135
						C256.007,221.17,256.242,221.074,256.251,221.097z"/>
				</g>
			</g>
		</g>
		<g>
			<g>
				<g>
					<g>
						<g>
							<g>
								<g>
									<g>
										<path fill="#263238" d="M250.273,307.377c-0.02,0-0.041-0.207,0.018-0.574c0.062-0.366,0.211-0.9,0.582-1.465
											c0.097-0.14,0.191-0.289,0.347-0.424c0.148-0.137,0.406-0.238,0.653-0.146c0.122,0.04,0.248,0.151,0.288,0.289
											c0.046,0.141,0.022,0.279-0.014,0.391c-0.081,0.231-0.201,0.397-0.304,0.588c-0.227,0.383-0.411,0.761-0.701,1.188
											c-0.146,0.221-0.474,0.401-0.771,0.35c-0.297-0.037-0.536-0.179-0.749-0.331c-0.416-0.302-0.783-0.646-1.099-1.011
											c-0.157-0.185-0.3-0.372-0.433-0.566c-0.124-0.188-0.271-0.381-0.326-0.647c-0.055-0.253,0.041-0.589,0.331-0.704
											c0.294-0.106,0.532,0.042,0.695,0.157c0.331,0.276,0.532,0.559,0.733,0.831c0.384,0.547,0.599,1.046,0.721,1.397
											c0.116,0.351,0.146,0.555,0.126,0.561c-0.063,0.024-0.259-0.786-1.041-1.813c-0.196-0.244-0.436-0.538-0.704-0.744
											c-0.14-0.099-0.311-0.161-0.415-0.109c-0.111,0.04-0.171,0.204-0.135,0.363c0.034,0.165,0.158,0.341,0.285,0.521
											c0.126,0.182,0.265,0.358,0.415,0.532c0.304,0.344,0.654,0.669,1.047,0.954c0.188,0.135,0.394,0.247,0.584,0.268
											c0.192,0.024,0.345-0.05,0.469-0.215c0.242-0.35,0.473-0.782,0.692-1.14c0.107-0.188,0.234-0.369,0.292-0.524
											c0.06-0.164,0.026-0.271-0.087-0.317c-0.265-0.109-0.521,0.188-0.699,0.442
											C250.333,306.525,250.342,307.399,250.273,307.377z"/>
									</g>
								</g>
							</g>
						</g>
					</g>
				</g>
			</g>
			<g>
				<g>
					<g>
						<g>
							<g>
								<g>
									<polygon fill="#FFBE9D" points="265.213,307.889 272.631,323.965 284.599,318.436 276.927,298.539 									"/>
								</g>
							</g>
						</g>
					</g>
				</g>
				<g>
					<g>
						<g>
							<g>
								<g>
									<g>
										<g>
											<g>
												<g>
													<g>
														<g>
															<g>
																<g>
																	<g>
																		<g>
																			<path fill="#455A64" d="M271.229,322.892l4.334,8.264c0,0-11.093,11.471-10.052,14.034l26.078-12.502
																				l-7.165-16.578L271.229,322.892z"/>
																		</g>
																	</g>
																</g>
															</g>
														</g>
													</g>
												</g>
											</g>
										</g>
									</g>
								</g>
							</g>
							<g>
								<g>
									<g>
										<g>
											<g>
												<g>
													<g>
														<g>
															<g>
																<g>
																	<g>
																		<g>
																			<g>
																				<path fill="#E0E0E0" d="M283.082,326.16c0.572-0.105,1.194,0.295,1.321,0.862
																					c0.128,0.566-0.274,1.2-0.844,1.314s-1.328-0.344-1.393-0.921c-0.063-0.574,0.45-1.296,1.028-1.271"/>
																			</g>
																		</g>
																	</g>
																</g>
															</g>
														</g>
													</g>
												</g>
											</g>
										</g>
									</g>
								</g>
							</g>
							<g opacity="0.6">
								<g>
									<g>
										<g>
											<g>
												<g>
													<g>
														<g>
															<g>
																<g>
																	<g>
																		<g>
																			<path fill="#FFFFFF" d="M291.589,332.688l-1.085-2.079l-24.597,12.766c0,0-0.921,1.062-0.396,1.815
																				L291.589,332.688z"/>
																		</g>
																	</g>
																</g>
															</g>
														</g>
													</g>
												</g>
											</g>
										</g>
									</g>
								</g>
							</g>
							<g>
								<g>
									<g>
										<g>
											<g>
												<g>
													<g>
														<g>
															<g>
																<g>
																	<g>
																		<g>
																			<g>
																				<path fill="#263238" d="M275.075,331.226c0.065,0.125,0.729-0.124,1.551-0.013
																					c0.827,0.087,1.415,0.483,1.508,0.377c0.107-0.082-0.448-0.751-1.448-0.865
																					C275.689,330.603,274.992,331.122,275.075,331.226z"/>
																			</g>
																		</g>
																	</g>
																</g>
															</g>
														</g>
													</g>
												</g>
											</g>
										</g>
									</g>
								</g>
							</g>
							<g>
								<g>
									<g>
										<g>
											<g>
												<g>
													<g>
														<g>
															<g>
																<g>
																	<g>
																		<g>
																			<g>
																				<path fill="#263238" d="M272.882,333.668c0.031,0.137,0.687,0.09,1.378,0.422
																					c0.699,0.31,1.088,0.84,1.212,0.773c0.131-0.038-0.14-0.824-1.008-1.221
																					C273.602,333.239,272.827,333.546,272.882,333.668z"/>
																			</g>
																		</g>
																	</g>
																</g>
															</g>
														</g>
													</g>
												</g>
											</g>
										</g>
									</g>
								</g>
							</g>
							<g>
								<g>
									<g>
										<g>
											<g>
												<g>
													<g>
														<g>
															<g>
																<g>
																	<g>
																		<g>
																			<g>
																				<path fill="#263238" d="M272.898,337.688c0.128-0.029,0-0.752-0.66-1.293c-0.657-0.543-1.392-0.53-1.393-0.398
																					c-0.021,0.139,0.544,0.327,1.082,0.78C272.471,337.215,272.767,337.734,272.898,337.688z"/>
																			</g>
																		</g>
																	</g>
																</g>
															</g>
														</g>
													</g>
												</g>
											</g>
										</g>
									</g>
								</g>
							</g>
							<g>
								<g>
									<g>
										<g>
											<g>
												<g>
													<g>
														<g>
															<g>
																<g>
																	<g>
																		<g>
																			<g>
																				<path fill="#263238" d="M273.832,328.044c0.108,0.088,0.607-0.367,1.352-0.663
																					c0.738-0.311,1.414-0.339,1.427-0.48c0.03-0.127-0.741-0.334-1.613,0.025
																					C274.123,327.281,273.72,327.973,273.832,328.044z"/>
																			</g>
																		</g>
																	</g>
																</g>
															</g>
														</g>
													</g>
												</g>
											</g>
										</g>
									</g>
								</g>
							</g>
						</g>
					</g>
				</g>
				<g>
					<g>
						<g>
							<g>
								<g>
									<path fill="#263238" d="M268.785,320.745l-19.553-48.93c0,0,0.439-8.348,1.979-10.983
										c1.538-2.637,48.113-18.015,48.113-18.015s11.862-2.857,19.772,0c7.91,2.854,16.193,5.728,15.305,11.258
										c-1.297,8.079-8.297,16.502-8.297,16.502l-34.251,1.02l-18.667,6.811l12.571,36.029L268.785,320.745z"/>
								</g>
							</g>
						</g>
					</g>
				</g>
				<g>
					<g>
						<g>
							<g>
								<g>
									<polygon fill="#FFBE9D" points="251.396,287.311 250.954,305.009 264.135,305.331 266.033,284.093 									"/>
								</g>
							</g>
						</g>
					</g>
				</g>
				<g>
					<g>
						<g>
							<g>
								<g>
									<g>
										<g>
											<g>
												<g>
													<g>
														<g>
															<g>
																<g>
																	<g>
																		<g>
																			<path fill="#455A64" d="M250.17,303.428l0.239,9.327c0,0-15.017,5.395-15.214,8.157l28.918,0.292l0.892-18.035
																				L250.17,303.428z"/>
																		</g>
																	</g>
																</g>
															</g>
														</g>
													</g>
												</g>
											</g>
										</g>
									</g>
								</g>
							</g>
							<g>
								<g>
									<g>
										<g>
											<g>
												<g>
													<g>
														<g>
															<g>
																<g>
																	<g>
																		<g>
																			<g>
																				<path fill="#E0E0E0" d="M259.365,311.594c0.558,0.159,0.937,0.791,0.804,1.355
																					c-0.139,0.563-0.777,0.956-1.337,0.809c-0.562-0.148-1.041-0.895-0.846-1.44c0.2-0.546,0.976-0.966,1.485-0.687
																					"/>
																			</g>
																		</g>
																	</g>
																</g>
															</g>
														</g>
													</g>
												</g>
											</g>
										</g>
									</g>
								</g>
							</g>
							<g opacity="0.6">
								<g>
									<g>
										<g>
											<g>
												<g>
													<g>
														<g>
															<g>
																<g>
																	<g>
																		<g>
																			<path fill="#FFFFFF" d="M264.113,321.204l-0.056-2.345l-27.704,0.598c0,0-1.293,0.546-1.158,1.455
																				L264.113,321.204z"/>
																		</g>
																	</g>
																</g>
															</g>
														</g>
													</g>
												</g>
											</g>
										</g>
									</g>
								</g>
							</g>
							<g>
								<g>
									<g>
										<g>
											<g>
												<g>
													<g>
														<g>
															<g>
																<g>
																	<g>
																		<g>
																			<g>
																				<path fill="#263238" d="M249.943,312.605c0.002,0.14,0.708,0.211,1.398,0.672
																					c0.701,0.444,1.055,1.06,1.185,1.003c0.131-0.025-0.072-0.871-0.917-1.415
																					C250.77,312.315,249.914,312.474,249.943,312.605z"/>
																			</g>
																		</g>
																	</g>
																</g>
															</g>
														</g>
													</g>
												</g>
											</g>
										</g>
									</g>
								</g>
							</g>
							<g>
								<g>
									<g>
										<g>
											<g>
												<g>
													<g>
														<g>
															<g>
																<g>
																	<g>
																		<g>
																			<g>
																				<path fill="#263238" d="M246.898,313.827c-0.036,0.138,0.574,0.385,1.048,0.985
																					c0.491,0.588,0.604,1.235,0.746,1.231c0.134,0.023,0.238-0.803-0.364-1.54
																					C247.73,313.761,246.901,313.691,246.898,313.827z"/>
																			</g>
																		</g>
																	</g>
																</g>
															</g>
														</g>
													</g>
												</g>
											</g>
										</g>
									</g>
								</g>
							</g>
							<g>
								<g>
									<g>
										<g>
											<g>
												<g>
													<g>
														<g>
															<g>
																<g>
																	<g>
																		<g>
																			<g>
																				<path fill="#263238" d="M245.138,317.441c0.129,0.029,0.332-0.673-0.022-1.45
																					c-0.351-0.781-1.013-1.092-1.072-0.974c-0.082,0.113,0.342,0.534,0.624,1.177
																					C244.964,316.829,244.997,317.425,245.138,317.441z"/>
																			</g>
																		</g>
																	</g>
																</g>
															</g>
														</g>
													</g>
												</g>
											</g>
										</g>
									</g>
								</g>
							</g>
							<g>
								<g>
									<g>
										<g>
											<g>
												<g>
													<g>
														<g>
															<g>
																<g>
																	<g>
																		<g>
																			<g>
																				<path fill="#263238" d="M250.231,309.198c0.059,0.13,0.709-0.06,1.507,0.003c0.797,0.047,1.415,0.322,1.489,0.2
																					c0.084-0.102-0.517-0.631-1.459-0.69C250.831,308.644,250.163,309.086,250.231,309.198z"/>
																			</g>
																		</g>
																	</g>
																</g>
															</g>
														</g>
													</g>
												</g>
											</g>
										</g>
									</g>
								</g>
							</g>
						</g>
					</g>
				</g>
				<g>
					<g>
						<g>
							<g>
								<g>
									<path fill="#263238" d="M259.092,238.175c0,0-7.897-0.632-8.775,7.937c-0.878,8.566-1.741,48.554-1.741,48.554
										l18.454,1.538l2.855-40.864l29.44-12.521C299.324,242.817,264.363,237.075,259.092,238.175z"/>
								</g>
							</g>
						</g>
					</g>
				</g>
				<g>
					<g>
						<g>
							<g>
								<g>
									<path fill="#263238" d="M291.643,226.612c0,0-4.794,13.438-3.881,14.934c0.912,1.499,13.238,7.661,13.238,7.661
										l30.838,11.844c0,0,3.168-5.037,3.168-12.776c0-7.741-10.728-21.66-10.728-21.66h-32.636V226.612z"/>
								</g>
							</g>
						</g>
					</g>
				</g>
				<g>
					<g>
						<g>
							<g>
								<g>
									<g>
										<path fill="#455A64" d="M300.782,242.132c0.003,0.003-0.045,0.03-0.144,0.078c-0.112,0.05-0.258,0.116-0.438,0.202
											c-0.406,0.181-0.979,0.433-1.709,0.757c-1.514,0.66-3.688,1.608-6.409,2.793c-5.501,2.367-13.212,5.688-22.134,9.529
											l0.102-0.14c-0.281,4.035-0.582,8.396-0.896,12.903c-0.752,10.546-1.44,20.266-1.988,27.957l-0.012,0.139l-0.138-0.011
											c-5.612-0.493-10.22-0.897-13.445-1.181c-1.585-0.148-2.83-0.267-3.701-0.347c-0.409-0.043-0.73-0.075-0.968-0.101
											c-0.218-0.024-0.328-0.042-0.328-0.048c0-0.009,0.113-0.005,0.332,0.007c0.238,0.015,0.56,0.035,0.972,0.061
											c0.871,0.065,2.119,0.155,3.707,0.271c3.228,0.256,7.837,0.618,13.454,1.063l-0.15,0.126
											c0.53-7.691,1.197-17.414,1.921-27.96c0.317-4.509,0.625-8.868,0.909-12.904l0.007-0.103l0.094-0.039
											c8.938-3.797,16.666-7.075,22.18-9.415c2.736-1.148,4.926-2.064,6.447-2.704c0.739-0.304,1.318-0.54,1.731-0.708
											c0.185-0.075,0.331-0.133,0.447-0.178C300.729,242.142,300.781,242.127,300.782,242.132z"/>
									</g>
								</g>
							</g>
						</g>
					</g>
				</g>
				<g>
					<g>
						<g>
							<g>
								<g>
									<g>
										<path fill="#455A64" d="M325.309,243.476c-0.009,0.021-0.315-0.064-0.866-0.236c-0.611-0.198-1.391-0.448-2.32-0.748
											c-1.96-0.622-4.679-1.488-7.771-1.965c-3.095-0.479-5.957-0.33-7.957,0.103c-2.01,0.415-3.161,0.988-3.187,0.924
											c-0.01-0.019,0.271-0.176,0.804-0.404c0.528-0.232,1.321-0.515,2.331-0.757c2.013-0.5,4.929-0.689,8.06-0.205
											c3.131,0.48,5.853,1.393,7.798,2.073c0.971,0.345,1.751,0.641,2.288,0.854
											C325.026,243.324,325.318,243.454,325.309,243.476z"/>
									</g>
								</g>
							</g>
						</g>
					</g>
				</g>
				<g>
					<g>
						<g>
							<g>
								<g>
									<g>
										<path fill="#455A64" d="M320.949,236.392c-0.008,0.054-1.032-0.145-2.694-0.016c-0.832,0.059-1.82,0.186-2.919,0.313
											c-1.101,0.129-2.306,0.278-3.554,0.515c-2.508,0.446-4.662,1.319-6.045,2.241c-1.394,0.908-2.046,1.734-2.092,1.688
											c-0.015-0.012,0.126-0.231,0.445-0.579c0.32-0.348,0.816-0.827,1.513-1.309c1.374-0.997,3.576-1.931,6.113-2.381
											c1.265-0.238,2.479-0.378,3.583-0.491c1.103-0.109,2.099-0.213,2.94-0.241c0.844-0.031,1.528,0.018,1.996,0.091
											C320.704,236.294,320.955,236.371,320.949,236.392z"/>
									</g>
								</g>
							</g>
						</g>
					</g>
				</g>
			</g>
		</g>
		<g>
			<g>
				<g>
					<g>
						<g>
							<g>
								<g>
									<path fill="#FF725E" d="M280.222,188.406c0,0,5.517-9.198,7.049-11.058c1.436-1.745,3.284-2.773,4.519-3.314
										c0.688-0.301,1.409-0.506,2.146-0.634l7.934-1.757c0,0,0.015,5.415,5.688,5.75c5.675,0.334,10.451-7.568,10.451-7.568
										s9.166,1.417,11.36,2.545c2.19,1.128,5.639,2.561,7.534,12.058l1.332,9.291l-15.803,1.461l-1.514,23.483l-7.839,5.459
										c0,0-21.729,5.648-23.118,6.023c-1.389,0.373-1.848-34.966-1.848-34.966S282.533,191.569,280.222,188.406z"/>
								</g>
							</g>
						</g>
					</g>
				</g>
				<g>
					<g>
						<g>
							<path fill="#263238" d="M290.625,184.457c-0.021-0.007-0.128,0.234-0.306,0.677c-0.182,0.443-0.413,1.095-0.669,1.911
								c-0.515,1.63-1.079,3.934-1.398,6.527c-0.315,2.595-0.323,4.968-0.216,6.673c0.053,0.853,0.117,1.541,0.188,2.015
								c0.065,0.473,0.109,0.733,0.131,0.731c0.023-0.003,0.018-0.269-0.008-0.742c-0.03-0.477-0.065-1.164-0.087-2.013
								c-0.05-1.699-0.006-4.052,0.307-6.626c0.317-2.572,0.844-4.864,1.301-6.502c0.228-0.818,0.423-1.479,0.567-1.933
								C290.576,184.72,290.646,184.464,290.625,184.457z"/>
						</g>
					</g>
				</g>
			</g>
			<g>
				<g>
					<path fill="#263238" d="M323.004,183.899c0.022,0.001,0.027,0.257,0.015,0.718c-0.022,0.533-0.048,1.183-0.078,1.948
						c-0.08,1.723-0.186,3.954-0.302,6.421c-0.118,2.509-0.25,4.78-0.373,6.422c-0.064,0.82-0.122,1.484-0.172,1.942
						c-0.048,0.458-0.087,0.712-0.108,0.709c-0.024,0-0.03-0.256-0.02-0.717c0.017-0.533,0.037-1.182,0.063-1.948
						c0.073-1.724,0.17-3.957,0.274-6.425c0.118-2.509,0.264-4.779,0.401-6.42c0.067-0.821,0.131-1.484,0.184-1.942
						C322.942,184.151,322.981,183.899,323.004,183.899z"/>
				</g>
			</g>
		</g>
		<g>
			<g>
				<g>
					<path fill="#FFBE9D" d="M291.297,222.925l29.756-6.477l1.377-21.269l13.231-1.223c0,0-0.931,14.51-0.999,18.863
						c-0.194,12.545-4.407,14.7-6.556,16.395c-2.15,1.696-38.146,0.931-38.146,0.931L291.297,222.925z"/>
				</g>
			</g>
			<g>
				<g>
					<path fill="#FFBE9D" d="M274.407,226.779c0.21,0.416,0.644,0.687,1.108,0.647c0.092-0.009,0.189-0.027,0.288-0.059
						c0.658-0.212,0.597-1.554,0.597-1.554l3.153-0.513c0,0,4.101,2.645,5.561,4.396c1.459,1.755,5.18,0.335,5.18,0.335l1.29-6.721
						l-5.804-5.249c0,0,0.357,0.312-0.045-0.669c-0.4-0.983-2.224-0.61-2.224-0.61c-0.285-0.485-1.476-0.661-1.476-0.661
						l-5.09,0.587c-1.052,0.122-1.987,0.712-2.552,1.604l-2.153,3.407c0,0-1.139,2.453-0.954,3.024
						c0.275,0.859,1.186,0.67,1.186,0.67s0.25,1.611,0.675,1.668C273.57,227.139,274.407,226.779,274.407,226.779L274.407,226.779z"
						/>
				</g>
			</g>
			<g>
				<g>
					<g>
						<path fill="#EB996E" d="M285.244,221.953c-0.008,0.053-0.685-0.009-1.77,0.037c-1.088,0.054-2.587,0.243-4.156,0.777
							c-0.784,0.263-1.507,0.582-2.143,0.917c-0.613,0.347-1.255,0.631-1.453,1.079c-0.1,0.218-0.054,0.443,0.056,0.606
							c0.107,0.163,0.255,0.271,0.384,0.323c0.269,0.111,0.44,0.037,0.445,0.066c0.014,0.008-0.156,0.139-0.487,0.053
							c-0.159-0.043-0.342-0.148-0.492-0.338c-0.149-0.18-0.236-0.503-0.119-0.796c0.109-0.298,0.362-0.527,0.634-0.718
							c0.277-0.181,0.566-0.366,0.893-0.54c0.641-0.355,1.375-0.689,2.179-0.96c1.605-0.548,3.151-0.707,4.255-0.7
							C284.576,221.772,285.249,221.918,285.244,221.953z"/>
					</g>
				</g>
			</g>
			<g>
				<g>
					<g>
						<path fill="#EB996E" d="M285.6,225.2c-0.006,0.095-2.078,0.01-4.623,0.159c-2.547,0.14-4.595,0.46-4.612,0.363
							c-0.007-0.041,0.497-0.176,1.328-0.321c0.826-0.146,1.981-0.293,3.267-0.366c1.282-0.074,2.445-0.057,3.286-0.007
							C285.087,225.082,285.601,225.157,285.6,225.2z"/>
					</g>
				</g>
			</g>
			<g>
				<g>
					<g>
						<path fill="#EB996E" d="M274.438,226.651c-0.019-0.003-0.041-0.191-0.065-0.544c-0.02-0.351-0.043-0.858-0.002-1.489
							c0.021-0.315,0.056-0.662,0.141-1.033c0.082-0.373,0.258-0.763,0.501-1.11c0.46-0.692,1.097-1.414,1.907-1.952
							c0.81-0.534,1.616-0.984,2.437-1.23c0.81-0.245,1.57-0.308,2.197-0.336c0.631-0.021,1.139-0.009,1.488,0.006
							c0.351,0.016,0.543,0.032,0.545,0.055c0,0.053-0.778,0.077-2.018,0.169c-0.617,0.058-1.354,0.141-2.124,0.392
							c-0.764,0.245-1.56,0.697-2.34,1.213c-0.783,0.523-1.378,1.183-1.848,1.856c-0.491,0.642-0.584,1.379-0.66,1.992
							C274.476,225.871,274.507,226.652,274.438,226.651z"/>
					</g>
				</g>
			</g>
			<g>
				<g>
					<g>
						<path fill="#EB996E" d="M281.79,217.416c0,0.049-0.76,0.069-1.977,0.209c-1.173,0.178-3.047,0.265-4.116,1.879
							c-1.155,1.468-2.138,2.854-2.568,3.993c-0.455,1.13-0.414,1.913-0.48,1.906c-0.018,0.002-0.047-0.192-0.028-0.539
							c0.013-0.349,0.087-0.855,0.294-1.445c0.391-1.201,1.367-2.641,2.533-4.118c0.296-0.371,0.615-0.721,0.988-0.999
							c0.371-0.284,0.803-0.447,1.2-0.563c0.8-0.227,1.541-0.293,2.155-0.343C281.027,217.313,281.79,217.374,281.79,217.416z"/>
					</g>
				</g>
			</g>
			<g>
				<g>
					<g>
						<path fill="#EB996E" d="M284.001,228.615c-0.009,0.007-0.11-0.074-0.305-0.232c-0.218-0.174-0.498-0.402-0.852-0.685
							c-0.752-0.582-1.868-1.408-3.344-2.304l0.071,0.015c-0.941,0.159-2.002,0.34-3.15,0.537l0.107-0.135
							c0.006,0.259-0.007,0.509-0.058,0.77c-0.054,0.258-0.136,0.533-0.358,0.758c-0.115,0.11-0.281,0.175-0.417,0.193
							c-0.142,0.035-0.292,0.049-0.444,0.025c-0.302-0.044-0.583-0.202-0.784-0.435c-0.052-0.058-0.096-0.121-0.139-0.186
							l-0.027-0.052l-0.014-0.024l-0.008-0.012l-0.001-0.003c-0.041-0.015,0.353,0.128,0.184,0.068l-0.004,0.001l-0.004,0.002
							l-0.1,0.042c-0.136,0.054-0.27,0.101-0.408,0.143c-0.139,0.045-0.281,0.083-0.432,0.107c-0.075,0.014-0.152,0.024-0.234,0.026
							c-0.077,0.003-0.169,0.006-0.292-0.055c-0.176-0.128-0.24-0.277-0.309-0.418c-0.064-0.143-0.114-0.287-0.156-0.435
							c-0.086-0.291-0.15-0.586-0.203-0.892l0.185,0.128c-0.409,0.074-0.892-0.027-1.176-0.401
							c-0.128-0.173-0.231-0.388-0.217-0.635c0.012-0.22,0.061-0.413,0.113-0.608c0.22-0.773,0.53-1.517,0.869-2.267l0.005-0.009
							l0.006-0.011c0.363-0.579,0.754-1.194,1.146-1.82c0.246-0.386,0.489-0.771,0.729-1.151c0.241-0.369,0.458-0.783,0.798-1.116
							c0.328-0.331,0.722-0.589,1.145-0.759c0.42-0.18,0.885-0.226,1.299-0.27c1.687-0.19,3.295-0.372,4.798-0.539l0.022-0.004
							l0.015,0.004c0.294,0.051,0.569,0.119,0.841,0.223c0.267,0.107,0.545,0.227,0.731,0.51l-0.175-0.054
							c0.538-0.223,1.163-0.225,1.634,0.091c0.476,0.313,0.693,0.816,0.812,1.291l-0.038-0.068c1.666,1.499,3.025,2.722,3.999,3.597
							c0.448,0.414,0.808,0.744,1.078,0.995c0.242,0.229,0.367,0.353,0.359,0.362c-0.009,0.011-0.147-0.098-0.406-0.312
							c-0.281-0.237-0.652-0.551-1.121-0.944c-0.989-0.855-2.373-2.051-4.071-3.518l-0.026-0.022l-0.012-0.045
							c-0.105-0.416-0.323-0.875-0.713-1.117c-0.381-0.257-0.928-0.251-1.38-0.062l-0.11,0.047l-0.065-0.102
							c-0.108-0.169-0.351-0.297-0.594-0.385c-0.245-0.092-0.518-0.157-0.783-0.2h0.038c-1.506,0.179-3.111,0.367-4.796,0.566
							c-0.433,0.047-0.832,0.088-1.217,0.253c-0.384,0.154-0.737,0.391-1.032,0.688c-0.299,0.292-0.505,0.682-0.754,1.063
							c-0.24,0.381-0.48,0.767-0.728,1.152c-0.393,0.624-0.782,1.24-1.149,1.819l0.011-0.017c-0.33,0.732-0.645,1.479-0.855,2.215
							c-0.05,0.182-0.096,0.368-0.104,0.537c-0.017,0.144,0.056,0.3,0.15,0.431c0.183,0.259,0.552,0.341,0.862,0.289l0.159-0.024
							l0.025,0.152c0.048,0.288,0.108,0.58,0.188,0.854c0.077,0.26,0.19,0.575,0.329,0.681c0.008,0.005,0.063,0.021,0.129,0.015
							c0.062,0,0.127-0.01,0.194-0.021c0.129-0.021,0.262-0.055,0.393-0.096c0.132-0.04,0.262-0.083,0.389-0.133l0.094-0.038
							l0.004-0.003l0.003-0.001c-0.165-0.061,0.229,0.083,0.188,0.068v0.002l0.007,0.01l0.012,0.02l0.021,0.041
							c0.032,0.052,0.067,0.104,0.107,0.148c0.156,0.184,0.379,0.308,0.606,0.344c0.116,0.02,0.231,0.009,0.347-0.02
							c0.126-0.017,0.211-0.053,0.29-0.121c0.298-0.313,0.342-0.872,0.344-1.316v-0.116l0.108-0.018
							c1.151-0.179,2.213-0.345,3.157-0.491l0.041-0.007l0.031,0.02c1.477,0.929,2.575,1.785,3.308,2.398
							c0.366,0.309,0.64,0.556,0.82,0.729C283.917,228.511,284.008,228.606,284.001,228.615z"/>
					</g>
				</g>
			</g>
		</g>
	</g>
	<g>
		<g>
			<g>
				<g>
					<g>
						<g>
							<polygon fill="#455A64" points="312.19,237.785 307.184,237.785 307.184,238.892 318.145,345.769 323.986,345.769 							"/>
						</g>
					</g>
					<g>
						<g>
							<g>
								<path fill="#263238" d="M312.19,237.785c0,0,0.013,0.194,0.048,0.565c0.039,0.374,0.094,0.92,0.168,1.632
									c0.149,1.439,0.374,3.547,0.657,6.26c0.582,5.438,1.425,13.3,2.467,23.041c2.109,19.47,5.031,46.445,8.29,76.506
									l0.167-0.188c-1.705,0-3.535,0-5.379,0c-0.16,0-0.317,0-0.464,0l0.168,0.152c-5.16-50.309-9.573-92.869-11.077-106.868
									v0.006c-0.003-0.514-0.004-0.816-0.006-1.106l-0.046,0.046c1.704-0.012,2.948-0.019,3.777-0.025
									c0.407-0.004,0.712-0.01,0.921-0.012C312.087,237.791,312.19,237.785,312.19,237.785s-0.095-0.007-0.292-0.01
									c-0.208-0.002-0.51-0.007-0.911-0.012c-0.836-0.005-2.088-0.016-3.802-0.027h-0.049v0.048
									c-0.001,0.289-0.003,0.593-0.004,1.106v0.001l0.001,0.005c1.368,14.013,5.686,56.582,10.842,106.892l0.016,0.151h0.153
									c0.146,0,0.304,0,0.464,0c1.844,0,3.674,0,5.379,0h0.188l-0.021-0.188c-3.315-30.1-6.289-57.111-8.436-76.607
									c-1.083-9.723-1.959-17.567-2.563-22.994c-0.306-2.695-0.542-4.79-0.705-6.217c-0.082-0.702-0.143-1.24-0.187-1.61
									C312.219,237.962,312.19,237.785,312.19,237.785z"/>
							</g>
						</g>
					</g>
				</g>
			</g>
		</g>
		<g>
			<g>
				<g>
					<g>
						<g>
							<polygon fill="#263238" points="223.736,237.785 218.729,237.785 218.729,238.919 229.162,345.747 234.305,345.747 							
								"/>
						</g>
					</g>
				</g>
			</g>
			<g>
				<g>
					<g>
						<polygon fill="#455A64" points="333.105,238.89 154.662,239.081 154.598,234.372 333.105,234.372 						"/>
					</g>
				</g>
			</g>
			<g>
				<g>
					<g>
						<g>
							<polygon fill="#455A64" points="179.765,237.785 184.771,237.785 184.771,238.919 174.34,345.747 169.198,345.747 							"/>
						</g>
					</g>
				</g>
				<g>
					<g>
						<g>
							<g>
								<path fill="#263238" d="M179.539,239.184c0,0-0.012,0.191-0.044,0.555c-0.033,0.367-0.082,0.905-0.147,1.607
									c-0.134,1.416-0.33,3.492-0.583,6.168c-0.514,5.358-1.258,13.107-2.179,22.712c-1.864,19.188-4.445,45.778-7.32,75.396
									l-0.139-0.153c1.604,0,3.33,0,5.066,0c0.025,0,0.051,0,0.077,0l-0.139,0.125c4.873-49.464,9.001-91.364,10.372-105.279
									v0.004c0.001-0.525,0.002-0.837,0.004-1.133l0.039,0.038c-1.706-0.01-2.952-0.017-3.779-0.021
									c-0.409-0.003-0.713-0.007-0.921-0.01C179.643,239.188,179.539,239.184,179.539,239.184s0.094-0.005,0.293-0.009
									c0.205-0.002,0.507-0.004,0.913-0.009c0.832-0.004,2.084-0.012,3.8-0.021h0.04v0.038c0,0.297,0.001,0.608,0.003,1.134v0.001
									v0.004c-1.346,13.919-5.397,55.824-10.181,105.3l-0.013,0.126h-0.126c-0.025,0-0.051,0-0.077,0c-1.736,0-3.46,0-5.066,0
									h-0.153l0.016-0.154c2.922-29.649,5.546-56.27,7.441-75.48c0.955-9.587,1.728-17.326,2.261-22.674
									c0.268-2.66,0.479-4.728,0.62-6.133c0.072-0.693,0.127-1.224,0.165-1.588C179.515,239.361,179.539,239.184,179.539,239.184z
									"/>
							</g>
						</g>
					</g>
				</g>
			</g>
			<g>
				<g>
					<g>
						<g>
							<polygon fill="#455A64" points="252.073,238.195 247.068,238.195 247.068,239.324 257.498,345.747 262.639,345.747 							
								"/>
						</g>
					</g>
				</g>
				<g>
					<g>
						<g>
							<g>
								<path fill="#263238" d="M252.298,239.588c0,0,0.015,0.191,0.046,0.553c0.035,0.366,0.082,0.901,0.146,1.601
									c0.134,1.408,0.328,3.479,0.584,6.146c0.514,5.336,1.259,13.058,2.179,22.624c1.861,19.118,4.443,45.607,7.319,75.11
									l0.138-0.152c-1.604,0-3.329,0-5.062,0c-0.029,0-0.054,0-0.078,0l0.138,0.126c-4.872-49.276-9.002-91.018-10.372-104.882
									l0.002,0.005c-0.004-0.523-0.004-0.834-0.005-1.13l-0.04,0.041c1.706-0.012,2.952-0.018,3.778-0.022
									c0.41-0.005,0.713-0.008,0.922-0.01C252.196,239.593,252.298,239.588,252.298,239.588s-0.093-0.005-0.291-0.008
									c-0.207-0.002-0.507-0.005-0.913-0.01c-0.831-0.005-2.085-0.012-3.801-0.021l-0.04-0.002v0.04
									c0,0.296-0.001,0.605-0.003,1.13v0.002v0.001c1.345,13.866,5.397,55.616,10.181,104.9l0.012,0.126h0.128
									c0.024,0,0.049,0,0.078,0c1.733,0,3.458,0,5.062,0h0.155l-0.016-0.152c-2.922-29.54-5.546-56.057-7.441-75.197
									c-0.957-9.548-1.728-17.257-2.259-22.585c-0.271-2.651-0.479-4.709-0.621-6.11c-0.074-0.691-0.129-1.22-0.167-1.582
									C252.324,239.766,252.298,239.588,252.298,239.588z"/>
							</g>
						</g>
					</g>
				</g>
			</g>
		</g>
		<g>
			<g>
				<path fill="#263238" d="M332.436,238.921c0-0.089-35.976-0.163-80.346-0.163c-44.384,0-80.354,0.074-80.354,0.163
					s35.97,0.16,80.354,0.16C296.46,239.081,332.436,239.01,332.436,238.921z"/>
			</g>
		</g>
	</g>
	<g>
		<g>
			<g>
				<g>
					<path fill="#E0E0E0" d="M220.659,201.279l39.194,0.319c1.271,0,2.486,0.61,2.676,1.868l4.284,28.565h20.188
						c0.65,0,1.179,0.528,1.179,1.177c0,0.651-0.528,1.178-1.179,1.178h-19.834h-3.765h-40.879l-4.407-30.148
						C217.88,202.682,219.085,201.279,220.659,201.279z"/>
				</g>
			</g>
			<g>
				<g>
					<g>
						<path fill="#263238" d="M220.659,201.279c0,0-0.213-0.026-0.618,0.059c-0.393,0.091-1.01,0.332-1.496,0.993
							c-0.244,0.322-0.429,0.754-0.486,1.251c-0.063,0.505,0.084,1.036,0.145,1.612c0.165,1.154,0.354,2.483,0.567,3.979
							c0.861,5.987,2.105,14.619,3.634,25.232l0.014,0.102h0.105c16.687,0.013,38.611,0.024,62.556,0.038c0.562,0,1.121,0,1.682,0
							c0.263,0.012,0.623-0.005,0.892-0.169c0.277-0.154,0.496-0.409,0.604-0.706c0.234-0.6-0.046-1.333-0.61-1.63
							c-0.266-0.162-0.626-0.175-0.881-0.165h-0.83c-2.21,0-4.395,0.002-6.552,0.002c-4.314,0.001-8.519,0.003-12.568,0.004
							l0.151,0.13c-1.541-10.23-2.981-19.773-4.271-28.336c-0.044-0.542-0.289-1.129-0.724-1.493
							c-0.426-0.377-0.966-0.577-1.5-0.661c-0.543-0.081-1.063-0.038-1.579-0.054c-0.519-0.005-1.031-0.008-1.54-0.012
							c-2.034-0.015-4.004-0.027-5.9-0.039c-3.794-0.024-7.301-0.047-10.488-0.068c-6.363-0.03-11.436-0.059-14.928-0.076
							c-1.736-0.002-3.077-0.005-3.995-0.008c-0.446,0.003-0.79,0.006-1.029,0.006C220.776,201.272,220.659,201.279,220.659,201.279
							s0.117,0.012,0.351,0.018c0.239,0.005,0.582,0.012,1.03,0.021c0.918,0.013,2.258,0.033,3.993,0.058
							c3.492,0.04,8.566,0.095,14.93,0.168c3.186,0.031,6.693,0.064,10.486,0.103c1.896,0.017,3.865,0.037,5.9,0.056
							c0.508,0.007,1.021,0.01,1.54,0.015c0.514,0.02,1.045-0.021,1.541,0.057c0.5,0.077,0.991,0.267,1.366,0.603
							c0.386,0.337,0.589,0.803,0.638,1.338c1.277,8.564,2.7,18.109,4.228,28.342l0.02,0.132h0.132
							c4.051,0,8.254,0.001,12.567,0.002c2.159,0,4.344,0.003,6.553,0.003h0.83c0.293-0.008,0.51,0.003,0.73,0.124
							c0.429,0.228,0.644,0.788,0.465,1.243c-0.083,0.228-0.248,0.423-0.462,0.541c-0.221,0.125-0.44,0.138-0.736,0.129
							c-0.561,0-1.122,0-1.683,0c-23.943,0.014-45.869,0.026-62.555,0.036l0.119,0.104c-1.573-10.603-2.852-19.229-3.739-25.217
							c-0.224-1.49-0.423-2.818-0.596-3.973c-0.069-0.577-0.218-1.108-0.16-1.588c0.05-0.48,0.222-0.902,0.455-1.218
							c0.464-0.649,1.063-0.899,1.446-1C220.446,201.278,220.661,201.296,220.659,201.279z"/>
					</g>
				</g>
			</g>
		</g>
		<g>
			<g>
				<circle fill="#FFFFFF" cx="241.918" cy="217.47" r="2.454"/>
			</g>
		</g>
		<g>
			<g>
				<g>
					
						<ellipse transform="matrix(0.9865 -0.1636 0.1636 0.9865 -32.1065 45.8935)" fill="#263238" cx="262.547" cy="217.853" rx="0.101" ry="16.482"/>
				</g>
			</g>
		</g>
	</g>
</g>
</svg>
