<?xml version="1.0" encoding="utf-8"?>
<!-- Generator: Adobe Illustrator 16.0.0, SVG Export Plug-In . SVG Version: 6.00 Build 0)  -->
<!DOCTYPE svg PUBLIC "-//W3C//DTD SVG 1.0//EN" "http://www.w3.org/TR/2001/REC-SVG-20010904/DTD/svg10.dtd">
<svg version="1.0" id="Layer_1" xmlns="http://www.w3.org/2000/svg" xmlns:xlink="http://www.w3.org/1999/xlink" x="0px" y="0px"
	 width="500px" height="400px" viewBox="0 50 500 400" enable-background="new 0 50 500 400" xml:space="preserve">
<g id="Background_Complete">
	<g>
		<g>
			<rect x="193.616" y="85.038" fill="#E0E0E0" width="7.319" height="157.37"/>
		</g>
		<g>
			<path fill="#F5F5F5" d="M87.441,86.361v156.16c0,0.059,0.047,0.106,0.106,0.106h104.851c0.058,0,0.106-0.048,0.106-0.106V86.361
				c0-0.059-0.048-0.106-0.106-0.106H87.547C87.489,86.255,87.441,86.302,87.441,86.361z"/>
		</g>
		<g>
			<g>
				<path fill="#EBEBEB" d="M193.616,243.844H86.331c-0.059,0-0.106-0.047-0.106-0.105V85.144c0-0.059,0.048-0.106,0.106-0.106
					h107.285c0.058,0,0.105,0.048,0.105,0.106v158.595C193.721,243.797,193.674,243.844,193.616,243.844z M88.765,241.41H191.18
					c0.059,0,0.106-0.047,0.106-0.106V87.578c0-0.058-0.048-0.106-0.106-0.106H88.765c-0.059,0-0.106,0.048-0.106,0.106v153.726
					C88.659,241.363,88.706,241.41,88.765,241.41z"/>
			</g>
		</g>
		<g>
			<path fill="#FFFFFF" d="M98.021,96.007v136.763c0,0.059,0.047,0.106,0.105,0.106h83.879c0.058,0,0.106-0.047,0.106-0.106V96.007
				c0-0.059-0.048-0.105-0.106-0.105H98.125C98.067,95.902,98.021,95.949,98.021,96.007z"/>
		</g>
		<g>
			<path fill="#EBEBEB" d="M163.532,190.075h-47.117c-0.027,0-0.049-0.022-0.049-0.049v-55.242c0-0.028,0.022-0.049,0.049-0.049
				h47.117c0.027,0,0.049,0.022,0.049,0.049v55.242C163.581,190.053,163.559,190.075,163.532,190.075z"/>
		</g>
		<g>
			<g>
				<path fill="#E0E0E0" d="M159.843,183.302c0.061,0.177-2.27,1.199-6.703,0.679c-2.184-0.296-4.901-1.082-7.536-3.012
					c-2.579-1.931-5.026-5.046-5.855-9.208c-0.862-4.13,0.52-9.28,4.479-12.589c0.984-0.821,2.127-1.513,3.395-1.989
					c1.348-0.501,2.803-0.666,4.249-0.49c1.437,0.176,2.958,0.675,4.246,1.855c1.301,1.181,2.013,3.173,1.675,4.947
					c-0.307,1.792-1.283,3.163-2.332,4.247c-1.082,1.104-2.307,1.921-3.557,2.621c-2.539,1.402-5.443,2.282-8.485,2.423
					c-3.03,0.145-6.231-0.477-9.043-2.059c-2.784-1.563-5.166-3.935-6.655-6.897c-1.509-2.929-1.99-6.483-1.193-9.66
					c0.766-3.167,2.565-5.999,5.092-7.96c1.268-0.983,2.703-1.709,4.269-2.155c1.578-0.405,3.203-0.48,4.807-0.149
					c1.586,0.333,3.208,1.114,4.362,2.461c1.171,1.335,1.694,3.079,1.709,4.661c0.024,1.591-0.409,3.142-1.137,4.441
					c-0.715,1.302-1.678,2.358-2.692,3.236c-2.043,1.729-4.335,2.867-6.688,3.554c-2.353,0.676-4.765,0.854-7.037,0.543
					c-2.266-0.32-4.399-1.153-6.125-2.346c-3.481-2.362-5.491-5.95-5.85-9.265c-0.394-3.375,0.841-6.145,2.167-7.943
					c1.364-1.834,2.931-2.772,4.008-3.202c1.103-0.417,1.731-0.403,1.759-0.299c0.047,0.15-0.499,0.394-1.393,0.991
					c-0.875,0.608-2.114,1.634-3.118,3.35c-0.98,1.683-1.79,4.126-1.276,6.785c0.466,2.65,2.278,5.497,5.2,7.282
					c2.86,1.818,6.874,2.286,10.728,1.022c1.909-0.616,3.813-1.646,5.369-3.038c1.543-1.385,2.594-3.167,2.507-5.031
					c-0.049-1.869-1.227-3.187-3.232-3.57c-0.976-0.191-2.072-0.129-3.087,0.146c-1.007,0.308-2.031,0.821-2.912,1.526
					c-1.782,1.402-3.13,3.529-3.673,5.853c-0.558,2.322-0.225,4.784,0.902,7.017c1.109,2.227,2.958,4.081,5.08,5.28
					c2.112,1.204,4.57,1.716,6.99,1.626c2.422-0.087,4.799-0.771,6.873-1.879c1.049-0.567,2.015-1.205,2.743-1.934
					c0.748-0.729,1.267-1.563,1.392-2.268c0.136-0.713-0.082-1.333-0.562-1.825c-0.506-0.501-1.366-0.88-2.273-1.001
					c-0.912-0.139-1.855-0.052-2.677,0.228c-0.903,0.309-1.746,0.781-2.495,1.366c-1.499,1.174-2.624,2.783-3.252,4.48
					c-0.641,1.703-0.791,3.466-0.548,5.147c0.5,3.376,2.401,6.17,4.499,7.97c2.139,1.809,4.501,2.741,6.467,3.228
					C157.415,183.424,159.812,182.964,159.843,183.302z"/>
			</g>
		</g>
	</g>
	<g>
		<path fill="#E0E0E0" d="M336.549,233.551c0.101,0.046-7.685,17.144-17.386,38.183c-9.704,21.048-17.649,38.067-17.75,38.021
			s7.684-17.14,17.388-38.188C328.501,250.527,336.449,233.505,336.549,233.551z"/>
	</g>
	<g>
		<circle fill="#F5F5F5" cx="350.878" cy="170.103" r="77.296"/>
		<g>
			<path fill="#E0E0E0" d="M428.175,170.103c0,0-0.024-0.424-0.053-1.252c-0.013-0.417-0.029-0.931-0.048-1.543
				c-0.017-0.614-0.033-1.326-0.112-2.131c-0.192-3.224-0.727-7.985-2.197-13.947c-0.789-2.963-1.746-6.248-3.171-9.701
				c-1.395-3.459-3.115-7.15-5.378-10.877c-4.468-7.463-10.877-15.273-19.612-21.933c-4.349-3.339-9.293-6.335-14.742-8.811
				c-5.445-2.472-11.395-4.458-17.742-5.601c-6.335-1.169-13.041-1.629-19.89-1.096c-3.428,0.204-6.875,0.76-10.336,1.445
				c-3.453,0.738-6.896,1.728-10.312,2.941c-13.606,4.926-26.535,14.127-35.851,26.888c-2.358,3.161-4.423,6.574-6.287,10.12
				c-0.443,0.898-0.943,1.771-1.344,2.696c-0.414,0.917-0.829,1.835-1.245,2.756c-0.744,1.878-1.514,3.755-2.128,5.697
				c-1.264,3.866-2.31,7.846-2.936,11.928c-0.644,4.078-0.98,8.228-1.009,12.409c0.028,4.182,0.363,8.334,1.006,12.412
				c0.627,4.083,1.671,8.065,2.935,11.933c0.614,1.942,1.384,3.821,2.127,5.7c0.83,1.842,1.639,3.687,2.589,5.454
				c1.863,3.547,3.928,6.962,6.287,10.124c9.315,12.766,22.248,21.969,35.856,26.896c3.414,1.212,6.859,2.202,10.313,2.941
				c3.461,0.685,6.909,1.242,10.338,1.445c6.849,0.534,13.555,0.073,19.89-1.097c6.348-1.144,12.299-3.13,17.744-5.602
				c5.449-2.475,10.393-5.473,14.741-8.811c8.734-6.661,15.144-14.471,19.611-21.933c2.261-3.728,3.981-7.417,5.376-10.876
				c1.424-3.454,2.382-6.737,3.169-9.7c1.471-5.961,2.005-10.722,2.197-13.946c0.079-0.805,0.096-1.517,0.112-2.13
				c0.019-0.612,0.036-1.126,0.048-1.543C428.149,170.527,428.175,170.103,428.175,170.103s0.003,0.425-0.011,1.254
				c-0.01,0.416-0.019,0.932-0.029,1.544c-0.01,0.614-0.02,1.328-0.093,2.134c-0.166,3.228-0.677,7.999-2.128,13.978
				c-0.776,2.973-1.726,6.267-3.143,9.732c-1.388,3.473-3.102,7.177-5.36,10.92c-4.464,7.495-10.876,15.344-19.633,22.044
				c-4.359,3.357-9.317,6.374-14.784,8.867c-5.464,2.489-11.438,4.491-17.811,5.647c-6.36,1.182-13.097,1.651-19.978,1.121
				c-3.443-0.201-6.907-0.758-10.386-1.443c-3.471-0.739-6.932-1.731-10.364-2.947c-13.678-4.941-26.678-14.184-36.046-27.01
				c-2.372-3.176-4.448-6.608-6.321-10.173c-0.956-1.776-1.769-3.629-2.604-5.481c-0.748-1.888-1.521-3.776-2.138-5.729
				c-1.271-3.887-2.321-7.889-2.952-11.994c-0.646-4.1-0.983-8.273-1.011-12.477c0.028-4.202,0.367-8.375,1.014-12.473
				c0.63-4.103,1.682-8.104,2.955-11.989c0.616-1.952,1.391-3.839,2.139-5.727c0.418-0.925,0.836-1.849,1.253-2.77
				c0.399-0.929,0.904-1.807,1.35-2.709c1.875-3.564,3.951-6.994,6.322-10.17c9.366-12.824,22.365-22.063,36.04-27.003
				c3.432-1.216,6.894-2.208,10.362-2.946c3.478-0.686,6.941-1.243,10.385-1.443c6.88-0.53,13.615-0.062,19.976,1.121
				c6.374,1.155,12.346,3.156,17.81,5.646c5.467,2.493,10.426,5.507,14.785,8.866c8.755,6.699,15.171,14.547,19.634,22.042
				c2.259,3.744,3.975,7.449,5.362,10.921c1.417,3.467,2.365,6.762,3.145,9.734c1.449,5.98,1.96,10.751,2.127,13.98
				c0.073,0.807,0.083,1.52,0.093,2.133c0.011,0.613,0.021,1.128,0.028,1.545C428.178,169.678,428.175,170.103,428.175,170.103z"/>
		</g>
	</g>
	<circle fill="#E0E0E0" cx="301.413" cy="308.785" r="4.248"/>
	<g>
		<g>
			<g>
				<g>
					<g>
						<g>
							<path fill="#F5F5F5" d="M309.36,331.216c0,0.519,0,28.009,0,28.009h-6.257v3.803h6.257v19.207h116.972v-17.477h-8.664v-3.807
								h8.664v-5.71h3.852v-2.596h-4.573v-21.43H309.36z"/>
						</g>
					</g>
				</g>
			</g>
			<g>
				<g>
					<g>
						<g>
							<polygon fill="#EBEBEB" points="395.271,331.3 395.271,381.914 426.332,381.914 426.332,364.438 417.668,364.438 
								417.668,360.951 426.332,361.069 426.332,355.359 430.259,355.364 430.184,352.413 425.61,352.326 425.61,331.216 							"/>
						</g>
					</g>
				</g>
			</g>
			<g>
				<g>
					<g>
						<g>
							<g>
								<path fill="#E0E0E0" d="M397.841,363.242c0,0.241-21.167,0.438-47.271,0.438c-26.112,0-47.274-0.197-47.274-0.438
									c0-0.242,21.162-0.438,47.274-0.438C376.674,362.803,397.841,362.999,397.841,363.242z"/>
							</g>
						</g>
					</g>
				</g>
			</g>
			<g>
				<g>
					<g>
						<g>
							<g>
								<path fill="#E0E0E0" d="M397.841,359.224c0,0.242-21.167,0.438-47.271,0.438c-26.112,0-47.274-0.196-47.274-0.438
									c0-0.24,21.162-0.438,47.274-0.438C376.674,358.786,397.841,358.983,397.841,359.224z"/>
							</g>
						</g>
					</g>
				</g>
			</g>
			<g>
				<g>
					<g>
						<g>
							<g>
								<path fill="#E0E0E0" d="M403.556,340.37c0,0.242-21.167,0.438-47.271,0.438c-26.112,0-47.275-0.195-47.275-0.438
									s21.163-0.438,47.275-0.438C382.389,339.933,403.556,340.128,403.556,340.37z"/>
							</g>
						</g>
					</g>
				</g>
			</g>
			<g>
				<g>
					<g>
						<g>
							<g>
								<path fill="#E0E0E0" d="M404.139,369.832c0,0.241-21.167,0.438-47.271,0.438c-26.112,0-47.273-0.196-47.273-0.438
									c0-0.242,21.161-0.438,47.273-0.438C382.972,369.393,404.139,369.589,404.139,369.832z"/>
							</g>
						</g>
					</g>
				</g>
			</g>
		</g>
	</g>
</g>
<g id="Background_Simple" display="none">
	<path display="inline" fill="#F5F5F5" d="M94.662,96.303l2.113-3.481c17.809-29.348,50.009-47.04,83.958-44.893
		c4.364,0.276,8.709,0.867,12.997,1.784c30.867,6.607,57.725,29.949,68.857,59.844c6.547,17.581,8.376,37.824,20.802,51.779
		c16.17,18.162,43.621,18.732,67.758,17.98c24.137-0.753,51.606-0.111,67.699,18.123c10.076,11.419,13.279,27.659,12.468,42.952
		c-2.151,40.488-30.364,76.691-66.245,94.686c-35.879,17.995-78.125,19.605-117.393,11.689
		c-55.011-11.089-107.325-41.542-138.77-88.577C77.461,211.151,69.503,147.07,94.662,96.303z"/>
</g>
<g id="Desk">
	<g>
		<path fill="#FFFFFF" d="M66.66,382.229c121.56,0,243.118,0,364.678,0"/>
		<g>
			<path fill="#263238" d="M431.338,382.229c0,0.11-81.644,0.199-182.33,0.199c-100.723,0-182.347-0.089-182.347-0.199
				s81.625-0.2,182.347-0.2C349.694,382.029,431.338,382.12,431.338,382.229z"/>
		</g>
	</g>
</g>
<g id="Pens">
	<g>
		<path fill="#FF725E" d="M340.294,359.627c0,0,16.743-5.919,32.253,0l0,0l-3.001,5.325l-27.739,1.068L340.294,359.627"/>
		<g>
			<g>
				<g>
					<g>
						<path fill="#E0E0E0" d="M343.08,329.547l0.294-0.021c1.006-0.072,1.881,0.686,1.953,1.69l3.971,55.084l-3.937,0.283
							l-3.971-55.083C341.318,330.495,342.074,329.619,343.08,329.547z"/>
						<g>
							<path fill="#263238" d="M343.08,329.547c0.019,0.038-0.449-0.021-1.037,0.473c-0.277,0.244-0.557,0.661-0.592,1.211
								c0.001,0.544,0.086,1.202,0.135,1.928c0.227,2.936,0.553,7.151,0.954,12.363c0.771,10.478,1.837,24.952,3.021,41.048
								l-0.213-0.186c0.667-0.048,1.389-0.1,2.112-0.152c0.624-0.045,1.246-0.089,1.824-0.131l-0.186,0.213
								c-1.142-16.17-2.169-30.722-2.913-41.256c-0.352-5.243-0.637-9.486-0.834-12.441c-0.023-0.365-0.046-0.711-0.066-1.037
								c-0.018-0.33-0.031-0.624-0.134-0.88c-0.201-0.516-0.592-0.833-0.931-0.988c-0.348-0.156-0.646-0.173-0.842-0.165
								C343.182,329.553,343.081,329.555,343.08,329.547c0-0.006,0.101-0.021,0.298-0.041c0.198-0.021,0.507-0.019,0.874,0.133
								c0.361,0.149,0.782,0.472,1.008,1.018c0.116,0.271,0.138,0.593,0.161,0.913c0.026,0.324,0.054,0.67,0.084,1.037
								c0.227,2.952,0.555,7.19,0.959,12.431c0.775,10.532,1.844,25.082,3.034,41.248l0.016,0.199l-0.201,0.016
								c-0.576,0.041-1.199,0.085-1.824,0.131c-0.723,0.052-1.443,0.104-2.112,0.152l-0.199,0.015l-0.015-0.199
								c-1.136-16.099-2.159-30.578-2.898-41.057c-0.35-5.216-0.632-9.435-0.828-12.372c-0.038-0.734-0.111-1.368-0.1-1.947
								c0.051-0.585,0.357-1.015,0.656-1.262c0.301-0.257,0.598-0.343,0.79-0.385C342.978,329.535,343.08,329.547,343.08,329.547z"
								/>
						</g>
					</g>
				</g>
				<g>
					<path fill="#455A64" d="M343.351,369.282l5.613-0.404l1.325,18.375c0.112,1.551-1.054,2.897-2.604,3.009l0,0
						c-1.551,0.113-2.897-1.054-3.01-2.604L343.351,369.282z"/>
				</g>
				<g>
					
						<rect x="342.52" y="360.836" transform="matrix(0.9974 -0.0714 0.0714 0.9974 -25.7545 25.4602)" fill="#455A64" width="1.094" height="23.905"/>
				</g>
				<g>
					<g>
						<path fill="#263238" d="M348.964,368.878c0.012,0.121-2.297,0.446-5.652,0.813l0.249-0.295
							c0.101,1.284,0.21,2.674,0.326,4.141c0.196,2.715,0.339,5.176,0.413,6.96c0.072,1.783,0.077,2.89-0.009,2.896
							c-0.084,0.006-0.239-1.089-0.421-2.864c-0.184-1.774-0.396-4.231-0.591-6.947c-0.097-1.468-0.188-2.859-0.271-4.145
							l-0.018-0.272l0.267-0.021C346.624,368.872,348.952,368.756,348.964,368.878z"/>
					</g>
				</g>
			</g>
			<g>
				<g>
					<g>
						<rect x="349.387" y="330.996" fill="#E0E0E0" width="3.947" height="44.54"/>
						<g>
							<path fill="#263238" d="M353.333,375.536c-0.005-0.004-0.01-0.085-0.014-0.239c-0.005-0.175-0.008-0.397-0.014-0.678
								c-0.008-0.615-0.017-1.479-0.028-2.58c-0.015-2.258-0.035-5.486-0.059-9.482c-0.022-8.02-0.052-19.12-0.085-31.562l0.198,0.2
								c-1.254,0-2.593,0-3.943,0.001c0.395-0.4,0.109-0.104,0.197-0.188v0.014v0.029v0.059v0.117v0.234v0.466v0.932
								c0,0.618,0,1.233-0.001,1.847c0,1.225,0,2.438-0.001,3.636c-0.003,2.396-0.005,4.734-0.007,7.002
								c-0.01,4.531-0.018,8.781-0.024,12.641c-0.039,7.683-0.069,13.805-0.088,17.552l-0.078-0.079
								c1.242,0.019,2.217,0.034,2.904,0.045c0.321,0.008,0.575,0.015,0.769,0.019C353.235,375.527,353.328,375.533,353.333,375.536
								c0.006,0.006-0.078,0.011-0.243,0.017c-0.19,0.005-0.438,0.011-0.752,0.019c-0.7,0.01-1.688,0.025-2.951,0.046h-0.079
								l-0.001-0.08c-0.019-3.746-0.049-9.869-0.088-17.551c-0.007-3.859-0.016-8.109-0.023-12.642
								c-0.002-2.268-0.005-4.605-0.008-7.001c0-1.2-0.001-2.413-0.001-3.637c0-0.612,0-1.229,0-1.847v-0.932v-0.466v-0.233v-0.117
								v-0.059v-0.029v-0.015c0.09-0.093-0.203,0.188,0.202-0.212c1.351,0,2.689,0,3.943,0.001h0.201l-0.001,0.198
								c-0.033,12.5-0.063,23.65-0.084,31.706c-0.025,3.978-0.045,7.19-0.06,9.436c-0.013,1.083-0.021,1.933-0.027,2.537
								c-0.006,0.27-0.01,0.483-0.014,0.65C353.343,375.47,353.339,375.542,353.333,375.536z"/>
						</g>
					</g>
				</g>
				<g>
					<path fill="#455A64" d="M354.094,348.396h-5.628v-18.422c0-1.554,1.261-2.813,2.813-2.813l0,0c1.554,0,2.814,1.26,2.814,2.813
						V348.396z"/>
				</g>
				<g>
					<rect x="354.094" y="332.985" fill="#455A64" width="1.092" height="23.906"/>
				</g>
				<g>
					<g>
						<path fill="#263238" d="M348.466,348.396c-0.002-0.122,2.324-0.279,5.697-0.404l-0.269,0.275
							c-0.01-1.286-0.02-2.681-0.028-4.152c0-2.723,0.033-5.187,0.089-6.971c0.054-1.783,0.131-2.888,0.215-2.888
							s0.16,1.104,0.215,2.888c0.055,1.784,0.089,4.248,0.089,6.971c-0.01,1.472-0.02,2.866-0.028,4.152l-0.002,0.274l-0.268,0.003
							C350.801,348.572,348.469,348.52,348.466,348.396z"/>
					</g>
				</g>
			</g>
			<g>
				<g>
					<g>
						<rect x="357.339" y="341.449" fill="#E0E0E0" width="3.948" height="44.541"/>
						<g>
							<path fill="#263238" d="M361.287,385.99c-0.006-0.005-0.01-0.086-0.015-0.24c-0.004-0.174-0.008-0.396-0.015-0.677
								c-0.006-0.615-0.016-1.479-0.027-2.582c-0.015-2.257-0.034-5.485-0.06-9.482c-0.021-8.019-0.05-19.118-0.085-31.561
								l0.201,0.2c-1.255,0-2.595,0-3.945,0c0.396-0.399,0.11-0.102,0.198-0.188v0.016v0.029v0.059v0.116v0.234v0.467l-0.001,0.93
								c0,0.619,0,1.234,0,1.848c0,1.225-0.002,2.438-0.002,3.635c-0.003,2.396-0.004,4.734-0.006,7.002
								c-0.01,4.533-0.018,8.782-0.025,12.642c-0.037,7.682-0.069,13.805-0.087,17.552l-0.08-0.08
								c1.245,0.02,2.218,0.035,2.907,0.046c0.319,0.009,0.572,0.015,0.768,0.019C361.188,385.979,361.281,385.985,361.287,385.99
								c0.005,0.005-0.078,0.01-0.245,0.016c-0.189,0.004-0.438,0.012-0.751,0.019c-0.699,0.011-1.688,0.025-2.952,0.045
								l-0.078,0.001v-0.08c-0.019-3.746-0.049-9.869-0.088-17.552c-0.008-3.858-0.017-8.107-0.024-12.641
								c-0.003-2.268-0.004-4.606-0.007-7.001c0-1.199-0.001-2.412-0.002-3.637c0-0.612,0-1.229,0-1.847l-0.001-0.931v-0.467v-0.234
								v-0.116v-0.059v-0.029v-0.015c0.091-0.093-0.201,0.188,0.203-0.212c1.351,0,2.69,0,3.944,0.001h0.2v0.199
								c-0.034,12.499-0.063,23.649-0.085,31.705c-0.024,3.978-0.045,7.189-0.059,9.437c-0.013,1.082-0.021,1.932-0.028,2.536
								c-0.006,0.27-0.011,0.483-0.015,0.651C361.295,385.923,361.291,385.995,361.287,385.99z"/>
						</g>
					</g>
				</g>
				<g>
					<path fill="#455A64" d="M362.047,358.851h-5.627v-18.423c0-1.554,1.26-2.813,2.813-2.813l0,0c1.554,0,2.813,1.26,2.813,2.813
						V358.851z"/>
				</g>
				<g>
					<rect x="362.047" y="343.438" fill="#455A64" width="1.092" height="23.905"/>
				</g>
				<g>
					<g>
						<path fill="#263238" d="M356.42,358.851c-0.003-0.123,2.323-0.28,5.697-0.404l-0.271,0.275
							c-0.009-1.287-0.018-2.682-0.028-4.152c0-2.723,0.034-5.188,0.09-6.972c0.055-1.784,0.131-2.888,0.215-2.888
							s0.16,1.104,0.215,2.888s0.09,4.249,0.09,6.972c-0.011,1.471-0.02,2.865-0.028,4.152l-0.002,0.273l-0.27,0.002
							C358.754,359.024,356.423,358.973,356.42,358.851z"/>
					</g>
				</g>
			</g>
			<g>
				<g>
					<g>
						<rect x="364.839" y="329.363" fill="#E0E0E0" width="3.946" height="44.542"/>
						<g>
							<path fill="#263238" d="M368.785,373.905c-0.006-0.005-0.01-0.086-0.016-0.24c-0.003-0.174-0.007-0.397-0.013-0.677
								c-0.007-0.616-0.017-1.48-0.027-2.581c-0.015-2.258-0.035-5.487-0.061-9.483c-0.021-8.019-0.051-19.119-0.084-31.561l0.2,0.2
								c-1.256,0-2.594,0.001-3.944,0.001c0.395-0.4,0.109-0.104,0.197-0.188v0.014v0.029v0.059v0.118v0.232v0.467v0.931
								c0,0.619,0,1.234,0,1.847c-0.001,1.227-0.002,2.438-0.003,3.637c-0.002,2.396-0.004,4.734-0.007,7.002
								c-0.009,4.532-0.017,8.781-0.024,12.641c-0.038,7.682-0.068,13.805-0.087,17.552l-0.079-0.079
								c1.244,0.019,2.218,0.034,2.906,0.046c0.319,0.007,0.572,0.014,0.768,0.018C368.688,373.896,368.78,373.9,368.785,373.905
								c0.004,0.004-0.078,0.01-0.245,0.016c-0.19,0.005-0.437,0.012-0.75,0.018c-0.7,0.011-1.688,0.026-2.952,0.046l-0.079,0.002
								l-0.001-0.08c-0.018-3.748-0.048-9.87-0.086-17.552c-0.008-3.859-0.017-8.109-0.025-12.641
								c-0.002-2.269-0.005-4.606-0.006-7.003c-0.002-1.199-0.002-2.41-0.002-3.636c0-0.613-0.002-1.229-0.002-1.847v-0.931v-0.467
								v-0.233v-0.117v-0.059v-0.029v-0.015c0.091-0.093-0.201,0.188,0.204-0.212c1.351,0,2.688,0,3.944,0h0.199l-0.001,0.2
								c-0.032,12.498-0.062,23.648-0.083,31.705c-0.025,3.978-0.047,7.189-0.06,9.437c-0.013,1.082-0.021,1.931-0.028,2.535
								c-0.005,0.271-0.01,0.484-0.014,0.652C368.794,373.838,368.789,373.909,368.785,373.905z"/>
						</g>
					</g>
				</g>
				<g>
					<path fill="#455A64" d="M369.546,346.765h-5.627v-18.423c0-1.553,1.26-2.813,2.813-2.813l0,0c1.553,0,2.813,1.261,2.813,2.813
						V346.765z"/>
				</g>
				<g>
					<rect x="369.546" y="331.354" fill="#455A64" width="1.093" height="23.906"/>
				</g>
				<g>
					<g>
						<path fill="#263238" d="M363.919,346.765c-0.003-0.122,2.323-0.279,5.697-0.404l-0.271,0.276
							c-0.009-1.287-0.018-2.683-0.028-4.152c0-2.724,0.034-5.188,0.09-6.972c0.054-1.783,0.131-2.887,0.215-2.887
							s0.159,1.104,0.215,2.887c0.055,1.783,0.09,4.248,0.09,6.972c-0.011,1.47-0.02,2.865-0.028,4.152l-0.003,0.273l-0.268,0.002
							C366.253,346.941,363.921,346.888,363.919,346.765z"/>
					</g>
				</g>
			</g>
			<g>
				<path fill="#FF725E" d="M368.923,396.584c-8.368,3.946-16.803,3.886-25.301,0l-3.328-36.957c10.184,2.984,20.989,2.697,32.253,0
					L368.923,396.584z"/>
			</g>
		</g>
		<g>
			<path fill="#263238" d="M372.553,359.377c0.008,0.026-0.421,0.179-1.204,0.435c-0.781,0.263-1.931,0.582-3.365,0.918
				c-1.434,0.345-3.162,0.661-5.096,0.921c-1.935,0.24-4.075,0.408-6.327,0.438c-2.253,0.013-4.396-0.117-6.336-0.32
				c-1.937-0.225-3.671-0.509-5.111-0.827c-1.439-0.311-2.595-0.608-3.38-0.857c-0.789-0.239-1.219-0.385-1.212-0.411
				c0.008-0.027,0.454,0.068,1.252,0.262c0.795,0.201,1.957,0.456,3.396,0.73c1.439,0.28,3.168,0.534,5.095,0.736
				c1.93,0.182,4.058,0.301,6.293,0.287c2.236-0.028,4.36-0.186,6.287-0.401c1.922-0.239,3.646-0.524,5.078-0.831
				c1.436-0.301,2.592-0.577,3.383-0.793C372.099,359.454,372.544,359.351,372.553,359.377z"/>
		</g>
	</g>
</g>
<g id="Papers">
	<g>
		<polygon fill="#E0E0E0" points="234.695,394.929 170.446,396.638 234.695,422.75 303.798,418.669 		"/>
		<polygon fill="#F5F5F5" points="216.385,392.335 152.137,394.043 216.385,420.156 285.488,416.074 		"/>
		<polygon fill="#E0E0E0" points="156.326,385.544 220.573,411.655 220.573,416.399 156.326,389.378 		"/>
		<polygon fill="#EBEBEB" points="220.573,416.399 289.676,411.986 289.676,407.572 220.573,411.655 		"/>
		<g>
			<polygon fill="#FFFFFF" points="220.573,383.834 156.326,385.544 220.573,411.655 289.676,407.572 			"/>
			<g>
				<path fill="#263238" d="M220.573,383.834c0,0,0.11,0.028,0.325,0.097c0.225,0.074,0.542,0.178,0.957,0.314
					c0.853,0.287,2.1,0.705,3.722,1.25c3.267,1.11,8.037,2.732,14.095,4.79c12.136,4.151,29.42,10.062,50.063,17.121
					c0.093,0.031,0.142,0.132,0.109,0.224c-0.023,0.069-0.087,0.113-0.155,0.119c-19.05,1.132-41.219,2.449-64.769,3.85
					c-1.457,0.086-2.91,0.172-4.333,0.256c-0.031,0.002-0.061-0.004-0.087-0.015c-23.66-9.628-45.671-18.585-64.236-26.141
					c-0.086-0.035-0.128-0.134-0.093-0.22c0.026-0.064,0.087-0.104,0.152-0.106c19.347-0.484,35.41-0.887,46.648-1.168
					c5.605-0.129,10.004-0.229,13.014-0.3c1.492-0.028,2.636-0.051,3.42-0.065C220.177,383.827,220.573,383.834,220.573,383.834
					s-0.401,0.028-1.177,0.058c-0.786,0.026-1.934,0.064-3.427,0.116c-3.012,0.091-7.413,0.224-13.02,0.392
					c-11.232,0.316-27.285,0.769-46.619,1.313l0.06-0.326c18.573,7.538,40.591,16.478,64.26,26.084l-0.086-0.015
					c1.424-0.084,2.875-0.17,4.333-0.256c23.551-1.384,45.722-2.684,64.771-3.803l-0.046,0.342
					c-20.613-7.112-37.872-13.068-49.99-17.25c-6.047-2.099-10.809-3.752-14.07-4.884c-1.618-0.568-2.863-1.006-3.713-1.304
					c-0.413-0.148-0.729-0.262-0.952-0.341C220.681,383.882,220.573,383.834,220.573,383.834z"/>
			</g>
		</g>
		<g>
			<ellipse fill="#263238" cx="220.526" cy="414.153" rx="0.201" ry="2.426"/>
		</g>
		<g>
			<path fill="#263238" d="M264.69,402.641c0.008,0.111-10.474,0.828-23.404,1.603c-12.936,0.774-23.425,1.313-23.431,1.202
				c-0.006-0.11,10.471-0.826,23.407-1.602C254.194,403.069,264.685,402.532,264.69,402.641z"/>
		</g>
		<g>
			<path fill="#263238" d="M257.877,400.013c0.006,0.11-10.474,0.828-23.406,1.603c-12.936,0.773-23.425,1.313-23.431,1.202
				c-0.007-0.111,10.471-0.827,23.408-1.603C247.379,400.44,257.87,399.901,257.877,400.013z"/>
		</g>
		<g>
			<path fill="#263238" d="M251.063,397.384c0.008,0.11-10.474,0.827-23.405,1.603c-12.936,0.773-23.425,1.313-23.431,1.201
				c-0.007-0.11,10.471-0.826,23.408-1.603C240.565,397.812,251.056,397.272,251.063,397.384z"/>
		</g>
		<g>
			<path fill="#263238" d="M243.136,394.755c0.006,0.11-10.474,0.826-23.405,1.602c-12.937,0.774-23.425,1.313-23.432,1.202
				c-0.007-0.11,10.472-0.827,23.408-1.603C232.638,395.183,243.129,394.644,243.136,394.755z"/>
		</g>
		<g>
			<path fill="#263238" d="M236.34,392.124c0.006,0.111-10.474,0.828-23.406,1.603c-12.936,0.775-23.425,1.313-23.431,1.202
				c-0.007-0.11,10.471-0.827,23.408-1.602C225.842,392.554,236.333,392.015,236.34,392.124z"/>
		</g>
		<g>
			<path fill="#263238" d="M228.035,389.45c0.007,0.11-10.474,0.827-23.406,1.601c-12.936,0.775-23.425,1.313-23.431,1.203
				c-0.007-0.11,10.471-0.827,23.408-1.603C217.537,389.877,228.027,389.339,228.035,389.45z"/>
		</g>
	</g>
</g>
<g id="Hand">
	<g>
		<path fill="#AE7461" d="M278.353,201.651c0,0-5.968-0.442-6.411-10.612c-0.441-10.17-3.759-35.816-3.096-40.901
			c0.664-5.085,5.527-5.969,7.297-7.738c1.769-1.769,47.313-21.224,51.512-20.561c4.201,0.663,61.461,20.339,61.461,20.339
			l25.388,71.82c0,0-13.228,5.119-23.617,5.339c-10.392,0.221-42.228-9.949-42.228-9.949l-5.403,2.352c0,0,2.471,8.146-1.962,10.125
			c-4.478,1.999-9.23,0.317-9.23,0.317s-0.255,9.615-7.55,9.393c-7.296-0.222-15.65-6.49-15.65-6.49s-3.979,2.653-6.412,0.663
			c-2.431-1.989-16.139-16.36-16.139-16.36L278.353,201.651z"/>
		<g>
			<path fill="#6F4439" d="M326.893,158.089c-0.023,0.015-0.229-0.292-0.581-0.862c-0.36-0.565-0.823-1.417-1.345-2.496
				c-0.526-1.077-1.064-2.401-1.574-3.902c-0.491-1.508-0.939-3.197-1.262-5c-0.308-1.807-0.459-3.547-0.509-5.132
				c-0.03-1.585,0.028-3.015,0.159-4.206c0.123-1.191,0.271-2.15,0.418-2.803c0.139-0.655,0.229-1.014,0.256-1.009
				c0.025,0.006-0.012,0.375-0.103,1.034c-0.099,0.657-0.203,1.617-0.29,2.802c-0.094,1.184-0.121,2.601-0.072,4.17
				c0.07,1.568,0.229,3.289,0.533,5.074c0.319,1.783,0.753,3.456,1.219,4.955c0.484,1.493,0.991,2.816,1.481,3.898
				c0.483,1.085,0.907,1.953,1.223,2.538C326.757,157.741,326.917,158.075,326.893,158.089z"/>
		</g>
		<g>
			<path fill="#6F4439" d="M340.621,148.748c0.043,0.031-0.294,0.591-0.917,1.442c-0.621,0.853-1.536,1.99-2.635,3.168
				c-1.101,1.178-2.17,2.171-2.977,2.851c-0.807,0.681-1.342,1.056-1.374,1.016c-0.078-0.091,1.883-1.797,4.058-4.139
				C338.959,150.753,340.525,148.678,340.621,148.748z"/>
		</g>
		<g>
			<path fill="#6F4439" d="M300.754,196.984c0.02-0.019,0.35,0.296,0.925,0.882c0.576,0.587,1.4,1.446,2.39,2.535
				c0.985,1.092,2.145,2.411,3.321,3.966c1.172,1.555,2.39,3.344,3.306,5.422c0.899,2.087,1.314,4.25,1.334,6.214
				c0.044,1.968-0.342,3.732-0.869,5.118c-0.546,1.385-1.242,2.391-1.8,3.001c-0.256,0.327-0.515,0.524-0.668,0.678
				c-0.16,0.146-0.249,0.218-0.259,0.208c-0.027-0.03,0.305-0.345,0.807-0.985c0.513-0.631,1.155-1.637,1.655-3.001
				c0.479-1.367,0.827-3.09,0.765-5.013c-0.039-1.917-0.456-4.027-1.332-6.061c-0.895-2.031-2.087-3.806-3.232-5.361
				c-1.152-1.555-2.284-2.887-3.24-3.999c-0.933-1.065-1.705-1.947-2.291-2.616C301.024,197.354,300.733,197.002,300.754,196.984z"
				/>
		</g>
		<g>
			<path fill="#6F4439" d="M325.003,188.913c0.009,0.002-0.005,0.08-0.042,0.229c-0.039,0.147-0.081,0.372-0.18,0.651
				c-0.177,0.563-0.498,1.373-1.025,2.338c-0.535,0.959-1.267,2.092-2.353,3.178c-0.536,0.547-1.18,1.062-1.925,1.502
				c-0.744,0.433-1.623,0.774-2.591,0.817l0.122-0.301c1.062,1.161,1.72,2.743,2.063,4.438c0.345,1.693,0.397,3.572-0.176,5.388
				c-0.213,0.652-0.559,1.252-0.966,1.754l-0.066-0.313c2.635,1.227,5.104,2.475,7.173,3.889c1.042,0.695,1.956,1.457,2.777,2.201
				c0.791,0.778,1.494,1.537,2.032,2.31c1.103,1.526,1.691,2.939,2.005,3.927c0.166,0.492,0.232,0.892,0.301,1.154
				c0.061,0.266,0.086,0.406,0.074,0.408c-0.035,0.008-0.181-0.543-0.515-1.515c-0.354-0.963-0.973-2.336-2.082-3.813
				c-0.542-0.749-1.247-1.482-2.033-2.237c-0.817-0.72-1.726-1.461-2.76-2.138c-2.054-1.378-4.51-2.604-7.141-3.824l-0.231-0.107
				l0.166-0.206c0.367-0.456,0.686-1.006,0.886-1.619c0.542-1.711,0.504-3.542,0.175-5.184c-0.321-1.646-0.959-3.179-1.939-4.268
				l-0.26-0.288l0.382-0.014c0.894-0.032,1.727-0.341,2.444-0.746c0.717-0.413,1.349-0.901,1.879-1.427
				c1.076-1.041,1.821-2.142,2.375-3.072c0.546-0.938,0.896-1.725,1.104-2.271C324.883,189.207,324.978,188.906,325.003,188.913z"/>
		</g>
		<g>
			<path fill="#6F4439" d="M335.963,207.246c-0.027,0.003-0.086-0.221-0.17-0.627c-0.072-0.408-0.193-0.994-0.365-1.712
				c-0.338-1.433-0.938-3.399-2.082-5.327c-1.16-1.917-2.641-3.347-3.793-4.261c-1.151-0.922-1.924-1.423-1.889-1.479
				c0.016-0.023,0.222,0.079,0.586,0.285c0.359,0.209,0.875,0.527,1.478,0.97c1.209,0.867,2.768,2.305,3.961,4.28
				c1.177,1.983,1.746,4.009,2.017,5.473c0.138,0.735,0.217,1.333,0.243,1.75C335.984,207.012,335.991,207.242,335.963,207.246z"/>
		</g>
		<g>
			<path fill="#6F4439" d="M343.845,213.998c-0.035,0.008-0.112-0.299-0.307-0.829c-0.194-0.527-0.513-1.29-1.129-2.075
				c-1.179-1.678-3.926-2.644-6.79-3.763c-1.453-0.544-2.855-0.954-4.161-1.319c-1.295-0.392-2.435-0.813-3.39-1.167
				c-0.889-0.338-1.642-0.625-2.254-0.858c-0.529-0.207-0.821-0.326-0.813-0.353c0.008-0.026,0.316,0.045,0.863,0.207
				c0.548,0.161,1.331,0.416,2.297,0.738c0.967,0.32,2.112,0.711,3.399,1.079c1.293,0.341,2.738,0.751,4.196,1.297
				c1.463,0.541,2.829,1.129,4.047,1.712c1.238,0.587,2.223,1.408,2.829,2.255c0.615,0.844,0.9,1.648,1.053,2.198
				C343.839,213.676,343.862,213.994,343.845,213.998z"/>
		</g>
		<g>
			<path fill="#6F4439" d="M345.013,194.922c0.06-0.005,0.17,0.818,0.381,2.139c0.209,1.322,0.54,3.14,1.024,5.121
				c0.486,1.981,1.035,3.745,1.46,5.014c0.424,1.27,0.707,2.05,0.651,2.073c-0.047,0.019-0.422-0.724-0.917-1.976
				c-0.496-1.251-1.092-3.019-1.584-5.016c-0.487-1.998-0.776-3.839-0.915-5.178C344.974,195.76,344.962,194.926,345.013,194.922z"
				/>
		</g>
		<g>
			<path fill="#6F4439" d="M397.319,199.848c0.005,0.013-0.177,0.075-0.527,0.179c-0.388,0.111-0.897,0.257-1.533,0.438
				c-0.337,0.093-0.709,0.195-1.111,0.306c-0.414,0.092-0.86,0.191-1.339,0.297c-0.961,0.214-2.054,0.464-3.28,0.646
				c-0.613,0.102-1.254,0.208-1.92,0.32c-0.673,0.078-1.372,0.16-2.095,0.244c-1.446,0.203-3.005,0.249-4.641,0.371
				c-3.276,0.11-6.891,0.032-10.653-0.396c-3.763-0.451-7.293-1.263-10.433-2.209c-1.556-0.527-3.042-1-4.375-1.602
				c-0.668-0.291-1.333-0.531-1.938-0.835c-0.604-0.304-1.184-0.597-1.739-0.877c-1.126-0.525-2.059-1.157-2.906-1.656
				c-0.419-0.259-0.818-0.485-1.168-0.722c-0.337-0.246-0.65-0.472-0.934-0.679c-0.531-0.393-0.957-0.708-1.283-0.948
				c-0.291-0.22-0.438-0.341-0.431-0.352c0.009-0.011,0.173,0.088,0.479,0.287c0.335,0.224,0.775,0.519,1.323,0.885
				c0.29,0.197,0.606,0.413,0.949,0.647c0.353,0.227,0.757,0.441,1.179,0.69c0.855,0.479,1.792,1.09,2.92,1.596
				c0.555,0.271,1.137,0.553,1.74,0.848c0.604,0.294,1.268,0.527,1.936,0.808c1.329,0.584,2.811,1.042,4.357,1.556
				c3.125,0.922,6.632,1.717,10.371,2.166c3.741,0.426,7.331,0.514,10.593,0.425c1.627-0.112,3.18-0.145,4.62-0.333
				c0.72-0.076,1.417-0.15,2.088-0.22c0.665-0.102,1.305-0.199,1.916-0.292c1.225-0.165,2.317-0.394,3.279-0.587
				c0.479-0.095,0.927-0.182,1.342-0.264c0.405-0.098,0.779-0.189,1.118-0.272c0.642-0.151,1.157-0.272,1.55-0.365
				C397.128,199.871,397.315,199.835,397.319,199.848z"/>
		</g>
		<g>
			<path fill="#6F4439" d="M293.472,161.617c-0.058,0.037-0.721-0.989-1.98-2.497c-1.248-1.517-3.12-3.491-5.371-5.473
				c-2.258-1.974-4.459-3.576-6.124-4.618c-1.66-1.053-2.763-1.577-2.733-1.639c0.013-0.026,0.297,0.085,0.804,0.309
				c0.504,0.228,1.227,0.583,2.076,1.088c1.718,0.989,3.965,2.568,6.241,4.559c2.267,1.999,4.126,4.021,5.328,5.597
				c0.612,0.778,1.058,1.448,1.349,1.918C293.348,161.334,293.495,161.602,293.472,161.617z"/>
		</g>
		<g>
			<path fill="#6F4439" d="M285.944,169.174c-0.106,0.06-0.72-1.071-1.949-1.994c-1.217-0.943-2.469-1.233-2.438-1.352
				c-0.004-0.101,1.375,0.027,2.681,1.034C285.553,167.855,286.043,169.15,285.944,169.174z"/>
		</g>
		<path fill="#263238" d="M272.577,228.273l-0.014,0.063c0,0-0.711,3.059-0.604,3.726c0.115,0.723,0.834,0.238,0.834,0.238
			l1.883-3.228L272.577,228.273z"/>
		<polygon fill="#E0E0E0" points="272.352,228.407 277.662,205.26 286.715,209.09 274.794,229.368 		"/>
		<path fill="#FF725E" d="M317.848,94.883c0,0-39.861,108.965-40.186,110.377l9.053,3.83c0,0,26.36-63.769,26.81-64.889
			c0.448-1.121,16.217-45.059,16.217-45.059L317.848,94.883z"/>
		<polygon fill="#E0E0E0" points="317.848,94.883 321.018,87.152 323.483,86.422 331.11,88.879 332.342,91.265 329.741,99.143 		"/>
		<path fill="#E0E0E0" d="M323.483,86.422l4.31-11.19c2.77,0.021,5.177,0.98,7.392,2.438l-4.075,11.209L323.483,86.422z"/>
		<g>
			<path fill="#263238" d="M332.663,91.453c-0.015,0.051-0.71-0.083-1.815-0.374c-1.104-0.291-2.617-0.745-4.264-1.324
				c-1.645-0.581-3.107-1.177-4.15-1.645c-1.043-0.467-1.668-0.799-1.647-0.847c0.022-0.052,0.688,0.187,1.754,0.585
				c1.068,0.399,2.54,0.951,4.178,1.529c1.637,0.578,3.129,1.071,4.21,1.43C332.01,91.166,332.679,91.397,332.663,91.453z"/>
		</g>
		<path fill="#E0E0E0" d="M329.741,99.143L329.741,99.143c2.229,0.791,3.403,3.23,2.63,5.466l-12.383,35.807
			c-0.459,1.327-1.954,1.975-3.236,1.404l0,0c-1.146-0.511-1.702-1.817-1.278-2.996L329.741,99.143z"/>
		<g opacity="0.2">
			<path fill="#FFFFFF" d="M297.407,213.816c-0.644-0.68-1.549-1.102-2.481-1.021c-1.503,0.13-2.372,1.313-2.666,2.778
				c3.856,4.064,7.575,7.924,10.271,10.256c0.149,0.13,0.334,0.206,0.53,0.225l0.474,0.044
				C302.753,221.522,300.599,217.189,297.407,213.816z"/>
		</g>
		<g opacity="0.2">
			<path fill="#FFFFFF" d="M323.933,231.576c0.132-1.761,0.126-3.568-0.416-5.249c-0.543-1.68-1.69-3.236-3.32-3.918
				c-1.47-0.615-3.247-0.436-4.564,0.459c-1.318,0.896-2.141,3.554-2.11,5.147c0,0,4.017,2.213,6.341,2.857
				C322.187,231.518,323.933,231.576,323.933,231.576z"/>
		</g>
		<g opacity="0.2">
			<path fill="#FFFFFF" d="M338.644,222.66c1.701-0.577,2.015-4.464,1.04-5.975c-0.716-1.111-1.605-1.868-3.068-2.417
				c-1.416-0.532-3.107-0.947-4.593-0.65c-1.903,0.38-2.863,1.065-3.43,2.066c0,0,2.823,2.921,3.472,6.498
				C334.196,222.834,336.39,222.997,338.644,222.66z"/>
		</g>
		<path fill="#AE7461" d="M414.504,213.998l-25.388-71.82l28.885-9.499c0,0,14.918,27.533,8.494,53.5
			C420.356,210.997,414.504,213.998,414.504,213.998z"/>
		<g>
			<path fill="#AE7461" d="M353.307,150.385c-9.35,3.669-19.284,5.542-29.066,7.822c-9.781,2.279-21.352,5.154-28.188,10.263
				c-6.6,4.934-14.75,12.024-17.464,19.43c-1.148,3.135-0.96,6.65,0.791,9.492c1.006,1.632,2.571,2.973,4.886,3.342
				c5.785,0.921,11.744-1.298,16.159-3.581c4.276-2.211,19.55-9.752,19.55-9.752l12.729-0.204l9.765,2.736"/>
			<g>
				<path fill="#6F4439" d="M357.384,182.253c0.02,0.018-0.122,0.205-0.4,0.527c-0.272,0.325-0.698,0.767-1.252,1.286
					c-1.103,1.041-2.768,2.344-4.807,3.46c-2.041,1.111-4.039,1.808-5.511,2.172c-0.736,0.184-1.339,0.303-1.76,0.357
					c-0.42,0.059-0.653,0.079-0.658,0.051c-0.012-0.066,0.905-0.248,2.343-0.681c1.437-0.43,3.385-1.156,5.395-2.25
					c2.005-1.098,3.67-2.344,4.811-3.32C356.686,182.881,357.334,182.208,357.384,182.253z"/>
			</g>
			<g>
				<path fill="#6F4439" d="M336.937,180.204c0.098,0.028-0.426,1.832-1.622,3.796c-1.186,1.971-2.541,3.27-2.609,3.197
					c-0.09-0.08,1.107-1.474,2.268-3.405C336.144,181.871,336.824,180.162,336.937,180.204z"/>
			</g>
			<g>
				
					<ellipse transform="matrix(-0.7593 0.6507 -0.6507 -0.7593 679.515 118.5196)" fill="#6F4439" cx="317.84" cy="184.919" rx="0.2" ry="3.263"/>
			</g>
			<g>
				<path fill="#6F4439" d="M307.544,185.477c-0.019,0.022-0.224-0.126-0.585-0.413c-0.365-0.28-0.854-0.732-1.424-1.327
					c-1.14-1.184-2.521-3.036-3.551-5.34c-1.024-2.308-1.478-4.573-1.596-6.213c-0.062-0.82-0.069-1.488-0.035-1.946
					c0.027-0.459,0.056-0.71,0.084-0.709c0.072,0.001,0.039,1.015,0.232,2.627c0.188,1.609,0.676,3.815,1.68,6.079
					c1.011,2.258,2.324,4.096,3.396,5.313C306.814,184.769,307.591,185.422,307.544,185.477z"/>
			</g>
			<g>
				<path fill="#6F4439" d="M307.148,181.302c-0.125,0.021-0.496-2.712-1.687-5.865c-1.169-3.163-2.681-5.469-2.573-5.536
					c0.041-0.027,0.472,0.514,1.054,1.467c0.582,0.952,1.296,2.329,1.895,3.928c0.596,1.6,0.961,3.106,1.146,4.208
					C307.169,180.605,307.197,181.296,307.148,181.302z"/>
			</g>
			<g opacity="0.2">
				<path fill="#FFFFFF" d="M284.288,197.917c1.911,0.325,3.519,0.703,5.447,0.504c1.929-0.198,3.892-1.262,4.596-3.068
					c0.808-2.075-0.221-4.369-1.228-6.354c-0.834-1.646-1.669-3.29-2.503-4.935c-0.663-1.308-1.504-2.775-3.401-2.381
					c-0.467,0.097-0.911,0.3-1.311,0.562c-2.846,1.866-5.071,4.645-6.31,7.811c-0.716,1.827-0.474,3.936,0.739,5.477
					C281.057,196.471,282.484,197.611,284.288,197.917z"/>
			</g>
		</g>
		<g>
			<path fill="#6F4439" d="M342.468,189.933c0,0-0.224-0.045-0.653-0.157c-0.443-0.119-1.077-0.287-1.898-0.506
				c-1.678-0.459-4.119-1.127-7.239-1.981l0.028,0.003c-3.443,0.067-7.745,0.15-12.728,0.247l0.059-0.014
				c-3.317,1.664-6.981,3.501-10.938,5.484c-1.979,0.992-4.031,2.02-6.15,3.08c-2.123,1.042-4.277,2.233-6.643,3.125
				c-2.352,0.9-4.874,1.616-7.528,1.844c-1.326,0.113-2.678,0.104-4.029-0.068c-1.358-0.12-2.739-0.629-3.832-1.526
				c-1.102-0.896-1.904-2.116-2.444-3.429c-0.547-1.315-0.815-2.755-0.8-4.201c0.008-1.444,0.292-2.899,0.834-4.256
				c0.512-1.366,1.22-2.652,1.974-3.913c3.088-4.826,7.195-8.673,11.303-12.093c1.033-0.853,2.075-1.676,3.12-2.474
				c0.526-0.395,1.039-0.799,1.584-1.165l0.804-0.56l0.829-0.509c2.215-1.343,4.523-2.394,6.813-3.298
				c4.595-1.792,9.114-3.028,13.354-4.097c4.243-1.055,8.218-1.941,11.846-2.747c7.262-1.584,13.098-3.037,17.061-4.281
				c1.986-0.607,3.509-1.14,4.54-1.503c0.503-0.182,0.893-0.322,1.17-0.422c0.266-0.093,0.404-0.131,0.404-0.131
				s-2.104,0.941-6.067,2.206c-3.954,1.292-9.791,2.79-17.045,4.409c-3.624,0.823-7.593,1.725-11.827,2.792
				c-4.229,1.081-8.733,2.327-13.298,4.118c-2.275,0.904-4.565,1.952-6.75,3.281c-2.173,1.335-4.218,3.003-6.286,4.684
				c-4.086,3.407-8.168,7.241-11.214,12.002c-1.481,2.464-2.776,5.137-2.749,7.961c-0.016,1.395,0.243,2.781,0.768,4.047
				c0.52,1.265,1.289,2.431,2.324,3.275c1.038,0.848,2.314,1.327,3.636,1.447c1.32,0.17,2.646,0.181,3.947,0.072
				c2.608-0.221,5.099-0.921,7.43-1.808c2.343-0.876,4.482-2.052,6.614-3.093c2.123-1.054,4.179-2.077,6.162-3.061
				c3.966-1.968,7.638-3.791,10.962-5.44l0.029-0.014h0.03c4.982-0.063,9.285-0.119,12.729-0.162h0.015l0.014,0.004
				c3.109,0.892,5.543,1.589,7.215,2.068c0.814,0.24,1.443,0.424,1.885,0.554C342.254,189.855,342.468,189.933,342.468,189.933z"/>
		</g>
		<g opacity="0.4">
			<path fill="#6F4439" d="M392.339,200.36c-0.822-0.142-1.656,0.096-2.463,0.312c-14.297,3.826-30.195,1.191-42.493-7.044
				c-3.092-2.07-4.483-3.556-6.882-4.2l-1.892-0.516c7.072,7.13,14.684,12.647,24.169,15.948c9.486,3.3,20.298,3.503,29.354-0.839
				c0.872-0.417,1.845-1.065,1.839-2.032C393.965,201.155,393.162,200.503,392.339,200.36z"/>
		</g>
	</g>
</g>
<g id="Character_00000123411442230577162210000000543371609935833242_">
	<g>
		<g>
			<polygon fill="#263238" points="219.731,388.526 216.518,386.848 218.093,385.425 			"/>
		</g>
		<g>
			<polygon fill="#FFFFFF" points="212.159,384.835 215.92,381.489 218.124,385.56 216.518,386.848 			"/>
		</g>
		<g>
			<g>
				<polygon fill="#FF725E" points="148.871,270.997 170.321,263.846 182.268,253.749 184.854,257.843 194.875,255.546 
					223.241,262.917 227.816,271.006 252.03,277.63 252.139,311.585 247.743,373.712 248.385,383.588 132.542,383.588 
					130.631,342.32 130.543,316.649 				"/>
			</g>
			<g>
				<path fill="#AE7461" d="M210.137,365.877l25.008-1.212c0,0,4.852,2.768,6.111,10.699c1.26,7.931,0,7.931,0,7.931l-12.594,4.251
					l-26.719-0.614l-9.69-12.172l7.301-4.311L210.137,365.877z"/>
			</g>
			<g>
				<path fill="#FF725E" d="M123.631,356.725c0,0,23.984-37.818,19.948-32.347c-0.496,0.672,2.438-2.169,6.216-11.442
					c3.628-8.905,13.091-46.291,13.091-46.291l-21.613,5.733c-5.685,1.508-10.311,1.999-15.21,5.252
					c-4.264,2.833-8.715,8.398-11.609,12.62c-10.787,15.735-30.536,46.384-33.031,50.302c-3.563,5.593-10.773,20.025-10.693,28.639
					c0.069,7.504,1.529,14.19,12.985,20.17c10.568,5.516,78.129,1.674,78.129,1.674l-0.372-28.087L123.631,356.725z"/>
			</g>
			<g>
				<path fill="#FF725E" d="M318.978,349.519c-0.991-2.47-38.766-44.236-57.731-63.567c-5.692-5.803-9.216-8.322-9.216-8.322
					l-6.248,40.713c0,0,2.147,9.386,3.455,16.331c0.281,1.5,19.898,14.846,19.898,14.846l4.204,2.693l-38.347,10.135l1.601,24.362
					l68.653-1.806C314.16,381.492,328.356,372.891,318.978,349.519z"/>
			</g>
			<g>
				<g>
					<path fill="#263238" d="M305.246,384.904c0,0-0.117,0.015-0.347,0.026c-0.244,0.012-0.584,0.025-1.02,0.045
						c-0.914,0.032-2.236,0.079-3.935,0.139c-3.439,0.104-8.4,0.255-14.56,0.441c-12.355,0.341-29.512,0.813-48.787,1.345
						l-0.184,0.005l-0.012-0.183c-0.15-2.279-0.31-4.701-0.471-7.151c-0.389-5.945-0.768-11.729-1.126-17.212l-0.011-0.162
						l0.16-0.032c4.108-0.849,8.036-1.909,11.799-2.929c3.758-1.042,7.355-2.039,10.762-2.983
						c6.813-1.891,12.885-3.491,17.997-4.594c5.104-1.126,9.246-1.742,12.108-1.969c1.427-0.155,2.538-0.155,3.287-0.169
						c0.363-0.003,0.645-0.007,0.851-0.01c0.19,0,0.288,0.008,0.288,0.008s-0.098,0.016-0.288,0.026
						c-0.207,0.011-0.487,0.024-0.85,0.043c-0.748,0.033-1.854,0.054-3.276,0.23c-2.852,0.266-6.979,0.916-12.069,2.073
						c-5.097,1.134-11.155,2.761-17.961,4.671c-3.405,0.954-7.001,1.961-10.755,3.013c-3.764,1.028-7.693,2.096-11.817,2.954
						l0.149-0.195c0.362,5.481,0.744,11.267,1.136,17.211c0.161,2.449,0.32,4.873,0.47,7.151l-0.195-0.178
						c19.276-0.483,36.435-0.912,48.79-1.223c6.16-0.138,11.123-0.248,14.563-0.324c1.699-0.03,3.022-0.053,3.937-0.069
						c0.437-0.004,0.776-0.007,1.021-0.009C305.129,384.895,305.246,384.904,305.246,384.904z"/>
				</g>
			</g>
			<g>
				<path fill="#6F4439" d="M215.101,376.002c-0.125-0.336-0.402-0.587-0.669-0.824c-1.355-1.207-2.711-2.413-4.067-3.619
					l-2.355,7.015c0.989,0.757,2.284,1.1,3.518,0.934c1.233-0.168,2.391-0.844,3.143-1.836
					C215.033,377.193,215.311,376.563,215.101,376.002z"/>
			</g>
			<g>
				<g>
					<path fill="#455A64" d="M160.521,336.856l51.638,47.979l4.875,2.311l2.698,1.382l-1.259-2.325l-2.552-4.713l-52.276-48.012
						c-0.886-0.815-2.25-0.808-3.129,0.016l0,0C159.541,334.404,159.544,335.949,160.521,336.856z"/>
				</g>
				<g>
					<g>
						<path fill="#AE7461" d="M161.481,363.829l4.048,0.72c0,0,20.976-7.741,23.973-8.132c2.315-0.302,13.348,2.291,18.24,3.485
							c1.971,0.481,3.414,2.258,3.323,4.284c-0.001,0.031-0.003,0.062-0.004,0.094c-0.098,1.631-1.189,3.039-2.702,3.659l0,0
							c0,0,4.121,1.278,2.257,5.634c-1.379,3.224-5.728,2.726-5.728,2.726l-7.256,0.139c0,0,1.851,0.557,4.641,1.209
							c2.991,0.7,3.792,1.241,3.792,1.241s4.379,4.21,0.149,5.968c-2.582,1.073-4.427,0.782-4.427,0.782s1.265,4.524-2.123,5.306
							c-3.387,0.782-25.765-0.922-25.765-0.922s-1.186-0.665-5.746-1.056l-6.312-0.438L161.481,363.829z"/>
					</g>
					<g>
						<g>
							<path fill="#6F4439" d="M161.481,363.829c0,0,0.011,0.156,0.02,0.446c0.008,0.303,0.019,0.728,0.032,1.281
								c0.024,1.135,0.059,2.783,0.104,4.907c0.08,4.258,0.196,10.413,0.339,18.062l-0.125-0.133
								c1.822,0.123,3.76,0.254,5.793,0.391c1.018,0.067,2.062,0.176,3.12,0.327c1.061,0.172,2.128,0.32,3.211,0.773l-0.064-0.02
								c4.677,0.336,9.759,0.669,15.153,0.911c2.697,0.112,5.477,0.224,8.311,0.173c0.705-0.029,1.424-0.047,2.106-0.165
								c0.675-0.128,1.306-0.457,1.71-1.005c0.415-0.541,0.589-1.249,0.625-1.955c0.041-0.708-0.038-1.444-0.211-2.134l-0.066-0.267
								l0.276,0.029c0.9,0.096,1.875-0.03,2.799-0.263c0.92-0.25,1.891-0.561,2.595-1.168c0.732-0.614,0.798-1.678,0.403-2.563
								c-0.36-0.902-0.994-1.722-1.682-2.432l0.025,0.021c-0.982-0.518-2.26-0.85-3.486-1.154c-1.645-0.429-3.279-0.853-4.896-1.272
								l-1.339-0.348l1.391-0.026c2.457-0.047,4.879-0.093,7.256-0.137l0.008-0.001l0.018,0.002c0.978,0.075,2-0.021,2.925-0.331
								c0.932-0.298,1.755-0.878,2.28-1.673c0.131-0.197,0.227-0.416,0.338-0.625l0.246-0.68c0.067-0.23,0.107-0.465,0.162-0.696
								c0.029-0.234,0.043-0.47,0.052-0.703c-0.014-0.94-0.444-1.825-1.146-2.435c-0.351-0.303-0.749-0.555-1.171-0.74l-0.159-0.066
								l-0.08-0.03l-0.038-0.014c0.011,0.305-0.039-0.42-0.023-0.35l0.02-0.009c0.104-0.049,0.212-0.09,0.312-0.146
								c0.204-0.106,0.401-0.224,0.584-0.362c0.74-0.537,1.291-1.319,1.534-2.181c0.24-0.862,0.178-1.801-0.176-2.608
								c-0.353-0.811-0.976-1.487-1.724-1.924c-0.738-0.456-1.638-0.567-2.499-0.798c-0.862-0.205-1.714-0.407-2.559-0.608
								c-1.688-0.396-3.343-0.771-4.961-1.122c-1.618-0.35-3.201-0.672-4.747-0.948c-0.773-0.138-1.537-0.262-2.292-0.365
								c-0.75-0.087-1.51-0.196-2.216-0.139c-1.425,0.252-2.808,0.727-4.128,1.133c-1.324,0.418-2.595,0.843-3.816,1.255
								c-2.436,0.842-4.677,1.615-6.705,2.316c-4.029,1.437-7.206,2.567-9.373,3.34l-0.015,0.007l-0.015-0.003
								c-1.359-0.258-2.361-0.446-3.037-0.574c-0.326-0.063-0.571-0.111-0.749-0.146
								C161.568,363.852,161.481,363.829,161.481,363.829c-0.003-0.004,0.075,0.007,0.235,0.032
								c0.176,0.027,0.417,0.066,0.739,0.118c0.687,0.114,1.703,0.284,3.084,0.514l-0.029,0.002
								c2.141-0.805,5.306-1.979,9.343-3.432c2.018-0.726,4.254-1.52,6.693-2.357c1.22-0.419,2.49-0.85,3.814-1.274
								c1.331-0.414,2.68-0.892,4.177-1.161c0.777-0.065,1.522,0.047,2.288,0.131c0.762,0.1,1.53,0.222,2.306,0.358
								c1.552,0.272,3.14,0.591,4.762,0.937c1.621,0.345,3.279,0.718,4.97,1.108c0.845,0.198,1.699,0.4,2.562,0.603
								c0.431,0.104,0.864,0.209,1.3,0.313c0.447,0.108,0.89,0.279,1.295,0.517c0.811,0.471,1.487,1.201,1.873,2.083
								c0.387,0.883,0.457,1.903,0.197,2.847c-0.265,0.944-0.863,1.794-1.665,2.377c-0.198,0.149-0.412,0.277-0.632,0.394
								c-0.108,0.062-0.226,0.105-0.338,0.158l-0.021,0.01c-0.012,0.078-0.021-0.644-0.003-0.335l0.048,0.017l0.089,0.033
								l0.173,0.072c0.458,0.2,0.883,0.47,1.267,0.8c0.38,0.335,0.698,0.746,0.925,1.207c0.24,0.461,0.319,0.983,0.35,1.495
								c-0.008,0.256-0.024,0.514-0.056,0.768c-0.057,0.247-0.101,0.501-0.172,0.746l-0.259,0.719
								c-0.119,0.229-0.224,0.469-0.368,0.686c-0.575,0.876-1.483,1.508-2.472,1.824c-0.991,0.331-2.033,0.431-3.088,0.35
								l0.024,0.002c-2.376,0.046-4.799,0.093-7.255,0.141l0.051-0.374c1.612,0.419,3.238,0.84,4.876,1.265
								c1.258,0.322,2.486,0.617,3.61,1.21l0.011,0.006l0.015,0.016c0.73,0.756,1.375,1.584,1.772,2.566
								c0.207,0.482,0.31,1.03,0.246,1.571c-0.037,0.557-0.369,1.045-0.746,1.411c-0.821,0.7-1.809,0.993-2.76,1.257
								c-0.969,0.239-1.947,0.375-2.951,0.269l0.21-0.237c0.186,0.748,0.264,1.498,0.222,2.258c-0.042,0.751-0.226,1.53-0.701,2.154
								c-0.464,0.634-1.203,1.009-1.934,1.145c-0.738,0.128-1.455,0.14-2.17,0.17c-2.856,0.048-5.635-0.069-8.336-0.187
								c-5.4-0.253-10.481-0.597-15.161-0.948l-0.022-0.002l-0.042-0.018c-0.96-0.403-2.069-0.583-3.103-0.746
								c-1.049-0.154-2.082-0.267-3.098-0.337c-2.032-0.145-3.969-0.283-5.791-0.414l-0.124-0.009l-0.001-0.124
								c-0.08-7.688-0.144-13.873-0.189-18.153c-0.017-2.109-0.03-3.747-0.039-4.874c-0.002-0.542-0.003-0.958-0.004-1.255
								C161.476,363.965,161.481,363.829,161.481,363.829z"/>
						</g>
					</g>
				</g>
				<g>
					<g>
						
							<ellipse transform="matrix(0.0915 -0.9958 0.9958 0.0915 -182.0793 535.2396)" fill="#6F4439" cx="202.284" cy="367.403" rx="0.192" ry="5.761"/>
					</g>
				</g>
				<g>
					<g>
						<path fill="#6F4439" d="M185.366,388.526c-0.023,0.039-0.328-0.074-0.686-0.446c-0.354-0.363-0.735-1.022-0.766-1.829
							c-0.027-0.808,0.304-1.493,0.631-1.88c0.329-0.397,0.626-0.531,0.651-0.495c0.038,0.047-0.187,0.253-0.432,0.652
							c-0.245,0.394-0.492,1.011-0.468,1.71c0.027,0.696,0.318,1.295,0.591,1.67C185.161,388.289,185.4,388.478,185.366,388.526z"/>
					</g>
				</g>
				<g>
					<g>
						<path fill="#6F4439" d="M185.03,380.935c-0.007,0.041-0.391,0.015-0.893-0.323c-0.491-0.324-1.077-1.021-1.184-1.967
							c-0.098-0.945,0.324-1.754,0.733-2.175c0.417-0.438,0.785-0.547,0.802-0.508c0.032,0.053-0.27,0.242-0.594,0.682
							c-0.322,0.427-0.645,1.152-0.561,1.96c0.092,0.808,0.563,1.446,0.97,1.793C184.713,380.755,185.051,380.875,185.03,380.935z"
							/>
					</g>
				</g>
				<g>
					<g>
						<path fill="#6F4439" d="M184.899,372.094c-0.025,0.034-0.387-0.177-0.753-0.729c-0.364-0.538-0.689-1.464-0.515-2.484
							c0.181-1.02,0.8-1.78,1.326-2.163c0.532-0.396,0.944-0.471,0.956-0.432c0.025,0.058-0.335,0.222-0.783,0.639
							c-0.444,0.408-0.962,1.118-1.122,2.022c-0.156,0.904,0.091,1.747,0.371,2.282
							C184.659,371.771,184.942,372.049,184.899,372.094z"/>
					</g>
				</g>
				<g>
					<g>
						<path fill="#6F4439" d="M187.563,360.749c-0.035,0.029-0.203-0.091-0.341-0.385c-0.14-0.29-0.207-0.758-0.071-1.235
							c0.136-0.479,0.438-0.843,0.708-1.016c0.272-0.178,0.478-0.192,0.492-0.148c0.045,0.094-0.617,0.441-0.832,1.268
							C187.27,360.051,187.652,360.692,187.563,360.749z"/>
					</g>
				</g>
				<g>
					<g>
						<ellipse fill="#6F4439" cx="195.08" cy="376.226" rx="3.127" ry="0.191"/>
					</g>
				</g>
				<g>
					<g>
						
							<ellipse transform="matrix(0.2088 -0.978 0.978 0.2088 -220.8891 495.8054)" fill="#6F4439" cx="195.985" cy="384.422" rx="0.192" ry="5.746"/>
					</g>
				</g>
			</g>
			<g>
				<g>
					<path fill="#263238" d="M145.793,317.507c-0.012-0.004,0.032-0.17,0.128-0.478c0.086-0.313,0.265-0.755,0.414-1.351
						c0.35-1.174,0.743-2.907,1.039-5.076c0.288-2.169,0.459-4.779,0.33-7.67c-0.15-2.885-0.56-6.065-1.587-9.235
						c-1.058-3.152-2.643-5.965-4.484-8.18c-1.815-2.249-3.893-3.871-5.735-5.032c-1.868-1.135-3.508-1.832-4.665-2.229
						c-0.569-0.229-1.035-0.338-1.338-0.45c-0.306-0.102-0.467-0.162-0.464-0.176c0.003-0.012,0.17,0.022,0.484,0.102
						c0.311,0.088,0.785,0.175,1.365,0.383c1.178,0.357,2.849,1.022,4.756,2.14c1.882,1.145,4.009,2.769,5.866,5.039
						c1.886,2.238,3.502,5.081,4.577,8.284c1.042,3.218,1.443,6.432,1.575,9.34c0.112,2.916-0.089,5.545-0.414,7.725
						c-0.333,2.179-0.77,3.915-1.165,5.082c-0.171,0.593-0.375,1.028-0.484,1.333C145.874,317.356,145.806,317.513,145.793,317.507z
						"/>
				</g>
			</g>
			<g>
				<g>
					<path fill="#263238" d="M252.03,310.476c0.013,0,0.015,0.169,0.005,0.491c-0.016,0.362-0.034,0.828-0.059,1.407
						c-0.071,1.268-0.17,3.023-0.289,5.172c-0.284,4.406-0.671,10.417-1.1,17.056c-0.47,6.639-0.896,12.647-1.209,17.051
						c-0.17,2.146-0.31,3.899-0.41,5.164c-0.054,0.577-0.098,1.043-0.13,1.403c-0.035,0.32-0.059,0.487-0.072,0.486
						c-0.013-0.001-0.015-0.171-0.005-0.492c0.015-0.362,0.034-0.829,0.059-1.408c0.07-1.268,0.169-3.023,0.289-5.172
						c0.283-4.404,0.67-10.416,1.098-17.057c0.471-6.636,0.897-12.643,1.21-17.045c0.172-2.147,0.311-3.899,0.411-5.166
						c0.054-0.577,0.098-1.043,0.131-1.403C251.992,310.643,252.017,310.475,252.03,310.476z"/>
				</g>
			</g>
			<g>
				<g>
					<path fill="#263238" d="M207.238,302.8c-0.006,0.007-0.092-0.064-0.252-0.207c-0.177-0.164-0.408-0.376-0.699-0.643
						c-0.625-0.594-1.503-1.429-2.612-2.48c-1.121-1.09-2.471-2.401-4.016-3.904c-1.535-1.527-3.286-3.225-5.09-5.201l0.282-0.072
						c-0.851,3.691-1.809,7.851-2.834,12.292l-0.107,0.465l-0.239-0.412c-1.069-1.842-2.175-3.767-3.28-5.744
						c-4.985-8.917-9.277-17.104-12.493-22.97c-1.602-2.909-2.904-5.273-3.821-6.939c-0.442-0.798-0.791-1.428-1.044-1.884
						c-0.107-0.201-0.193-0.364-0.263-0.496c-0.058-0.112-0.084-0.171-0.079-0.175c0.005-0.004,0.044,0.049,0.112,0.155
						c0.079,0.126,0.176,0.282,0.296,0.476c0.269,0.448,0.638,1.066,1.107,1.848c0.945,1.615,2.298,3.962,3.928,6.883
						c3.277,5.836,7.608,14.003,12.589,22.914c1.104,1.976,2.207,3.899,3.271,5.742l-0.346,0.053
						c1.042-4.439,2.017-8.595,2.882-12.281l0.071-0.304l0.211,0.233c1.775,1.97,3.519,3.688,5.033,5.229
						c1.524,1.523,2.857,2.854,3.962,3.957c1.081,1.08,1.938,1.937,2.548,2.545c0.275,0.281,0.496,0.505,0.664,0.678
						C207.17,302.711,207.244,302.793,207.238,302.8z"/>
				</g>
			</g>
			<g>
				<g>
					<path fill="#263238" d="M208.696,301.842c-0.016-0.014,0.193-0.294,0.584-0.814c0.411-0.562,0.967-1.32,1.659-2.264
						c1.409-1.955,3.381-4.753,5.674-8.09l0.126-0.184l0.147,0.168c0.96,1.092,2.112,2.124,3.432,3.054
						c1.314,0.937,2.766,1.81,4.197,2.806l-0.296,0.112c0.021-0.084,0.042-0.175,0.064-0.268c1.537-6.354,2.903-12.11,3.524-16.344
						c0.328-2.114,0.523-3.833,0.64-5.024c0.055-0.563,0.099-1.019,0.134-1.372c0.033-0.313,0.057-0.479,0.07-0.478
						c0.013,0,0.015,0.168,0.007,0.481c-0.011,0.317-0.02,0.783-0.062,1.381c-0.071,1.196-0.226,2.927-0.521,5.052
						c-0.555,4.259-1.884,10.042-3.42,16.394c-0.021,0.091-0.043,0.183-0.063,0.268l-0.065,0.273l-0.23-0.16
						c-1.419-0.989-2.868-1.865-4.196-2.817c-1.333-0.946-2.508-2.011-3.475-3.129l0.273-0.016c-2.32,3.323-4.333,6.096-5.792,8.017
						c-0.731,0.96-1.323,1.707-1.74,2.208c-0.207,0.252-0.375,0.438-0.487,0.564C208.766,301.786,208.704,301.848,208.696,301.842z"
						/>
				</g>
			</g>
			<g>
				<g>
					<path fill="#263238" d="M206.439,358.344c-0.013,0-0.02-0.194-0.02-0.565c0.004-0.406,0.011-0.943,0.018-1.618
						c0.03-1.446,0.07-3.47,0.122-5.951c0.095-5.061,0.225-11.985,0.367-19.634c0.077-7.652,0.147-14.577,0.198-19.64
						c0.021-2.481,0.037-4.505,0.049-5.952c0.013-0.674,0.021-1.211,0.029-1.618c0.011-0.369,0.023-0.563,0.036-0.563
						s0.027,0.193,0.042,0.563c0.011,0.407,0.025,0.944,0.043,1.617c0.018,1.448,0.042,3.471,0.072,5.953
						c0.035,5.028,0.023,11.974-0.086,19.645c-0.111,7.67-0.299,14.612-0.479,19.637c-0.102,2.48-0.184,4.502-0.244,5.948
						c-0.037,0.673-0.066,1.211-0.089,1.615C206.472,358.151,206.452,358.345,206.439,358.344z"/>
				</g>
			</g>
			<g>
				<g>
					<path fill="#263238" d="M161.843,391.032c-0.013,0.001-0.026-0.188-0.042-0.551c-0.013-0.395-0.031-0.924-0.054-1.591
						c-0.032-1.421-0.078-3.426-0.135-5.912c-0.083-5.058-0.199-12.066-0.331-20.03l0.164,0.184
						c-1.844-0.307-3.767-0.627-5.729-0.954c-9.218-1.564-17.561-2.981-23.639-4.013c-2.996-0.527-5.433-0.957-7.156-1.26
						c-0.818-0.152-1.466-0.272-1.942-0.361c-0.203-0.042-0.368-0.076-0.503-0.104c-0.113-0.024-0.171-0.041-0.169-0.048
						c0.001-0.007,0.061-0.003,0.176,0.01c0.138,0.018,0.305,0.039,0.51,0.066c0.479,0.071,1.131,0.168,1.953,0.29
						c1.728,0.274,4.17,0.661,7.174,1.139c6.081,1.003,14.427,2.379,23.649,3.9c1.961,0.329,3.883,0.651,5.727,0.961l0.163,0.027
						l0.001,0.156c0.08,7.964,0.149,14.974,0.2,20.031c0.009,2.487,0.016,4.495,0.021,5.914c-0.005,0.668-0.008,1.199-0.011,1.592
						C161.863,390.843,161.854,391.032,161.843,391.032z"/>
				</g>
			</g>
			<g>
				<g>
					<path fill="#263238" d="M123.631,356.725c0.007,0.076-1.286,0.163-3.305,0.643c-1.011,0.233-2.191,0.602-3.468,1.097
						c-1.268,0.516-2.627,1.168-3.979,1.987c-1.344,0.833-2.543,1.746-3.58,2.643c-1.02,0.913-1.885,1.798-2.551,2.593
						c-1.344,1.581-2.009,2.692-2.073,2.651c-0.022-0.013,0.132-0.297,0.433-0.799c0.146-0.254,0.336-0.559,0.584-0.894
						c0.243-0.336,0.505-0.734,0.847-1.133c0.647-0.825,1.504-1.742,2.525-2.682c1.037-0.924,2.249-1.862,3.613-2.706
						c1.373-0.831,2.758-1.486,4.052-1.991c1.302-0.482,2.506-0.829,3.537-1.031c0.51-0.124,0.983-0.176,1.394-0.24
						c0.411-0.068,0.768-0.1,1.061-0.114C123.306,356.708,123.629,356.698,123.631,356.725z"/>
				</g>
			</g>
			<g>
				<g>
					<path fill="#263238" d="M143.579,324.378c0.011,0.007-0.047,0.126-0.17,0.349c-0.147,0.257-0.33,0.574-0.55,0.961
						c-0.521,0.875-1.227,2.059-2.085,3.498c-1.775,2.945-4.251,6.999-7.005,11.467c-2.755,4.467-5.267,8.5-7.101,11.408
						c-0.901,1.414-1.642,2.575-2.189,3.434c-0.246,0.37-0.448,0.676-0.611,0.923c-0.144,0.209-0.224,0.314-0.236,0.308
						c-0.011-0.008,0.048-0.128,0.171-0.35c0.147-0.257,0.329-0.575,0.55-0.961c0.521-0.875,1.228-2.058,2.086-3.499
						c1.776-2.944,4.25-6.999,7.005-11.466c2.753-4.465,5.264-8.497,7.099-11.405c0.901-1.414,1.642-2.576,2.19-3.435
						c0.246-0.372,0.448-0.677,0.611-0.925C143.486,324.478,143.568,324.371,143.579,324.378z"/>
				</g>
			</g>
			<g opacity="0.3">
				<g>
					<path d="M131.168,353.906c8.182-6.966,13.155-19.033,12.257-29.742l-12.651,21.232L131.168,353.906z"/>
				</g>
			</g>
			<g opacity="0.3">
				<polygon points="175.622,273.145 191.002,307.944 196.534,297.568 204.971,300.601 194.691,290.256 191.833,302.542 				"/>
			</g>
			<g opacity="0.3">
				<g>
					<path d="M272.772,352.259c6.564-3.466,12.74-6.143,20.134-5.475c0.661,0.061,2.402,0.258,2.975,0.594
						c0.572,0.338,1.263,1.48,1.19,2.141c-8.385-0.229-16.021,0.584-23.648,2.635"/>
				</g>
			</g>
			<g opacity="0.3">
				<g>
					<path d="M252.36,306.136c-0.035,0.565-1.928,29.239-1.964,29.806C255.251,326.481,256.824,315.786,252.36,306.136z"/>
				</g>
			</g>
		</g>
		<g>
			<g>
				<g>
					<g>
						<g>
							<g>
								<g>
									<path fill="#263238" d="M209.705,165.518c1.983-2.733,5.825-3.948,9.019-2.852c4.315-2.476,10.32-1.456,13.578,2.303
										c3.168-1.287,6.996-0.786,9.727,1.271s4.268,5.599,3.904,8.999c3.463-0.031,6.816,2.346,7.936,5.623
										s-0.079,7.208-2.836,9.303c3.502,1.749,5.289,6.318,3.9,9.978c-1.387,3.661-5.754,5.897-9.534,4.885l-35.606-30.051
										C207.76,172.28,207.723,168.251,209.705,165.518z"/>
								</g>
							</g>
						</g>
					</g>
				</g>
			</g>
			<g>
				<g>
					<path fill="#AE7461" d="M217.599,170.471l-1.736-0.26c-18.878-1.717-30.882,13.357-32.077,32.275l-5.904,55.729l30.361,40.479
						l9.779-14.393l3.035-16.791c0,0,18.411-0.097,21.334-18.05c1.411-8.671,2.865-26.763,3.991-43.152
						C247.591,188.687,235.066,173.093,217.599,170.471z"/>
					<g>
						<g>
							<g>
								<g>
									<g>
										<g>
											<g>
												<g>
													<g>
														<g>
															<path fill="#6F4439" d="M221.03,267.532c0,0-11.411-1.06-22.353-10.463c0,0,3.561,13.806,21.573,14.906
																L221.03,267.532z"/>
														</g>
													</g>
												</g>
											</g>
										</g>
									</g>
								</g>
							</g>
						</g>
					</g>
					<g>
						<g>
							<g>
								<g>
									<g>
										<g>
											<g>
												<g>
													<g>
														<g>
															<g>
																<g>
																	<g>
																		<path fill="#263238" d="M237.487,224.45c-0.155,1.364-1.439,2.356-2.866,2.22c-1.424-0.137-2.456-1.35-2.3-2.713
																			c0.156-1.364,1.439-2.358,2.863-2.222C236.611,221.871,237.642,223.086,237.487,224.45z"/>
																	</g>
																</g>
															</g>
														</g>
													</g>
												</g>
											</g>
										</g>
									</g>
								</g>
							</g>
						</g>
					</g>
					<g>
						<g>
							<g>
								<g>
									<g>
										<g>
											<g>
												<g>
													<g>
														<g>
															<g>
																<g>
																	<g>
																		<g>
																			<path fill="#263238" d="M241.256,215.472c-0.369,0.287-2.098-1.446-4.864-1.854
																				c-2.756-0.447-4.998,0.67-5.247,0.287c-0.125-0.173,0.29-0.729,1.27-1.239c0.965-0.51,2.542-0.91,4.264-0.644
																				c1.719,0.268,3.073,1.119,3.808,1.894C241.239,214.696,241.437,215.345,241.256,215.472z"/>
																		</g>
																	</g>
																</g>
															</g>
														</g>
													</g>
												</g>
											</g>
										</g>
									</g>
								</g>
							</g>
						</g>
					</g>
					<g>
						<g>
							<g>
								<g>
									<g>
										<g>
											<g>
												<g>
													<g>
														<g>
															<g>
																<g>
																	<g>
																		<path fill="#263238" d="M214.072,221.364c-0.156,1.363-1.439,2.355-2.866,2.219
																			c-1.424-0.136-2.456-1.35-2.3-2.713c0.156-1.363,1.44-2.357,2.864-2.222
																			C213.196,218.783,214.228,220,214.072,221.364z"/>
																	</g>
																</g>
															</g>
														</g>
													</g>
												</g>
											</g>
										</g>
									</g>
								</g>
							</g>
						</g>
					</g>
					<g>
						<g>
							<g>
								<g>
									<g>
										<g>
											<g>
												<g>
													<g>
														<g>
															<g>
																<g>
																	<g>
																		<g>
																			<path fill="#263238" d="M214.87,211.117c-0.37,0.287-2.101-1.446-4.865-1.853
																				c-2.756-0.446-4.999,0.671-5.248,0.287c-0.125-0.172,0.288-0.729,1.271-1.238c0.966-0.51,2.542-0.91,4.263-0.645
																				c1.72,0.268,3.073,1.12,3.809,1.893C214.85,210.341,215.049,210.99,214.87,211.117z"/>
																		</g>
																	</g>
																</g>
															</g>
														</g>
													</g>
												</g>
											</g>
										</g>
									</g>
								</g>
							</g>
						</g>
					</g>
					<g>
						<g>
							<g>
								<g>
									<g>
										<g>
											<g>
												<g>
													<g>
														<g>
															<g>
																<g>
																	<g>
																		<path fill="#263238" d="M220.898,232.97c0.011-0.16,1.773-0.198,4.611-0.137c0.716,0.034,1.406-0.006,1.598-0.471
																			c0.242-0.484,0.062-1.29-0.157-2.163c-0.407-1.807-0.833-3.702-1.281-5.687
																			c-1.75-8.089-2.903-14.695-2.577-14.763c0.327-0.066,2.01,6.434,3.759,14.521
																			c0.415,1.992,0.812,3.891,1.188,5.707c0.146,0.842,0.47,1.821-0.049,2.825c-0.27,0.499-0.845,0.804-1.315,0.858
																			c-0.473,0.07-0.872,0.019-1.224-0.014C222.626,233.376,220.886,233.127,220.898,232.97z"/>
																	</g>
																</g>
															</g>
														</g>
													</g>
												</g>
											</g>
										</g>
									</g>
								</g>
							</g>
						</g>
					</g>
					<g>
						<g>
							<g>
								<g>
									<g>
										<g>
											<g>
												<g>
													<g>
														<path fill="#263238" d="M216.091,203.226c-0.436,0.668-2.721-0.333-5.621-0.72c-2.89-0.453-5.398-0.146-5.589-0.905
															c-0.079-0.36,0.503-0.942,1.61-1.4c1.098-0.46,2.725-0.737,4.461-0.487c1.735,0.254,3.189,0.977,4.079,1.726
															C215.929,202.188,216.288,202.906,216.091,203.226z"/>
													</g>
												</g>
											</g>
										</g>
									</g>
								</g>
							</g>
						</g>
					</g>
					<g>
						<g>
							<g>
								<g>
									<g>
										<g>
											<g>
												<g>
													<g>
														<path fill="#263238" d="M241.768,207.797c-0.533,0.601-2.411-0.186-4.719-0.371c-2.302-0.267-4.294,0.14-4.7-0.553
															c-0.176-0.335,0.174-0.949,1.07-1.492c0.881-0.542,2.323-0.935,3.909-0.78c1.584,0.157,2.921,0.823,3.681,1.525
															C241.781,206.833,242.006,207.503,241.768,207.797z"/>
													</g>
												</g>
											</g>
										</g>
									</g>
								</g>
							</g>
						</g>
					</g>
					<g>
						<g>
							<g>
								<g>
									<g>
										<g>
											<g>
												<g>
													<path fill="#263238" d="M245.889,197.798c0,0-3.053-11.977-8.09-15.421c-6.098-4.169-10.013,2.624-16.016-0.069
														c-6.004-2.693-11.822-6.688-18.955-2.806c-7.806,4.25-5.08,8.462-6.711,16.378
														c-6.614,32.094-13.897,40.357-13.29,24.864c0.066-1.697-4.369-3.721-3.996-10.879
														c0.483-9.282,1.799-20.442,4.815-26.628c2.543-5.213,6.23-8.526,12.45-11.854c9.819-5.253,21.971-3.574,30.086-1.507
														C234.298,171.942,248.758,183.807,245.889,197.798z"/>
												</g>
											</g>
										</g>
									</g>
								</g>
							</g>
						</g>
					</g>
					<g>
						<g>
							<g>
								<g>
									<g>
										<g>
											<g>
												<g>
													<path fill="#AE7461" d="M184.048,220.427c0.304-2.793-1.759-5.344-4.564-5.497c-3.403-0.185-7.422,1.16-8.242,8.125
														c-1.454,12.355,11.252,11.267,11.315,10.915C182.6,233.731,183.486,225.604,184.048,220.427z"/>
												</g>
											</g>
										</g>
									</g>
								</g>
							</g>
						</g>
					</g>
					<g>
						<g>
							<g>
								<g>
									<g>
										<g>
											<g>
												<g>
													<path fill="#6F4439" d="M180.416,229.006c-0.049-0.046-0.233,0.125-0.617,0.25c-0.373,0.121-0.996,0.161-1.613-0.157
														c-1.249-0.633-2.104-2.834-1.902-5.068c0.101-1.127,0.463-2.171,0.965-3.011c0.483-0.86,1.142-1.422,1.813-1.461
														c0.672-0.075,1.09,0.374,1.201,0.739c0.125,0.366,0.018,0.603,0.081,0.631c0.032,0.035,0.29-0.176,0.25-0.698
														c-0.022-0.252-0.133-0.56-0.396-0.831c-0.268-0.276-0.69-0.45-1.153-0.455c-0.96-0.047-1.921,0.729-2.474,1.65
														c-0.605,0.92-1.039,2.089-1.151,3.356c-0.214,2.5,0.787,4.979,2.512,5.706c0.842,0.329,1.598,0.152,2.007-0.095
														C180.358,229.301,180.455,229.033,180.416,229.006z"/>
												</g>
											</g>
										</g>
									</g>
								</g>
							</g>
						</g>
					</g>
				</g>
				<g>
					<g>
						<g>
							<g>
								<g>
									<g>
										<g>
											<path fill="#263238" d="M187.866,196.637c1.434,1.33,2.952,2.708,4.848,3.187c1.896,0.48,4.262-0.296,4.873-2.153
												c0.274-0.834,0.214-1.858,0.877-2.436c0.79-0.688,1.991-0.256,3.006,0.009c3.519,0.916,7.559-1.063,8.993-4.405
												c0.707,1.502,2.844,1.763,4.357,1.081c1.514-0.683,2.621-2.005,3.886-3.08c1.266-1.074,2.947-1.953,4.538-1.478
												c0.891,0.266,1.66,0.935,2.586,0.991c1.636,0.099,2.708-1.674,3.193-3.24c0.485-1.566,0.956-3.408,2.455-4.074
												c1.389-0.618,2.961,0.096,4.416,0.539c1.453,0.442,3.426,0.382,4.024-1.015c0.314-0.733,0.107-1.584-0.215-2.313
												c-1.461-3.302-5.437-5.269-8.948-4.427c-0.593-4.244-3.918-7.977-8.066-9.055c-4.148-1.077-8.87,0.564-11.453,3.985
												c-2.245-2.749-5.874-4.305-9.413-4.039c-3.538,0.267-6.893,2.35-8.7,5.403c-2.874-1.236-6.457-0.592-8.719,1.568
												c-2.262,2.16-3.071,5.71-1.968,8.638c-2.4,0.93-4.623,2.843-5.051,5.382c-0.428,2.538,1.671,5.447,4.227,5.146
												c-1.29,1.833-0.886,4.645,0.868,6.04c1.754,1.395,4.584,1.157,6.081-0.512"/>
										</g>
									</g>
								</g>
							</g>
						</g>
					</g>
				</g>
			</g>
			<g>
				<path fill="#6F4439" d="M213.397,236.344c-0.236-0.165-0.508-0.336-0.79-0.277c-0.252,0.053-0.428,0.278-0.567,0.496
					c-1.132,1.775-1.258,4.148-0.321,6.034c0.009,0.018,0.018,0.038,0.028,0.056c1.399,2.74,5.327,2.824,7.078,0.295l1.312-1.895
					C218.594,239.976,214.94,237.419,213.397,236.344z"/>
			</g>
			<g>
				<g>
					<path fill="#263238" d="M217.983,243.846c0.095,0.049-1.027,1.122-3.3,1.009c-0.541-0.026-1.224-0.235-1.748-0.603
						c-0.544-0.336-1.132-0.829-1.493-1.525c-0.688-1.376-0.764-3.051-0.456-4.686c0.084-0.417,0.158-0.789,0.309-1.219
						c0.16-0.397,0.38-0.875,0.939-1.108c0.586-0.224,1.117,0.1,1.402,0.312c0.292,0.217,0.581,0.43,0.864,0.641
						c1.041,0.792,2.023,1.538,2.946,2.239c1.663,1.295,2.658,2.142,2.592,2.233c-0.066,0.092-1.182-0.59-2.931-1.764
						c-0.955-0.656-1.971-1.356-3.048-2.098c-0.551-0.355-1.252-1.002-1.538-0.815c-0.383,0.139-0.6,0.991-0.734,1.731
						c-0.292,1.505-0.212,3.043,0.322,4.189c0.269,0.558,0.712,0.969,1.199,1.306c0.484,0.365,0.932,0.516,1.439,0.593
						C216.768,244.53,217.944,243.728,217.983,243.846z"/>
				</g>
			</g>
			<g>
				<g>
					<g>
						<g>
							<g>
								<g>
									<g>
										<path fill="#455A64" d="M180.713,190.69c-0.038-0.039-0.383,0.999,0.411,2.479c0.397,0.705,1.138,1.487,2.244,1.84
											c1.08,0.352,2.479,0.285,3.659-0.493l-0.509-0.156c0.449,1.15,1.09,2.349,1.995,3.436c0.583,0.693,1.253,1.31,2.032,1.729
											c0.758,0.443,1.672,0.61,2.44,0.602c1.584,0.063,3.07-0.571,3.855-1.503c0.806-0.906,1.153-1.807,1.379-2.41
											c0.22-0.61,0.285-0.964,0.245-0.979c-0.052-0.02-0.207,0.303-0.5,0.868c-0.296,0.557-0.713,1.396-1.487,2.168
											c-1.431,1.588-5.364,1.919-7.416-0.937c-0.84-1.008-1.463-2.145-1.909-3.226l-0.162-0.395l-0.346,0.239
											c-0.962,0.662-2.167,0.767-3.107,0.5c-0.957-0.261-1.64-0.897-2.049-1.507
											C180.667,191.677,180.825,190.675,180.713,190.69z"/>
									</g>
								</g>
							</g>
						</g>
					</g>
				</g>
			</g>
			<g>
				<g>
					<g>
						<g>
							<g>
								<g>
									<g>
										<path fill="#455A64" d="M208.167,166.093c-0.013,0.042,0.308,0.134,0.822,0.449c0.501,0.315,1.224,0.897,1.666,1.911
											l0.112,0.255l0.204-0.202c1.381-1.369,3.606-3.063,6.669-3.922c1.521-0.417,3.241-0.603,5.001-0.335
											c1.752,0.254,3.511,1.035,4.984,2.27c1.146,0.958,2.053,2.141,2.66,3.405c0.587,1.273,0.859,2.628,0.796,3.911
											l-0.019,0.395l0.388-0.047c1.924-0.23,3.753,0.412,5.018,1.389c1.286,0.981,2,2.291,2.346,3.416
											c0.667,2.312,0.091,3.756,0.22,3.758c0.027,0.008,0.181-0.322,0.3-0.983c0.111-0.657,0.178-1.666-0.134-2.883
											c-0.307-1.201-1.022-2.641-2.39-3.742c-1.342-1.092-3.305-1.835-5.438-1.61l0.369,0.348
											c0.089-1.394-0.194-2.873-0.819-4.248c-0.644-1.367-1.612-2.634-2.835-3.658c-1.568-1.318-3.466-2.15-5.343-2.406
											c-1.876-0.27-3.69-0.047-5.273,0.418c-3.189,0.958-5.432,2.783-6.777,4.255l0.315,0.054
											c-0.543-1.092-1.362-1.655-1.919-1.929C208.515,166.091,208.172,166.066,208.167,166.093z"/>
									</g>
								</g>
							</g>
						</g>
					</g>
				</g>
			</g>
		</g>
	</g>
</g>
</svg>
