<?xml version="1.0" encoding="utf-8"?>
<!-- Generator: Adobe Illustrator 16.0.0, SVG Export Plug-In . SVG Version: 6.00 Build 0)  -->
<!DOCTYPE svg PUBLIC "-//W3C//DTD SVG 1.0//EN" "http://www.w3.org/TR/2001/REC-SVG-20010904/DTD/svg10.dtd">
<svg version="1.0" id="Layer_1" xmlns="http://www.w3.org/2000/svg" xmlns:xlink="http://www.w3.org/1999/xlink" x="0px" y="0px"
	 width="500px" height="400px" viewBox="-50 0 500 400" enable-background="new -50 0 500 400" xml:space="preserve">
<g>
	<g>
		<rect x="237.222" y="54.889" fill="#EBEBEB" width="115.365" height="207.245"/>
	</g>
	<g>
		<rect x="241.83" y="60.898" fill="#FAFAFA" width="104.958" height="195.064"/>
	</g>
	<g>
		<polygon fill="#E0E0E0" points="357.465,264.002 352.587,262.134 352.587,51.373 357.465,51.373 		"/>
	</g>
	<g>
		<path fill="#F5F5F5" d="M267.562,186.897c9.085-8.445,18.173-16.891,27.258-25.336c3.454-3.211,7.969-6.669,12.411-5.087
			c2.137,0.76,3.745,2.585,5.837,3.457c4.187,1.745,8.966-0.773,12.184-3.967c3.217-3.194,5.758-7.188,9.657-9.504
			c3.896-2.315,9.953-2.021,11.88,2.083v27.574l-39.612,16.96L267.562,186.897z"/>
	</g>
	<g>
		<path fill="#E0E0E0" d="M241.83,171.05c10.046-4.091,20.069-0.614,27.259,7.505c1.513,1.71,2.891,3.684,4.971,4.626
			c2.816,1.278,6.068,0.322,9.14-0.025c8.395-0.952,17.164,3.299,21.619,10.479l-33.534,16.496l-29.454-0.215V171.05L241.83,171.05z
			"/>
	</g>
	<g>
		<path fill="#EBEBEB" d="M346.788,171.186c-6.615-3.195-12.44,0.671-18.543,4.759c-6.103,4.089-11.773,9.334-18.935,10.981
			c-4.784,1.101-9.908,0.49-14.532,2.137c-9.422,3.354-14.871,15.319-24.856,15.89c-5.421,0.309-10.281-2.978-15.121-5.443
			c-4.839-2.465-8.655-4.808-12.971-1.509v57.958h104.958V171.186z"/>
	</g>
	<g>
		<rect x="241.83" y="117.011" fill="#E0E0E0" width="107.237" height="2.078"/>
	</g>
	<g>
		<rect x="241.83" y="163.464" fill="#E0E0E0" width="107.237" height="2.077"/>
	</g>
	<g>
		<rect x="241.83" y="209.916" fill="#E0E0E0" width="107.237" height="2.077"/>
	</g>
	<g>
		<rect x="291.657" y="118.05" fill="#E0E0E0" width="5.304" height="143.442"/>
	</g>
	<g>
		<rect x="262.04" y="60.898" fill="#E0E0E0" width="2.403" height="57.152"/>
	</g>
	<g>
		<rect x="282.761" y="60.898" fill="#E0E0E0" width="2.402" height="57.152"/>
	</g>
	<g>
		<rect x="303.479" y="60.898" fill="#E0E0E0" width="2.404" height="57.152"/>
	</g>
	<g>
		<rect x="324.201" y="60.898" fill="#E0E0E0" width="2.401" height="57.152"/>
	</g>
	<g>
		<rect x="232.341" y="51.373" fill="#E0E0E0" width="4.881" height="212.044"/>
	</g>
	<g>
		<rect x="232.341" y="49.234" fill="#E0E0E0" width="125.125" height="5.654"/>
	</g>
	<g>
		<rect x="228.88" y="264.7" fill="#E0E0E0" width="131.89" height="5.268"/>
	</g>
	<g>
		<polygon fill="#EBEBEB" points="352.587,262.134 360.77,264.7 228.88,264.7 237.222,262.134 		"/>
	</g>
</g>
<g>
	<g>
		<g>
			<g>
				<g>
					<path fill="#EBEBEB" d="M89.087,72.224c-0.048-0.001-0.11-0.56-0.183-1.613c-0.022-0.527-0.071-1.178-0.215-1.936
						c-0.118-0.762-0.226-1.642-0.509-2.603c-0.426-1.946-1.308-4.248-2.701-6.693c-1.406-2.436-3.441-4.986-6.224-7.169
						c-2.776-2.163-6.285-4.025-10.359-4.831c-4.046-0.779-8.626-0.749-13.019,0.813c-2.209,0.712-4.348,1.816-6.322,3.225
						c-1.02,0.666-1.917,1.51-2.854,2.318c-0.85,0.901-1.745,1.78-2.483,2.806c-3.132,3.968-4.964,9.116-5.145,14.464
						c-0.081,5.351,1.499,10.584,4.434,14.701c0.689,1.062,1.538,1.983,2.344,2.924c0.899,0.852,1.752,1.739,2.738,2.454
						c1.904,1.504,3.988,2.711,6.16,3.53c4.312,1.773,8.887,2.024,12.966,1.443c4.108-0.607,7.703-2.295,10.581-4.321
						c2.886-2.046,5.042-4.495,6.563-6.86c1.511-2.373,2.504-4.631,3.023-6.554c0.329-0.945,0.479-1.819,0.634-2.573
						c0.181-0.751,0.261-1.397,0.31-1.923C88.951,72.776,89.039,72.223,89.087,72.224c0.048,0.001,0.054,0.558,0.019,1.625
						c-0.003,0.536-0.039,1.195-0.18,1.967c-0.114,0.773-0.226,1.674-0.521,2.651c-0.452,1.986-1.392,4.335-2.886,6.824
						c-1.506,2.478-3.683,5.063-6.646,7.243c-2.952,2.158-6.681,3.978-10.974,4.664c-4.261,0.662-9.064,0.441-13.618-1.387
						c-2.292-0.847-4.496-2.102-6.512-3.676c-1.042-0.749-1.949-1.676-2.898-2.573c-0.856-0.986-1.754-1.957-2.486-3.074
						c-3.111-4.333-4.798-9.867-4.708-15.517c0.186-5.647,2.14-11.09,5.458-15.265c0.785-1.08,1.729-2.005,2.632-2.948
						c0.992-0.85,1.943-1.732,3.02-2.429c2.089-1.474,4.35-2.62,6.68-3.354c4.637-1.606,9.444-1.593,13.668-0.726
						c4.253,0.895,7.89,2.892,10.734,5.192c2.854,2.32,4.903,5.009,6.287,7.556c1.374,2.558,2.198,4.951,2.553,6.958
						c0.247,0.99,0.315,1.894,0.391,2.673c0.102,0.776,0.106,1.438,0.085,1.973C89.167,71.669,89.135,72.225,89.087,72.224z"/>
				</g>
			</g>
		</g>
	</g>
	<g>
		<g>
			<g>
				<g>
					<path fill="#EBEBEB" d="M84.014,56.378c0.056,0.079-0.402,0.476-1.285,1.133c-0.484,0.347-1.026,0.736-1.632,1.171
						c-0.323,0.221-0.662,0.472-1.039,0.708c-0.398,0.209-0.816,0.427-1.249,0.653c-3.395,1.962-8.771,3.963-14.911,3.755
						c-0.762-0.034-1.514-0.067-2.257-0.101c-0.732-0.115-1.455-0.228-2.167-0.339c-0.354-0.059-0.707-0.107-1.052-0.177
						c-0.34-0.09-0.678-0.18-1.011-0.269c-0.665-0.185-1.324-0.341-1.95-0.542c-2.489-0.866-4.638-1.875-6.326-2.915
						c-3.398-2.056-5.053-3.925-4.924-4.045c0.137-0.156,1.983,1.408,5.407,3.185c1.701,0.904,3.818,1.782,6.228,2.548
						c0.606,0.176,1.241,0.309,1.881,0.474c0.321,0.08,0.646,0.16,0.972,0.241c0.333,0.051,0.669,0.101,1.009,0.153
						c0.679,0.1,1.37,0.202,2.069,0.304c0.708,0.028,1.425,0.057,2.152,0.086c5.836,0.201,11.008-1.547,14.438-3.243
						c0.438-0.189,0.859-0.372,1.263-0.549c0.385-0.201,0.733-0.417,1.07-0.602c0.642-0.354,1.216-0.67,1.731-0.954
						C83.395,56.547,83.958,56.3,84.014,56.378z"/>
				</g>
			</g>
		</g>
	</g>
	<g>
		<g>
			<g>
				<g>
					<path fill="#EBEBEB" d="M43.44,87.214c-0.056-0.079,0.402-0.476,1.285-1.133c0.485-0.348,1.026-0.737,1.632-1.171
						c0.324-0.221,0.662-0.472,1.038-0.708c0.399-0.208,0.817-0.427,1.25-0.653c3.394-1.961,8.771-3.963,14.911-3.754
						c0.761,0.034,1.515,0.067,2.257,0.1c0.733,0.115,1.456,0.228,2.166,0.338c0.354,0.061,0.708,0.107,1.052,0.177
						c0.34,0.09,0.677,0.18,1.012,0.269c0.665,0.185,1.323,0.341,1.95,0.542c2.488,0.865,4.638,1.875,6.326,2.915
						c3.398,2.055,5.053,3.924,4.924,4.045c-0.137,0.157-1.983-1.408-5.408-3.186c-1.701-0.902-3.818-1.782-6.228-2.548
						c-0.606-0.177-1.241-0.31-1.881-0.475c-0.321-0.08-0.645-0.159-0.972-0.241c-0.334-0.05-0.669-0.101-1.009-0.152
						c-0.68-0.1-1.37-0.202-2.07-0.304c-0.707-0.029-1.426-0.058-2.151-0.087c-5.837-0.202-11.008,1.548-14.438,3.242
						c-0.438,0.19-0.86,0.373-1.263,0.548c-0.385,0.202-0.734,0.417-1.07,0.603c-0.642,0.355-1.217,0.671-1.731,0.955
						C44.059,87.045,43.495,87.293,43.44,87.214z"/>
				</g>
			</g>
		</g>
	</g>
	<g>
		<g>
			<g>
				<g>
					<path fill="#EBEBEB" d="M89.073,72.813c-0.009,0.385-11.37,0.42-25.372,0.082c-14.007-0.34-25.351-0.929-25.34-1.313
						c0.009-0.385,11.368-0.421,25.374-0.082C77.736,71.84,89.082,72.428,89.073,72.813z"/>
				</g>
			</g>
		</g>
	</g>
	<g>
		<g>
			<g>
				<g>
					<path fill="#EBEBEB" d="M62.548,96.94c-0.385-0.01-0.421-11.367-0.083-25.364c0.341-14.002,0.928-25.342,1.313-25.333
						c0.386,0.01,0.421,11.365,0.082,25.366C63.521,85.608,62.933,96.949,62.548,96.94z"/>
				</g>
			</g>
		</g>
	</g>
	<g>
		<g>
			<g>
				<g>
					<path fill="#EBEBEB" d="M62.548,96.902c-0.096,0.147-2.889-1.747-6.114-6.036c-1.594-2.142-3.268-4.898-4.532-8.229
						c-1.259-3.326-2.048-7.241-1.963-11.364c0.074-4.137,1.114-8.007,2.561-11.249c1.447-3.255,3.264-5.912,4.954-7.977
						c3.415-4.127,6.232-5.956,6.326-5.809c0.136,0.159-2.415,2.233-5.55,6.417c-1.55,2.091-3.225,4.723-4.55,7.879
						c-1.328,3.146-2.275,6.833-2.346,10.764c-0.081,3.934,0.63,7.677,1.775,10.896c1.15,3.225,2.679,5.943,4.131,8.102
						C60.174,94.619,62.69,96.749,62.548,96.902z"/>
				</g>
			</g>
		</g>
	</g>
	<g>
		<g>
			<g>
				<g>
					<path fill="#EBEBEB" d="M64.347,46.252c0.097-0.147,2.89,1.747,6.115,6.036c1.594,2.143,3.267,4.898,4.533,8.23
						c1.259,3.325,2.047,7.24,1.963,11.363c-0.073,4.137-1.113,8.006-2.561,11.249c-1.447,3.255-3.264,5.912-4.953,7.976
						c-3.416,4.127-6.232,5.957-6.326,5.811c-0.137-0.16,2.415-2.235,5.549-6.418c1.55-2.092,3.224-4.725,4.551-7.879
						c1.328-3.146,2.275-6.834,2.345-10.765c0.082-3.934-0.63-7.676-1.775-10.896c-1.15-3.226-2.679-5.944-4.13-8.102
						C66.722,48.535,64.206,46.405,64.347,46.252z"/>
				</g>
			</g>
		</g>
	</g>
</g>
<g>
	<g>
		<path fill="#263238" d="M343.646,332.915c0,0.095-67.771,0.173-151.351,0.173c-83.609,0-151.365-0.078-151.365-0.173
			c0-0.094,67.756-0.173,151.365-0.173C275.875,332.742,343.646,332.821,343.646,332.915z"/>
	</g>
</g>
<g>
	<g>
		<polygon fill="#455A64" points="62.378,316.534 67.425,351.676 85.788,351.676 90.402,316.534 		"/>
	</g>
	<g>
		<path fill="#455A64" d="M60.358,316.534c0.089-2.363,0.63-4.472,2.438-5.863h27.606c1.515,1.147,1.979,3.372,2.181,5.863H60.358z"
			/>
	</g>
	<g>
		<polygon fill="#455A64" points="64.567,310.672 66.901,307.242 86.033,307.242 88.069,310.672 		"/>
	</g>
	<g>
		<g>
			<ellipse fill="#263238" cx="77.032" cy="310.556" rx="13.246" ry="0.182"/>
		</g>
	</g>
	<g>
		<g>
			<ellipse fill="#263238" cx="76.614" cy="316.534" rx="15.969" ry="0.182"/>
		</g>
	</g>
	<g>
		<polygon fill="#263238" points="63.518,324.469 89.359,324.469 87.848,335.986 65.172,335.986 		"/>
	</g>
</g>
<g>
	<g>
		<g>
			<path fill="#263238" d="M75.472,269.696c0,0,0.14,0.008,0.374,0.123c0.232,0.115,0.564,0.344,0.838,0.765
				c0.275,0.414,0.49,1.012,0.5,1.725c0.014,0.718-0.248,1.51-0.686,2.274c-0.437,0.772-1.053,1.515-1.656,2.327
				c-0.588,0.812-1.197,1.746-1.331,2.848c-0.148,1.104,0.308,2.247,0.988,3.259c0.689,1.021,1.577,1.966,2.377,3.041
				c0.409,0.531,0.758,1.106,1.041,1.708c0.276,0.606,0.422,1.264,0.441,1.917c0.011,1.33-0.632,2.483-1.322,3.404
				c-0.704,0.935-1.51,1.687-2.187,2.439c-0.683,0.748-1.259,1.501-1.607,2.277c-0.367,0.771-0.449,1.552-0.354,2.221
				c0.081,0.669,0.333,1.213,0.61,1.594c0.589,0.766,1.2,0.836,1.167,0.884c-0.001,0.008-0.034,0.001-0.099-0.016
				c-0.063-0.021-0.164-0.033-0.28-0.09c-0.242-0.094-0.58-0.308-0.9-0.689c-0.31-0.387-0.596-0.95-0.701-1.653
				c-0.12-0.692-0.048-1.541,0.32-2.354c0.35-0.821,0.936-1.609,1.617-2.375c0.68-0.774,1.471-1.528,2.143-2.439
				c0.663-0.898,1.252-1.991,1.234-3.199c-0.021-0.596-0.156-1.198-0.416-1.771c-0.269-0.566-0.601-1.117-1.002-1.636
				c-0.781-1.053-1.674-2.006-2.382-3.063c-0.698-1.045-1.196-2.29-1.025-3.499c0.161-1.206,0.817-2.171,1.423-2.987
				c0.625-0.819,1.24-1.537,1.675-2.275c0.437-0.73,0.7-1.478,0.706-2.146c0.009-0.671-0.173-1.243-0.417-1.648
				C76.056,269.834,75.435,269.741,75.472,269.696z"/>
		</g>
	</g>
	<g>
		<g>
			<path fill="#263238" d="M80.104,269.696c0,0,0.141,0.008,0.375,0.123c0.231,0.115,0.565,0.344,0.838,0.765
				c0.276,0.414,0.49,1.012,0.501,1.725c0.014,0.718-0.248,1.51-0.686,2.274c-0.436,0.772-1.052,1.515-1.655,2.327
				c-0.587,0.812-1.197,1.746-1.331,2.848c-0.147,1.104,0.309,2.247,0.987,3.259c0.69,1.021,1.579,1.966,2.378,3.041
				c0.408,0.531,0.758,1.106,1.04,1.708c0.275,0.606,0.422,1.264,0.442,1.917c0.011,1.33-0.632,2.483-1.322,3.404
				c-0.704,0.935-1.509,1.687-2.186,2.439c-0.683,0.748-1.259,1.501-1.606,2.277c-0.367,0.771-0.449,1.552-0.354,2.221
				c0.081,0.669,0.333,1.213,0.609,1.594c0.589,0.766,1.2,0.836,1.167,0.884c-0.002,0.008-0.035,0.001-0.099-0.016
				c-0.063-0.021-0.164-0.033-0.28-0.09c-0.242-0.094-0.58-0.308-0.9-0.689c-0.31-0.387-0.596-0.95-0.701-1.653
				c-0.119-0.692-0.048-1.541,0.321-2.354c0.348-0.821,0.935-1.609,1.618-2.375c0.678-0.774,1.469-1.528,2.142-2.439
				c0.665-0.898,1.251-1.991,1.235-3.199c-0.023-0.596-0.156-1.198-0.416-1.771c-0.269-0.566-0.601-1.117-1.003-1.636
				c-0.781-1.053-1.673-2.006-2.381-3.063c-0.698-1.045-1.197-2.29-1.025-3.499c0.16-1.206,0.817-2.171,1.422-2.987
				c0.624-0.819,1.24-1.537,1.676-2.275c0.438-0.73,0.7-1.478,0.706-2.146c0.009-0.671-0.173-1.243-0.417-1.648
				C80.689,269.834,80.068,269.741,80.104,269.696z"/>
		</g>
	</g>
</g>
<g>
	<g>
		<g>
			<g>
				<rect x="78.292" y="83.315" fill="#FFFFFF" width="134.968" height="177.835"/>
			</g>
			<g>
				<g>
					<path fill="#263238" d="M213.26,261.15c0-1.457-0.067-72.433-0.165-177.835l0.165,0.166
						c-40.434,0.006-86.403,0.012-134.954,0.018h-0.015l0.184-0.184c-0.012,66.162-0.024,127.518-0.033,177.835l-0.151-0.151
						C159.897,261.09,212.011,261.148,213.26,261.15c-1.247,0.002-53.363,0.06-134.968,0.15h-0.151v-0.15
						c-0.009-50.317-0.021-111.674-0.032-177.835v-0.183h0.183h0.015c48.551,0.007,94.52,0.013,134.954,0.018h0.165v0.166
						C213.327,188.718,213.261,259.693,213.26,261.15z"/>
				</g>
			</g>
		</g>
		<g>
			<g>
				<g>
					<g>
						<g>
							<path fill="#263238" d="M213.26,96.308c0,0.06-30.215,0.108-67.481,0.108c-37.278,0-67.487-0.048-67.487-0.108
								c0-0.06,30.21-0.108,67.487-0.108C183.044,96.198,213.26,96.248,213.26,96.308z"/>
						</g>
					</g>
				</g>
			</g>
			<g>
				<g>
					<g>
						<g>
							<path fill="#455A64" d="M125.855,90.229c15.348,0,30.696,0,46.043,0"/>
						</g>
					</g>
				</g>
				<g>
					<g>
						<g>
							<g>
								<path fill="#455A64" d="M171.899,90.229c0,0.06-10.308,0.108-23.021,0.108c-12.717,0-23.023-0.049-23.023-0.108
									c0-0.061,10.306-0.109,23.023-0.109C161.591,90.121,171.899,90.17,171.899,90.229z"/>
							</g>
						</g>
					</g>
				</g>
			</g>
			<g>
				<g>
					<g>
						<circle fill="#E0E0E0" cx="83.545" cy="90.23" r="1.492"/>
					</g>
				</g>
			</g>
			<g>
				<g>
					<g>
						<circle fill="#E0E0E0" cx="88.606" cy="90.229" r="1.492"/>
					</g>
				</g>
			</g>
			<g>
				<g>
					<g>
						<circle fill="#E0E0E0" cx="93.666" cy="90.229" r="1.492"/>
					</g>
				</g>
			</g>
			<g>
				<g>
					<g>
						<path fill="#455A64" d="M129.637,114.476h-3.092l-0.59,1.427h-1.58l2.969-6.66h1.522l2.979,6.66h-1.618L129.637,114.476z
							 M129.151,113.306l-1.058-2.551l-1.056,2.551H129.151z"/>
					</g>
				</g>
				<g>
					<g>
						<path fill="#455A64" d="M136.782,115.903l-1.285-1.855h-0.076h-1.343v1.855h-1.542v-6.66h2.883
							c1.78,0,2.893,0.923,2.893,2.417c0,0.998-0.504,1.731-1.371,2.102l1.495,2.141H136.782z M135.336,110.498h-1.257v2.322h1.257
							c0.942,0,1.417-0.438,1.417-1.161C136.753,110.927,136.278,110.498,135.336,110.498z"/>
					</g>
				</g>
				<g>
					<g>
						<path fill="#455A64" d="M140.816,110.498h-2.132v-1.255h5.804v1.255h-2.131v5.405h-1.542v-5.405H140.816z"/>
					</g>
				</g>
				<g>
					<g>
						<path fill="#455A64" d="M145.316,109.243h1.542v6.66h-1.542V109.243z"/>
					</g>
				</g>
				<g>
					<g>
						<path fill="#455A64" d="M148.019,112.572c0-2.007,1.541-3.444,3.615-3.444c1.152,0,2.113,0.419,2.741,1.18l-0.99,0.914
							c-0.447-0.514-1.009-0.781-1.674-0.781c-1.248,0-2.132,0.876-2.132,2.131c0,1.257,0.885,2.133,2.132,2.133
							c0.665,0,1.227-0.267,1.674-0.791l0.99,0.914c-0.628,0.771-1.589,1.189-2.75,1.189
							C149.56,116.018,148.019,114.582,148.019,112.572z"/>
					</g>
				</g>
				<g>
					<g>
						<path fill="#455A64" d="M155.411,109.243h1.542v5.405h3.341v1.256h-4.883V109.243L155.411,109.243z"/>
					</g>
				</g>
				<g>
					<g>
						<path fill="#455A64" d="M166.315,114.667v1.236h-5.157v-6.661h5.033v1.238h-3.502v1.446h3.093v1.198h-3.093v1.543
							L166.315,114.667L166.315,114.667z"/>
					</g>
				</g>
			</g>
			<g>
				<g>
					<g>
						<g>
							<ellipse fill="#263238" cx="105.125" cy="113.168" rx="15.957" ry="0.109"/>
						</g>
					</g>
				</g>
			</g>
			<g>
				<g>
					<g>
						<g>
							<ellipse fill="#263238" cx="189.181" cy="113.168" rx="16.753" ry="0.109"/>
						</g>
					</g>
				</g>
			</g>
		</g>
		<g>
			<g>
				<g>
					<g>
						<g>
							<g>
								<g>
									<g>
										<g>
											<rect x="167.519" y="220.899" fill="#455A64" width="32.368" height="31.315"/>
										</g>
									</g>
								</g>
							</g>
						</g>
					</g>
				</g>
				<g opacity="0.3">
					<g>
						<g>
							<g>
								<g>
									<g>
										<g>
											<polygon points="170.03,249.534 178.983,233.42 186.307,243.719 190.757,238.249 197.377,249.534 											"/>
										</g>
									</g>
								</g>
							</g>
						</g>
					</g>
				</g>
				<g opacity="0.3">
					<g>
						<g>
							<g>
								<g>
									<g>
										<g>
											<path d="M188.804,228.579c1.898,2.495-0.92,5.312-3.414,3.413C183.493,229.498,186.31,226.681,188.804,228.579z"/>
										</g>
									</g>
								</g>
							</g>
						</g>
					</g>
				</g>
				<g>
					<g>
						<g>
							<g opacity="0.3">
								<g>
									<g>
										<g>
											<g>
												<path d="M197.377,249.621c-0.002-0.002-0.004-0.046-0.007-0.127c-0.002-0.094-0.004-0.214-0.007-0.365
													c-0.003-0.334-0.008-0.804-0.016-1.411c-0.007-1.24-0.02-3.037-0.034-5.315c-0.017-4.575-0.04-11.09-0.068-18.909
													l0.132,0.132c-7.92,0.006-17.309,0.014-27.345,0.022c-0.037,0.032,0.289-0.291,0.151-0.151v0.008v0.014v0.027v0.056
													v0.112v0.224v0.446v0.891c0,0.59,0,1.181,0,1.766c-0.001,1.175-0.001,2.338-0.001,3.487
													c-0.001,2.303-0.003,4.555-0.004,6.747c-0.005,4.388-0.01,8.532-0.015,12.347l-0.135-0.134
													c8.163,0.029,14.981,0.052,19.774,0.068c2.39,0.016,4.274,0.027,5.576,0.034c0.637,0.009,1.131,0.013,1.48,0.018
													c0.159,0.004,0.286,0.005,0.383,0.008C197.33,249.616,197.375,249.619,197.377,249.621
													c0.003,0.003-0.037,0.006-0.119,0.008c-0.094,0.002-0.214,0.006-0.369,0.009c-0.342,0.004-0.828,0.009-1.452,0.016
													c-1.295,0.009-3.171,0.02-5.547,0.035c-4.815,0.016-11.663,0.041-19.861,0.068l-0.134,0.001v-0.135
													c-0.005-3.816-0.011-7.961-0.015-12.348c-0.001-2.193-0.003-4.445-0.004-6.747c-0.001-1.151-0.001-2.313-0.001-3.488
													c0-0.585,0-1.175,0-1.766v-0.89v-0.446v-0.224v-0.113v-0.054v-0.028v-0.015v-0.007
													c-0.138,0.137,0.187-0.193,0.157-0.159c10.036,0.009,19.424,0.017,27.345,0.022h0.134v0.133
													c-0.029,7.854-0.051,14.397-0.068,18.991c-0.015,2.269-0.025,4.054-0.033,5.288c-0.006,0.596-0.013,1.059-0.016,1.386
													c-0.003,0.145-0.005,0.259-0.007,0.351C197.383,249.586,197.38,249.624,197.377,249.621z"/>
											</g>
										</g>
									</g>
								</g>
							</g>
						</g>
					</g>
				</g>
			</g>
		</g>
		<g>
			<g>
				<ellipse fill="#263238" cx="104.719" cy="125.03" rx="15.807" ry="0.183"/>
			</g>
		</g>
		<g>
			<g>
				<path fill="#263238" d="M144.907,132.616c0,0.101-12.537,0.185-27.996,0.185c-15.465,0-27.999-0.083-27.999-0.185
					s12.533-0.184,27.999-0.184C132.37,132.433,144.907,132.515,144.907,132.616z"/>
			</g>
		</g>
		<g>
			<g>
				<ellipse fill="#263238" cx="156.463" cy="132.062" rx="7.584" ry="0.183"/>
			</g>
		</g>
		<g>
			<g>
				<ellipse fill="#263238" cx="185.514" cy="131.739" rx="15.655" ry="0.183"/>
			</g>
		</g>
		<g>
			<g>
				<path fill="#263238" d="M200.845,138.195c0,0.101-25.147,0.184-56.161,0.184c-31.026,0-56.168-0.082-56.168-0.184
					s25.142-0.184,56.168-0.184C175.698,138.012,200.845,138.094,200.845,138.195z"/>
			</g>
		</g>
		<g>
			<g>
				<path fill="#263238" d="M140.808,144.973c0,0.101-11.635,0.184-25.983,0.184c-14.354,0-25.986-0.083-25.986-0.184
					s11.632-0.184,25.986-0.184C129.173,144.79,140.808,144.872,140.808,144.973z"/>
			</g>
		</g>
		<g>
			<g>
				<ellipse fill="#263238" cx="152.75" cy="144.973" rx="7.102" ry="0.183"/>
			</g>
		</g>
		<g>
			<g>
				<ellipse fill="#263238" cx="182.608" cy="144.328" rx="18.237" ry="0.183"/>
			</g>
		</g>
		<g>
			<g>
				<path fill="#263238" d="M144.2,203.057c0,0.101-12.536,0.184-27.996,0.184c-15.465,0-27.998-0.083-27.998-0.184
					c0-0.102,12.533-0.185,27.998-0.185C131.664,202.872,144.2,202.955,144.2,203.057z"/>
			</g>
		</g>
		<g>
			<g>
				<ellipse fill="#263238" cx="155.756" cy="202.5" rx="7.585" ry="0.184"/>
			</g>
		</g>
		<g>
			<g>
				<ellipse fill="#263238" cx="184.805" cy="202.178" rx="15.655" ry="0.183"/>
			</g>
		</g>
		<g>
			<g>
				<path fill="#263238" d="M200.138,208.633c0,0.102-25.148,0.185-56.161,0.185c-31.025,0-56.167-0.083-56.167-0.185
					c0-0.101,25.142-0.183,56.167-0.183C174.99,208.45,200.138,208.532,200.138,208.633z"/>
			</g>
		</g>
		<g>
			<g>
				<path fill="#263238" d="M140.101,215.411c0,0.102-11.635,0.185-25.983,0.185c-14.353,0-25.985-0.083-25.985-0.185
					s11.632-0.183,25.985-0.183C128.466,215.229,140.101,215.31,140.101,215.411z"/>
			</g>
		</g>
		<g>
			<g>
				<ellipse fill="#263238" cx="152.043" cy="215.412" rx="7.101" ry="0.184"/>
			</g>
		</g>
		<g>
			<g>
				<ellipse fill="#263238" cx="181.901" cy="214.766" rx="18.237" ry="0.184"/>
			</g>
		</g>
		<g>
			<g>
				<path fill="#263238" d="M159.852,222.849c0,0.102-15.873,0.184-35.447,0.184c-19.583,0-35.451-0.082-35.451-0.184
					s15.869-0.183,35.451-0.183C143.979,222.666,159.852,222.747,159.852,222.849z"/>
			</g>
		</g>
		<g>
			<g>
				<path fill="#263238" d="M159.144,230.286c0,0.101-15.838,0.184-35.373,0.184c-19.541,0-35.377-0.083-35.377-0.184
					s15.836-0.184,35.377-0.184C143.306,230.103,159.144,230.186,159.144,230.286z"/>
			</g>
		</g>
		<g>
			<g>
				<rect x="88.442" y="152.147" fill="#FF725E" width="68.746" height="43.889"/>
			</g>
			<g>
				<g>
					<path fill="#263238" d="M154.23,192.546c0,0-0.01-0.237-0.015-0.686c-0.004-0.457-0.009-1.117-0.017-1.976
						c-0.008-1.741-0.021-4.282-0.036-7.542c-0.017-6.519-0.043-15.9-0.075-27.394l0.143,0.143
						c-16.839,0.011-38.604,0.024-62.294,0.04h-0.005l0.183-0.183c-0.004,13.32-0.009,26.028-0.014,37.596l-0.169-0.17
						c18.253,0.034,33.805,0.063,44.806,0.083c5.501,0.02,9.865,0.036,12.865,0.045c1.492,0.01,2.641,0.016,3.433,0.021
						c0.383,0.003,0.677,0.007,0.888,0.008C154.124,192.54,154.23,192.546,154.23,192.546s-0.093,0.006-0.288,0.01
						c-0.206,0.002-0.494,0.005-0.87,0.01c-0.782,0.004-1.92,0.012-3.396,0.021c-2.991,0.01-7.34,0.026-12.826,0.046
						c-11.028,0.02-26.619,0.049-44.917,0.082l-0.17,0.001v-0.17c-0.004-11.568-0.009-24.277-0.014-37.597v-0.184h0.185h0.005
						c23.691,0.016,45.454,0.031,62.293,0.041h0.144v0.143c-0.033,11.53-0.058,20.942-0.076,27.483
						c-0.016,3.245-0.028,5.774-0.037,7.507c-0.006,0.848-0.012,1.499-0.016,1.951C154.24,192.33,154.23,192.546,154.23,192.546z"/>
				</g>
			</g>
			<g opacity="0.2">
				<polygon points="93.614,192.546 111.635,169.322 124.659,184.198 134.625,175.226 152.75,192.546 				"/>
			</g>
			<g opacity="0.2">
				<circle cx="124.671" cy="166.559" r="4.018"/>
			</g>
		</g>
		<g>
			<g>
				<path fill="#263238" d="M200.845,151.765c0,0.101-8.628,0.184-19.271,0.184c-10.645,0-19.271-0.083-19.271-0.184
					c0-0.102,8.626-0.184,19.271-0.184C192.217,151.582,200.845,151.663,200.845,151.765z"/>
			</g>
		</g>
		<g>
			<g>
				<path fill="#263238" d="M200.845,158.596c0,0.101-8.628,0.183-19.271,0.183c-10.645,0-19.271-0.083-19.271-0.183
					c0-0.101,8.626-0.184,19.271-0.184C192.217,158.413,200.845,158.494,200.845,158.596z"/>
			</g>
		</g>
		<g>
			<g>
				<path fill="#263238" d="M199.463,188.326c0,0.101-8.628,0.184-19.27,0.184c-10.645,0-19.272-0.082-19.272-0.184
					c0-0.102,8.627-0.183,19.272-0.183C190.835,188.143,199.463,188.225,199.463,188.326z"/>
			</g>
		</g>
		<g>
			<g>
				<path fill="#263238" d="M199.463,196.037c0,0.102-8.628,0.183-19.27,0.183c-10.645,0-19.272-0.081-19.272-0.183
					c0-0.101,8.627-0.184,19.272-0.184C190.835,195.854,199.463,195.936,199.463,196.037z"/>
			</g>
		</g>
		<g>
			<g>
				<ellipse fill="#263238" cx="175.28" cy="165.427" rx="12.977" ry="0.183"/>
			</g>
		</g>
		<g>
			<g>
				<ellipse fill="#263238" cx="196.29" cy="165.348" rx="4.846" ry="0.183"/>
			</g>
		</g>
		<g>
			<g>
				<ellipse fill="#263238" cx="188.208" cy="172.92" rx="12.928" ry="0.183"/>
			</g>
		</g>
		<g>
			<g>
				<ellipse fill="#263238" cx="175.28" cy="180.57" rx="12.977" ry="0.184"/>
			</g>
		</g>
		<g>
			<g>
				<ellipse fill="#263238" cx="196.29" cy="180.49" rx="4.846" ry="0.183"/>
			</g>
		</g>
		<g>
			<g>
				<ellipse fill="#263238" cx="166.581" cy="172.743" rx="3.57" ry="0.184"/>
			</g>
		</g>
		<g>
			<g>
				<path fill="#263238" d="M159.852,237.568c0,0.102-15.998,0.184-35.727,0.184c-19.736,0-35.731-0.082-35.731-0.184
					s15.994-0.185,35.731-0.185C143.854,237.384,159.852,237.467,159.852,237.568z"/>
			</g>
		</g>
		<g>
			<g>
				<path fill="#263238" d="M160.925,245.81c0,0.101-15.997,0.183-35.726,0.183c-19.737,0-35.73-0.082-35.73-0.183
					s15.994-0.184,35.73-0.184C144.928,245.626,160.925,245.709,160.925,245.81z"/>
			</g>
		</g>
	</g>
	<g>
		<g>
			<g>
				<rect x="71.316" y="78.678" fill="#FFFFFF" width="134.969" height="177.834"/>
			</g>
			<g>
				<g>
					<path fill="#263238" d="M206.285,256.513c0-1.456-0.067-72.433-0.165-177.834l0.165,0.165
						c-40.434,0.005-86.402,0.011-134.954,0.018h-0.015l0.184-0.183c-0.012,66.161-0.023,127.518-0.033,177.834l-0.151-0.15
						C152.922,256.452,205.035,256.511,206.285,256.513c-1.249,0.001-53.363,0.059-134.968,0.15h-0.151v-0.15
						c-0.009-50.316-0.021-111.673-0.032-177.834v-0.183h0.184h0.015c48.55,0.006,94.52,0.012,134.954,0.018h0.166v0.166
						C206.353,184.08,206.286,255.057,206.285,256.513z"/>
				</g>
			</g>
		</g>
		<g>
			<g>
				<g>
					<g>
						<g>
							<path fill="#263238" d="M206.285,91.67c0,0.06-30.216,0.109-67.481,0.109c-37.278,0-67.487-0.049-67.487-0.109
								c0-0.06,30.209-0.109,67.487-0.109C176.069,91.562,206.285,91.611,206.285,91.67z"/>
						</g>
					</g>
				</g>
			</g>
			<g>
				<g>
					<g>
						<g>
							<path fill="#455A64" d="M118.88,85.592c15.349,0,30.697,0,46.043,0"/>
						</g>
					</g>
				</g>
				<g>
					<g>
						<g>
							<g>
								<ellipse fill="#455A64" cx="141.902" cy="85.593" rx="23.022" ry="0.108"/>
							</g>
						</g>
					</g>
				</g>
			</g>
			<g>
				<g>
					<g>
						<circle fill="#E0E0E0" cx="76.571" cy="85.592" r="1.492"/>
					</g>
				</g>
			</g>
			<g>
				<g>
					<g>
						<circle fill="#E0E0E0" cx="81.631" cy="85.592" r="1.492"/>
					</g>
				</g>
			</g>
			<g>
				<g>
					<g>
						<circle fill="#E0E0E0" cx="86.69" cy="85.592" r="1.492"/>
					</g>
				</g>
			</g>
			<g>
				<g>
					<g>
						<path fill="#455A64" d="M122.662,109.839h-3.093l-0.589,1.427h-1.581l2.97-6.661h1.523l2.978,6.661h-1.617L122.662,109.839z
							 M122.177,108.668l-1.057-2.551l-1.055,2.551H122.177z"/>
					</g>
				</g>
				<g>
					<g>
						<path fill="#455A64" d="M129.807,111.267l-1.285-1.855h-0.076h-1.342v1.855h-1.542v-6.661h2.884
							c1.78,0,2.892,0.923,2.892,2.417c0,1-0.504,1.732-1.37,2.103l1.494,2.142L129.807,111.267L129.807,111.267z M128.361,105.861
							h-1.256v2.321h1.256c0.942,0,1.418-0.437,1.418-1.16C129.779,106.29,129.303,105.861,128.361,105.861z"/>
					</g>
				</g>
				<g>
					<g>
						<path fill="#455A64" d="M133.84,105.861h-2.132v-1.256h5.805v1.256h-2.132v5.404h-1.542V105.861z"/>
					</g>
				</g>
				<g>
					<g>
						<path fill="#455A64" d="M138.341,104.605h1.542v6.661h-1.542V104.605z"/>
					</g>
				</g>
				<g>
					<g>
						<path fill="#455A64" d="M141.043,107.936c0-2.007,1.542-3.445,3.616-3.445c1.151,0,2.112,0.419,2.741,1.18l-0.99,0.913
							c-0.447-0.513-1.009-0.779-1.674-0.779c-1.248,0-2.132,0.875-2.132,2.131c0,1.257,0.884,2.131,2.132,2.131
							c0.667,0,1.228-0.267,1.674-0.79l0.99,0.913c-0.629,0.771-1.589,1.19-2.75,1.19
							C142.584,111.38,141.043,109.944,141.043,107.936z"/>
					</g>
				</g>
				<g>
					<g>
						<path fill="#455A64" d="M148.437,104.605h1.542v5.405h3.34v1.256h-4.881V104.605z"/>
					</g>
				</g>
				<g>
					<g>
						<path fill="#455A64" d="M159.34,110.03v1.236h-5.158v-6.661h5.034v1.237h-3.503v1.446h3.094v1.2h-3.094v1.542L159.34,110.03
							L159.34,110.03z"/>
					</g>
				</g>
			</g>
			<g>
				<g>
					<g>
						<g>
							<ellipse fill="#263238" cx="98.15" cy="108.532" rx="15.956" ry="0.109"/>
						</g>
					</g>
				</g>
			</g>
			<g>
				<g>
					<g>
						<g>
							<path fill="#263238" d="M198.958,108.532c0,0.059-7.501,0.108-16.752,0.108c-9.256,0-16.755-0.049-16.755-0.108
								c0-0.06,7.5-0.108,16.755-0.108C191.457,108.423,198.958,108.472,198.958,108.532z"/>
						</g>
					</g>
				</g>
			</g>
		</g>
		<g>
			<g>
				<g>
					<g>
						<g>
							<g>
								<g>
									<g>
										<g>
											<rect x="160.544" y="216.263" fill="#455A64" width="32.369" height="31.314"/>
										</g>
									</g>
								</g>
							</g>
						</g>
					</g>
				</g>
				<g opacity="0.3">
					<g>
						<g>
							<g>
								<g>
									<g>
										<g>
											<polygon points="163.055,244.896 172.008,228.782 179.332,239.082 183.782,233.613 190.402,244.896 											"/>
										</g>
									</g>
								</g>
							</g>
						</g>
					</g>
				</g>
				<g opacity="0.3">
					<g>
						<g>
							<g>
								<g>
									<g>
										<g>
											<path d="M181.829,223.941c1.899,2.494-0.919,5.313-3.413,3.414C176.518,224.861,179.335,222.043,181.829,223.941z"/>
										</g>
									</g>
								</g>
							</g>
						</g>
					</g>
				</g>
				<g>
					<g>
						<g>
							<g opacity="0.3">
								<g>
									<g>
										<g>
											<g>
												<path d="M190.402,244.984c-0.001-0.002-0.004-0.046-0.006-0.128c-0.001-0.093-0.004-0.215-0.007-0.364
													c-0.003-0.334-0.009-0.804-0.016-1.41c-0.007-1.242-0.02-3.038-0.034-5.317c-0.017-4.575-0.04-11.087-0.067-18.908
													l0.131,0.132c-7.921,0.006-17.31,0.014-27.345,0.021c-0.037,0.034,0.289-0.289,0.151-0.148v0.006v0.014v0.029v0.055
													v0.112v0.225v0.443v0.892c0,0.591,0,1.181,0,1.768c0,1.173,0,2.335,0,3.486c-0.002,2.301-0.003,4.555-0.004,6.747
													c-0.006,4.387-0.012,8.532-0.015,12.347l-0.134-0.135c8.162,0.029,14.98,0.052,19.774,0.07
													c2.389,0.016,4.274,0.025,5.576,0.033c0.638,0.009,1.131,0.014,1.48,0.017c0.161,0.004,0.286,0.007,0.382,0.008
													C190.355,244.979,190.401,244.981,190.402,244.984c0.002,0.003-0.037,0.007-0.12,0.008
													c-0.093,0.002-0.213,0.005-0.369,0.008c-0.342,0.005-0.827,0.009-1.453,0.016c-1.295,0.01-3.171,0.021-5.547,0.036
													c-4.815,0.017-11.661,0.04-19.86,0.068h-0.135v-0.135c-0.004-3.814-0.009-7.961-0.015-12.347
													c-0.001-2.193-0.002-4.447-0.004-6.748c0-1.149,0-2.313,0-3.485c0-0.588,0-1.178,0-1.768v-0.891l-0.001-0.445v-0.224
													v-0.112v-0.056v-0.029v-0.012v-0.007c-0.136,0.133,0.188-0.194,0.158-0.159c10.035,0.008,19.424,0.016,27.345,0.022
													h0.134l0,0.131c-0.029,7.854-0.051,14.397-0.068,18.991c-0.014,2.269-0.026,4.055-0.034,5.289
													c-0.005,0.595-0.011,1.058-0.015,1.385c-0.002,0.146-0.005,0.261-0.006,0.351
													C190.409,244.949,190.405,244.987,190.402,244.984z"/>
											</g>
										</g>
									</g>
								</g>
							</g>
						</g>
					</g>
				</g>
			</g>
		</g>
		<g>
			<g>
				<ellipse fill="#263238" cx="97.745" cy="120.393" rx="15.806" ry="0.183"/>
			</g>
		</g>
		<g>
			<g>
				<path fill="#263238" d="M137.932,127.979c0,0.102-12.537,0.184-27.996,0.184c-15.465,0-27.999-0.082-27.999-0.184
					c0-0.101,12.533-0.184,27.999-0.184C125.395,127.796,137.932,127.878,137.932,127.979z"/>
			</g>
		</g>
		<g>
			<g>
				<ellipse fill="#263238" cx="149.488" cy="127.425" rx="7.586" ry="0.183"/>
			</g>
		</g>
		<g>
			<g>
				<ellipse fill="#263238" cx="178.539" cy="127.102" rx="15.655" ry="0.183"/>
			</g>
		</g>
		<g>
			<g>
				<path fill="#263238" d="M193.871,133.558c0,0.102-25.148,0.184-56.162,0.184c-31.025,0-56.167-0.082-56.167-0.184
					c0-0.101,25.142-0.184,56.167-0.184C168.723,133.374,193.871,133.457,193.871,133.558z"/>
			</g>
		</g>
		<g>
			<g>
				<path fill="#263238" d="M133.833,140.336c0,0.101-11.636,0.185-25.983,0.185c-14.353,0-25.985-0.083-25.985-0.185
					s11.632-0.184,25.985-0.184C122.197,140.152,133.833,140.234,133.833,140.336z"/>
			</g>
		</g>
		<g>
			<g>
				<ellipse fill="#263238" cx="145.776" cy="140.336" rx="7.102" ry="0.184"/>
			</g>
		</g>
		<g>
			<g>
				<ellipse fill="#263238" cx="175.634" cy="139.691" rx="18.237" ry="0.183"/>
			</g>
		</g>
		<g>
			<g>
				<path fill="#263238" d="M137.225,198.418c0,0.1-12.536,0.183-27.996,0.183c-15.466,0-27.998-0.083-27.998-0.183
					c0-0.102,12.532-0.185,27.998-0.185C124.688,198.234,137.225,198.317,137.225,198.418z"/>
			</g>
		</g>
		<g>
			<g>
				<ellipse fill="#263238" cx="148.781" cy="197.864" rx="7.585" ry="0.184"/>
			</g>
		</g>
		<g>
			<g>
				<ellipse fill="#263238" cx="177.831" cy="197.541" rx="15.656" ry="0.182"/>
			</g>
		</g>
		<g>
			<g>
				<path fill="#263238" d="M193.162,203.997c0,0.101-25.147,0.184-56.161,0.184c-31.025,0-56.167-0.083-56.167-0.184
					c0-0.103,25.143-0.184,56.167-0.184C168.016,203.813,193.162,203.895,193.162,203.997z"/>
			</g>
		</g>
		<g>
			<g>
				<path fill="#263238" d="M133.125,210.774c0,0.102-11.634,0.185-25.982,0.185c-14.353,0-25.985-0.083-25.985-0.185
					c0-0.101,11.632-0.185,25.985-0.185C121.491,210.59,133.125,210.674,133.125,210.774z"/>
			</g>
		</g>
		<g>
			<g>
				<ellipse fill="#263238" cx="145.069" cy="210.774" rx="7.102" ry="0.185"/>
			</g>
		</g>
		<g>
			<g>
				<ellipse fill="#263238" cx="174.926" cy="210.129" rx="18.237" ry="0.186"/>
			</g>
		</g>
		<g>
			<g>
				<path fill="#263238" d="M152.877,218.212c0,0.102-15.872,0.184-35.448,0.184c-19.582,0-35.45-0.082-35.45-0.184
					s15.868-0.184,35.45-0.184C137.005,218.028,152.877,218.11,152.877,218.212z"/>
			</g>
		</g>
		<g>
			<g>
				<path fill="#263238" d="M152.17,225.649c0,0.101-15.84,0.182-35.374,0.182c-19.54,0-35.376-0.081-35.376-0.182
					c0-0.102,15.836-0.184,35.376-0.184C136.33,225.466,152.17,225.548,152.17,225.649z"/>
			</g>
		</g>
		<g>
			<g>
				<rect x="81.467" y="147.51" fill="#FF725E" width="68.746" height="43.89"/>
			</g>
			<g>
				<g>
					<path fill="#263238" d="M147.255,187.909c0,0-0.01-0.237-0.015-0.685c-0.004-0.458-0.009-1.119-0.016-1.979
						c-0.01-1.74-0.021-4.281-0.038-7.538c-0.018-6.521-0.043-15.901-0.074-27.395l0.142,0.143
						c-16.839,0.012-38.604,0.025-62.294,0.04h-0.005l0.184-0.183c-0.004,13.319-0.009,26.029-0.014,37.596l-0.17-0.169
						c18.253,0.034,33.805,0.062,44.805,0.083c5.502,0.02,9.865,0.036,12.865,0.046c1.491,0.009,2.64,0.017,3.432,0.021
						c0.383,0.003,0.678,0.008,0.888,0.011C147.148,187.902,147.255,187.909,147.255,187.909s-0.094,0.007-0.288,0.01
						c-0.206,0.002-0.494,0.005-0.869,0.011c-0.783,0.004-1.921,0.011-3.398,0.021c-2.991,0.011-7.34,0.026-12.826,0.045
						c-11.028,0.021-26.619,0.05-44.917,0.084h-0.169v-0.17c-0.004-11.567-0.009-24.277-0.014-37.596v-0.183h0.184h0.004
						c23.691,0.015,45.454,0.028,62.295,0.04h0.143v0.143c-0.032,11.531-0.058,20.941-0.076,27.482
						c-0.016,3.244-0.028,5.774-0.037,7.507c-0.006,0.849-0.013,1.5-0.016,1.951C147.265,187.691,147.255,187.909,147.255,187.909z"
						/>
				</g>
			</g>
			<g opacity="0.2">
				<polygon points="86.64,187.909 104.66,164.685 117.684,179.561 127.65,170.589 145.776,187.909 				"/>
			</g>
			<g opacity="0.2">
				<circle cx="117.696" cy="161.921" r="4.018"/>
			</g>
		</g>
		<g>
			<g>
				<ellipse fill="#263238" cx="174.6" cy="147.127" rx="19.271" ry="0.184"/>
			</g>
		</g>
		<g>
			<g>
				<ellipse fill="#263238" cx="174.6" cy="153.959" rx="19.271" ry="0.183"/>
			</g>
		</g>
		<g>
			<g>
				<ellipse fill="#263238" cx="173.218" cy="183.689" rx="19.271" ry="0.184"/>
			</g>
		</g>
		<g>
			<g>
				<ellipse fill="#263238" cx="173.218" cy="191.4" rx="19.271" ry="0.183"/>
			</g>
		</g>
		<g>
			<g>
				<ellipse fill="#263238" cx="168.306" cy="160.79" rx="12.976" ry="0.183"/>
			</g>
		</g>
		<g>
			<g>
				<ellipse fill="#263238" cx="189.315" cy="160.711" rx="4.845" ry="0.183"/>
			</g>
		</g>
		<g>
			<g>
				<ellipse fill="#263238" cx="181.233" cy="168.282" rx="12.927" ry="0.183"/>
			</g>
		</g>
		<g>
			<g>
				<ellipse fill="#263238" cx="168.306" cy="175.932" rx="12.976" ry="0.184"/>
			</g>
		</g>
		<g>
			<g>
				<ellipse fill="#263238" cx="189.315" cy="175.853" rx="4.845" ry="0.184"/>
			</g>
		</g>
		<g>
			<g>
				<ellipse fill="#263238" cx="159.606" cy="168.107" rx="3.57" ry="0.183"/>
			</g>
		</g>
		<g>
			<g>
				<path fill="#263238" d="M152.877,232.932c0,0.101-15.999,0.182-35.727,0.182c-19.736,0-35.73-0.081-35.73-0.182
					c0-0.102,15.995-0.184,35.73-0.184C136.879,232.748,152.877,232.83,152.877,232.932z"/>
			</g>
		</g>
		<g>
			<g>
				<path fill="#263238" d="M153.952,241.172c0,0.102-15.998,0.185-35.727,0.185c-19.736,0-35.731-0.083-35.731-0.185
					s15.994-0.184,35.731-0.184C137.954,240.99,153.952,241.07,153.952,241.172z"/>
			</g>
		</g>
	</g>
	<g>
		<g>
			<g>
				<rect x="64.607" y="71.969" fill="#FFFFFF" width="134.969" height="177.834"/>
			</g>
			<g>
				<g>
					<path fill="#263238" d="M199.577,249.804c-0.002-1.456-0.068-72.431-0.167-177.834l0.166,0.165
						c-40.435,0.006-86.403,0.013-134.954,0.018h-0.015l0.183-0.183c-0.012,66.161-0.023,127.519-0.032,177.834l-0.151-0.15
						C146.212,249.744,198.327,249.803,199.577,249.804c-1.249,0.002-53.365,0.059-134.969,0.152h-0.152v-0.152
						c-0.009-50.315-0.02-111.674-0.033-177.834v-0.184h0.183h0.015c48.551,0.006,94.52,0.013,134.954,0.018h0.166v0.166
						C199.643,177.372,199.578,248.349,199.577,249.804z"/>
				</g>
			</g>
		</g>
		<g>
			<g>
				<g>
					<g>
						<g>
							<path fill="#263238" d="M199.577,84.96c0,0.061-30.218,0.109-67.482,0.109c-37.278,0-67.487-0.048-67.487-0.109
								c0-0.06,30.209-0.108,67.487-0.108C169.359,84.853,199.577,84.901,199.577,84.96z"/>
						</g>
					</g>
				</g>
			</g>
			<g>
				<g>
					<g>
						<g>
							<path fill="#455A64" d="M112.171,78.883c15.349,0,30.697,0,46.043,0"/>
						</g>
					</g>
				</g>
				<g>
					<g>
						<g>
							<g>
								<path fill="#455A64" d="M158.214,78.883c0,0.061-10.308,0.109-23.02,0.109c-12.717,0-23.023-0.048-23.023-0.109
									c0-0.06,10.306-0.108,23.023-0.108C147.907,78.774,158.214,78.823,158.214,78.883z"/>
							</g>
						</g>
					</g>
				</g>
			</g>
			<g>
				<g>
					<g>
						<circle fill="#E0E0E0" cx="69.862" cy="78.883" r="1.492"/>
					</g>
				</g>
			</g>
			<g>
				<g>
					<g>
						<circle fill="#E0E0E0" cx="74.922" cy="78.883" r="1.493"/>
					</g>
				</g>
			</g>
			<g>
				<g>
					<g>
						<circle fill="#E0E0E0" cx="79.981" cy="78.883" r="1.493"/>
					</g>
				</g>
			</g>
			<g>
				<g>
					<g>
						<path fill="#455A64" d="M115.953,103.13h-3.093l-0.59,1.428h-1.58l2.969-6.662h1.522l2.979,6.662h-1.618L115.953,103.13z
							 M115.468,101.959l-1.058-2.55l-1.056,2.55H115.468z"/>
					</g>
				</g>
				<g>
					<g>
						<path fill="#455A64" d="M123.098,104.558l-1.284-1.856h-0.076h-1.342v1.856h-1.542v-6.662h2.884
							c1.779,0,2.893,0.923,2.893,2.417c0,1-0.504,1.732-1.371,2.103l1.494,2.142H123.098z M121.651,99.152h-1.256v2.322h1.256
							c0.942,0,1.417-0.438,1.417-1.161C123.068,99.581,122.594,99.152,121.651,99.152z"/>
					</g>
				</g>
				<g>
					<g>
						<path fill="#455A64" d="M127.131,99.152h-2.132v-1.256h5.805v1.256h-2.131v5.406h-1.542L127.131,99.152L127.131,99.152z"/>
					</g>
				</g>
				<g>
					<g>
						<path fill="#455A64" d="M131.631,97.896h1.543v6.662h-1.543V97.896z"/>
					</g>
				</g>
				<g>
					<g>
						<path fill="#455A64" d="M134.333,101.227c0-2.009,1.542-3.445,3.616-3.445c1.151,0,2.113,0.419,2.741,1.18l-0.989,0.914
							c-0.448-0.514-1.01-0.78-1.675-0.78c-1.247,0-2.132,0.876-2.132,2.132s0.884,2.131,2.132,2.131
							c0.665,0,1.227-0.266,1.675-0.79l0.989,0.914c-0.628,0.771-1.59,1.189-2.75,1.189
							C135.875,104.671,134.333,103.235,134.333,101.227z"/>
					</g>
				</g>
				<g>
					<g>
						<path fill="#455A64" d="M141.727,97.896h1.542v5.405h3.34v1.257h-4.882V97.896z"/>
					</g>
				</g>
				<g>
					<g>
						<path fill="#455A64" d="M152.63,103.32v1.238h-5.157v-6.662h5.034v1.237h-3.501v1.447h3.094v1.199h-3.094v1.542L152.63,103.32
							L152.63,103.32z"/>
					</g>
				</g>
			</g>
			<g>
				<g>
					<g>
						<g>
							<ellipse fill="#263238" cx="91.441" cy="101.823" rx="15.957" ry="0.108"/>
						</g>
					</g>
				</g>
			</g>
			<g>
				<g>
					<g>
						<g>
							<ellipse fill="#263238" cx="175.497" cy="101.823" rx="16.753" ry="0.108"/>
						</g>
					</g>
				</g>
			</g>
		</g>
		<g>
			<g>
				<g>
					<g>
						<g>
							<g>
								<g>
									<g>
										<g>
											<rect x="153.835" y="209.553" fill="#455A64" width="32.367" height="31.316"/>
										</g>
									</g>
								</g>
							</g>
						</g>
					</g>
				</g>
				<g opacity="0.3">
					<g>
						<g>
							<g>
								<g>
									<g>
										<g>
											<polygon points="156.345,238.188 165.299,222.073 172.624,232.373 177.073,226.903 183.693,238.188 											"/>
										</g>
									</g>
								</g>
							</g>
						</g>
					</g>
				</g>
				<g opacity="0.3">
					<g>
						<g>
							<g>
								<g>
									<g>
										<g>
											<path d="M175.119,217.233c1.9,2.493-0.918,5.312-3.414,3.413C169.808,218.152,172.625,215.334,175.119,217.233z"/>
										</g>
									</g>
								</g>
							</g>
						</g>
					</g>
				</g>
				<g>
					<g>
						<g>
							<g opacity="0.3">
								<g>
									<g>
										<g>
											<g>
												<path d="M183.693,238.275c-0.001-0.003-0.003-0.046-0.006-0.129c-0.002-0.093-0.005-0.214-0.007-0.364
													c-0.003-0.333-0.009-0.804-0.016-1.41c-0.007-1.241-0.02-3.037-0.034-5.318c-0.016-4.574-0.04-11.087-0.067-18.908
													l0.132,0.134c-7.921,0.006-17.31,0.014-27.346,0.021c-0.036,0.031,0.29-0.29,0.152-0.151v0.008v0.014v0.028v0.056v0.112
													v0.223v0.445v0.891c0,0.591-0.001,1.182-0.001,1.768c0,1.172,0,2.336,0,3.487c-0.001,2.302-0.001,4.555-0.003,6.747
													c-0.006,4.386-0.011,8.531-0.016,12.346l-0.134-0.134c8.162,0.028,14.98,0.052,19.774,0.068
													c2.39,0.016,4.274,0.027,5.578,0.036c0.636,0.006,1.129,0.012,1.479,0.016c0.16,0.002,0.286,0.005,0.383,0.007
													C183.646,238.271,183.691,238.272,183.693,238.275c0.003,0.001-0.037,0.004-0.119,0.009
													c-0.093,0.001-0.215,0.003-0.368,0.007c-0.343,0.003-0.828,0.01-1.455,0.016c-1.295,0.009-3.17,0.02-5.547,0.035
													c-4.813,0.017-11.662,0.04-19.86,0.066l-0.135,0.002v-0.135c-0.004-3.814-0.01-7.96-0.016-12.346
													c0-2.194-0.002-4.447-0.004-6.748c0-1.15,0-2.314,0-3.487c0-0.586,0-1.176,0-1.767v-0.892l-0.001-0.445v-0.223v-0.112
													v-0.055v-0.028v-0.015v-0.007c-0.136,0.136,0.188-0.193,0.157-0.158c10.037,0.008,19.425,0.016,27.346,0.021h0.134
													v0.132c-0.029,7.855-0.052,14.398-0.069,18.991c-0.015,2.27-0.026,4.055-0.035,5.29
													c-0.006,0.594-0.01,1.057-0.015,1.384c-0.002,0.146-0.004,0.26-0.007,0.352
													C183.699,238.239,183.697,238.276,183.693,238.275z"/>
											</g>
										</g>
									</g>
								</g>
							</g>
						</g>
					</g>
				</g>
			</g>
		</g>
		<g>
			<g>
				<ellipse fill="#263238" cx="91.035" cy="113.682" rx="15.807" ry="0.183"/>
			</g>
		</g>
		<g>
			<g>
				<path fill="#263238" d="M131.222,121.27c0,0.101-12.535,0.184-27.995,0.184c-15.466,0-27.999-0.083-27.999-0.184
					c0-0.102,12.533-0.183,27.999-0.183C118.687,121.087,131.222,121.168,131.222,121.27z"/>
			</g>
		</g>
		<g>
			<g>
				<ellipse fill="#263238" cx="142.778" cy="120.716" rx="7.585" ry="0.184"/>
			</g>
		</g>
		<g>
			<g>
				<ellipse fill="#263238" cx="171.829" cy="120.393" rx="15.655" ry="0.184"/>
			</g>
		</g>
		<g>
			<g>
				<path fill="#263238" d="M187.161,126.848c0,0.101-25.147,0.184-56.162,0.184c-31.024,0-56.166-0.083-56.166-0.184
					c0-0.101,25.142-0.183,56.166-0.183C162.014,126.665,187.161,126.747,187.161,126.848z"/>
			</g>
		</g>
		<g>
			<g>
				<path fill="#263238" d="M127.123,133.627c0,0.101-11.635,0.183-25.983,0.183c-14.354,0-25.985-0.082-25.985-0.183
					c0-0.102,11.631-0.184,25.985-0.184C115.489,133.443,127.123,133.525,127.123,133.627z"/>
			</g>
		</g>
		<g>
			<g>
				<ellipse fill="#263238" cx="139.066" cy="133.627" rx="7.102" ry="0.183"/>
			</g>
		</g>
		<g>
			<g>
				<path fill="#263238" d="M187.161,132.982c0,0.101-8.166,0.183-18.236,0.183c-10.074,0-18.238-0.082-18.238-0.183
					c0-0.102,8.164-0.184,18.238-0.184C178.996,132.798,187.161,132.88,187.161,132.982z"/>
			</g>
		</g>
		<g>
			<g>
				<path fill="#263238" d="M130.515,191.709c0,0.101-12.535,0.183-27.996,0.183c-15.465,0-27.998-0.083-27.998-0.183
					c0-0.102,12.533-0.185,27.998-0.185C117.979,191.525,130.515,191.607,130.515,191.709z"/>
			</g>
		</g>
		<g>
			<g>
				<ellipse fill="#263238" cx="142.072" cy="191.153" rx="7.585" ry="0.184"/>
			</g>
		</g>
		<g>
			<g>
				<path fill="#263238" d="M186.778,190.831c0,0.101-7.011,0.185-15.654,0.185c-8.648,0-15.656-0.083-15.656-0.185
					c0-0.101,7.009-0.184,15.656-0.184C179.767,190.647,186.778,190.73,186.778,190.831z"/>
			</g>
		</g>
		<g>
			<g>
				<path fill="#263238" d="M186.454,197.286c0,0.103-25.147,0.185-56.162,0.185c-31.025,0-56.167-0.083-56.167-0.185
					c0-0.1,25.142-0.184,56.167-0.184C161.306,197.104,186.454,197.187,186.454,197.286z"/>
			</g>
		</g>
		<g>
			<g>
				<path fill="#263238" d="M126.417,204.066c0,0.1-11.635,0.184-25.983,0.184c-14.354,0-25.985-0.084-25.985-0.184
					c0-0.103,11.632-0.186,25.985-0.186C114.781,203.882,126.417,203.964,126.417,204.066z"/>
			</g>
		</g>
		<g>
			<g>
				<ellipse fill="#263238" cx="138.359" cy="204.066" rx="7.102" ry="0.184"/>
			</g>
		</g>
		<g>
			<g>
				<ellipse fill="#263238" cx="168.217" cy="203.42" rx="18.237" ry="0.184"/>
			</g>
		</g>
		<g>
			<g>
				<path fill="#263238" d="M146.168,211.502c0,0.103-15.873,0.184-35.447,0.184c-19.582,0-35.451-0.081-35.451-0.184
					c0-0.102,15.87-0.185,35.451-0.185C130.295,211.318,146.168,211.4,146.168,211.502z"/>
			</g>
		</g>
		<g>
			<g>
				<path fill="#263238" d="M145.46,218.938c0,0.102-15.839,0.185-35.374,0.185c-19.541,0-35.378-0.083-35.378-0.185
					c0-0.103,15.837-0.182,35.378-0.182C129.622,218.757,145.46,218.836,145.46,218.938z"/>
			</g>
		</g>
		<g>
			<g>
				<rect x="74.757" y="140.801" fill="#FF725E" width="68.747" height="43.889"/>
			</g>
			<g>
				<g>
					<path fill="#263238" d="M140.546,181.2c0,0-0.01-0.237-0.015-0.685c-0.005-0.458-0.009-1.118-0.016-1.978
						c-0.008-1.741-0.021-4.281-0.036-7.54c-0.018-6.52-0.044-15.901-0.076-27.394l0.143,0.143
						c-16.839,0.01-38.603,0.025-62.293,0.04h-0.005l0.183-0.183c-0.004,13.319-0.009,26.028-0.013,37.596l-0.169-0.17
						c18.253,0.034,33.805,0.063,44.806,0.084c5.502,0.02,9.865,0.034,12.865,0.045c1.492,0.009,2.641,0.018,3.432,0.021
						c0.384,0.004,0.678,0.008,0.889,0.011C140.438,181.193,140.546,181.2,140.546,181.2s-0.093,0.007-0.288,0.01
						c-0.206,0.003-0.494,0.006-0.869,0.01c-0.783,0.005-1.922,0.012-3.397,0.022c-2.991,0.009-7.34,0.025-12.826,0.044
						c-11.028,0.021-26.62,0.049-44.918,0.083h-0.17v-0.17c-0.004-11.567-0.009-24.276-0.013-37.595v-0.184h0.183h0.005
						c23.691,0.016,45.454,0.029,62.293,0.041h0.144v0.143c-0.032,11.53-0.057,20.941-0.075,27.481
						c-0.017,3.245-0.028,5.775-0.037,7.507c-0.007,0.849-0.012,1.5-0.017,1.951C140.556,180.983,140.546,181.2,140.546,181.2z"/>
				</g>
			</g>
			<g opacity="0.2">
				<polygon points="79.93,181.2 97.951,157.976 110.975,172.851 120.941,163.88 139.066,181.2 				"/>
			</g>
			<g opacity="0.2">
				<circle cx="110.987" cy="155.212" r="4.018"/>
			</g>
		</g>
		<g>
			<g>
				<ellipse fill="#263238" cx="167.89" cy="140.418" rx="19.271" ry="0.183"/>
			</g>
		</g>
		<g>
			<g>
				<ellipse fill="#263238" cx="167.89" cy="147.249" rx="19.271" ry="0.183"/>
			</g>
		</g>
		<g>
			<g>
				<path fill="#263238" d="M185.779,176.979c0,0.102-8.629,0.184-19.27,0.184c-10.646,0-19.272-0.082-19.272-0.184
					c0-0.101,8.626-0.183,19.272-0.183C177.15,176.796,185.779,176.879,185.779,176.979z"/>
			</g>
		</g>
		<g>
			<g>
				<path fill="#263238" d="M185.779,184.69c0,0.101-8.629,0.185-19.27,0.185c-10.646,0-19.272-0.083-19.272-0.185
					c0-0.101,8.626-0.184,19.272-0.184C177.15,184.506,185.779,184.589,185.779,184.69z"/>
			</g>
		</g>
		<g>
			<g>
				<ellipse fill="#263238" cx="161.595" cy="154.081" rx="12.977" ry="0.184"/>
			</g>
		</g>
		<g>
			<g>
				<ellipse fill="#263238" cx="182.605" cy="154.002" rx="4.846" ry="0.183"/>
			</g>
		</g>
		<g>
			<g>
				<ellipse fill="#263238" cx="174.524" cy="161.573" rx="12.928" ry="0.183"/>
			</g>
		</g>
		<g>
			<g>
				<ellipse fill="#263238" cx="161.595" cy="169.223" rx="12.977" ry="0.183"/>
			</g>
		</g>
		<g>
			<g>
				<ellipse fill="#263238" cx="182.605" cy="169.144" rx="4.846" ry="0.184"/>
			</g>
		</g>
		<g>
			<g>
				<ellipse fill="#263238" cx="152.896" cy="161.397" rx="3.571" ry="0.183"/>
			</g>
		</g>
		<g>
			<g>
				<path fill="#263238" d="M146.168,226.222c0,0.103-15.998,0.185-35.728,0.185c-19.736,0-35.731-0.082-35.731-0.185
					c0-0.1,15.994-0.183,35.731-0.183C130.17,226.039,146.168,226.122,146.168,226.222z"/>
			</g>
		</g>
		<g>
			<g>
				<path fill="#263238" d="M147.243,234.463c0,0.103-15.998,0.185-35.728,0.185c-19.736,0-35.73-0.082-35.73-0.185
					c0-0.101,15.994-0.184,35.73-0.184C131.244,234.279,147.243,234.362,147.243,234.463z"/>
			</g>
		</g>
	</g>
	<g>
		<g>
			<circle fill="#EBEBEB" cx="61.927" cy="164.595" r="9.426"/>
		</g>
		<g>
			<g>
				<path fill="#263238" d="M71.354,164.595c-0.055,0.004,0.003-0.84-0.364-2.284c-0.363-1.416-1.308-3.497-3.437-5.106
					c-1.055-0.786-2.383-1.454-3.914-1.72c-1.52-0.257-3.234-0.207-4.865,0.415c-0.821,0.286-1.612,0.718-2.34,1.262
					c-0.736,0.535-1.403,1.198-1.954,1.966c-1.137,1.514-1.778,3.46-1.797,5.464c0.018,2.005,0.658,3.951,1.796,5.466
					c0.55,0.77,1.218,1.432,1.954,1.967c0.728,0.545,1.52,0.978,2.34,1.263c1.63,0.623,3.346,0.672,4.865,0.415
					c1.531-0.267,2.858-0.934,3.914-1.72c2.129-1.608,3.074-3.69,3.437-5.105C71.357,165.436,71.298,164.591,71.354,164.595
					c0.013,0,0.015,0.207,0.006,0.604c0,0.199-0.009,0.443-0.057,0.729c-0.037,0.288-0.073,0.622-0.176,0.986
					c-0.326,1.446-1.25,3.595-3.417,5.276c-1.074,0.822-2.437,1.524-4.014,1.814c-1.568,0.28-3.342,0.239-5.037-0.396
					c-0.853-0.293-1.677-0.737-2.433-1.3c-0.765-0.551-1.461-1.238-2.035-2.035c-1.185-1.57-1.856-3.594-1.873-5.678
					c0.017-2.083,0.689-4.108,1.874-5.677c0.573-0.796,1.269-1.482,2.035-2.034c0.757-0.563,1.58-1.007,2.433-1.299
					c1.695-0.636,3.468-0.676,5.036-0.396c1.579,0.289,2.941,0.991,4.014,1.813c2.168,1.681,3.092,3.83,3.418,5.276
					c0.103,0.364,0.139,0.698,0.176,0.986c0.048,0.287,0.057,0.531,0.056,0.73C71.368,164.389,71.367,164.595,71.354,164.595z"/>
			</g>
		</g>
	</g>
	<g>
		<g>
			<circle fill="#EBEBEB" cx="203.294" cy="164.595" r="9.426"/>
		</g>
		<g>
			<g>
				<path fill="#263238" d="M212.72,164.595c-0.056,0.004,0.005-0.84-0.363-2.284c-0.363-1.416-1.31-3.497-3.438-5.106
					c-1.055-0.786-2.384-1.454-3.913-1.72c-1.521-0.257-3.235-0.207-4.865,0.415c-0.82,0.286-1.612,0.718-2.339,1.262
					c-0.735,0.535-1.403,1.198-1.953,1.966c-1.137,1.514-1.777,3.46-1.797,5.464c0.018,2.005,0.659,3.951,1.797,5.466
					c0.549,0.77,1.217,1.432,1.953,1.967c0.727,0.545,1.519,0.978,2.339,1.263c1.631,0.623,3.347,0.672,4.865,0.415
					c1.531-0.267,2.858-0.934,3.913-1.72c2.13-1.608,3.074-3.69,3.438-5.105C212.725,165.436,212.664,164.591,212.72,164.595
					c0.014,0,0.015,0.207,0.008,0.604c0.001,0.199-0.009,0.443-0.058,0.729c-0.037,0.288-0.071,0.622-0.174,0.986
					c-0.328,1.446-1.251,3.595-3.419,5.276c-1.074,0.822-2.436,1.524-4.015,1.814c-1.568,0.28-3.342,0.239-5.036-0.396
					c-0.852-0.293-1.677-0.737-2.434-1.3c-0.765-0.551-1.46-1.238-2.035-2.035c-1.185-1.57-1.856-3.594-1.874-5.678
					c0.018-2.083,0.689-4.108,1.874-5.677c0.574-0.796,1.27-1.482,2.035-2.034c0.757-0.563,1.581-1.007,2.434-1.299
					c1.694-0.636,3.468-0.676,5.036-0.396c1.578,0.289,2.94,0.991,4.015,1.813c2.168,1.681,3.091,3.83,3.419,5.276
					c0.103,0.364,0.137,0.698,0.174,0.986c0.049,0.287,0.059,0.531,0.058,0.73C212.734,164.389,212.733,164.595,212.72,164.595z"/>
			</g>
		</g>
	</g>
	<g>
		<path fill="#263238" d="M202.177,167.693c-0.101,0-0.2-0.042-0.271-0.126c-0.126-0.149-0.104-0.371,0.045-0.497l2.951-2.476
			l-2.951-2.476c-0.149-0.125-0.171-0.347-0.045-0.497c0.126-0.148,0.348-0.167,0.496-0.043l3.274,2.746
			c0.08,0.067,0.126,0.167,0.126,0.27c0,0.104-0.048,0.203-0.126,0.27l-3.274,2.745
			C202.337,167.666,202.255,167.693,202.177,167.693z"/>
	</g>
	<g>
		<path fill="#263238" d="M63.565,167.693c-0.082,0-0.161-0.027-0.227-0.082l-3.275-2.746c-0.08-0.067-0.125-0.166-0.125-0.27
			c0-0.104,0.046-0.202,0.125-0.269l3.275-2.746c0.15-0.124,0.372-0.105,0.497,0.043c0.124,0.149,0.105,0.371-0.044,0.497
			l-2.952,2.477l2.952,2.476c0.149,0.125,0.168,0.348,0.044,0.497C63.764,167.65,63.665,167.693,63.565,167.693z"/>
	</g>
</g>
<g>
	<g>
		<g>
			<g>
				<path fill="#FFC94A" d="M239.985,257.312l-16.476,54.23l-34.644,16.454l2.292,18.612l32.521-7.744
					c17.055-3.451,26.006-9.83,29.783-25.846l6.524-21.324L239.985,257.312z"/>
			</g>
			<g>
				<g>
					<g>
						<path fill="#263238" d="M323.21,241.78c0.002,0.024-0.349,0.053-0.979,0.103c-0.63,0.051-1.544,0.119-2.648,0.325
							c-1.103,0.21-2.395,0.591-3.689,1.316c-1.284,0.726-2.668,1.654-3.859,2.864c-1.172,1.242-2.073,2.621-2.787,3.925
							c-0.723,1.304-1.271,2.533-1.699,3.578c-0.426,1.045-0.738,1.905-0.953,2.502c-0.212,0.596-0.333,0.925-0.355,0.919
							c-0.022-0.007,0.057-0.348,0.229-0.959c0.176-0.61,0.453-1.486,0.854-2.55c0.403-1.063,0.932-2.313,1.647-3.642
							c0.708-1.327,1.613-2.734,2.818-4.012c1.237-1.254,2.633-2.172,3.955-2.902c1.335-0.727,2.675-1.097,3.798-1.276
							c1.128-0.18,2.051-0.211,2.685-0.221C322.859,241.74,323.21,241.758,323.21,241.78z"/>
					</g>
				</g>
				<g>
					<g>
						<path fill="#FFBE9D" d="M201.934,331.325l10.254-6.797c1.022-0.649,2.243-0.913,3.441-0.743l7.848,1.106l17.98,9.02
							l9.052-0.696l-0.737,15.666c0,0-8.016-0.013-11.146-0.718c-3.13-0.704-7.361-3.758-7.361-3.758s0.966,1.638,0.37,2.839
							c-0.595,1.198-4.918,2.893-4.918,2.893s-3.044,0.887-3.451-1.251c0,0-5.306,0.407-5.597-3.836c0,0-7.972-1.816-6.617-5.456
							c1.005-2.704,1.987-4.666,1.987-4.666l2.669-5.131l-2.641-0.613c0,0-5.025,3.329-7.152,3.563
							C203.79,332.978,201.934,331.325,201.934,331.325z"/>
					</g>
					<g>
						<g>
							<path fill="#EB996E" d="M221.795,333.065c0.032,0.058-0.758,0.396-1.783,1.283c-1.006,0.874-2.258,2.38-2.772,4.362
								c-0.222,0.993-0.186,1.988-0.117,2.878c0.081,0.893,0.213,1.695,0.332,2.365c0.247,1.344,0.426,2.172,0.375,2.185
								c-0.022,0.006-0.095-0.194-0.204-0.562c-0.111-0.368-0.257-0.904-0.408-1.573c-0.152-0.671-0.311-1.477-0.41-2.384
								c-0.087-0.907-0.135-1.93,0.096-2.984c0.546-2.099,1.878-3.618,2.951-4.474c0.546-0.431,1.031-0.716,1.382-0.881
								C221.582,333.111,221.789,333.046,221.795,333.065z"/>
						</g>
					</g>
					<g>
						<g>
							<path fill="#EB996E" d="M225.812,337.715c-0.009,0.031-0.204-0.019-0.559-0.017c-0.351,0.007-0.866,0.1-1.409,0.415
								c-0.539,0.309-1.111,0.841-1.474,1.58c-0.362,0.742-0.515,1.669-0.472,2.638c0.037,0.972,0.245,1.881,0.425,2.722
								c0.178,0.837,0.351,1.586,0.52,2.208c0.333,1.247,0.637,1.989,0.586,2.011c-0.019,0.009-0.124-0.166-0.273-0.498
								c-0.151-0.331-0.348-0.822-0.546-1.444c-0.199-0.621-0.398-1.371-0.594-2.206c-0.195-0.831-0.42-1.769-0.459-2.779
								c-0.046-1.006,0.122-1.994,0.532-2.793c0.412-0.796,1.046-1.345,1.639-1.649c0.599-0.312,1.162-0.37,1.53-0.337
								C225.63,337.604,225.816,337.701,225.812,337.715z"/>
						</g>
					</g>
					<g>
						<g>
							<path fill="#EB996E" d="M228.567,344.47c-0.033-0.022,0.042-0.209,0.285-0.401c0.238-0.191,0.631-0.371,1.099-0.409
								c0.465-0.041,0.912,0.094,1.146,0.32c0.24,0.224,0.256,0.438,0.222,0.447c-0.051,0.024-0.147-0.128-0.366-0.253
								c-0.213-0.13-0.571-0.207-0.976-0.172C229.146,344.052,228.632,344.522,228.567,344.47z"/>
						</g>
					</g>
					<g>
						<g>
							<path fill="#EB996E" d="M229.231,341.341c0.034-0.028,0.185,0.117,0.274,0.415c0.092,0.291,0.134,0.714,0.072,1.17
								c-0.061,0.457-0.222,0.863-0.423,1.105c-0.197,0.249-0.398,0.31-0.418,0.273c-0.028-0.044,0.097-0.165,0.214-0.405
								c0.124-0.238,0.232-0.602,0.287-1.019c0.056-0.419,0.056-0.804,0.031-1.077C229.248,341.529,229.188,341.369,229.231,341.341
								z"/>
						</g>
					</g>
					<g>
						<g>
							<path fill="#EB996E" d="M211.052,339.594c-0.021-0.01,0.059-0.233,0.226-0.629c0.164-0.396,0.413-0.964,0.725-1.663
								c0.631-1.396,1.521-3.314,2.522-5.426c0.36-0.757,0.709-1.484,1.033-2.164l0.013-0.025l0.017-0.019
								c0.65-0.644,1.427-1.045,2.151-1.236c0.729-0.203,1.406-0.214,1.948-0.146c0.547,0.068,0.963,0.212,1.233,0.336
								c0.271,0.128,0.404,0.218,0.395,0.233c-0.019,0.055-0.59-0.281-1.648-0.363c-1.025-0.087-2.634,0.179-3.844,1.405
								l0.032-0.044c-0.321,0.681-0.665,1.412-1.023,2.168c-1.001,2.111-1.925,4.015-2.608,5.384
								c-0.343,0.687-0.625,1.237-0.828,1.615C211.195,339.399,211.071,339.603,211.052,339.594z"/>
						</g>
					</g>
				</g>
				<g>
					<g>
						<path fill="#FFC94A" d="M341.481,308.889c0,0-1.595-48.368-3.629-55.053c-2.034-6.684-4.522-10.359-9.553-13.61
							c-5.732-3.705-25.772-7.896-26.459-8.509l-33.709,0.667l-2.027,0.225c-11.492,1.273-21.423,8.963-25.052,19.94
							c-0.14,0.421-0.273,0.851-0.401,1.287c-4.085,13.978,11.934,34.076,11.932,33.191c0.041,4.174,0.314,8.174,1.027,11.025
							c2.324,9.304,22.668,24.913,23.828,29.459c1.163,4.547,1.753,23.976,1.753,23.976s31.77,0.241,45.985,0.171
							c11.556-0.058,36.275-0.171,36.275-0.171L341.481,308.889z"/>
					</g>
					<g>
						<g>
							<path fill="#263238" d="M251.424,251.537c0.011-0.004,0.072,0.185,0.184,0.551c0.106,0.366,0.289,0.902,0.43,1.614
								c0.33,1.411,0.651,3.499,0.73,6.093c0.089,2.595-0.035,5.687-0.32,9.098c-0.268,3.413-0.68,7.154-0.877,11.091
								c-0.209,3.937-0.13,7.704,0.37,11.077c0.483,3.378,1.422,6.327,2.479,8.675c1.064,2.352,2.237,4.091,3.068,5.27
								c0.429,0.581,0.788,1.013,1.015,1.318c0.231,0.304,0.349,0.466,0.34,0.473c-0.011,0.008-0.145-0.139-0.392-0.428
								c-0.246-0.292-0.622-0.712-1.068-1.284c-0.866-1.158-2.081-2.89-3.181-5.248c-1.095-2.354-2.069-5.325-2.574-8.728
								c-0.52-3.4-0.606-7.191-0.398-11.143c0.198-3.95,0.622-7.694,0.904-11.101c0.303-3.406,0.452-6.481,0.395-9.063
								c-0.049-2.583-0.333-4.66-0.621-6.073c-0.12-0.713-0.28-1.251-0.364-1.623C251.453,251.738,251.411,251.54,251.424,251.537z"
								/>
						</g>
					</g>
					<g opacity="0.3">
						<g>
							<path d="M332.664,273.674c-7.032,22.104-12.502,44.704-16.354,67.578l-3.738,6.615c4.706-0.655,8.638-4.135,11.036-8.238
								c2.396-4.103,3.498-8.812,4.569-13.441C332.171,308.932,336.179,291.033,332.664,273.674z"/>
						</g>
					</g>
					<g>
						<g>
							<path fill="#FFC94A" d="M248.014,331.494l47.024-5.478c0,0,9.824-59.464,10.098-60.522
								c0.273-1.057,3.563-19.572,12.879-21.161c9.313-1.587,17.807,2.117,18.357,11.11c0.437,7.194-9.999,58.851-16.576,82.773
								c-1.894,6.881-9.434,12.972-16.805,13.11c-19.218,0.363-54.759,0-54.759,0L248.014,331.494z"/>
						</g>
						<g>
							<g>
								<path fill="#263238" d="M305.135,265.493c-0.186,1.141-3.925,23.868-9.957,60.546l-0.018,0.097l-0.1,0.02
									c-13.848,2.371-29.648,2.69-46.853,5.637l0.139-0.165c0.063,5.501-0.012,13.75,0.055,19.697l-0.169-0.169
									c5.69,0.041,11.696,0.081,17.791,0.124c9.951,0.047,19.665,0.056,29.047-0.018c2.346-0.029,4.669-0.058,6.972-0.087
									c2.294,0.012,4.548-0.359,6.611-1.253c4.118-1.733,7.596-4.793,9.655-8.539l0.381-0.702l0.317-0.731
									c0.231-0.478,0.374-0.987,0.542-1.486c0.306-1.01,0.555-2.044,0.832-3.055c0.555-2.025,1.045-4.038,1.548-6.015
									c0.989-3.963,1.904-7.821,2.766-11.555c1.725-7.47,3.236-14.449,4.575-20.83c2.65-12.767,4.614-23.136,5.767-30.335
									c0.289-1.799,0.546-3.399,0.725-4.789c0.094-0.695,0.182-1.337,0.261-1.924c0.063-0.589,0.116-1.122,0.167-1.6
									c0.121-0.953,0.134-1.684,0.148-2.174c0.016-0.493,0.032-0.744,0.032-0.744s0.007,0.25,0,0.744c0,0.491,0,1.227-0.111,2.18
									c-0.048,0.48-0.095,1.015-0.151,1.604c-0.074,0.587-0.157,1.23-0.247,1.925c-0.169,1.396-0.414,2.997-0.692,4.798
									c-1.112,7.211-3.042,17.588-5.659,30.364c-1.327,6.384-2.824,13.368-4.536,20.843c-0.856,3.738-1.767,7.598-2.751,11.564
									c-0.502,1.979-0.991,3.992-1.541,6.021c-0.276,1.016-0.523,2.041-0.831,3.065c-0.17,0.512-0.319,1.032-0.553,1.521
									l-0.322,0.747l-0.387,0.716c-2.097,3.817-5.62,6.92-9.809,8.69c-2.089,0.911-4.424,1.295-6.73,1.282
									c-2.304,0.029-4.627,0.062-6.975,0.092c-9.385,0.078-19.099,0.068-29.052,0.023c-6.094-0.043-12.102-0.086-17.792-0.126
									l-0.167-0.002l-0.002-0.167c-0.063-5.947,0.013-14.196-0.047-19.697l-0.002-0.144l0.14-0.021
									c17.207-2.931,33.01-3.23,46.862-5.59l-0.114,0.116c3.071-18.367,5.602-33.494,7.364-44.038
									c0.899-5.26,1.604-9.375,2.083-12.185c0.248-1.394,0.438-2.463,0.567-3.189C305.05,265.86,305.135,265.493,305.135,265.493z
									"/>
							</g>
						</g>
					</g>
				</g>
			</g>
			<g opacity="0.3">
				<g>
					<path d="M250.936,283.85c-0.121-7.39,1.988-15.144,1.957-23.176c-2.426,6.338-4.055,12.976-4.838,19.715
						c-0.54,4.623-0.669,9.388,0.653,13.851c1.32,4.461,4.274,8.617,8.532,10.492C252.825,298.803,251.055,291.238,250.936,283.85z"
						/>
				</g>
			</g>
		</g>
		<g>
			<g>
				<path fill="#263238" d="M249.425,194.769c-3.801-2.675-5.792-7.715-4.849-12.279c0.105-0.511,0.238-1.074-0.01-1.533
					c-0.21-0.396-0.647-0.605-1.041-0.814c-2.174-1.149-3.951-3.14-4.587-5.523c-0.637-2.383-0.022-5.125,1.754-6.827
					c-3.592-1.235-5.157-6.054-3.511-9.488c1.646-3.434,5.757-5.248,9.53-4.844c-1.321-1.908-0.787-4.682,0.745-6.424
					c1.531-1.743,3.829-2.614,6.1-3.057c3.055-0.597,6.736-0.281,8.519,2.283c0.145-1.911,2.037-3.222,3.885-3.701
					c4.95-1.289,10.63,1.9,12.133,6.814c1.565-1.179,3.378-2.184,5.331-2.226c1.957-0.041,4.044,1.142,4.499,3.053
					c0.807-1.759,2.904-2.507,4.825-2.704c1.384-0.142,2.85-0.074,4.07,0.602c1.221,0.676,2.116,2.084,1.847,3.458
					c2.504-0.99,5.665,0.235,6.859,2.657s0.25,5.69-2.053,7.091c2.069,1.127,3.485,3.378,3.609,5.738
					c0.125,2.359-1.048,4.748-2.985,6.086c1.168,0.083,1.771,1.656,1.259,2.715c-0.511,1.059-1.717,1.602-2.873,1.784
					c0.509,4.028,1.017,8.054,1.527,12.08c0.327,2.599,0.654,5.249,0.161,7.821c-0.494,2.571-1.956,5.099-4.326,6.189"/>
			</g>
			<g>
				<g>
					<g>
						<g>
							<g>
								<g>
									<g>
										<g>
											<g>
												<g>
													<g>
														<path fill="#FFBE9D" d="M248.032,183.134c-0.719-9.807,8.387-20.953,18.172-21.255l32.098,1.673l0.61,5.246
															l4.133,66.355l-29.313,26.092l-3.707-29.842c0,0-12.648-0.36-17.423-16.216
															C250.229,207.302,248.828,194.03,248.032,183.134z"/>
													</g>
												</g>
											</g>
										</g>
									</g>
								</g>
								<g>
									<g>
										<g>
											<g>
												<g>
													<g>
														<g>
															<g>
																<g>
																	<g>
																		<g>
																			<g>
																				<g>
																					<g>
																						<g>
																							<path fill="#263238" d="M253.802,195.215c0.111,1.103,1.134,1.918,2.281,1.822
																								c1.147-0.095,1.989-1.063,1.878-2.167c-0.112-1.103-1.133-1.919-2.278-1.824
																								C254.532,193.14,253.69,194.111,253.802,195.215z"/>
																						</g>
																					</g>
																				</g>
																			</g>
																		</g>
																	</g>
																</g>
															</g>
														</g>
													</g>
												</g>
											</g>
										</g>
									</g>
									<g>
										<g>
											<g>
												<g>
													<g>
														<g>
															<g>
																<g>
																	<g>
																		<g>
																			<g>
																				<g>
																					<g>
																						<g>
																							<g>
																								<path fill="#263238" d="M251.823,189.617c0.294,0.236,1.702-1.146,3.931-1.446
																									c2.222-0.332,4.012,0.594,4.218,0.285c0.101-0.135-0.227-0.59-1.009-1.012
																									c-0.773-0.423-2.035-0.762-3.422-0.565c-1.385,0.198-2.483,0.872-3.08,1.489
																									C251.845,188.99,251.682,189.513,251.823,189.617z"/>
																							</g>
																						</g>
																					</g>
																				</g>
																			</g>
																		</g>
																	</g>
																</g>
															</g>
														</g>
													</g>
												</g>
											</g>
										</g>
									</g>
								</g>
								<g>
									<g>
										<g>
											<g>
												<g>
													<g>
														<g>
															<g>
																<g>
																	<g>
																		<g>
																			<g>
																				<g>
																					<g>
																						<g>
																							<path fill="#263238" d="M274.745,193.21c0.11,1.104,1.133,1.919,2.281,1.824
																								c1.148-0.097,1.989-1.064,1.877-2.168c-0.111-1.104-1.132-1.92-2.28-1.824
																								C275.475,191.137,274.635,192.108,274.745,193.21z"/>
																						</g>
																					</g>
																				</g>
																			</g>
																		</g>
																	</g>
																</g>
															</g>
														</g>
													</g>
												</g>
											</g>
										</g>
									</g>
									<g>
										<g>
											<g>
												<g>
													<g>
														<g>
															<g>
																<g>
																	<g>
																		<g>
																			<g>
																				<g>
																					<g>
																						<g>
																							<g>
																								<path fill="#263238" d="M273.775,187.511c0.293,0.236,1.702-1.146,3.929-1.445
																									c2.221-0.333,4.014,0.592,4.217,0.286c0.101-0.137-0.225-0.592-1.009-1.014
																									c-0.771-0.422-2.035-0.761-3.422-0.564c-1.385,0.198-2.48,0.872-3.08,1.488
																									C273.798,186.885,273.632,187.407,273.775,187.511z"/>
																							</g>
																						</g>
																					</g>
																				</g>
																			</g>
																		</g>
																	</g>
																</g>
															</g>
														</g>
													</g>
												</g>
											</g>
										</g>
									</g>
								</g>
								<g>
									<g>
										<g>
											<g>
												<g>
													<g>
														<g>
															<g>
																<g>
																	<g>
																		<g>
																			<g>
																				<g>
																					<g>
																						<g>
																							<g>
																								<path fill="#263238" d="M267.951,204.723c-0.008-0.129-1.425-0.179-3.706-0.156
																									c-0.578,0.018-1.132-0.021-1.28-0.397c-0.19-0.395-0.036-1.043,0.148-1.745
																									c0.347-1.456,0.709-2.981,1.091-4.582c1.488-6.513,2.482-11.838,2.223-11.895
																									c-0.263-0.059-1.683,5.174-3.173,11.688c-0.354,1.604-0.69,3.134-1.013,4.597
																									c-0.128,0.68-0.396,1.464,0.011,2.282c0.212,0.405,0.671,0.658,1.049,0.706
																									c0.379,0.061,0.7,0.023,0.983,0.002C266.558,205.034,267.959,204.851,267.951,204.723z"/>
																							</g>
																						</g>
																					</g>
																				</g>
																			</g>
																		</g>
																	</g>
																</g>
															</g>
														</g>
													</g>
												</g>
											</g>
										</g>
									</g>
								</g>
								<g>
									<g>
										<g>
											<g>
												<g>
													<g>
														<g>
															<g>
																<g>
																	<g>
																		<g>
																			<g>
																				<g>
																					<g>
																						<g>
																							<path fill="#EB996E" d="M270.024,231.405c0,0,10.95-0.791,20.819-8.764c0,0-3.858,12.925-20.214,13.631
																								L270.024,231.405z"/>
																						</g>
																					</g>
																				</g>
																			</g>
																		</g>
																	</g>
																</g>
															</g>
														</g>
													</g>
												</g>
											</g>
										</g>
									</g>
								</g>
								<g>
									<g>
										<g>
											<g>
												<g>
													<g>
														<g>
															<g>
																<g>
																	<g>
																		<g>
																			<g>
																				<g>
																					<g>
																						<g>
																							<path fill="#EB996E" d="M269.628,209.984c0.656-1.174,1.978-1.951,3.393-1.992
																								c0.981-0.028,2.021,0.306,2.716,1.015c0.694,0.71,0.972,1.814,0.541,2.643
																								c-0.486,0.931-1.714,1.299-2.817,1.144c-1.106-0.158-2.115-0.735-3.08-1.315
																								c-0.268-0.16-0.541-0.329-0.727-0.574c-0.187-0.245-0.266-0.588-0.109-0.833"/>
																						</g>
																					</g>
																				</g>
																			</g>
																		</g>
																	</g>
																</g>
															</g>
														</g>
													</g>
												</g>
											</g>
										</g>
									</g>
								</g>
								<g>
									<g>
										<g>
											<g>
												<g>
													<g>
														<g>
															<g>
																<g>
																	<g>
																		<g>
																			<g>
																				<g>
																					<g>
																						<g>
																							<g>
																								<path fill="#263238" d="M274.715,205.368c-0.364,0.027-0.036,2.458-1.872,4.466
																									c-1.829,2.013-4.442,2.094-4.416,2.437c-0.014,0.156,0.639,0.393,1.732,0.272
																									c1.069-0.11,2.58-0.668,3.704-1.897c1.118-1.229,1.466-2.713,1.412-3.723
																									C275.23,205.896,274.88,205.331,274.715,205.368z"/>
																							</g>
																						</g>
																					</g>
																				</g>
																			</g>
																		</g>
																	</g>
																</g>
															</g>
														</g>
													</g>
												</g>
											</g>
										</g>
									</g>
								</g>
							</g>
						</g>
					</g>
					<g>
						<g>
							<g>
								<g>
									<g>
										<g>
											<g>
												<g>
													<g>
														<g>
															<g>
																<g>
																	<g>
																		<g>
																			<g>
																				<g>
																					<path fill="#263238" d="M272.011,179.613c0.304,0.577,2.487-0.017,5.143-0.061
																						c2.654-0.095,4.867,0.383,5.14-0.211c0.118-0.283-0.326-0.804-1.26-1.276
																						c-0.926-0.471-2.349-0.844-3.939-0.804c-1.593,0.043-2.994,0.49-3.892,1.01
																						C272.296,178.792,271.878,179.336,272.011,179.613z"/>
																				</g>
																			</g>
																		</g>
																	</g>
																</g>
															</g>
														</g>
													</g>
												</g>
											</g>
										</g>
									</g>
								</g>
							</g>
						</g>
					</g>
					<g>
						<g>
							<g>
								<g>
									<g>
										<g>
											<g>
												<g>
													<g>
														<g>
															<g>
																<g>
																	<g>
																		<g>
																			<g>
																				<g>
																					<path fill="#263238" d="M251.759,183.03c0.461,0.455,1.924-0.285,3.763-0.562
																						c1.833-0.344,3.454-0.129,3.744-0.709c0.119-0.28-0.194-0.754-0.943-1.141
																						c-0.738-0.388-1.917-0.625-3.179-0.412c-1.261,0.215-2.297,0.827-2.868,1.435
																						C251.695,182.254,251.553,182.807,251.759,183.03z"/>
																				</g>
																			</g>
																		</g>
																	</g>
																</g>
															</g>
														</g>
													</g>
												</g>
											</g>
										</g>
									</g>
								</g>
							</g>
						</g>
					</g>
				</g>
			</g>
			<g>
				<path fill="#263238" d="M252.134,163.541c-0.64,3.093,0.765,6.511,3.392,8.249c2.628,1.737,6.309,1.684,8.884-0.128
					c-0.93,1.176-0.491,3.047,0.64,4.029c1.134,0.982,2.738,1.225,4.229,1.113c3.136-0.234,6.135-1.919,7.977-4.48
					c0.655,2.44,2.523,4.519,4.872,5.421c2.353,0.903,5.124,0.606,7.233-0.773c-1.896,2.375-2.096,5.974-0.475,8.548
					c1.618,2.573,4.942,3.935,7.891,3.234c2.95-0.701,5.313-3.413,5.612-6.442c2.161-1.291,3.667-3.631,3.954-6.14
					c0.286-2.51-0.655-5.131-2.47-6.88c1.56-0.724,2.477-2.468,2.593-4.189c0.119-1.722-0.451-3.423-1.203-4.974
					c-1.843-3.797-5.006-7.097-9.021-8.358c-4.013-1.263-8.86-0.141-11.391,3.231c-0.286,0.381-0.575,0.813-1.028,0.953
					c-0.621,0.191-1.247-0.237-1.754-0.646c-2.245-1.81-4.601-3.768-7.453-4.151c-3.444-0.462-7.054,1.824-8.125,5.146
					c-2.371-3.059-6.782-4.6-10.314-3.043c-3.536,1.557-5.333,6.493-3.137,9.68"/>
			</g>
			<g>
				<path fill="#263238" d="M294.823,186.541c0.612,3.266,1.694,6.444,3.199,9.405c0.638,1.258,1.564,2.618,2.965,2.741
					c1.274,0.111,2.424-0.938,2.85-2.151c0.424-1.21,0.286-2.542,0.092-3.813c-0.684-4.513-1.963-8.911-3.238-13.292"/>
			</g>
			<g>
				<g>
					<g>
						<g>
							<g>
								<g>
									<g>
										<g>
											<g>
												<g>
													<g>
														<g>
															<g>
																<g>
																	<g>
																		<g>
																			<path fill="#FFBE9D" d="M298.699,188.625c0.187-0.126,7.754-3.976,9.016,4.277
																				c1.263,8.251-7.245,7.821-7.296,7.586C300.369,200.254,298.699,188.625,298.699,188.625z"/>
																		</g>
																	</g>
																</g>
															</g>
														</g>
													</g>
												</g>
											</g>
										</g>
									</g>
								</g>
							</g>
						</g>
					</g>
				</g>
			</g>
			<g>
				<g>
					<g>
						<g>
							<g>
								<g>
									<g>
										<g>
											<g>
												<g>
													<g>
														<g>
															<g>
																<g>
																	<g>
																		<g>
																			<g>
																				<path fill="#EB996E" d="M302.449,196.975c0.034-0.032,0.159,0.08,0.419,0.153
																					c0.252,0.072,0.67,0.083,1.072-0.144c0.819-0.454,1.339-1.95,1.151-3.444c-0.094-0.755-0.36-1.446-0.715-1.998
																					c-0.345-0.565-0.797-0.926-1.245-0.937c-0.452-0.034-0.721,0.276-0.786,0.524
																					c-0.074,0.248,0.004,0.404-0.04,0.425c-0.019,0.023-0.194-0.111-0.182-0.462
																					c0.009-0.17,0.075-0.379,0.244-0.567c0.172-0.192,0.449-0.319,0.759-0.333c0.64-0.054,1.3,0.444,1.69,1.049
																					c0.427,0.602,0.744,1.376,0.849,2.223c0.202,1.67-0.409,3.357-1.543,3.886c-0.554,0.24-1.063,0.138-1.343-0.017
																					C302.496,197.172,302.425,196.996,302.449,196.975z"/>
																			</g>
																		</g>
																	</g>
																</g>
															</g>
														</g>
													</g>
												</g>
											</g>
										</g>
									</g>
								</g>
							</g>
						</g>
					</g>
				</g>
			</g>
			<g>
				<g>
					<path fill="#FFFFFF" d="M277.433,170.628c0.001,0.009-0.084,0.043-0.249,0.101c-0.164,0.059-0.415,0.135-0.744,0.221
						c-0.656,0.167-1.642,0.389-2.92,0.391c-0.64-0.001-1.354-0.062-2.104-0.264c-0.746-0.194-1.541-0.531-2.254-1.097
						c-0.708-0.56-1.339-1.324-1.751-2.263c-0.401-0.934-0.557-2.083-0.185-3.174l0.293,0.192c-1.572,1.5-3.793,2.623-6.299,2.902
						c-1.248,0.148-2.56,0.07-3.845-0.252c-0.642-0.167-1.285-0.399-1.873-0.769c-0.588-0.362-1.105-0.895-1.422-1.536
						c-0.383-0.751-0.506-1.582-0.526-2.374c-0.017-0.797,0.06-1.571,0.152-2.327c0.1-0.761,0.252-1.516,0.571-2.215
						c0.303-0.691,0.872-1.34,1.631-1.543l0.142,0.375c-1.381,0.644-2.912,0.731-4.259,0.412c-1.355-0.307-2.546-0.991-3.434-1.876
						c-0.88-0.892-1.455-1.991-1.649-3.071c-0.213-1.077-0.141-2.107,0.077-2.991c0.449-1.785,1.436-2.947,2.177-3.573
						c0.762-0.63,1.277-0.797,1.277-0.797c0.022,0.038-0.473,0.251-1.189,0.897c-0.699,0.643-1.624,1.799-2.021,3.532
						c-0.194,0.858-0.247,1.849-0.029,2.871c0.2,1.026,0.757,2.05,1.597,2.888c0.85,0.83,1.988,1.47,3.277,1.751
						c1.28,0.294,2.72,0.198,4.004-0.407l0.142,0.374c-0.618,0.17-1.092,0.694-1.371,1.33c-0.287,0.635-0.434,1.357-0.529,2.094
						c-0.165,1.469-0.338,3.088,0.336,4.456c0.566,1.172,1.813,1.784,3.024,2.092c1.231,0.31,2.492,0.39,3.696,0.253
						c2.415-0.259,4.569-1.329,6.095-2.762l0.544-0.509l-0.247,0.702c-0.348,0.987-0.218,2.042,0.147,2.924
						c0.378,0.884,0.967,1.618,1.632,2.16c0.668,0.547,1.416,0.88,2.138,1.083c0.72,0.208,1.413,0.281,2.035,0.299
						c1.254,0.03,2.234-0.156,2.894-0.288C277.076,170.703,277.423,170.606,277.433,170.628z"/>
				</g>
			</g>
			<g>
				<g>
					<path fill="#FFFFFF" d="M251.496,170.501c0.011,0.021-0.158,0.164-0.518,0.337c-0.356,0.173-0.915,0.365-1.637,0.408
						c-0.71,0.033-1.607-0.058-2.458-0.584c-0.407-0.269-0.81-0.687-0.938-1.259c-0.122-0.541-0.001-1.234,0.54-1.625l0.211,0.363
						c-0.043,0.019-0.09,0.039-0.138,0.059c-2.095,0.937-4.282,0.51-5.549-0.159c-0.649-0.332-1.118-0.701-1.402-0.988
						c-0.286-0.288-0.415-0.473-0.396-0.489c0.056-0.064,0.644,0.637,1.928,1.207c1.243,0.573,3.305,0.916,5.248,0.044
						c0.044-0.019,0.087-0.037,0.128-0.055l1.888-0.81l-1.677,1.174c-0.354,0.249-0.471,0.764-0.378,1.191
						c0.087,0.431,0.402,0.785,0.751,1.025c0.728,0.479,1.569,0.608,2.236,0.611C250.704,170.932,251.468,170.425,251.496,170.501z"
						/>
				</g>
			</g>
			<g>
				<path fill="#455A64" d="M308.055,198.629c0.018-0.039,0.588,0.149,1.456,0.776c0.856,0.621,2.053,1.716,2.848,3.512
					c0.798,1.761,0.968,4.337-0.271,6.671c-1.171,2.352-4.019,4.116-7.074,3.907c-1.528-0.085-2.968-0.732-4.042-1.655
					c-1.094-0.919-1.886-2.068-2.401-3.256c-1.046-2.387-0.862-4.949,0.081-6.676c0.927-1.75,2.311-2.683,3.286-3.101
					c0.997-0.427,1.611-0.411,1.613-0.374c0.019,0.074-0.568,0.17-1.47,0.665c-0.887,0.482-2.122,1.434-2.904,3.073
					c-0.794,1.604-0.897,3.93,0.094,6.104c0.946,2.132,3.055,4.249,5.796,4.389c2.724,0.178,5.265-1.354,6.347-3.442
					c1.149-2.087,1.073-4.422,0.399-6.082c-0.667-1.696-1.737-2.806-2.503-3.482C308.532,198.974,308.02,198.691,308.055,198.629z"
					/>
			</g>
			<g>
				<g>
					<path fill="#263238" d="M261.462,199.308c-0.055,0.003,0.006-0.861-0.371-2.342c-0.371-1.453-1.341-3.587-3.523-5.238
						c-1.082-0.806-2.442-1.49-4.014-1.765c-1.559-0.265-3.317-0.212-4.988,0.426c-0.842,0.293-1.655,0.737-2.4,1.295
						c-0.756,0.548-1.44,1.228-2.003,2.016c-1.167,1.553-1.824,3.549-1.843,5.604c0.017,2.057,0.675,4.053,1.843,5.607
						c0.563,0.789,1.248,1.469,2.003,2.018c0.745,0.559,1.559,1,2.4,1.295c1.671,0.638,3.43,0.689,4.99,0.425
						c1.569-0.274,2.93-0.958,4.012-1.766c2.183-1.65,3.152-3.784,3.523-5.235C261.468,200.168,261.407,199.303,261.462,199.308
						c0.015-0.001,0.016,0.211,0.007,0.618c0,0.204-0.01,0.455-0.058,0.748c-0.039,0.295-0.077,0.637-0.182,1.01
						c-0.335,1.483-1.283,3.685-3.506,5.408c-1.099,0.842-2.495,1.562-4.113,1.858c-1.605,0.285-3.423,0.244-5.161-0.408
						c-0.875-0.3-1.719-0.754-2.492-1.331c-0.786-0.565-1.497-1.269-2.087-2.085c-1.214-1.608-1.9-3.683-1.919-5.82
						c0.02-2.134,0.705-4.208,1.921-5.816c0.588-0.815,1.299-1.52,2.085-2.085c0.775-0.576,1.617-1.032,2.492-1.332
						c1.735-0.652,3.555-0.693,5.161-0.406c1.618,0.296,3.013,1.015,4.113,1.857c2.223,1.723,3.171,3.925,3.506,5.408
						c0.104,0.374,0.143,0.715,0.182,1.011c0.049,0.292,0.058,0.544,0.058,0.748C261.478,199.095,261.477,199.308,261.462,199.308z"
						/>
				</g>
			</g>
			<g>
				<g>
					<path fill="#263238" d="M286.327,197.658c-0.057,0.005,0.004-0.861-0.372-2.342c-0.373-1.451-1.34-3.586-3.524-5.237
						c-1.081-0.805-2.444-1.49-4.014-1.764c-1.557-0.265-3.316-0.213-4.99,0.426c-0.84,0.293-1.652,0.736-2.398,1.294
						c-0.756,0.549-1.439,1.228-2.003,2.017c-1.167,1.552-1.824,3.548-1.843,5.604c0.019,2.058,0.675,4.053,1.843,5.606
						c0.563,0.788,1.247,1.469,2.003,2.018c0.746,0.558,1.558,1.001,2.398,1.295c1.674,0.639,3.434,0.689,4.993,0.426
						c1.569-0.274,2.93-0.96,4.013-1.767c2.183-1.65,3.149-3.785,3.522-5.235C286.331,198.519,286.271,197.654,286.327,197.658
						c0.013,0,0.015,0.213,0.006,0.619c0,0.203-0.011,0.455-0.059,0.748c-0.039,0.295-0.075,0.637-0.181,1.01
						c-0.334,1.483-1.283,3.685-3.506,5.408c-1.099,0.841-2.495,1.561-4.114,1.858c-1.605,0.285-3.424,0.243-5.16-0.409
						c-0.875-0.299-1.718-0.755-2.496-1.33c-0.782-0.565-1.496-1.269-2.083-2.086c-1.216-1.608-1.901-3.684-1.921-5.819
						c0.02-2.134,0.706-4.208,1.921-5.817c0.588-0.816,1.301-1.519,2.083-2.084c0.778-0.577,1.621-1.032,2.496-1.333
						c1.735-0.652,3.554-0.694,5.16-0.406c1.617,0.295,3.014,1.015,4.114,1.857c2.223,1.723,3.172,3.925,3.506,5.408
						c0.105,0.372,0.142,0.714,0.181,1.011c0.049,0.292,0.059,0.544,0.059,0.748C286.341,197.446,286.34,197.658,286.327,197.658z"
						/>
				</g>
			</g>
			<g>
				<g>
					<path fill="#263238" d="M267.361,195.625c-0.042,0.047-0.345-0.214-0.911-0.475c-0.561-0.265-1.41-0.482-2.358-0.418
						c-0.944,0.069-1.755,0.405-2.273,0.746c-0.521,0.338-0.787,0.639-0.835,0.6c-0.03-0.02,0.165-0.39,0.686-0.81
						c0.511-0.419,1.378-0.828,2.399-0.902c1.021-0.07,1.937,0.211,2.502,0.554C267.142,195.262,267.39,195.601,267.361,195.625z"/>
				</g>
			</g>
			<g>
				<g>
					
						<ellipse transform="matrix(-0.2845 -0.9587 0.9587 -0.2845 192.6687 526.0427)" fill="#263238" cx="292.629" cy="191.126" rx="0.184" ry="7.248"/>
				</g>
			</g>
			<g>
				<g>
					<path fill="#FFFFFF" d="M251.046,206.367c-0.003,0.021-0.175,0.03-0.481-0.004c-0.309-0.035-0.751-0.124-1.276-0.311
						c-1.041-0.36-2.428-1.206-3.394-2.64c-0.961-1.436-1.22-3.04-1.159-4.141c0.027-0.556,0.111-1,0.196-1.298
						c0.084-0.296,0.155-0.453,0.179-0.447c0.063,0.015-0.13,0.673-0.114,1.75c0.006,1.063,0.292,2.575,1.202,3.933
						c0.912,1.354,2.203,2.192,3.186,2.603C250.375,206.231,251.056,206.302,251.046,206.367z"/>
				</g>
			</g>
			<g>
				<g>
					<path fill="#FFFFFF" d="M270.098,203.948c-0.018,0.016-0.165-0.123-0.397-0.407c-0.231-0.283-0.536-0.721-0.844-1.301
						c-0.614-1.151-1.176-2.96-1.014-4.985c0.165-2.024,1.011-3.721,1.804-4.758c0.395-0.525,0.764-0.909,1.039-1.149
						c0.273-0.242,0.444-0.356,0.457-0.338c0.047,0.047-0.569,0.576-1.287,1.637c-0.718,1.048-1.489,2.695-1.647,4.638
						c-0.156,1.941,0.343,3.69,0.881,4.842C269.63,203.289,270.152,203.909,270.098,203.948z"/>
				</g>
			</g>
			<g>
				<g>
					
						<ellipse transform="matrix(0.4483 -0.8939 0.8939 0.4483 -33.1639 357.0521)" fill="#FFFFFF" cx="272.665" cy="205.392" rx="0.183" ry="0.761"/>
				</g>
			</g>
		</g>
	</g>
	<g>
		<g>
			<path fill="#E0E0E0" d="M210.682,351.479h-97.483L98.515,284.36c-0.716-3.267,1.777-6.354,5.12-6.347l86.411,0.188
				c2.442,0.006,4.556,1.7,5.091,4.083L210.682,351.479z"/>
		</g>
		<g>
			<path fill="#E0E0E0" d="M210.682,351.479h46.137l0,0c0-3.274-2.653-5.93-5.928-5.93h-45.459L210.682,351.479z"/>
		</g>
		<g>
			<g>
				<path fill="#263238" d="M205.432,351.479c-0.007,0.001-0.028-0.062-0.066-0.184c-0.041-0.145-0.091-0.325-0.154-0.552
					c-0.136-0.51-0.323-1.222-0.564-2.12c-0.481-1.843-1.156-4.518-1.97-7.826c-1.631-6.616-3.774-15.782-6.088-25.919
					c-2.317-10.137-4.42-19.312-5.985-25.943c-0.78-3.294-1.413-5.968-1.858-7.851c-0.21-0.906-0.376-1.623-0.496-2.138
					c-0.049-0.228-0.09-0.41-0.121-0.559c-0.024-0.124-0.035-0.19-0.028-0.192c0.006-0.001,0.028,0.062,0.066,0.185
					c0.041,0.144,0.092,0.324,0.155,0.549c0.135,0.512,0.324,1.222,0.563,2.121c0.485,1.842,1.158,4.517,1.972,7.825
					c1.629,6.616,3.775,15.784,6.09,25.922c2.314,10.136,4.418,19.31,5.984,25.94c0.78,3.294,1.411,5.971,1.857,7.853
					c0.212,0.907,0.377,1.622,0.496,2.137c0.05,0.229,0.089,0.412,0.12,0.559C205.429,351.413,205.438,351.479,205.432,351.479z"/>
			</g>
		</g>
		<g>
			<path fill="#FFFFFF" d="M148.929,307.29c-1.552-0.33-3.029,1.095-3.373,2.643c-0.385,1.731,0.337,3.674,1.802,4.669
				c1.465,0.995,3.588,0.931,4.945-0.209c1.355-1.139,1.772-3.279,0.88-4.809c-0.892-1.53-4.168-2.876-5.755-2.089"/>
		</g>
	</g>
</g>
</svg>
